<?xml version="1.0" encoding="utf-8" standalone="no"?>
<!DOCTYPE svg PUBLIC "-//W3C//DTD SVG 1.1//EN"
  "http://www.w3.org/Graphics/SVG/1.1/DTD/svg11.dtd">
<!-- Created with matplotlib (https://matplotlib.org/) -->
<svg height="504pt" version="1.1" viewBox="0 0 1152 504" width="1152pt" xmlns="http://www.w3.org/2000/svg" xmlns:xlink="http://www.w3.org/1999/xlink">
 <metadata>
  <rdf:RDF xmlns:cc="http://creativecommons.org/ns#" xmlns:dc="http://purl.org/dc/elements/1.1/" xmlns:rdf="http://www.w3.org/1999/02/22-rdf-syntax-ns#">
   <cc:Work>
    <dc:type rdf:resource="http://purl.org/dc/dcmitype/StillImage"/>
    <dc:date>2020-09-11T21:29:05.450609</dc:date>
    <dc:format>image/svg+xml</dc:format>
    <dc:creator>
     <cc:Agent>
      <dc:title>Matplotlib v3.3.1, https://matplotlib.org/</dc:title>
     </cc:Agent>
    </dc:creator>
   </cc:Work>
  </rdf:RDF>
 </metadata>
 <defs>
  <style type="text/css">*{stroke-linecap:butt;stroke-linejoin:round;}</style>
 </defs>
 <g id="figure_1">
  <g id="patch_1">
   <path d="M 0 504 
L 1152 504 
L 1152 0 
L 0 0 
z
" style="fill:#ffffff;"/>
  </g>
  <g id="axes_1">
   <g id="patch_2">
    <path d="M 144 441 
L 1036.8 441 
L 1036.8 60.48 
L 144 60.48 
z
" style="fill:#ffffff;"/>
   </g>
   <g id="matplotlib.axis_1">
    <g id="xtick_1">
     <g id="line2d_1">
      <path clip-path="url(#p462078c3d9)" d="M 265.745455 441 
L 265.745455 60.48 
" style="fill:none;stroke:#cccccc;stroke-linecap:round;"/>
     </g>
     <g id="text_1">
      <!-- 1400 -->
      <g style="fill:#262626;" transform="translate(253.511392 458.373594)scale(0.11 -0.11)">
       <defs>
        <path d="M 37.25 0 
L 28.46875 0 
L 28.46875 56 
Q 25.296875 52.984375 20.140625 49.953125 
Q 14.984375 46.921875 10.890625 45.40625 
L 10.890625 53.90625 
Q 18.265625 57.375 23.78125 62.296875 
Q 29.296875 67.234375 31.59375 71.875 
L 37.25 71.875 
z
" id="ArialMT-49"/>
        <path d="M 32.328125 0 
L 32.328125 17.140625 
L 1.265625 17.140625 
L 1.265625 25.203125 
L 33.9375 71.578125 
L 41.109375 71.578125 
L 41.109375 25.203125 
L 50.78125 25.203125 
L 50.78125 17.140625 
L 41.109375 17.140625 
L 41.109375 0 
z
M 32.328125 25.203125 
L 32.328125 57.46875 
L 9.90625 25.203125 
z
" id="ArialMT-52"/>
        <path d="M 4.15625 35.296875 
Q 4.15625 48 6.765625 55.734375 
Q 9.375 63.484375 14.515625 67.671875 
Q 19.671875 71.875 27.484375 71.875 
Q 33.25 71.875 37.59375 69.546875 
Q 41.9375 67.234375 44.765625 62.859375 
Q 47.609375 58.5 49.21875 52.21875 
Q 50.828125 45.953125 50.828125 35.296875 
Q 50.828125 22.703125 48.234375 14.96875 
Q 45.65625 7.234375 40.5 3 
Q 35.359375 -1.21875 27.484375 -1.21875 
Q 17.140625 -1.21875 11.234375 6.203125 
Q 4.15625 15.140625 4.15625 35.296875 
z
M 13.1875 35.296875 
Q 13.1875 17.671875 17.3125 11.828125 
Q 21.4375 6 27.484375 6 
Q 33.546875 6 37.671875 11.859375 
Q 41.796875 17.71875 41.796875 35.296875 
Q 41.796875 52.984375 37.671875 58.78125 
Q 33.546875 64.59375 27.390625 64.59375 
Q 21.34375 64.59375 17.71875 59.46875 
Q 13.1875 52.9375 13.1875 35.296875 
z
" id="ArialMT-48"/>
       </defs>
       <use xlink:href="#ArialMT-49"/>
       <use x="55.615234" xlink:href="#ArialMT-52"/>
       <use x="111.230469" xlink:href="#ArialMT-48"/>
       <use x="166.845703" xlink:href="#ArialMT-48"/>
      </g>
     </g>
    </g>
    <g id="xtick_2">
     <g id="line2d_2">
      <path clip-path="url(#p462078c3d9)" d="M 395.607273 441 
L 395.607273 60.48 
" style="fill:none;stroke:#cccccc;stroke-linecap:round;"/>
     </g>
     <g id="text_2">
      <!-- 1500 -->
      <g style="fill:#262626;" transform="translate(383.37321 458.373594)scale(0.11 -0.11)">
       <defs>
        <path d="M 4.15625 18.75 
L 13.375 19.53125 
Q 14.40625 12.796875 18.140625 9.390625 
Q 21.875 6 27.15625 6 
Q 33.5 6 37.890625 10.78125 
Q 42.28125 15.578125 42.28125 23.484375 
Q 42.28125 31 38.0625 35.34375 
Q 33.84375 39.703125 27 39.703125 
Q 22.75 39.703125 19.328125 37.765625 
Q 15.921875 35.84375 13.96875 32.765625 
L 5.71875 33.84375 
L 12.640625 70.609375 
L 48.25 70.609375 
L 48.25 62.203125 
L 19.671875 62.203125 
L 15.828125 42.96875 
Q 22.265625 47.46875 29.34375 47.46875 
Q 38.71875 47.46875 45.15625 40.96875 
Q 51.609375 34.46875 51.609375 24.265625 
Q 51.609375 14.546875 45.953125 7.46875 
Q 39.0625 -1.21875 27.15625 -1.21875 
Q 17.390625 -1.21875 11.203125 4.25 
Q 5.03125 9.71875 4.15625 18.75 
z
" id="ArialMT-53"/>
       </defs>
       <use xlink:href="#ArialMT-49"/>
       <use x="55.615234" xlink:href="#ArialMT-53"/>
       <use x="111.230469" xlink:href="#ArialMT-48"/>
       <use x="166.845703" xlink:href="#ArialMT-48"/>
      </g>
     </g>
    </g>
    <g id="xtick_3">
     <g id="line2d_3">
      <path clip-path="url(#p462078c3d9)" d="M 525.469091 441 
L 525.469091 60.48 
" style="fill:none;stroke:#cccccc;stroke-linecap:round;"/>
     </g>
     <g id="text_3">
      <!-- 1600 -->
      <g style="fill:#262626;" transform="translate(513.235028 458.373594)scale(0.11 -0.11)">
       <defs>
        <path d="M 49.75 54.046875 
L 41.015625 53.375 
Q 39.84375 58.546875 37.703125 60.890625 
Q 34.125 64.65625 28.90625 64.65625 
Q 24.703125 64.65625 21.53125 62.3125 
Q 17.390625 59.28125 14.984375 53.46875 
Q 12.59375 47.65625 12.5 36.921875 
Q 15.671875 41.75 20.265625 44.09375 
Q 24.859375 46.4375 29.890625 46.4375 
Q 38.671875 46.4375 44.84375 39.96875 
Q 51.03125 33.5 51.03125 23.25 
Q 51.03125 16.5 48.125 10.71875 
Q 45.21875 4.9375 40.140625 1.859375 
Q 35.0625 -1.21875 28.609375 -1.21875 
Q 17.625 -1.21875 10.6875 6.859375 
Q 3.765625 14.9375 3.765625 33.5 
Q 3.765625 54.25 11.421875 63.671875 
Q 18.109375 71.875 29.4375 71.875 
Q 37.890625 71.875 43.28125 67.140625 
Q 48.6875 62.40625 49.75 54.046875 
z
M 13.875 23.1875 
Q 13.875 18.65625 15.796875 14.5 
Q 17.71875 10.359375 21.1875 8.171875 
Q 24.65625 6 28.46875 6 
Q 34.03125 6 38.03125 10.484375 
Q 42.046875 14.984375 42.046875 22.703125 
Q 42.046875 30.125 38.078125 34.390625 
Q 34.125 38.671875 28.125 38.671875 
Q 22.171875 38.671875 18.015625 34.390625 
Q 13.875 30.125 13.875 23.1875 
z
" id="ArialMT-54"/>
       </defs>
       <use xlink:href="#ArialMT-49"/>
       <use x="55.615234" xlink:href="#ArialMT-54"/>
       <use x="111.230469" xlink:href="#ArialMT-48"/>
       <use x="166.845703" xlink:href="#ArialMT-48"/>
      </g>
     </g>
    </g>
    <g id="xtick_4">
     <g id="line2d_4">
      <path clip-path="url(#p462078c3d9)" d="M 655.330909 441 
L 655.330909 60.48 
" style="fill:none;stroke:#cccccc;stroke-linecap:round;"/>
     </g>
     <g id="text_4">
      <!-- 1700 -->
      <g style="fill:#262626;" transform="translate(643.096847 458.373594)scale(0.11 -0.11)">
       <defs>
        <path d="M 4.734375 62.203125 
L 4.734375 70.65625 
L 51.078125 70.65625 
L 51.078125 63.8125 
Q 44.234375 56.546875 37.515625 44.484375 
Q 30.8125 32.421875 27.15625 19.671875 
Q 24.515625 10.6875 23.78125 0 
L 14.75 0 
Q 14.890625 8.453125 18.0625 20.40625 
Q 21.234375 32.375 27.171875 43.484375 
Q 33.109375 54.59375 39.796875 62.203125 
z
" id="ArialMT-55"/>
       </defs>
       <use xlink:href="#ArialMT-49"/>
       <use x="55.615234" xlink:href="#ArialMT-55"/>
       <use x="111.230469" xlink:href="#ArialMT-48"/>
       <use x="166.845703" xlink:href="#ArialMT-48"/>
      </g>
     </g>
    </g>
    <g id="xtick_5">
     <g id="line2d_5">
      <path clip-path="url(#p462078c3d9)" d="M 785.192727 441 
L 785.192727 60.48 
" style="fill:none;stroke:#cccccc;stroke-linecap:round;"/>
     </g>
     <g id="text_5">
      <!-- 1800 -->
      <g style="fill:#262626;" transform="translate(772.958665 458.373594)scale(0.11 -0.11)">
       <defs>
        <path d="M 17.671875 38.8125 
Q 12.203125 40.828125 9.5625 44.53125 
Q 6.9375 48.25 6.9375 53.421875 
Q 6.9375 61.234375 12.546875 66.546875 
Q 18.171875 71.875 27.484375 71.875 
Q 36.859375 71.875 42.578125 66.421875 
Q 48.296875 60.984375 48.296875 53.171875 
Q 48.296875 48.1875 45.671875 44.5 
Q 43.0625 40.828125 37.75 38.8125 
Q 44.34375 36.671875 47.78125 31.875 
Q 51.21875 27.09375 51.21875 20.453125 
Q 51.21875 11.28125 44.71875 5.03125 
Q 38.234375 -1.21875 27.640625 -1.21875 
Q 17.046875 -1.21875 10.546875 5.046875 
Q 4.046875 11.328125 4.046875 20.703125 
Q 4.046875 27.6875 7.59375 32.390625 
Q 11.140625 37.109375 17.671875 38.8125 
z
M 15.921875 53.71875 
Q 15.921875 48.640625 19.1875 45.40625 
Q 22.46875 42.1875 27.6875 42.1875 
Q 32.765625 42.1875 36.015625 45.375 
Q 39.265625 48.578125 39.265625 53.21875 
Q 39.265625 58.0625 35.90625 61.359375 
Q 32.5625 64.65625 27.59375 64.65625 
Q 22.5625 64.65625 19.234375 61.421875 
Q 15.921875 58.203125 15.921875 53.71875 
z
M 13.09375 20.65625 
Q 13.09375 16.890625 14.875 13.375 
Q 16.65625 9.859375 20.171875 7.921875 
Q 23.6875 6 27.734375 6 
Q 34.03125 6 38.125 10.046875 
Q 42.234375 14.109375 42.234375 20.359375 
Q 42.234375 26.703125 38.015625 30.859375 
Q 33.796875 35.015625 27.4375 35.015625 
Q 21.234375 35.015625 17.15625 30.90625 
Q 13.09375 26.8125 13.09375 20.65625 
z
" id="ArialMT-56"/>
       </defs>
       <use xlink:href="#ArialMT-49"/>
       <use x="55.615234" xlink:href="#ArialMT-56"/>
       <use x="111.230469" xlink:href="#ArialMT-48"/>
       <use x="166.845703" xlink:href="#ArialMT-48"/>
      </g>
     </g>
    </g>
    <g id="xtick_6">
     <g id="line2d_6">
      <path clip-path="url(#p462078c3d9)" d="M 915.054545 441 
L 915.054545 60.48 
" style="fill:none;stroke:#cccccc;stroke-linecap:round;"/>
     </g>
     <g id="text_6">
      <!-- 1900 -->
      <g style="fill:#262626;" transform="translate(902.820483 458.373594)scale(0.11 -0.11)">
       <defs>
        <path d="M 5.46875 16.546875 
L 13.921875 17.328125 
Q 14.984375 11.375 18.015625 8.6875 
Q 21.046875 6 25.78125 6 
Q 29.828125 6 32.875 7.859375 
Q 35.9375 9.71875 37.890625 12.8125 
Q 39.84375 15.921875 41.15625 21.1875 
Q 42.484375 26.46875 42.484375 31.9375 
Q 42.484375 32.515625 42.4375 33.6875 
Q 39.796875 29.5 35.234375 26.875 
Q 30.671875 24.265625 25.34375 24.265625 
Q 16.453125 24.265625 10.296875 30.703125 
Q 4.15625 37.15625 4.15625 47.703125 
Q 4.15625 58.59375 10.578125 65.234375 
Q 17 71.875 26.65625 71.875 
Q 33.640625 71.875 39.421875 68.109375 
Q 45.21875 64.359375 48.21875 57.390625 
Q 51.21875 50.4375 51.21875 37.25 
Q 51.21875 23.53125 48.234375 15.40625 
Q 45.265625 7.28125 39.375 3.03125 
Q 33.5 -1.21875 25.59375 -1.21875 
Q 17.1875 -1.21875 11.859375 3.4375 
Q 6.546875 8.109375 5.46875 16.546875 
z
M 41.453125 48.140625 
Q 41.453125 55.71875 37.421875 60.15625 
Q 33.40625 64.59375 27.734375 64.59375 
Q 21.875 64.59375 17.53125 59.8125 
Q 13.1875 55.03125 13.1875 47.40625 
Q 13.1875 40.578125 17.3125 36.296875 
Q 21.4375 32.03125 27.484375 32.03125 
Q 33.59375 32.03125 37.515625 36.296875 
Q 41.453125 40.578125 41.453125 48.140625 
z
" id="ArialMT-57"/>
       </defs>
       <use xlink:href="#ArialMT-49"/>
       <use x="55.615234" xlink:href="#ArialMT-57"/>
       <use x="111.230469" xlink:href="#ArialMT-48"/>
       <use x="166.845703" xlink:href="#ArialMT-48"/>
      </g>
     </g>
    </g>
   </g>
   <g id="matplotlib.axis_2">
    <g id="ytick_1">
     <g id="line2d_7">
      <path clip-path="url(#p462078c3d9)" d="M 144 441 
L 1036.8 441 
" style="fill:none;stroke:#cccccc;stroke-linecap:round;"/>
     </g>
     <g id="text_7">
      <!-- 0 -->
      <g style="fill:#262626;" transform="translate(128.382969 444.936797)scale(0.11 -0.11)">
       <use xlink:href="#ArialMT-48"/>
      </g>
     </g>
    </g>
    <g id="ytick_2">
     <g id="line2d_8">
      <path clip-path="url(#p462078c3d9)" d="M 144 382.525932 
L 1036.8 382.525932 
" style="fill:none;stroke:#cccccc;stroke-linecap:round;"/>
     </g>
     <g id="text_8">
      <!-- 100 -->
      <g style="fill:#262626;" transform="translate(116.148906 386.462728)scale(0.11 -0.11)">
       <use xlink:href="#ArialMT-49"/>
       <use x="55.615234" xlink:href="#ArialMT-48"/>
       <use x="111.230469" xlink:href="#ArialMT-48"/>
      </g>
     </g>
    </g>
    <g id="ytick_3">
     <g id="line2d_9">
      <path clip-path="url(#p462078c3d9)" d="M 144 324.051863 
L 1036.8 324.051863 
" style="fill:none;stroke:#cccccc;stroke-linecap:round;"/>
     </g>
     <g id="text_9">
      <!-- 200 -->
      <g style="fill:#262626;" transform="translate(116.148906 327.98866)scale(0.11 -0.11)">
       <defs>
        <path d="M 50.34375 8.453125 
L 50.34375 0 
L 3.03125 0 
Q 2.9375 3.171875 4.046875 6.109375 
Q 5.859375 10.9375 9.828125 15.625 
Q 13.8125 20.3125 21.34375 26.46875 
Q 33.015625 36.03125 37.109375 41.625 
Q 41.21875 47.21875 41.21875 52.203125 
Q 41.21875 57.421875 37.46875 61 
Q 33.734375 64.59375 27.734375 64.59375 
Q 21.390625 64.59375 17.578125 60.78125 
Q 13.765625 56.984375 13.71875 50.25 
L 4.6875 51.171875 
Q 5.609375 61.28125 11.65625 66.578125 
Q 17.71875 71.875 27.9375 71.875 
Q 38.234375 71.875 44.234375 66.15625 
Q 50.25 60.453125 50.25 52 
Q 50.25 47.703125 48.484375 43.546875 
Q 46.734375 39.40625 42.65625 34.8125 
Q 38.578125 30.21875 29.109375 22.21875 
Q 21.1875 15.578125 18.9375 13.203125 
Q 16.703125 10.84375 15.234375 8.453125 
z
" id="ArialMT-50"/>
       </defs>
       <use xlink:href="#ArialMT-50"/>
       <use x="55.615234" xlink:href="#ArialMT-48"/>
       <use x="111.230469" xlink:href="#ArialMT-48"/>
      </g>
     </g>
    </g>
    <g id="ytick_4">
     <g id="line2d_10">
      <path clip-path="url(#p462078c3d9)" d="M 144 265.577795 
L 1036.8 265.577795 
" style="fill:none;stroke:#cccccc;stroke-linecap:round;"/>
     </g>
     <g id="text_10">
      <!-- 300 -->
      <g style="fill:#262626;" transform="translate(116.148906 269.514592)scale(0.11 -0.11)">
       <defs>
        <path d="M 4.203125 18.890625 
L 12.984375 20.0625 
Q 14.5 12.59375 18.140625 9.296875 
Q 21.78125 6 27 6 
Q 33.203125 6 37.46875 10.296875 
Q 41.75 14.59375 41.75 20.953125 
Q 41.75 27 37.796875 30.921875 
Q 33.84375 34.859375 27.734375 34.859375 
Q 25.25 34.859375 21.53125 33.890625 
L 22.515625 41.609375 
Q 23.390625 41.5 23.921875 41.5 
Q 29.546875 41.5 34.03125 44.421875 
Q 38.53125 47.359375 38.53125 53.46875 
Q 38.53125 58.296875 35.25 61.46875 
Q 31.984375 64.65625 26.8125 64.65625 
Q 21.6875 64.65625 18.265625 61.421875 
Q 14.84375 58.203125 13.875 51.765625 
L 5.078125 53.328125 
Q 6.6875 62.15625 12.390625 67.015625 
Q 18.109375 71.875 26.609375 71.875 
Q 32.46875 71.875 37.390625 69.359375 
Q 42.328125 66.84375 44.9375 62.5 
Q 47.5625 58.15625 47.5625 53.265625 
Q 47.5625 48.640625 45.0625 44.828125 
Q 42.578125 41.015625 37.703125 38.765625 
Q 44.046875 37.3125 47.5625 32.6875 
Q 51.078125 28.078125 51.078125 21.140625 
Q 51.078125 11.765625 44.234375 5.25 
Q 37.40625 -1.265625 26.953125 -1.265625 
Q 17.53125 -1.265625 11.296875 4.34375 
Q 5.078125 9.96875 4.203125 18.890625 
z
" id="ArialMT-51"/>
       </defs>
       <use xlink:href="#ArialMT-51"/>
       <use x="55.615234" xlink:href="#ArialMT-48"/>
       <use x="111.230469" xlink:href="#ArialMT-48"/>
      </g>
     </g>
    </g>
    <g id="ytick_5">
     <g id="line2d_11">
      <path clip-path="url(#p462078c3d9)" d="M 144 207.103726 
L 1036.8 207.103726 
" style="fill:none;stroke:#cccccc;stroke-linecap:round;"/>
     </g>
     <g id="text_11">
      <!-- 400 -->
      <g style="fill:#262626;" transform="translate(116.148906 211.040523)scale(0.11 -0.11)">
       <use xlink:href="#ArialMT-52"/>
       <use x="55.615234" xlink:href="#ArialMT-48"/>
       <use x="111.230469" xlink:href="#ArialMT-48"/>
      </g>
     </g>
    </g>
    <g id="ytick_6">
     <g id="line2d_12">
      <path clip-path="url(#p462078c3d9)" d="M 144 148.629658 
L 1036.8 148.629658 
" style="fill:none;stroke:#cccccc;stroke-linecap:round;"/>
     </g>
     <g id="text_12">
      <!-- 500 -->
      <g style="fill:#262626;" transform="translate(116.148906 152.566455)scale(0.11 -0.11)">
       <use xlink:href="#ArialMT-53"/>
       <use x="55.615234" xlink:href="#ArialMT-48"/>
       <use x="111.230469" xlink:href="#ArialMT-48"/>
      </g>
     </g>
    </g>
    <g id="ytick_7">
     <g id="line2d_13">
      <path clip-path="url(#p462078c3d9)" d="M 144 90.15559 
L 1036.8 90.15559 
" style="fill:none;stroke:#cccccc;stroke-linecap:round;"/>
     </g>
     <g id="text_13">
      <!-- 600 -->
      <g style="fill:#262626;" transform="translate(116.148906 94.092387)scale(0.11 -0.11)">
       <use xlink:href="#ArialMT-54"/>
       <use x="55.615234" xlink:href="#ArialMT-48"/>
       <use x="111.230469" xlink:href="#ArialMT-48"/>
      </g>
     </g>
    </g>
   </g>
   <g id="PolyCollection_1">
    <defs>
     <path d="M 216.768456 -63 
L 184.860635 -63 
L 184.667581 -66.543883 
L 184.581818 -70.087766 
L 184.600631 -73.631649 
L 184.71854 -77.175532 
L 184.927546 -80.719415 
L 185.217471 -84.263298 
L 185.576388 -87.807181 
L 185.991113 -91.351063 
L 186.447729 -94.894946 
L 186.932122 -98.438829 
L 187.430498 -101.982712 
L 187.929865 -105.526595 
L 188.418443 -109.070478 
L 188.886014 -112.614361 
L 189.324165 -116.158244 
L 189.726459 -119.702127 
L 190.088495 -123.24601 
L 190.407892 -126.789893 
L 190.684191 -130.333776 
L 190.91868 -133.877659 
L 191.114175 -137.421542 
L 191.274758 -140.965425 
L 191.405485 -144.509307 
L 191.512095 -148.05319 
L 191.60071 -151.597073 
L 191.677563 -155.140956 
L 191.748745 -158.684839 
L 191.819985 -162.228722 
L 191.896475 -165.772605 
L 191.982726 -169.316488 
L 192.082481 -172.860371 
L 192.198653 -176.404254 
L 192.333317 -179.948137 
L 192.487724 -183.49202 
L 192.662354 -187.035903 
L 192.856987 -190.579786 
L 193.070791 -194.123668 
L 193.302426 -197.667551 
L 193.550148 -201.211434 
L 193.811915 -204.755317 
L 194.085487 -208.2992 
L 194.368522 -211.843083 
L 194.658649 -215.386966 
L 194.953543 -218.930849 
L 195.25097 -222.474732 
L 195.548831 -226.018615 
L 195.845183 -229.562498 
L 196.138255 -233.106381 
L 196.42645 -236.650264 
L 196.708343 -240.194147 
L 196.982673 -243.73803 
L 197.248331 -247.281912 
L 197.504346 -250.825795 
L 197.749882 -254.369678 
L 197.98422 -257.913561 
L 198.20676 -261.457444 
L 198.417012 -265.001327 
L 198.614601 -268.54521 
L 198.799259 -272.089093 
L 198.970836 -275.632976 
L 199.129293 -279.176859 
L 199.274706 -282.720742 
L 199.407259 -286.264625 
L 199.527238 -289.808508 
L 199.635022 -293.352391 
L 199.731065 -296.896274 
L 199.81588 -300.440156 
L 199.890014 -303.984039 
L 199.954029 -307.527922 
L 200.008474 -311.071805 
L 200.053862 -314.615688 
L 200.090653 -318.159571 
L 200.11923 -321.703454 
L 200.139897 -325.247337 
L 200.152867 -328.79122 
L 200.158271 -332.335103 
L 200.156164 -335.878986 
L 200.146551 -339.422869 
L 200.129409 -342.966752 
L 200.104721 -346.510635 
L 200.072513 -350.054518 
L 200.032894 -353.5984 
L 199.986095 -357.142283 
L 199.932503 -360.686166 
L 199.872693 -364.230049 
L 199.807447 -367.773932 
L 199.737768 -371.317815 
L 199.664877 -374.861698 
L 199.590199 -378.405581 
L 199.515335 -381.949464 
L 199.442023 -385.493347 
L 199.372085 -389.03723 
L 199.30737 -392.581113 
L 199.249683 -396.124996 
L 199.200719 -399.668879 
L 199.161997 -403.212761 
L 199.134797 -406.756644 
L 199.120108 -410.300527 
L 199.118583 -413.84441 
L 202.510507 -413.84441 
L 202.510507 -413.84441 
L 202.508983 -410.300527 
L 202.494294 -406.756644 
L 202.467094 -403.212761 
L 202.428372 -399.668879 
L 202.379408 -396.124996 
L 202.321721 -392.581113 
L 202.257006 -389.03723 
L 202.187068 -385.493347 
L 202.113756 -381.949464 
L 202.038892 -378.405581 
L 201.964214 -374.861698 
L 201.891323 -371.317815 
L 201.821644 -367.773932 
L 201.756398 -364.230049 
L 201.696588 -360.686166 
L 201.642996 -357.142283 
L 201.596197 -353.5984 
L 201.556578 -350.054518 
L 201.52437 -346.510635 
L 201.499682 -342.966752 
L 201.482539 -339.422869 
L 201.472927 -335.878986 
L 201.47082 -332.335103 
L 201.476224 -328.79122 
L 201.489194 -325.247337 
L 201.509861 -321.703454 
L 201.538438 -318.159571 
L 201.575229 -314.615688 
L 201.620617 -311.071805 
L 201.675062 -307.527922 
L 201.739077 -303.984039 
L 201.813211 -300.440156 
L 201.898026 -296.896274 
L 201.994069 -293.352391 
L 202.101853 -289.808508 
L 202.221832 -286.264625 
L 202.354385 -282.720742 
L 202.499798 -279.176859 
L 202.658255 -275.632976 
L 202.829832 -272.089093 
L 203.01449 -268.54521 
L 203.212078 -265.001327 
L 203.422331 -261.457444 
L 203.644871 -257.913561 
L 203.879209 -254.369678 
L 204.124745 -250.825795 
L 204.38076 -247.281912 
L 204.646418 -243.73803 
L 204.920748 -240.194147 
L 205.202641 -236.650264 
L 205.490836 -233.106381 
L 205.783908 -229.562498 
L 206.08026 -226.018615 
L 206.378121 -222.474732 
L 206.675548 -218.930849 
L 206.970442 -215.386966 
L 207.260569 -211.843083 
L 207.543604 -208.2992 
L 207.817176 -204.755317 
L 208.078943 -201.211434 
L 208.326665 -197.667551 
L 208.5583 -194.123668 
L 208.772104 -190.579786 
L 208.966736 -187.035903 
L 209.141367 -183.49202 
L 209.295774 -179.948137 
L 209.430438 -176.404254 
L 209.54661 -172.860371 
L 209.646365 -169.316488 
L 209.732616 -165.772605 
L 209.809106 -162.228722 
L 209.880346 -158.684839 
L 209.951528 -155.140956 
L 210.028381 -151.597073 
L 210.116996 -148.05319 
L 210.223605 -144.509307 
L 210.354333 -140.965425 
L 210.514916 -137.421542 
L 210.710411 -133.877659 
L 210.9449 -130.333776 
L 211.221198 -126.789893 
L 211.540596 -123.24601 
L 211.902632 -119.702127 
L 212.304926 -116.158244 
L 212.743077 -112.614361 
L 213.210647 -109.070478 
L 213.699226 -105.526595 
L 214.198593 -101.982712 
L 214.696969 -98.438829 
L 215.181362 -94.894946 
L 215.637978 -91.351063 
L 216.052703 -87.807181 
L 216.41162 -84.263298 
L 216.701545 -80.719415 
L 216.91055 -77.175532 
L 217.02846 -73.631649 
L 217.047273 -70.087766 
L 216.96151 -66.543883 
L 216.768456 -63 
z
" id="m3781d1fac2" style="stroke:#ffffff;stroke-opacity:0.3;"/>
    </defs>
    <g clip-path="url(#p462078c3d9)">
     <use style="fill:#4c72b0;fill-opacity:0.3;stroke:#ffffff;stroke-opacity:0.3;" x="0" xlink:href="#m3781d1fac2" y="504"/>
    </g>
   </g>
   <g id="PolyCollection_2">
    <defs>
     <path d="M 281.560074 -63 
L 249.930836 -63 
L 249.606065 -66.248559 
L 249.512727 -69.497119 
L 249.632991 -72.745678 
L 249.936907 -75.994237 
L 250.385744 -79.242797 
L 250.935947 -82.491356 
L 251.543209 -85.739915 
L 252.166166 -88.988475 
L 252.76934 -92.237034 
L 253.325116 -95.485594 
L 253.81467 -98.734153 
L 254.227925 -101.982712 
L 254.562715 -105.231272 
L 254.823394 -108.479831 
L 255.019138 -111.72839 
L 255.162206 -114.97695 
L 255.266328 -118.225509 
L 255.34539 -121.474068 
L 255.412465 -124.722628 
L 255.479215 -127.971187 
L 255.555599 -131.219746 
L 255.64983 -134.468306 
L 255.768456 -137.716865 
L 255.916497 -140.965425 
L 256.097559 -144.213984 
L 256.313908 -147.462543 
L 256.566505 -150.711103 
L 256.855023 -153.959662 
L 257.177898 -157.208221 
L 257.532427 -160.456781 
L 257.914922 -163.70534 
L 258.320906 -166.953899 
L 258.745317 -170.202459 
L 259.182685 -173.451018 
L 259.627251 -176.699577 
L 260.07304 -179.948137 
L 260.513894 -183.196696 
L 260.943506 -186.445255 
L 261.355512 -189.693815 
L 261.74366 -192.942374 
L 262.102082 -196.190934 
L 262.425659 -199.439493 
L 262.710431 -202.688052 
L 262.953999 -205.936612 
L 263.155854 -209.185171 
L 263.317562 -212.43373 
L 263.442767 -215.68229 
L 263.536979 -218.930849 
L 263.607162 -222.179408 
L 263.661148 -225.427968 
L 263.706949 -228.676527 
L 263.752022 -231.925086 
L 263.802593 -235.173646 
L 263.863102 -238.422205 
L 263.935847 -241.670765 
L 264.020861 -244.919324 
L 264.116045 -248.167883 
L 264.21753 -251.416443 
L 264.320235 -254.665002 
L 264.418539 -257.913561 
L 264.506994 -261.162121 
L 264.580992 -264.41068 
L 264.637308 -267.659239 
L 264.674466 -270.907799 
L 264.692885 -274.156358 
L 264.694807 -277.404917 
L 264.684016 -280.653477 
L 264.665403 -283.902036 
L 264.644416 -287.150595 
L 264.626488 -290.399155 
L 264.616491 -293.647714 
L 264.618285 -296.896274 
L 264.634407 -300.144833 
L 264.665929 -303.393392 
L 264.712471 -306.641952 
L 264.772369 -309.890511 
L 264.842944 -313.13907 
L 264.920842 -316.38763 
L 265.00237 -319.636189 
L 265.083826 -322.884748 
L 265.161746 -326.133308 
L 265.233091 -329.381867 
L 265.295358 -332.630426 
L 265.346619 -335.878986 
L 265.385527 -339.127545 
L 265.411301 -342.376104 
L 265.423705 -345.624664 
L 265.423035 -348.873223 
L 265.410123 -352.121783 
L 265.386336 -355.370342 
L 265.35357 -358.618901 
L 265.314216 -361.867461 
L 265.271077 -365.11602 
L 265.22725 -368.364579 
L 265.185942 -371.613139 
L 265.150263 -374.861698 
L 265.122992 -378.110257 
L 265.106355 -381.358817 
L 265.101849 -384.607376 
L 266.38906 -384.607376 
L 266.38906 -384.607376 
L 266.384554 -381.358817 
L 266.367918 -378.110257 
L 266.340646 -374.861698 
L 266.304967 -371.613139 
L 266.263659 -368.364579 
L 266.219832 -365.11602 
L 266.176693 -361.867461 
L 266.137339 -358.618901 
L 266.104573 -355.370342 
L 266.080787 -352.121783 
L 266.067874 -348.873223 
L 266.067204 -345.624664 
L 266.079608 -342.376104 
L 266.105382 -339.127545 
L 266.144291 -335.878986 
L 266.195551 -332.630426 
L 266.257818 -329.381867 
L 266.329164 -326.133308 
L 266.407083 -322.884748 
L 266.488539 -319.636189 
L 266.570067 -316.38763 
L 266.647965 -313.13907 
L 266.718541 -309.890511 
L 266.778438 -306.641952 
L 266.82498 -303.393392 
L 266.856502 -300.144833 
L 266.872624 -296.896274 
L 266.874418 -293.647714 
L 266.864421 -290.399155 
L 266.846493 -287.150595 
L 266.825506 -283.902036 
L 266.806893 -280.653477 
L 266.796102 -277.404917 
L 266.798024 -274.156358 
L 266.816443 -270.907799 
L 266.853601 -267.659239 
L 266.909917 -264.41068 
L 266.983915 -261.162121 
L 267.07237 -257.913561 
L 267.170674 -254.665002 
L 267.273379 -251.416443 
L 267.374864 -248.167883 
L 267.470048 -244.919324 
L 267.555062 -241.670765 
L 267.627807 -238.422205 
L 267.688316 -235.173646 
L 267.738887 -231.925086 
L 267.78396 -228.676527 
L 267.829761 -225.427968 
L 267.883747 -222.179408 
L 267.95393 -218.930849 
L 268.048142 -215.68229 
L 268.173347 -212.43373 
L 268.335055 -209.185171 
L 268.53691 -205.936612 
L 268.780478 -202.688052 
L 269.06525 -199.439493 
L 269.388827 -196.190934 
L 269.747249 -192.942374 
L 270.135397 -189.693815 
L 270.547403 -186.445255 
L 270.977015 -183.196696 
L 271.417869 -179.948137 
L 271.863658 -176.699577 
L 272.308225 -173.451018 
L 272.745592 -170.202459 
L 273.170003 -166.953899 
L 273.575987 -163.70534 
L 273.958482 -160.456781 
L 274.313011 -157.208221 
L 274.635886 -153.959662 
L 274.924404 -150.711103 
L 275.177001 -147.462543 
L 275.393351 -144.213984 
L 275.574412 -140.965425 
L 275.722453 -137.716865 
L 275.841079 -134.468306 
L 275.93531 -131.219746 
L 276.011694 -127.971187 
L 276.078444 -124.722628 
L 276.145519 -121.474068 
L 276.224581 -118.225509 
L 276.328703 -114.97695 
L 276.471771 -111.72839 
L 276.667515 -108.479831 
L 276.928194 -105.231272 
L 277.262984 -101.982712 
L 277.676239 -98.734153 
L 278.165793 -95.485594 
L 278.721569 -92.237034 
L 279.324743 -88.988475 
L 279.9477 -85.739915 
L 280.554962 -82.491356 
L 281.105166 -79.242797 
L 281.554002 -75.994237 
L 281.857918 -72.745678 
L 281.978182 -69.497119 
L 281.884844 -66.248559 
L 281.560074 -63 
z
" id="m3d9036102c" style="stroke:#ffffff;stroke-opacity:0.3;"/>
    </defs>
    <g clip-path="url(#p462078c3d9)">
     <use style="fill:#4c72b0;fill-opacity:0.3;stroke:#ffffff;stroke-opacity:0.3;" x="0" xlink:href="#m3d9036102c" y="504"/>
    </g>
   </g>
   <g id="PolyCollection_3">
    <defs>
     <path d="M 341.210791 -63 
L 320.141936 -63 
L 319.255459 -65.953236 
L 318.400875 -68.906472 
L 317.593258 -71.859707 
L 316.847985 -74.812943 
L 316.180294 -77.766179 
L 315.60468 -80.719415 
L 315.13414 -83.67265 
L 314.77936 -86.625886 
L 314.547917 -89.579122 
L 314.443636 -92.532358 
L 314.466193 -95.485594 
L 314.611029 -98.438829 
L 314.869625 -101.392065 
L 315.230087 -104.345301 
L 315.677996 -107.298537 
L 316.197395 -110.251772 
L 316.771814 -113.205008 
L 317.385213 -116.158244 
L 318.02276 -119.11148 
L 318.671388 -122.064716 
L 319.320124 -125.017951 
L 319.960191 -127.971187 
L 320.58494 -130.924423 
L 321.189642 -133.877659 
L 321.771201 -136.830894 
L 322.327821 -139.78413 
L 322.858671 -142.737366 
L 323.363558 -145.690602 
L 323.842644 -148.643838 
L 324.296196 -151.597073 
L 324.724408 -154.550309 
L 325.127278 -157.503545 
L 325.504565 -160.456781 
L 325.855809 -163.410016 
L 326.180423 -166.363252 
L 326.477823 -169.316488 
L 326.747599 -172.269724 
L 326.989684 -175.22296 
L 327.204507 -178.176195 
L 327.393107 -181.129431 
L 327.557193 -184.082667 
L 327.699135 -187.035903 
L 327.821895 -189.989138 
L 327.928892 -192.942374 
L 328.023815 -195.89561 
L 328.110412 -198.848846 
L 328.192261 -201.802082 
L 328.272547 -204.755317 
L 328.353882 -207.708553 
L 328.438163 -210.661789 
L 328.526498 -213.615025 
L 328.619201 -216.56826 
L 328.715858 -219.521496 
L 328.815444 -222.474732 
L 328.916498 -225.427968 
L 329.017314 -228.381204 
L 329.116138 -231.334439 
L 329.211357 -234.287675 
L 329.301644 -237.240911 
L 329.386071 -240.194147 
L 329.464168 -243.147382 
L 329.535927 -246.100618 
L 329.601771 -249.053854 
L 329.662473 -252.00709 
L 329.719059 -254.960325 
L 329.772686 -257.913561 
L 329.824523 -260.866797 
L 329.875631 -263.820033 
L 329.926868 -266.773269 
L 329.978812 -269.726504 
L 330.031719 -272.67974 
L 330.085506 -275.632976 
L 330.139765 -278.586212 
L 330.193811 -281.539447 
L 330.246735 -284.492683 
L 330.297483 -287.445919 
L 330.344922 -290.399155 
L 330.387913 -293.352391 
L 330.425371 -296.305626 
L 330.456305 -299.258862 
L 330.479854 -302.212098 
L 330.49531 -305.165334 
L 330.502134 -308.118569 
L 330.499976 -311.071805 
L 330.488693 -314.025041 
L 330.468379 -316.978277 
L 330.439402 -319.931513 
L 330.402435 -322.884748 
L 330.358489 -325.837984 
L 330.308933 -328.79122 
L 330.255485 -331.744456 
L 330.200184 -334.697691 
L 330.145316 -337.650927 
L 330.09331 -340.604163 
L 330.04661 -343.557399 
L 330.007518 -346.510635 
L 329.978037 -349.46387 
L 329.959726 -352.417106 
L 329.953582 -355.370342 
L 331.399146 -355.370342 
L 331.399146 -355.370342 
L 331.393001 -352.417106 
L 331.37469 -349.46387 
L 331.345209 -346.510635 
L 331.306117 -343.557399 
L 331.259417 -340.604163 
L 331.207411 -337.650927 
L 331.152543 -334.697691 
L 331.097242 -331.744456 
L 331.043795 -328.79122 
L 330.994238 -325.837984 
L 330.950292 -322.884748 
L 330.913325 -319.931513 
L 330.884348 -316.978277 
L 330.864035 -314.025041 
L 330.852751 -311.071805 
L 330.850593 -308.118569 
L 330.857418 -305.165334 
L 330.872874 -302.212098 
L 330.896423 -299.258862 
L 330.927356 -296.305626 
L 330.964814 -293.352391 
L 331.007805 -290.399155 
L 331.055244 -287.445919 
L 331.105992 -284.492683 
L 331.158917 -281.539447 
L 331.212962 -278.586212 
L 331.267222 -275.632976 
L 331.321008 -272.67974 
L 331.373915 -269.726504 
L 331.42586 -266.773269 
L 331.477097 -263.820033 
L 331.528204 -260.866797 
L 331.580041 -257.913561 
L 331.633668 -254.960325 
L 331.690254 -252.00709 
L 331.750956 -249.053854 
L 331.8168 -246.100618 
L 331.888559 -243.147382 
L 331.966656 -240.194147 
L 332.051084 -237.240911 
L 332.141371 -234.287675 
L 332.236589 -231.334439 
L 332.335414 -228.381204 
L 332.436229 -225.427968 
L 332.537284 -222.474732 
L 332.63687 -219.521496 
L 332.733526 -216.56826 
L 332.82623 -213.615025 
L 332.914565 -210.661789 
L 332.998845 -207.708553 
L 333.080181 -204.755317 
L 333.160467 -201.802082 
L 333.242315 -198.848846 
L 333.328912 -195.89561 
L 333.423835 -192.942374 
L 333.530832 -189.989138 
L 333.653592 -187.035903 
L 333.795535 -184.082667 
L 333.95962 -181.129431 
L 334.14822 -178.176195 
L 334.363043 -175.22296 
L 334.605128 -172.269724 
L 334.874904 -169.316488 
L 335.172304 -166.363252 
L 335.496918 -163.410016 
L 335.848163 -160.456781 
L 336.225449 -157.503545 
L 336.62832 -154.550309 
L 337.056531 -151.597073 
L 337.510083 -148.643838 
L 337.989169 -145.690602 
L 338.494057 -142.737366 
L 339.024906 -139.78413 
L 339.581526 -136.830894 
L 340.163085 -133.877659 
L 340.767787 -130.924423 
L 341.392537 -127.971187 
L 342.032604 -125.017951 
L 342.681339 -122.064716 
L 343.329967 -119.11148 
L 343.967514 -116.158244 
L 344.580913 -113.205008 
L 345.155332 -110.251772 
L 345.674731 -107.298537 
L 346.12264 -104.345301 
L 346.483103 -101.392065 
L 346.741698 -98.438829 
L 346.886534 -95.485594 
L 346.909091 -92.532358 
L 346.804811 -89.579122 
L 346.573367 -86.625886 
L 346.218587 -83.67265 
L 345.748048 -80.719415 
L 345.172433 -77.766179 
L 344.504742 -74.812943 
L 343.759469 -71.859707 
L 342.951853 -68.906472 
L 342.097268 -65.953236 
L 341.210791 -63 
z
" id="mf7d512875c" style="stroke:#ffffff;stroke-opacity:0.3;"/>
    </defs>
    <g clip-path="url(#p462078c3d9)">
     <use style="fill:#4c72b0;fill-opacity:0.3;stroke:#ffffff;stroke-opacity:0.3;" x="0" xlink:href="#mf7d512875c" y="504"/>
    </g>
   </g>
   <g id="PolyCollection_4">
    <defs>
     <path d="M 407.197548 -63 
L 384.016997 -63 
L 383.329372 -65.657912 
L 382.722795 -68.315824 
L 382.176558 -70.973737 
L 381.670012 -73.631649 
L 381.188896 -76.289561 
L 380.729991 -78.947473 
L 380.302833 -81.605385 
L 379.927956 -84.263298 
L 379.632048 -86.92121 
L 379.441278 -89.579122 
L 379.374545 -92.237034 
L 379.438505 -94.894946 
L 379.625693 -97.552859 
L 379.916266 -100.210771 
L 380.282866 -102.868683 
L 380.697243 -105.526595 
L 381.136856 -108.184507 
L 381.589675 -110.84242 
L 382.055981 -113.500332 
L 382.546798 -116.158244 
L 383.079518 -118.816156 
L 383.671968 -121.474068 
L 384.336543 -124.131981 
L 385.075854 -126.789893 
L 385.880871 -129.447805 
L 386.731812 -132.105717 
L 387.601329 -134.763629 
L 388.459012 -137.421542 
L 389.276061 -140.079454 
L 390.029094 -142.737366 
L 390.702398 -145.395278 
L 391.288476 -148.05319 
L 391.787109 -150.711103 
L 392.20351 -153.369015 
L 392.546189 -156.026927 
L 392.825084 -158.684839 
L 393.050269 -161.342751 
L 393.231319 -164.000664 
L 393.377177 -166.658576 
L 393.496259 -169.316488 
L 393.596562 -171.9744 
L 393.685571 -174.632312 
L 393.769948 -177.290225 
L 393.855067 -179.948137 
L 393.944559 -182.606049 
L 394.04002 -185.263961 
L 394.141021 -187.921873 
L 394.245416 -190.579786 
L 394.349909 -193.237698 
L 394.450737 -195.89561 
L 394.544322 -198.553522 
L 394.627759 -201.211434 
L 394.699078 -203.869347 
L 394.757278 -206.527259 
L 394.802192 -209.185171 
L 394.834282 -211.843083 
L 394.854452 -214.500995 
L 394.863938 -217.158908 
L 394.864287 -219.81682 
L 394.8574 -222.474732 
L 394.845565 -225.132644 
L 394.831419 -227.790556 
L 394.817809 -230.448469 
L 394.807538 -233.106381 
L 394.803038 -235.764293 
L 394.806061 -238.422205 
L 394.817447 -241.080117 
L 394.837046 -243.73803 
L 394.863816 -246.395942 
L 394.896091 -249.053854 
L 394.931943 -251.711766 
L 394.969556 -254.369678 
L 395.007542 -257.027591 
L 395.045109 -259.685503 
L 395.082071 -262.343415 
L 395.118708 -265.001327 
L 395.155519 -267.659239 
L 395.192937 -270.317152 
L 395.231081 -272.975064 
L 395.269575 -275.632976 
L 395.307487 -278.290888 
L 395.343357 -280.9488 
L 395.375313 -283.606713 
L 395.401241 -286.264625 
L 395.418972 -288.922537 
L 395.426473 -291.580449 
L 395.422033 -294.238361 
L 395.404448 -296.896274 
L 395.3732 -299.554186 
L 395.32863 -302.212098 
L 395.272082 -304.87001 
L 395.205984 -307.527922 
L 395.133835 -310.185835 
L 395.060059 -312.843747 
L 394.989702 -315.501659 
L 394.928003 -318.159571 
L 394.87986 -320.817483 
L 394.849287 -323.475396 
L 394.838937 -326.133308 
L 396.375609 -326.133308 
L 396.375609 -326.133308 
L 396.365258 -323.475396 
L 396.334685 -320.817483 
L 396.286542 -318.159571 
L 396.224843 -315.501659 
L 396.154487 -312.843747 
L 396.08071 -310.185835 
L 396.008562 -307.527922 
L 395.942463 -304.87001 
L 395.885915 -302.212098 
L 395.841345 -299.554186 
L 395.810098 -296.896274 
L 395.792512 -294.238361 
L 395.788072 -291.580449 
L 395.795573 -288.922537 
L 395.813304 -286.264625 
L 395.839233 -283.606713 
L 395.871189 -280.9488 
L 395.907058 -278.290888 
L 395.94497 -275.632976 
L 395.983465 -272.975064 
L 396.021608 -270.317152 
L 396.059027 -267.659239 
L 396.095837 -265.001327 
L 396.132474 -262.343415 
L 396.169437 -259.685503 
L 396.207004 -257.027591 
L 396.24499 -254.369678 
L 396.282603 -251.711766 
L 396.318454 -249.053854 
L 396.35073 -246.395942 
L 396.3775 -243.73803 
L 396.397098 -241.080117 
L 396.408484 -238.422205 
L 396.411508 -235.764293 
L 396.407008 -233.106381 
L 396.396736 -230.448469 
L 396.383127 -227.790556 
L 396.368981 -225.132644 
L 396.357145 -222.474732 
L 396.350259 -219.81682 
L 396.350608 -217.158908 
L 396.360093 -214.500995 
L 396.380263 -211.843083 
L 396.412354 -209.185171 
L 396.457268 -206.527259 
L 396.515467 -203.869347 
L 396.586786 -201.211434 
L 396.670223 -198.553522 
L 396.763808 -195.89561 
L 396.864637 -193.237698 
L 396.96913 -190.579786 
L 397.073525 -187.921873 
L 397.174525 -185.263961 
L 397.269987 -182.606049 
L 397.359478 -179.948137 
L 397.444598 -177.290225 
L 397.528975 -174.632312 
L 397.617984 -171.9744 
L 397.718286 -169.316488 
L 397.837368 -166.658576 
L 397.983226 -164.000664 
L 398.164277 -161.342751 
L 398.389462 -158.684839 
L 398.668356 -156.026927 
L 399.011035 -153.369015 
L 399.427437 -150.711103 
L 399.92607 -148.05319 
L 400.512147 -145.395278 
L 401.185452 -142.737366 
L 401.938484 -140.079454 
L 402.755534 -137.421542 
L 403.613216 -134.763629 
L 404.482733 -132.105717 
L 405.333675 -129.447805 
L 406.138691 -126.789893 
L 406.878002 -124.131981 
L 407.542578 -121.474068 
L 408.135028 -118.816156 
L 408.667747 -116.158244 
L 409.158565 -113.500332 
L 409.62487 -110.84242 
L 410.077689 -108.184507 
L 410.517303 -105.526595 
L 410.93168 -102.868683 
L 411.298279 -100.210771 
L 411.588853 -97.552859 
L 411.77604 -94.894946 
L 411.84 -92.237034 
L 411.773268 -89.579122 
L 411.582497 -86.92121 
L 411.28659 -84.263298 
L 410.911712 -81.605385 
L 410.484555 -78.947473 
L 410.02565 -76.289561 
L 409.544534 -73.631649 
L 409.037988 -70.973737 
L 408.491751 -68.315824 
L 407.885173 -65.657912 
L 407.197548 -63 
z
" id="m975de6230d" style="stroke:#ffffff;stroke-opacity:0.3;"/>
    </defs>
    <g clip-path="url(#p462078c3d9)">
     <use style="fill:#4c72b0;fill-opacity:0.3;stroke:#ffffff;stroke-opacity:0.3;" x="0" xlink:href="#m975de6230d" y="504"/>
    </g>
   </g>
   <g id="PolyCollection_5">
    <defs>
     <path d="M 475.659399 -63 
L 445.416964 -63 
L 444.920734 -65.362589 
L 444.582358 -67.725177 
L 444.384713 -70.087766 
L 444.305455 -72.450354 
L 444.321157 -74.812943 
L 444.411283 -77.175532 
L 444.56128 -79.53812 
L 444.764277 -81.900709 
L 445.021112 -84.263298 
L 445.338782 -86.625886 
L 445.727653 -88.988475 
L 446.198049 -91.351063 
L 446.75688 -93.713652 
L 447.404958 -96.076241 
L 448.135457 -98.438829 
L 448.933722 -100.801418 
L 449.778389 -103.164007 
L 450.643487 -105.526595 
L 451.501111 -107.889184 
L 452.324138 -110.251772 
L 453.088586 -112.614361 
L 453.775294 -114.97695 
L 454.370812 -117.339538 
L 454.867549 -119.702127 
L 455.263352 -122.064716 
L 455.560756 -124.427304 
L 455.766131 -126.789893 
L 455.888901 -129.152481 
L 455.940911 -131.51507 
L 455.935932 -133.877659 
L 455.889215 -136.240247 
L 455.816986 -138.602836 
L 455.735802 -140.965425 
L 455.661716 -143.328013 
L 455.609301 -145.690602 
L 455.590638 -148.05319 
L 455.61442 -150.415779 
L 455.685325 -152.778368 
L 455.803805 -155.140956 
L 455.966329 -157.503545 
L 456.16608 -159.866133 
L 456.39399 -162.228722 
L 456.639954 -164.591311 
L 456.89404 -166.953899 
L 457.147499 -169.316488 
L 457.393469 -171.679077 
L 457.627284 -174.041665 
L 457.846416 -176.404254 
L 458.050118 -178.766842 
L 458.238885 -181.129431 
L 458.41388 -183.49202 
L 458.57641 -185.854608 
L 458.727573 -188.217197 
L 458.868075 -190.579786 
L 458.99823 -192.942374 
L 459.118079 -195.304963 
L 459.227577 -197.667551 
L 459.32677 -200.03014 
L 459.415926 -202.392729 
L 459.495581 -204.755317 
L 459.566504 -207.117906 
L 459.629611 -209.480495 
L 459.685849 -211.843083 
L 459.736089 -214.205672 
L 459.781058 -216.56826 
L 459.82132 -218.930849 
L 459.857297 -221.293438 
L 459.889334 -223.656026 
L 459.917754 -226.018615 
L 459.942919 -228.381204 
L 459.965242 -230.743792 
L 459.985176 -233.106381 
L 460.003158 -235.468969 
L 460.019537 -237.831558 
L 460.034492 -240.194147 
L 460.047968 -242.556735 
L 460.059626 -244.919324 
L 460.068828 -247.281912 
L 460.074646 -249.644501 
L 460.075897 -252.00709 
L 460.071186 -254.369678 
L 460.058959 -256.732267 
L 460.037571 -259.094856 
L 460.00536 -261.457444 
L 459.960753 -263.820033 
L 459.902399 -266.182621 
L 459.829353 -268.54521 
L 459.74129 -270.907799 
L 459.638731 -273.270387 
L 459.523271 -275.632976 
L 459.397732 -277.995565 
L 459.266228 -280.358153 
L 459.134082 -282.720742 
L 459.00758 -285.08333 
L 458.893568 -287.445919 
L 458.798909 -289.808508 
L 458.729873 -292.171096 
L 458.691525 -294.533685 
L 458.687198 -296.896274 
L 462.389166 -296.896274 
L 462.389166 -296.896274 
L 462.384839 -294.533685 
L 462.34649 -292.171096 
L 462.277454 -289.808508 
L 462.182795 -287.445919 
L 462.068783 -285.08333 
L 461.942282 -282.720742 
L 461.810136 -280.358153 
L 461.678631 -277.995565 
L 461.553092 -275.632976 
L 461.437632 -273.270387 
L 461.335074 -270.907799 
L 461.24701 -268.54521 
L 461.173965 -266.182621 
L 461.115611 -263.820033 
L 461.071003 -261.457444 
L 461.038793 -259.094856 
L 461.017405 -256.732267 
L 461.005178 -254.369678 
L 461.000466 -252.00709 
L 461.001717 -249.644501 
L 461.007536 -247.281912 
L 461.016737 -244.919324 
L 461.028395 -242.556735 
L 461.041871 -240.194147 
L 461.056827 -237.831558 
L 461.073205 -235.468969 
L 461.091187 -233.106381 
L 461.111121 -230.743792 
L 461.133445 -228.381204 
L 461.158609 -226.018615 
L 461.18703 -223.656026 
L 461.219066 -221.293438 
L 461.255044 -218.930849 
L 461.295305 -216.56826 
L 461.340275 -214.205672 
L 461.390515 -211.843083 
L 461.446752 -209.480495 
L 461.50986 -207.117906 
L 461.580783 -204.755317 
L 461.660437 -202.392729 
L 461.749594 -200.03014 
L 461.848787 -197.667551 
L 461.958284 -195.304963 
L 462.078133 -192.942374 
L 462.208288 -190.579786 
L 462.348791 -188.217197 
L 462.499954 -185.854608 
L 462.662484 -183.49202 
L 462.837478 -181.129431 
L 463.026246 -178.766842 
L 463.229947 -176.404254 
L 463.449079 -174.041665 
L 463.682894 -171.679077 
L 463.928865 -169.316488 
L 464.182324 -166.953899 
L 464.436409 -164.591311 
L 464.682374 -162.228722 
L 464.910283 -159.866133 
L 465.110035 -157.503545 
L 465.272559 -155.140956 
L 465.391038 -152.778368 
L 465.461944 -150.415779 
L 465.485725 -148.05319 
L 465.467063 -145.690602 
L 465.414648 -143.328013 
L 465.340562 -140.965425 
L 465.259378 -138.602836 
L 465.187149 -136.240247 
L 465.140431 -133.877659 
L 465.135453 -131.51507 
L 465.187463 -129.152481 
L 465.310232 -126.789893 
L 465.515607 -124.427304 
L 465.813012 -122.064716 
L 466.208815 -119.702127 
L 466.705552 -117.339538 
L 467.301069 -114.97695 
L 467.987777 -112.614361 
L 468.752226 -110.251772 
L 469.575253 -107.889184 
L 470.432876 -105.526595 
L 471.297975 -103.164007 
L 472.142642 -100.801418 
L 472.940907 -98.438829 
L 473.671405 -96.076241 
L 474.319484 -93.713652 
L 474.878315 -91.351063 
L 475.348711 -88.988475 
L 475.737582 -86.625886 
L 476.055251 -84.263298 
L 476.312087 -81.900709 
L 476.515083 -79.53812 
L 476.665081 -77.175532 
L 476.755207 -74.812943 
L 476.770909 -72.450354 
L 476.69165 -70.087766 
L 476.494005 -67.725177 
L 476.15563 -65.362589 
L 475.659399 -63 
z
" id="m4074331c1c" style="stroke:#ffffff;stroke-opacity:0.3;"/>
    </defs>
    <g clip-path="url(#p462078c3d9)">
     <use style="fill:#4c72b0;fill-opacity:0.3;stroke:#ffffff;stroke-opacity:0.3;" x="0" xlink:href="#m4074331c1c" y="504"/>
    </g>
   </g>
   <g id="PolyCollection_6">
    <defs>
     <path d="M 541.584437 -63 
L 509.353745 -63 
L 509.236364 -65.067265 
L 509.384926 -67.13453 
L 509.758156 -69.201795 
L 510.300151 -71.26906 
L 510.947718 -73.336325 
L 511.638398 -75.40359 
L 512.317922 -77.470855 
L 512.945941 -79.53812 
L 513.499224 -81.605385 
L 513.971951 -83.67265 
L 514.373287 -85.739915 
L 514.722847 -87.807181 
L 515.045007 -89.874446 
L 515.363158 -91.941711 
L 515.694926 -94.008976 
L 516.049104 -96.076241 
L 516.424713 -98.143506 
L 516.812156 -100.210771 
L 517.196048 -102.278036 
L 517.559033 -104.345301 
L 517.885773 -106.412566 
L 518.166308 -108.479831 
L 518.398181 -110.547096 
L 518.586999 -112.614361 
L 518.745398 -114.681626 
L 518.89073 -116.748891 
L 519.041949 -118.816156 
L 519.216337 -120.883421 
L 519.426678 -122.950686 
L 519.679353 -125.017951 
L 519.973631 -127.085216 
L 520.30221 -129.152481 
L 520.652784 -131.219746 
L 521.010307 -133.287011 
L 521.359463 -135.354277 
L 521.686928 -137.421542 
L 521.983026 -139.488807 
L 522.242586 -141.556072 
L 522.464931 -143.623337 
L 522.653119 -145.690602 
L 522.812676 -147.757867 
L 522.950101 -149.825132 
L 523.071478 -151.892397 
L 523.18141 -153.959662 
L 523.282472 -156.026927 
L 523.375187 -158.094192 
L 523.458485 -160.161457 
L 523.53049 -162.228722 
L 523.589426 -164.295987 
L 523.634436 -166.363252 
L 523.666155 -168.430517 
L 523.686914 -170.497782 
L 523.700552 -172.565047 
L 523.711896 -174.632312 
L 523.726015 -176.699577 
L 523.747412 -178.766842 
L 523.779313 -180.834107 
L 523.823184 -182.901373 
L 523.878566 -184.968638 
L 523.943251 -187.035903 
L 524.013743 -189.103168 
L 524.085927 -191.170433 
L 524.155794 -193.237698 
L 524.220114 -195.304963 
L 524.276918 -197.372228 
L 524.325731 -199.439493 
L 524.367533 -201.506758 
L 524.404458 -203.574023 
L 524.439328 -205.641288 
L 524.475097 -207.708553 
L 524.514318 -209.775818 
L 524.55872 -211.843083 
L 524.608959 -213.910348 
L 524.664566 -215.977613 
L 524.724067 -218.044878 
L 524.785252 -220.112143 
L 524.845508 -222.179408 
L 524.902149 -224.246673 
L 524.952694 -226.313938 
L 524.995036 -228.381204 
L 525.027497 -230.448469 
L 525.048778 -232.515734 
L 525.057846 -234.582999 
L 525.053796 -236.650264 
L 525.035751 -238.717529 
L 525.002849 -240.784794 
L 524.954329 -242.852059 
L 524.889734 -244.919324 
L 524.809194 -246.986589 
L 524.713746 -249.053854 
L 524.605621 -251.121119 
L 524.488427 -253.188384 
L 524.367156 -255.255649 
L 524.247998 -257.322914 
L 524.137929 -259.390179 
L 524.04413 -261.457444 
L 523.973292 -263.524709 
L 523.93091 -265.591974 
L 523.920674 -267.659239 
L 527.017508 -267.659239 
L 527.017508 -267.659239 
L 527.007272 -265.591974 
L 526.96489 -263.524709 
L 526.894052 -261.457444 
L 526.800253 -259.390179 
L 526.690184 -257.322914 
L 526.571026 -255.255649 
L 526.449755 -253.188384 
L 526.33256 -251.121119 
L 526.224436 -249.053854 
L 526.128988 -246.986589 
L 526.048448 -244.919324 
L 525.983852 -242.852059 
L 525.935333 -240.784794 
L 525.902431 -238.717529 
L 525.884386 -236.650264 
L 525.880335 -234.582999 
L 525.889404 -232.515734 
L 525.910685 -230.448469 
L 525.943146 -228.381204 
L 525.985488 -226.313938 
L 526.036033 -224.246673 
L 526.092674 -222.179408 
L 526.152929 -220.112143 
L 526.214115 -218.044878 
L 526.273616 -215.977613 
L 526.329222 -213.910348 
L 526.379462 -211.843083 
L 526.423864 -209.775818 
L 526.463085 -207.708553 
L 526.498854 -205.641288 
L 526.533724 -203.574023 
L 526.570649 -201.506758 
L 526.612451 -199.439493 
L 526.661264 -197.372228 
L 526.718068 -195.304963 
L 526.782388 -193.237698 
L 526.852255 -191.170433 
L 526.924439 -189.103168 
L 526.994931 -187.035903 
L 527.059616 -184.968638 
L 527.114998 -182.901373 
L 527.158869 -180.834107 
L 527.190769 -178.766842 
L 527.212167 -176.699577 
L 527.226286 -174.632312 
L 527.237629 -172.565047 
L 527.251268 -170.497782 
L 527.272026 -168.430517 
L 527.303746 -166.363252 
L 527.348756 -164.295987 
L 527.407692 -162.228722 
L 527.479697 -160.161457 
L 527.562995 -158.094192 
L 527.655709 -156.026927 
L 527.756772 -153.959662 
L 527.866704 -151.892397 
L 527.98808 -149.825132 
L 528.125506 -147.757867 
L 528.285062 -145.690602 
L 528.473251 -143.623337 
L 528.695595 -141.556072 
L 528.955155 -139.488807 
L 529.251254 -137.421542 
L 529.578718 -135.354277 
L 529.927875 -133.287011 
L 530.285397 -131.219746 
L 530.635972 -129.152481 
L 530.96455 -127.085216 
L 531.258829 -125.017951 
L 531.511503 -122.950686 
L 531.721845 -120.883421 
L 531.896233 -118.816156 
L 532.047451 -116.748891 
L 532.192783 -114.681626 
L 532.351183 -112.614361 
L 532.54 -110.547096 
L 532.771874 -108.479831 
L 533.052409 -106.412566 
L 533.379149 -104.345301 
L 533.742134 -102.278036 
L 534.126026 -100.210771 
L 534.513469 -98.143506 
L 534.889078 -96.076241 
L 535.243256 -94.008976 
L 535.575023 -91.941711 
L 535.893175 -89.874446 
L 536.215334 -87.807181 
L 536.564894 -85.739915 
L 536.966231 -83.67265 
L 537.438958 -81.605385 
L 537.992241 -79.53812 
L 538.62026 -77.470855 
L 539.299784 -75.40359 
L 539.990464 -73.336325 
L 540.638031 -71.26906 
L 541.180026 -69.201795 
L 541.553256 -67.13453 
L 541.701818 -65.067265 
L 541.584437 -63 
z
" id="m7509259069" style="stroke:#ffffff;stroke-opacity:0.3;"/>
    </defs>
    <g clip-path="url(#p462078c3d9)">
     <use style="fill:#4c72b0;fill-opacity:0.3;stroke:#ffffff;stroke-opacity:0.3;" x="0" xlink:href="#m7509259069" y="504"/>
    </g>
   </g>
   <g id="PolyCollection_7">
    <defs>
     <path d="M 596.146888 -63 
L 584.653112 -63 
L 584.306726 -64.771941 
L 583.942499 -66.543883 
L 583.538174 -68.315824 
L 583.070617 -70.087766 
L 582.519049 -71.859707 
L 581.868529 -73.631649 
L 581.113227 -75.40359 
L 580.258987 -77.175532 
L 579.324756 -78.947473 
L 578.342536 -80.719415 
L 577.355699 -82.491356 
L 576.415727 -84.263298 
L 575.57768 -86.035239 
L 574.89487 -87.807181 
L 574.413405 -89.579122 
L 574.167273 -91.351063 
L 574.174641 -93.123005 
L 574.43585 -94.894946 
L 574.933385 -96.666888 
L 575.633815 -98.438829 
L 576.491442 -100.210771 
L 577.453153 -101.982712 
L 578.463827 -103.754654 
L 579.471615 -105.526595 
L 580.432444 -107.298537 
L 581.313269 -109.070478 
L 582.093763 -110.84242 
L 582.766406 -112.614361 
L 583.335118 -114.386303 
L 583.812766 -116.158244 
L 584.217995 -117.930185 
L 584.571858 -119.702127 
L 584.894689 -121.474068 
L 585.203593 -123.24601 
L 585.510772 -125.017951 
L 585.822793 -126.789893 
L 586.140751 -128.561834 
L 586.461169 -130.333776 
L 586.777395 -132.105717 
L 587.081246 -133.877659 
L 587.36461 -135.6496 
L 587.620812 -137.421542 
L 587.845559 -139.193483 
L 588.037413 -140.965425 
L 588.197772 -142.737366 
L 588.33044 -144.509307 
L 588.440897 -146.281249 
L 588.535409 -148.05319 
L 588.620139 -149.825132 
L 588.700368 -151.597073 
L 588.779941 -153.369015 
L 588.860977 -155.140956 
L 588.943865 -156.912898 
L 589.027506 -158.684839 
L 589.109738 -160.456781 
L 589.187873 -162.228722 
L 589.25924 -164.000664 
L 589.321668 -165.772605 
L 589.373842 -167.544547 
L 589.415479 -169.316488 
L 589.447341 -171.088429 
L 589.471066 -172.860371 
L 589.488888 -174.632312 
L 589.50327 -176.404254 
L 589.516529 -178.176195 
L 589.530508 -179.948137 
L 589.546328 -181.720078 
L 589.564274 -183.49202 
L 589.583802 -185.263961 
L 589.603687 -187.035903 
L 589.622256 -188.807844 
L 589.637689 -190.579786 
L 589.648328 -192.351727 
L 589.652951 -194.123668 
L 589.650965 -195.89561 
L 589.642492 -197.667551 
L 589.628335 -199.439493 
L 589.609824 -201.211434 
L 589.588572 -202.983376 
L 589.566167 -204.755317 
L 589.543868 -206.527259 
L 589.52233 -208.2992 
L 589.501418 -210.071142 
L 589.480156 -211.843083 
L 589.456801 -213.615025 
L 589.429071 -215.386966 
L 589.39449 -217.158908 
L 589.350802 -218.930849 
L 589.296419 -220.70279 
L 589.23082 -222.474732 
L 589.154847 -224.246673 
L 589.070851 -226.018615 
L 588.98265 -227.790556 
L 588.895294 -229.562498 
L 588.814654 -231.334439 
L 588.746886 -233.106381 
L 588.697822 -234.878322 
L 588.672384 -236.650264 
L 588.674072 -238.422205 
L 592.125928 -238.422205 
L 592.125928 -238.422205 
L 592.127616 -236.650264 
L 592.102178 -234.878322 
L 592.053114 -233.106381 
L 591.985346 -231.334439 
L 591.904706 -229.562498 
L 591.81735 -227.790556 
L 591.729149 -226.018615 
L 591.645153 -224.246673 
L 591.56918 -222.474732 
L 591.503581 -220.70279 
L 591.449198 -218.930849 
L 591.40551 -217.158908 
L 591.370929 -215.386966 
L 591.343199 -213.615025 
L 591.319844 -211.843083 
L 591.298582 -210.071142 
L 591.27767 -208.2992 
L 591.256132 -206.527259 
L 591.233833 -204.755317 
L 591.211428 -202.983376 
L 591.190176 -201.211434 
L 591.171665 -199.439493 
L 591.157508 -197.667551 
L 591.149035 -195.89561 
L 591.147049 -194.123668 
L 591.151672 -192.351727 
L 591.162311 -190.579786 
L 591.177744 -188.807844 
L 591.196313 -187.035903 
L 591.216198 -185.263961 
L 591.235726 -183.49202 
L 591.253672 -181.720078 
L 591.269492 -179.948137 
L 591.283471 -178.176195 
L 591.29673 -176.404254 
L 591.311112 -174.632312 
L 591.328934 -172.860371 
L 591.352659 -171.088429 
L 591.384521 -169.316488 
L 591.426158 -167.544547 
L 591.478332 -165.772605 
L 591.54076 -164.000664 
L 591.612127 -162.228722 
L 591.690262 -160.456781 
L 591.772494 -158.684839 
L 591.856135 -156.912898 
L 591.939023 -155.140956 
L 592.020059 -153.369015 
L 592.099632 -151.597073 
L 592.179861 -149.825132 
L 592.264591 -148.05319 
L 592.359103 -146.281249 
L 592.46956 -144.509307 
L 592.602228 -142.737366 
L 592.762587 -140.965425 
L 592.954441 -139.193483 
L 593.179188 -137.421542 
L 593.43539 -135.6496 
L 593.718754 -133.877659 
L 594.022605 -132.105717 
L 594.338831 -130.333776 
L 594.659249 -128.561834 
L 594.977207 -126.789893 
L 595.289228 -125.017951 
L 595.596407 -123.24601 
L 595.905311 -121.474068 
L 596.228142 -119.702127 
L 596.582005 -117.930185 
L 596.987234 -116.158244 
L 597.464882 -114.386303 
L 598.033594 -112.614361 
L 598.706237 -110.84242 
L 599.486731 -109.070478 
L 600.367556 -107.298537 
L 601.328385 -105.526595 
L 602.336173 -103.754654 
L 603.346847 -101.982712 
L 604.308558 -100.210771 
L 605.166185 -98.438829 
L 605.866615 -96.666888 
L 606.36415 -94.894946 
L 606.625359 -93.123005 
L 606.632727 -91.351063 
L 606.386595 -89.579122 
L 605.90513 -87.807181 
L 605.22232 -86.035239 
L 604.384273 -84.263298 
L 603.444301 -82.491356 
L 602.457464 -80.719415 
L 601.475244 -78.947473 
L 600.541013 -77.175532 
L 599.686773 -75.40359 
L 598.931471 -73.631649 
L 598.280951 -71.859707 
L 597.729383 -70.087766 
L 597.261826 -68.315824 
L 596.857501 -66.543883 
L 596.493274 -64.771941 
L 596.146888 -63 
z
" id="m29bcafc1d4" style="stroke:#ffffff;stroke-opacity:0.3;"/>
    </defs>
    <g clip-path="url(#p462078c3d9)">
     <use style="fill:#4c72b0;fill-opacity:0.3;stroke:#ffffff;stroke-opacity:0.3;" x="0" xlink:href="#m29bcafc1d4" y="504"/>
    </g>
   </g>
   <g id="PolyCollection_8">
    <defs>
     <path d="M 671.563636 -63 
L 639.098182 -63 
L 639.238382 -65.067265 
L 639.83823 -67.13453 
L 640.801766 -69.201795 
L 641.995995 -71.26906 
L 643.272347 -73.336325 
L 644.490103 -75.40359 
L 645.537227 -77.470855 
L 646.344871 -79.53812 
L 646.893304 -81.605385 
L 647.208845 -83.67265 
L 647.353138 -85.739915 
L 647.407345 -87.807181 
L 647.454571 -89.874446 
L 647.56385 -91.941711 
L 647.778437 -94.008976 
L 648.110187 -96.076241 
L 648.540485 -98.143506 
L 649.026989 -100.210771 
L 649.514382 -102.278036 
L 649.946765 -104.345301 
L 650.27919 -106.412566 
L 650.486228 -108.479831 
L 650.566184 -110.547096 
L 650.540481 -112.614361 
L 650.448667 -114.681626 
L 650.340261 -116.748891 
L 650.265149 -118.816156 
L 650.264449 -120.883421 
L 650.363527 -122.950686 
L 650.568379 -125.017951 
L 650.865858 -127.085216 
L 651.227435 -129.152481 
L 651.615522 -131.219746 
L 651.990929 -133.287011 
L 652.319943 -135.354277 
L 652.579743 -137.421542 
L 652.761268 -139.488807 
L 652.869285 -141.556072 
L 652.919906 -143.623337 
L 652.936263 -145.690602 
L 652.943315 -147.757867 
L 652.962821 -149.825132 
L 653.009388 -151.892397 
L 653.088262 -153.959662 
L 653.195118 -156.026927 
L 653.317761 -158.094192 
L 653.439275 -160.161457 
L 653.541916 -162.228722 
L 653.61098 -164.295987 
L 653.637883 -166.363252 
L 653.621919 -168.430517 
L 653.570406 -170.497782 
L 653.497239 -172.565047 
L 653.420182 -174.632312 
L 653.357424 -176.699577 
L 653.324108 -178.766842 
L 653.329473 -180.834107 
L 653.3752 -182.901373 
L 653.455231 -184.968638 
L 653.557096 -187.035903 
L 653.664453 -189.103168 
L 653.760306 -191.170433 
L 653.830285 -193.237698 
L 653.865348 -195.304963 
L 653.863413 -197.372228 
L 653.829658 -199.439493 
L 653.775463 -201.506758 
L 653.716236 -203.574023 
L 653.668573 -205.641288 
L 653.647293 -207.708553 
L 653.662927 -209.775818 
L 653.720104 -211.843083 
L 653.817102 -213.910348 
L 653.946568 -215.977613 
L 654.097171 -218.044878 
L 654.255798 -220.112143 
L 654.409806 -222.179408 
L 654.548909 -224.246673 
L 654.666396 -226.313938 
L 654.759552 -228.381204 
L 654.829347 -230.448469 
L 654.879557 -232.515734 
L 654.915586 -234.582999 
L 654.94325 -236.650264 
L 654.967733 -238.717529 
L 654.992882 -240.784794 
L 655.020868 -242.852059 
L 655.052231 -244.919324 
L 655.086191 -246.986589 
L 655.121134 -249.053854 
L 655.155133 -251.121119 
L 655.186403 -253.188384 
L 655.213629 -255.255649 
L 655.236115 -257.322914 
L 655.253799 -259.390179 
L 655.267132 -261.457444 
L 655.276906 -263.524709 
L 655.284056 -265.591974 
L 655.289491 -267.659239 
L 655.372327 -267.659239 
L 655.372327 -267.659239 
L 655.377762 -265.591974 
L 655.384912 -263.524709 
L 655.394686 -261.457444 
L 655.40802 -259.390179 
L 655.425703 -257.322914 
L 655.44819 -255.255649 
L 655.475415 -253.188384 
L 655.506686 -251.121119 
L 655.540684 -249.053854 
L 655.575628 -246.986589 
L 655.609588 -244.919324 
L 655.64095 -242.852059 
L 655.668936 -240.784794 
L 655.694085 -238.717529 
L 655.718569 -236.650264 
L 655.746232 -234.582999 
L 655.782261 -232.515734 
L 655.832471 -230.448469 
L 655.902266 -228.381204 
L 655.995422 -226.313938 
L 656.112909 -224.246673 
L 656.252012 -222.179408 
L 656.40602 -220.112143 
L 656.564647 -218.044878 
L 656.715251 -215.977613 
L 656.844716 -213.910348 
L 656.941715 -211.843083 
L 656.998891 -209.775818 
L 657.014525 -207.708553 
L 656.993245 -205.641288 
L 656.945582 -203.574023 
L 656.886355 -201.506758 
L 656.83216 -199.439493 
L 656.798405 -197.372228 
L 656.79647 -195.304963 
L 656.831533 -193.237698 
L 656.901513 -191.170433 
L 656.997365 -189.103168 
L 657.104722 -187.035903 
L 657.206587 -184.968638 
L 657.286618 -182.901373 
L 657.332345 -180.834107 
L 657.337711 -178.766842 
L 657.304394 -176.699577 
L 657.241636 -174.632312 
L 657.164579 -172.565047 
L 657.091412 -170.497782 
L 657.039899 -168.430517 
L 657.023935 -166.363252 
L 657.050838 -164.295987 
L 657.119902 -162.228722 
L 657.222543 -160.161457 
L 657.344057 -158.094192 
L 657.4667 -156.026927 
L 657.573556 -153.959662 
L 657.65243 -151.892397 
L 657.698998 -149.825132 
L 657.718503 -147.757867 
L 657.725555 -145.690602 
L 657.741912 -143.623337 
L 657.792533 -141.556072 
L 657.90055 -139.488807 
L 658.082075 -137.421542 
L 658.341875 -135.354277 
L 658.67089 -133.287011 
L 659.046296 -131.219746 
L 659.434383 -129.152481 
L 659.79596 -127.085216 
L 660.093439 -125.017951 
L 660.298291 -122.950686 
L 660.397369 -120.883421 
L 660.396669 -118.816156 
L 660.321557 -116.748891 
L 660.213151 -114.681626 
L 660.121337 -112.614361 
L 660.095634 -110.547096 
L 660.17559 -108.479831 
L 660.382628 -106.412566 
L 660.715053 -104.345301 
L 661.147436 -102.278036 
L 661.634829 -100.210771 
L 662.121333 -98.143506 
L 662.551631 -96.076241 
L 662.883381 -94.008976 
L 663.097969 -91.941711 
L 663.207247 -89.874446 
L 663.254473 -87.807181 
L 663.30868 -85.739915 
L 663.452973 -83.67265 
L 663.768515 -81.605385 
L 664.316947 -79.53812 
L 665.124591 -77.470855 
L 666.171715 -75.40359 
L 667.389471 -73.336325 
L 668.665824 -71.26906 
L 669.860052 -69.201795 
L 670.823588 -67.13453 
L 671.423436 -65.067265 
L 671.563636 -63 
z
" id="mc5f275c4cf" style="stroke:#ffffff;stroke-opacity:0.3;"/>
    </defs>
    <g clip-path="url(#p462078c3d9)">
     <use style="fill:#4c72b0;fill-opacity:0.3;stroke:#ffffff;stroke-opacity:0.3;" x="0" xlink:href="#mc5f275c4cf" y="504"/>
    </g>
   </g>
   <g id="PolyCollection_9">
    <defs>
     <path d="M 732.858635 -63 
L 707.665001 -63 
L 707.420564 -65.362589 
L 707.404489 -67.725177 
L 707.507148 -70.087766 
L 707.599559 -72.450354 
L 707.561919 -74.812943 
L 707.311947 -77.175532 
L 706.826131 -79.53812 
L 706.148365 -81.900709 
L 705.383358 -84.263298 
L 704.675892 -86.625886 
L 704.180566 -88.988475 
L 704.029091 -91.351063 
L 704.302832 -93.713652 
L 705.0169 -96.076241 
L 706.119055 -98.438829 
L 707.50286 -100.801418 
L 709.031046 -103.164007 
L 710.562858 -105.526595 
L 711.978812 -107.889184 
L 713.197642 -110.251772 
L 714.182811 -112.614361 
L 714.93876 -114.97695 
L 715.499488 -117.339538 
L 715.913366 -119.702127 
L 716.228315 -122.064716 
L 716.480679 -124.427304 
L 716.689695 -126.789893 
L 716.857867 -129.152481 
L 716.976136 -131.51507 
L 717.031743 -133.877659 
L 717.016341 -136.240247 
L 716.932086 -138.602836 
L 716.794159 -140.965425 
L 716.629146 -143.328013 
L 716.469827 -145.690602 
L 716.347785 -148.05319 
L 716.285865 -150.415779 
L 716.292488 -152.778368 
L 716.359411 -155.140956 
L 716.46361 -157.503545 
L 716.572915 -159.866133 
L 716.654064 -162.228722 
L 716.681205 -164.591311 
L 716.642748 -166.953899 
L 716.544881 -169.316488 
L 716.410891 -171.679077 
L 716.276451 -174.041665 
L 716.182049 -176.404254 
L 716.164404 -178.766842 
L 716.248901 -181.129431 
L 716.44476 -183.49202 
L 716.7439 -185.854608 
L 717.123453 -188.217197 
L 717.551033 -190.579786 
L 717.99126 -192.942374 
L 718.411947 -195.304963 
L 718.788651 -197.667551 
L 719.106936 -200.03014 
L 719.362298 -202.392729 
L 719.558311 -204.755317 
L 719.703788 -207.117906 
L 719.809789 -209.480495 
L 719.88714 -211.843083 
L 719.944804 -214.205672 
L 719.989186 -216.56826 
L 720.024213 -218.930849 
L 720.051919 -221.293438 
L 720.073225 -223.656026 
L 720.088671 -226.018615 
L 720.098923 -228.381204 
L 720.104994 -230.743792 
L 720.1082 -233.106381 
L 720.109926 -235.468969 
L 720.111324 -237.831558 
L 720.113058 -240.194147 
L 720.115162 -242.556735 
L 720.117085 -244.919324 
L 720.117882 -247.281912 
L 720.11653 -249.644501 
L 720.112267 -252.00709 
L 720.104873 -254.369678 
L 720.094813 -256.732267 
L 720.083197 -259.094856 
L 720.071565 -261.457444 
L 720.061533 -263.820033 
L 720.05439 -266.182621 
L 720.050763 -268.54521 
L 720.050417 -270.907799 
L 720.052273 -273.270387 
L 720.054645 -275.632976 
L 720.055645 -277.995565 
L 720.053663 -280.358153 
L 720.047814 -282.720742 
L 720.038226 -285.08333 
L 720.026103 -287.445919 
L 720.013538 -289.808508 
L 720.003111 -292.171096 
L 719.997375 -294.533685 
L 719.998338 -296.896274 
L 720.525299 -296.896274 
L 720.525299 -296.896274 
L 720.526261 -294.533685 
L 720.520525 -292.171096 
L 720.510098 -289.808508 
L 720.497533 -287.445919 
L 720.48541 -285.08333 
L 720.475822 -282.720742 
L 720.469973 -280.358153 
L 720.467992 -277.995565 
L 720.468991 -275.632976 
L 720.471364 -273.270387 
L 720.47322 -270.907799 
L 720.472873 -268.54521 
L 720.469246 -266.182621 
L 720.462104 -263.820033 
L 720.452071 -261.457444 
L 720.440439 -259.094856 
L 720.428824 -256.732267 
L 720.418763 -254.369678 
L 720.411369 -252.00709 
L 720.407107 -249.644501 
L 720.405755 -247.281912 
L 720.406552 -244.919324 
L 720.408474 -242.556735 
L 720.410579 -240.194147 
L 720.412312 -237.831558 
L 720.41371 -235.468969 
L 720.415436 -233.106381 
L 720.418642 -230.743792 
L 720.424714 -228.381204 
L 720.434966 -226.018615 
L 720.450411 -223.656026 
L 720.471717 -221.293438 
L 720.499423 -218.930849 
L 720.534451 -216.56826 
L 720.578833 -214.205672 
L 720.636497 -211.843083 
L 720.713848 -209.480495 
L 720.819849 -207.117906 
L 720.965325 -204.755317 
L 721.161339 -202.392729 
L 721.416701 -200.03014 
L 721.734985 -197.667551 
L 722.11169 -195.304963 
L 722.532376 -192.942374 
L 722.972603 -190.579786 
L 723.400183 -188.217197 
L 723.779736 -185.854608 
L 724.078876 -183.49202 
L 724.274736 -181.129431 
L 724.359232 -178.766842 
L 724.341588 -176.404254 
L 724.247186 -174.041665 
L 724.112745 -171.679077 
L 723.978755 -169.316488 
L 723.880889 -166.953899 
L 723.842432 -164.591311 
L 723.869573 -162.228722 
L 723.950722 -159.866133 
L 724.060026 -157.503545 
L 724.164225 -155.140956 
L 724.231148 -152.778368 
L 724.237771 -150.415779 
L 724.175851 -148.05319 
L 724.05381 -145.690602 
L 723.89449 -143.328013 
L 723.729478 -140.965425 
L 723.59155 -138.602836 
L 723.507296 -136.240247 
L 723.491893 -133.877659 
L 723.5475 -131.51507 
L 723.665769 -129.152481 
L 723.833942 -126.789893 
L 724.042957 -124.427304 
L 724.295321 -122.064716 
L 724.61027 -119.702127 
L 725.024148 -117.339538 
L 725.584877 -114.97695 
L 726.340826 -112.614361 
L 727.325994 -110.251772 
L 728.544824 -107.889184 
L 729.960778 -105.526595 
L 731.492591 -103.164007 
L 733.020776 -100.801418 
L 734.404581 -98.438829 
L 735.506736 -96.076241 
L 736.220804 -93.713652 
L 736.494545 -91.351063 
L 736.343071 -88.988475 
L 735.847745 -86.625886 
L 735.140279 -84.263298 
L 734.375272 -81.900709 
L 733.697506 -79.53812 
L 733.211689 -77.175532 
L 732.961717 -74.812943 
L 732.924078 -72.450354 
L 733.016489 -70.087766 
L 733.119147 -67.725177 
L 733.103073 -65.362589 
L 732.858635 -63 
z
" id="md1ca968dbe" style="stroke:#ffffff;stroke-opacity:0.3;"/>
    </defs>
    <g clip-path="url(#p462078c3d9)">
     <use style="fill:#4c72b0;fill-opacity:0.3;stroke:#ffffff;stroke-opacity:0.3;" x="0" xlink:href="#md1ca968dbe" y="504"/>
    </g>
   </g>
   <g id="PolyCollection_10">
    <defs>
     <path d="M 795.130951 -63 
L 775.254504 -63 
L 774.9293 -65.657912 
L 774.759985 -68.315824 
L 774.689884 -70.973737 
L 774.65445 -73.631649 
L 774.596194 -76.289561 
L 774.47718 -78.947473 
L 774.285497 -81.605385 
L 774.033815 -84.263298 
L 773.750491 -86.92121 
L 773.466098 -89.579122 
L 773.199761 -92.237034 
L 772.949952 -94.894946 
L 772.693108 -97.552859 
L 772.391037 -100.210771 
L 772.005244 -102.868683 
L 771.513914 -105.526595 
L 770.926152 -108.184507 
L 770.288612 -110.84242 
L 769.681713 -113.500332 
L 769.205721 -116.158244 
L 768.96 -118.816156 
L 769.020908 -121.474068 
L 769.424278 -124.131981 
L 770.157149 -126.789893 
L 771.160741 -129.447805 
L 772.343511 -132.105717 
L 773.600443 -134.763629 
L 774.833296 -137.421542 
L 775.966766 -140.079454 
L 776.957133 -142.737366 
L 777.792394 -145.395278 
L 778.485284 -148.05319 
L 779.062291 -150.711103 
L 779.552341 -153.369015 
L 779.978271 -156.026927 
L 780.352853 -158.684839 
L 780.679475 -161.342751 
L 780.956202 -164.000664 
L 781.181093 -166.658576 
L 781.356674 -169.316488 
L 781.492044 -171.9744 
L 781.602096 -174.632312 
L 781.70437 -177.290225 
L 781.8148 -179.948137 
L 781.943845 -182.606049 
L 782.094276 -185.263961 
L 782.26126 -187.921873 
L 782.434597 -190.579786 
L 782.60233 -193.237698 
L 782.754566 -195.89561 
L 782.886379 -198.553522 
L 782.99903 -201.211434 
L 783.09929 -203.869347 
L 783.197232 -206.527259 
L 783.303259 -209.185171 
L 783.425274 -211.843083 
L 783.566746 -214.500995 
L 783.7261 -217.158908 
L 783.897421 -219.81682 
L 784.072125 -222.474732 
L 784.241006 -225.132644 
L 784.396117 -227.790556 
L 784.532026 -230.448469 
L 784.646288 -233.106381 
L 784.739173 -235.764293 
L 784.812901 -238.422205 
L 784.870679 -241.080117 
L 784.91583 -243.73803 
L 784.951186 -246.395942 
L 784.978811 -249.053854 
L 785.000001 -251.711766 
L 785.015442 -254.369678 
L 785.025417 -257.027591 
L 785.029952 -259.685503 
L 785.02888 -262.343415 
L 785.021827 -265.001327 
L 785.008204 -267.659239 
L 784.987265 -270.317152 
L 784.958286 -272.975064 
L 784.920876 -275.632976 
L 784.87536 -278.290888 
L 784.823134 -280.9488 
L 784.766855 -283.606713 
L 784.710378 -286.264625 
L 784.658374 -288.922537 
L 784.615676 -291.580449 
L 784.586477 -294.238361 
L 784.573567 -296.896274 
L 784.577798 -299.554186 
L 784.59793 -302.212098 
L 784.630901 -304.87001 
L 784.672462 -307.527922 
L 784.718017 -310.185835 
L 784.76346 -312.843747 
L 784.805814 -315.501659 
L 784.843542 -318.159571 
L 784.876504 -320.817483 
L 784.905604 -323.475396 
L 784.932288 -326.133308 
L 785.453167 -326.133308 
L 785.453167 -326.133308 
L 785.47985 -323.475396 
L 785.508951 -320.817483 
L 785.541912 -318.159571 
L 785.579641 -315.501659 
L 785.621995 -312.843747 
L 785.667438 -310.185835 
L 785.712993 -307.527922 
L 785.754554 -304.87001 
L 785.787524 -302.212098 
L 785.807656 -299.554186 
L 785.811887 -296.896274 
L 785.798977 -294.238361 
L 785.769779 -291.580449 
L 785.727081 -288.922537 
L 785.675077 -286.264625 
L 785.6186 -283.606713 
L 785.562321 -280.9488 
L 785.510094 -278.290888 
L 785.464579 -275.632976 
L 785.427169 -272.975064 
L 785.398189 -270.317152 
L 785.37725 -267.659239 
L 785.363628 -265.001327 
L 785.356575 -262.343415 
L 785.355503 -259.685503 
L 785.360038 -257.027591 
L 785.370013 -254.369678 
L 785.385453 -251.711766 
L 785.406643 -249.053854 
L 785.434269 -246.395942 
L 785.469625 -243.73803 
L 785.514776 -241.080117 
L 785.572554 -238.422205 
L 785.646282 -235.764293 
L 785.739167 -233.106381 
L 785.853428 -230.448469 
L 785.989338 -227.790556 
L 786.144448 -225.132644 
L 786.31333 -222.474732 
L 786.488033 -219.81682 
L 786.659355 -217.158908 
L 786.818709 -214.500995 
L 786.960181 -211.843083 
L 787.082196 -209.185171 
L 787.188223 -206.527259 
L 787.286164 -203.869347 
L 787.386424 -201.211434 
L 787.499076 -198.553522 
L 787.630889 -195.89561 
L 787.783125 -193.237698 
L 787.950857 -190.579786 
L 788.124194 -187.921873 
L 788.291178 -185.263961 
L 788.44161 -182.606049 
L 788.570654 -179.948137 
L 788.681085 -177.290225 
L 788.783359 -174.632312 
L 788.89341 -171.9744 
L 789.028781 -169.316488 
L 789.204362 -166.658576 
L 789.429252 -164.000664 
L 789.705979 -161.342751 
L 790.032602 -158.684839 
L 790.407183 -156.026927 
L 790.833113 -153.369015 
L 791.323163 -150.711103 
L 791.900171 -148.05319 
L 792.593061 -145.395278 
L 793.428322 -142.737366 
L 794.418689 -140.079454 
L 795.552158 -137.421542 
L 796.785012 -134.763629 
L 798.041944 -132.105717 
L 799.224714 -129.447805 
L 800.228305 -126.789893 
L 800.961176 -124.131981 
L 801.364547 -121.474068 
L 801.425455 -118.816156 
L 801.179733 -116.158244 
L 800.703741 -113.500332 
L 800.096843 -110.84242 
L 799.459302 -108.184507 
L 798.871541 -105.526595 
L 798.380211 -102.868683 
L 797.994418 -100.210771 
L 797.692347 -97.552859 
L 797.435502 -94.894946 
L 797.185693 -92.237034 
L 796.919356 -89.579122 
L 796.634963 -86.92121 
L 796.35164 -84.263298 
L 796.099957 -81.605385 
L 795.908275 -78.947473 
L 795.78926 -76.289561 
L 795.731005 -73.631649 
L 795.695571 -70.973737 
L 795.625469 -68.315824 
L 795.456154 -65.657912 
L 795.130951 -63 
z
" id="m2d12d9d220" style="stroke:#ffffff;stroke-opacity:0.3;"/>
    </defs>
    <g clip-path="url(#p462078c3d9)">
     <use style="fill:#4c72b0;fill-opacity:0.3;stroke:#ffffff;stroke-opacity:0.3;" x="0" xlink:href="#m2d12d9d220" y="504"/>
    </g>
   </g>
   <g id="PolyCollection_11">
    <defs>
     <path d="M 857.506655 -63 
L 842.740617 -63 
L 842.271002 -65.953236 
L 841.862575 -68.906472 
L 841.506675 -71.859707 
L 841.193155 -74.812943 
L 840.913245 -77.766179 
L 840.66144 -80.719415 
L 840.435937 -83.67265 
L 840.237578 -86.625886 
L 840.067734 -89.579122 
L 839.925901 -92.532358 
L 839.807822 -95.485594 
L 839.704738 -98.438829 
L 839.603942 -101.392065 
L 839.490373 -104.345301 
L 839.34864 -107.298537 
L 839.164822 -110.251772 
L 838.927605 -113.205008 
L 838.628691 -116.158244 
L 838.262833 -119.11148 
L 837.828093 -122.064716 
L 837.326834 -125.017951 
L 836.767623 -127.971187 
L 836.167693 -130.924423 
L 835.555091 -133.877659 
L 834.969429 -136.830894 
L 834.46028 -139.78413 
L 834.082794 -142.737366 
L 833.890909 -145.690602 
L 833.929307 -148.643838 
L 834.225789 -151.597073 
L 834.785809 -154.550309 
L 835.590483 -157.503545 
L 836.598573 -160.456781 
L 837.75205 -163.410016 
L 838.983986 -166.363252 
L 840.227139 -169.316488 
L 841.421571 -172.269724 
L 842.520088 -175.22296 
L 843.490928 -178.176195 
L 844.317815 -181.129431 
L 844.997997 -184.082667 
L 845.539159 -187.035903 
L 845.956028 -189.989138 
L 846.26729 -192.942374 
L 846.49312 -195.89561 
L 846.653348 -198.848846 
L 846.766179 -201.802082 
L 846.847313 -204.755317 
L 846.909396 -207.708553 
L 846.961805 -210.661789 
L 847.010813 -213.615025 
L 847.060123 -216.56826 
L 847.111729 -219.521496 
L 847.166909 -222.474732 
L 847.227125 -225.427968 
L 847.294601 -228.381204 
L 847.372411 -231.334439 
L 847.464091 -234.287675 
L 847.57288 -237.240911 
L 847.700835 -240.194147 
L 847.848105 -243.147382 
L 848.012558 -246.100618 
L 848.189891 -249.053854 
L 848.374177 -252.00709 
L 848.558706 -254.960325 
L 848.73692 -257.913561 
L 848.903213 -260.866797 
L 849.05346 -263.820033 
L 849.185217 -266.773269 
L 849.297601 -269.726504 
L 849.39098 -272.67974 
L 849.466542 -275.632976 
L 849.5259 -278.586212 
L 849.570757 -281.539447 
L 849.602701 -284.492683 
L 849.623088 -287.445919 
L 849.63303 -290.399155 
L 849.633437 -293.352391 
L 849.62511 -296.305626 
L 849.608876 -299.258862 
L 849.585743 -302.212098 
L 849.557063 -305.165334 
L 849.524653 -308.118569 
L 849.490852 -311.071805 
L 849.458457 -314.025041 
L 849.430538 -316.978277 
L 849.410132 -319.931513 
L 849.399877 -322.884748 
L 849.401648 -325.837984 
L 849.416281 -328.79122 
L 849.443446 -331.744456 
L 849.481702 -334.697691 
L 849.528735 -337.650927 
L 849.581703 -340.604163 
L 849.637643 -343.557399 
L 849.693839 -346.510635 
L 849.748092 -349.46387 
L 849.79886 -352.417106 
L 849.845261 -355.370342 
L 850.402012 -355.370342 
L 850.402012 -355.370342 
L 850.448413 -352.417106 
L 850.499181 -349.46387 
L 850.553434 -346.510635 
L 850.60963 -343.557399 
L 850.66557 -340.604163 
L 850.718538 -337.650927 
L 850.765571 -334.697691 
L 850.803827 -331.744456 
L 850.830991 -328.79122 
L 850.845624 -325.837984 
L 850.847396 -322.884748 
L 850.837141 -319.931513 
L 850.816735 -316.978277 
L 850.788815 -314.025041 
L 850.756421 -311.071805 
L 850.72262 -308.118569 
L 850.69021 -305.165334 
L 850.66153 -302.212098 
L 850.638397 -299.258862 
L 850.622163 -296.305626 
L 850.613836 -293.352391 
L 850.614243 -290.399155 
L 850.624185 -287.445919 
L 850.644572 -284.492683 
L 850.676515 -281.539447 
L 850.721373 -278.586212 
L 850.78073 -275.632976 
L 850.856293 -272.67974 
L 850.949671 -269.726504 
L 851.062056 -266.773269 
L 851.193812 -263.820033 
L 851.34406 -260.866797 
L 851.510353 -257.913561 
L 851.688567 -254.960325 
L 851.873096 -252.00709 
L 852.057381 -249.053854 
L 852.234715 -246.100618 
L 852.399168 -243.147382 
L 852.546438 -240.194147 
L 852.674393 -237.240911 
L 852.783181 -234.287675 
L 852.874862 -231.334439 
L 852.952672 -228.381204 
L 853.020147 -225.427968 
L 853.080364 -222.474732 
L 853.135544 -219.521496 
L 853.18715 -216.56826 
L 853.23646 -213.615025 
L 853.285467 -210.661789 
L 853.337877 -207.708553 
L 853.399959 -204.755317 
L 853.481093 -201.802082 
L 853.593925 -198.848846 
L 853.754153 -195.89561 
L 853.979982 -192.942374 
L 854.291245 -189.989138 
L 854.708114 -187.035903 
L 855.249275 -184.082667 
L 855.929458 -181.129431 
L 856.756344 -178.176195 
L 857.727185 -175.22296 
L 858.825702 -172.269724 
L 860.020133 -169.316488 
L 861.263286 -166.363252 
L 862.495223 -163.410016 
L 863.6487 -160.456781 
L 864.65679 -157.503545 
L 865.461463 -154.550309 
L 866.021484 -151.597073 
L 866.317966 -148.643838 
L 866.356364 -145.690602 
L 866.164478 -142.737366 
L 865.786993 -139.78413 
L 865.277844 -136.830894 
L 864.692182 -133.877659 
L 864.079579 -130.924423 
L 863.479649 -127.971187 
L 862.920439 -125.017951 
L 862.419179 -122.064716 
L 861.984439 -119.11148 
L 861.618582 -116.158244 
L 861.319668 -113.205008 
L 861.082451 -110.251772 
L 860.898633 -107.298537 
L 860.756899 -104.345301 
L 860.643331 -101.392065 
L 860.542535 -98.438829 
L 860.439451 -95.485594 
L 860.321372 -92.532358 
L 860.179539 -89.579122 
L 860.009695 -86.625886 
L 859.811336 -83.67265 
L 859.585833 -80.719415 
L 859.334028 -77.766179 
L 859.054117 -74.812943 
L 858.740598 -71.859707 
L 858.384697 -68.906472 
L 857.976271 -65.953236 
L 857.506655 -63 
z
" id="ma92a9c04ae" style="stroke:#ffffff;stroke-opacity:0.3;"/>
    </defs>
    <g clip-path="url(#p462078c3d9)">
     <use style="fill:#4c72b0;fill-opacity:0.3;stroke:#ffffff;stroke-opacity:0.3;" x="0" xlink:href="#ma92a9c04ae" y="504"/>
    </g>
   </g>
   <g id="PolyCollection_12">
    <defs>
     <path d="M 926.651607 -63 
L 903.457484 -63 
L 902.687339 -65.953236 
L 902.000953 -68.906472 
L 901.409847 -71.859707 
L 900.924525 -74.812943 
L 900.554771 -77.766179 
L 900.309547 -80.719415 
L 900.196426 -83.67265 
L 900.220579 -86.625886 
L 900.38348 -89.579122 
L 900.681602 -92.532358 
L 901.105372 -95.485594 
L 901.638668 -98.438829 
L 902.259035 -101.392065 
L 902.938634 -104.345301 
L 903.645866 -107.298537 
L 904.347431 -110.251772 
L 905.010565 -113.205008 
L 905.605148 -116.158244 
L 906.105442 -119.11148 
L 906.491284 -122.064716 
L 906.74866 -125.017951 
L 906.869688 -127.971187 
L 906.85212 -130.924423 
L 906.698543 -133.877659 
L 906.41545 -136.830894 
L 906.012404 -139.78413 
L 905.501437 -142.737366 
L 904.896787 -145.690602 
L 904.215001 -148.643838 
L 903.475328 -151.597073 
L 902.700235 -154.550309 
L 901.915844 -157.503545 
L 901.152 -160.456781 
L 900.44177 -163.410016 
L 899.8202 -166.363252 
L 899.322326 -169.316488 
L 898.980572 -172.269724 
L 898.821818 -175.22296 
L 898.864557 -178.176195 
L 899.116559 -181.129431 
L 899.573466 -184.082667 
L 900.218572 -187.035903 
L 901.023896 -189.989138 
L 901.952432 -192.942374 
L 902.961294 -195.89561 
L 904.005342 -198.848846 
L 905.040823 -201.802082 
L 906.028599 -204.755317 
L 906.936625 -207.708553 
L 907.741483 -210.661789 
L 908.428931 -213.615025 
L 908.993548 -216.56826 
L 909.437661 -219.521496 
L 909.7698 -222.474732 
L 910.002925 -225.427968 
L 910.152659 -228.381204 
L 910.235706 -231.334439 
L 910.268578 -234.287675 
L 910.266707 -237.240911 
L 910.243929 -240.194147 
L 910.212308 -243.147382 
L 910.182206 -246.100618 
L 910.162502 -249.053854 
L 910.160838 -252.00709 
L 910.183798 -254.960325 
L 910.236955 -257.913561 
L 910.324767 -260.866797 
L 910.450344 -263.820033 
L 910.615142 -266.773269 
L 910.818695 -269.726504 
L 911.058441 -272.67974 
L 911.329746 -275.632976 
L 911.626132 -278.586212 
L 911.939716 -281.539447 
L 912.261808 -284.492683 
L 912.583577 -287.445919 
L 912.896707 -290.399155 
L 913.193952 -293.352391 
L 913.469523 -296.305626 
L 913.719291 -299.258862 
L 913.94079 -302.212098 
L 914.13307 -305.165334 
L 914.296445 -308.118569 
L 914.43218 -311.071805 
L 914.542191 -314.025041 
L 914.62878 -316.978277 
L 914.694437 -319.931513 
L 914.741706 -322.884748 
L 914.773123 -325.837984 
L 914.791192 -328.79122 
L 914.798388 -331.744456 
L 914.797164 -334.697691 
L 914.789941 -337.650927 
L 914.779083 -340.604163 
L 914.766843 -343.557399 
L 914.755283 -346.510635 
L 914.746193 -349.46387 
L 914.741003 -352.417106 
L 914.740718 -355.370342 
L 915.368373 -355.370342 
L 915.368373 -355.370342 
L 915.368088 -352.417106 
L 915.362898 -349.46387 
L 915.353808 -346.510635 
L 915.342248 -343.557399 
L 915.330008 -340.604163 
L 915.31915 -337.650927 
L 915.311927 -334.697691 
L 915.310702 -331.744456 
L 915.317899 -328.79122 
L 915.335968 -325.837984 
L 915.367385 -322.884748 
L 915.414654 -319.931513 
L 915.480311 -316.978277 
L 915.5669 -314.025041 
L 915.676911 -311.071805 
L 915.812646 -308.118569 
L 915.976021 -305.165334 
L 916.168301 -302.212098 
L 916.3898 -299.258862 
L 916.639568 -296.305626 
L 916.915139 -293.352391 
L 917.212384 -290.399155 
L 917.525514 -287.445919 
L 917.847283 -284.492683 
L 918.169375 -281.539447 
L 918.482959 -278.586212 
L 918.779345 -275.632976 
L 919.05065 -272.67974 
L 919.290396 -269.726504 
L 919.493949 -266.773269 
L 919.658747 -263.820033 
L 919.784324 -260.866797 
L 919.872136 -257.913561 
L 919.925293 -254.960325 
L 919.948252 -252.00709 
L 919.946588 -249.053854 
L 919.926885 -246.100618 
L 919.896783 -243.147382 
L 919.865161 -240.194147 
L 919.842384 -237.240911 
L 919.840513 -234.287675 
L 919.873385 -231.334439 
L 919.956432 -228.381204 
L 920.106166 -225.427968 
L 920.339291 -222.474732 
L 920.67143 -219.521496 
L 921.115543 -216.56826 
L 921.68016 -213.615025 
L 922.367608 -210.661789 
L 923.172466 -207.708553 
L 924.080492 -204.755317 
L 925.068268 -201.802082 
L 926.103749 -198.848846 
L 927.147797 -195.89561 
L 928.156659 -192.942374 
L 929.085195 -189.989138 
L 929.890519 -187.035903 
L 930.535625 -184.082667 
L 930.992532 -181.129431 
L 931.244534 -178.176195 
L 931.287273 -175.22296 
L 931.128519 -172.269724 
L 930.786765 -169.316488 
L 930.288891 -166.363252 
L 929.667321 -163.410016 
L 928.95709 -160.456781 
L 928.193247 -157.503545 
L 927.408856 -154.550309 
L 926.633763 -151.597073 
L 925.89409 -148.643838 
L 925.212304 -145.690602 
L 924.607654 -142.737366 
L 924.096687 -139.78413 
L 923.693641 -136.830894 
L 923.410548 -133.877659 
L 923.256971 -130.924423 
L 923.239403 -127.971187 
L 923.360431 -125.017951 
L 923.617806 -122.064716 
L 924.003649 -119.11148 
L 924.503943 -116.158244 
L 925.098526 -113.205008 
L 925.76166 -110.251772 
L 926.463225 -107.298537 
L 927.170457 -104.345301 
L 927.850056 -101.392065 
L 928.470422 -98.438829 
L 929.003719 -95.485594 
L 929.427488 -92.532358 
L 929.725611 -89.579122 
L 929.888512 -86.625886 
L 929.912664 -83.67265 
L 929.799543 -80.719415 
L 929.55432 -77.766179 
L 929.184565 -74.812943 
L 928.699244 -71.859707 
L 928.108138 -68.906472 
L 927.421752 -65.953236 
L 926.651607 -63 
z
" id="m34c9344701" style="stroke:#ffffff;stroke-opacity:0.3;"/>
    </defs>
    <g clip-path="url(#p462078c3d9)">
     <use style="fill:#4c72b0;fill-opacity:0.3;stroke:#ffffff;stroke-opacity:0.3;" x="0" xlink:href="#m34c9344701" y="504"/>
    </g>
   </g>
   <g id="PolyCollection_13">
    <defs>
     <path d="M 996.218182 -63 
L 963.752727 -63 
L 963.801785 -66.543883 
L 964.113281 -70.087766 
L 964.669845 -73.631649 
L 965.442676 -77.175532 
L 966.393956 -80.719415 
L 967.479855 -84.263298 
L 968.653802 -87.807181 
L 969.869681 -91.351063 
L 971.084645 -94.894946 
L 972.261335 -98.438829 
L 973.369356 -101.982712 
L 974.38599 -105.526595 
L 975.29619 -109.070478 
L 976.09199 -112.614361 
L 976.77149 -116.158244 
L 977.337591 -119.702127 
L 977.796663 -123.24601 
L 978.157269 -126.789893 
L 978.429058 -130.333776 
L 978.621883 -133.877659 
L 978.745169 -137.421542 
L 978.80752 -140.965425 
L 978.816543 -144.509307 
L 978.778834 -148.05319 
L 978.700106 -151.597073 
L 978.585382 -155.140956 
L 978.439243 -158.684839 
L 978.266083 -162.228722 
L 978.070348 -165.772605 
L 977.856738 -169.316488 
L 977.63035 -172.860371 
L 977.396758 -176.404254 
L 977.162004 -179.948137 
L 976.93251 -183.49202 
L 976.714902 -187.035903 
L 976.515746 -190.579786 
L 976.341232 -194.123668 
L 976.196817 -197.667551 
L 976.086857 -201.211434 
L 976.014287 -204.755317 
L 975.980361 -208.2992 
L 975.984509 -211.843083 
L 976.024324 -215.386966 
L 976.095685 -218.930849 
L 976.193022 -222.474732 
L 976.309697 -226.018615 
L 976.438456 -229.562498 
L 976.57193 -233.106381 
L 976.703116 -236.650264 
L 976.825823 -240.194147 
L 976.935018 -243.73803 
L 977.027079 -247.281912 
L 977.099933 -250.825795 
L 977.153073 -254.369678 
L 977.187484 -257.913561 
L 977.205483 -261.457444 
L 977.210488 -265.001327 
L 977.206754 -268.54521 
L 977.199073 -272.089093 
L 977.192467 -275.632976 
L 977.191879 -279.176859 
L 977.201882 -282.720742 
L 977.226406 -286.264625 
L 977.268511 -289.808508 
L 977.330208 -293.352391 
L 977.412343 -296.896274 
L 977.514558 -300.440156 
L 977.635328 -303.984039 
L 977.772078 -307.527922 
L 977.921364 -311.071805 
L 978.079114 -314.615688 
L 978.240898 -318.159571 
L 978.40221 -321.703454 
L 978.558735 -325.247337 
L 978.706583 -328.79122 
L 978.842471 -332.335103 
L 978.963854 -335.878986 
L 979.068989 -339.422869 
L 979.156946 -342.966752 
L 979.227572 -346.510635 
L 979.281415 -350.054518 
L 979.319629 -353.5984 
L 979.343852 -357.142283 
L 979.35609 -360.686166 
L 979.358591 -364.230049 
L 979.35373 -367.773932 
L 979.343901 -371.317815 
L 979.331416 -374.861698 
L 979.318425 -378.405581 
L 979.306846 -381.949464 
L 979.298311 -385.493347 
L 979.294128 -389.03723 
L 979.295267 -392.581113 
L 979.302351 -396.124996 
L 979.315674 -399.668879 
L 979.335216 -403.212761 
L 979.360682 -406.756644 
L 979.391538 -410.300527 
L 979.427055 -413.84441 
L 980.543854 -413.84441 
L 980.543854 -413.84441 
L 980.579371 -410.300527 
L 980.610227 -406.756644 
L 980.635693 -403.212761 
L 980.655235 -399.668879 
L 980.668558 -396.124996 
L 980.675643 -392.581113 
L 980.676781 -389.03723 
L 980.672598 -385.493347 
L 980.664063 -381.949464 
L 980.652484 -378.405581 
L 980.639493 -374.861698 
L 980.627008 -371.317815 
L 980.617179 -367.773932 
L 980.612318 -364.230049 
L 980.614819 -360.686166 
L 980.627057 -357.142283 
L 980.65128 -353.5984 
L 980.689494 -350.054518 
L 980.743337 -346.510635 
L 980.813963 -342.966752 
L 980.90192 -339.422869 
L 981.007055 -335.878986 
L 981.128438 -332.335103 
L 981.264326 -328.79122 
L 981.412174 -325.247337 
L 981.568699 -321.703454 
L 981.730011 -318.159571 
L 981.891795 -314.615688 
L 982.049545 -311.071805 
L 982.198831 -307.527922 
L 982.335581 -303.984039 
L 982.456351 -300.440156 
L 982.558566 -296.896274 
L 982.640701 -293.352391 
L 982.702398 -289.808508 
L 982.744503 -286.264625 
L 982.769027 -282.720742 
L 982.77903 -279.176859 
L 982.778443 -275.632976 
L 982.771836 -272.089093 
L 982.764155 -268.54521 
L 982.760421 -265.001327 
L 982.765426 -261.457444 
L 982.783425 -257.913561 
L 982.817837 -254.369678 
L 982.870977 -250.825795 
L 982.94383 -247.281912 
L 983.035891 -243.73803 
L 983.145086 -240.194147 
L 983.267793 -236.650264 
L 983.398979 -233.106381 
L 983.532453 -229.562498 
L 983.661212 -226.018615 
L 983.777887 -222.474732 
L 983.875224 -218.930849 
L 983.946585 -215.386966 
L 983.9864 -211.843083 
L 983.990549 -208.2992 
L 983.956622 -204.755317 
L 983.884052 -201.211434 
L 983.774092 -197.667551 
L 983.629677 -194.123668 
L 983.455163 -190.579786 
L 983.256007 -187.035903 
L 983.038399 -183.49202 
L 982.808905 -179.948137 
L 982.574151 -176.404254 
L 982.340559 -172.860371 
L 982.114171 -169.316488 
L 981.900561 -165.772605 
L 981.704827 -162.228722 
L 981.531667 -158.684839 
L 981.385527 -155.140956 
L 981.270803 -151.597073 
L 981.192075 -148.05319 
L 981.154367 -144.509307 
L 981.163389 -140.965425 
L 981.22574 -137.421542 
L 981.349026 -133.877659 
L 981.541851 -130.333776 
L 981.81364 -126.789893 
L 982.174246 -123.24601 
L 982.633318 -119.702127 
L 983.199419 -116.158244 
L 983.878919 -112.614361 
L 984.67472 -109.070478 
L 985.58492 -105.526595 
L 986.601553 -101.982712 
L 987.709574 -98.438829 
L 988.886264 -94.894946 
L 990.101228 -91.351063 
L 991.317107 -87.807181 
L 992.491055 -84.263298 
L 993.576953 -80.719415 
L 994.528233 -77.175532 
L 995.301064 -73.631649 
L 995.857628 -70.087766 
L 996.169125 -66.543883 
L 996.218182 -63 
z
" id="m45f9bf378a" style="stroke:#ffffff;stroke-opacity:0.3;"/>
    </defs>
    <g clip-path="url(#p462078c3d9)">
     <use style="fill:#4c72b0;fill-opacity:0.3;stroke:#ffffff;stroke-opacity:0.3;" x="0" xlink:href="#m45f9bf378a" y="504"/>
    </g>
   </g>
   <g id="LineCollection_1">
    <path clip-path="url(#p462078c3d9)" d="M 192.698182 90.15559 
L 208.930909 90.15559 
" style="fill:none;stroke:#4c72b0;stroke-width:1.5;"/>
    <path clip-path="url(#p462078c3d9)" d="M 257.629091 119.392624 
L 273.861818 119.392624 
" style="fill:none;stroke:#4c72b0;stroke-width:1.5;"/>
    <path clip-path="url(#p462078c3d9)" d="M 322.56 148.629658 
L 338.792727 148.629658 
" style="fill:none;stroke:#4c72b0;stroke-width:1.5;"/>
    <path clip-path="url(#p462078c3d9)" d="M 387.490909 177.866692 
L 403.723636 177.866692 
" style="fill:none;stroke:#4c72b0;stroke-width:1.5;"/>
    <path clip-path="url(#p462078c3d9)" d="M 452.421818 207.103726 
L 468.654545 207.103726 
" style="fill:none;stroke:#4c72b0;stroke-width:1.5;"/>
    <path clip-path="url(#p462078c3d9)" d="M 517.352727 236.340761 
L 533.585455 236.340761 
" style="fill:none;stroke:#4c72b0;stroke-width:1.5;"/>
    <path clip-path="url(#p462078c3d9)" d="M 582.283636 265.577795 
L 598.516364 265.577795 
" style="fill:none;stroke:#4c72b0;stroke-width:1.5;"/>
    <path clip-path="url(#p462078c3d9)" d="M 647.214545 236.340761 
L 663.447273 236.340761 
" style="fill:none;stroke:#4c72b0;stroke-width:1.5;"/>
    <path clip-path="url(#p462078c3d9)" d="M 712.145455 207.103726 
L 728.378182 207.103726 
" style="fill:none;stroke:#4c72b0;stroke-width:1.5;"/>
    <path clip-path="url(#p462078c3d9)" d="M 777.076364 177.866692 
L 793.309091 177.866692 
" style="fill:none;stroke:#4c72b0;stroke-width:1.5;"/>
    <path clip-path="url(#p462078c3d9)" d="M 842.007273 148.629658 
L 858.24 148.629658 
" style="fill:none;stroke:#4c72b0;stroke-width:1.5;"/>
    <path clip-path="url(#p462078c3d9)" d="M 906.938182 148.629658 
L 923.170909 148.629658 
" style="fill:none;stroke:#4c72b0;stroke-width:1.5;"/>
    <path clip-path="url(#p462078c3d9)" d="M 971.869091 90.15559 
L 988.101818 90.15559 
" style="fill:none;stroke:#4c72b0;stroke-width:1.5;"/>
   </g>
   <g id="LineCollection_2">
    <path clip-path="url(#p462078c3d9)" d="M 192.698182 441 
L 208.930909 441 
" style="fill:none;stroke:#4c72b0;stroke-width:1.5;"/>
    <path clip-path="url(#p462078c3d9)" d="M 257.629091 441 
L 273.861818 441 
" style="fill:none;stroke:#4c72b0;stroke-width:1.5;"/>
    <path clip-path="url(#p462078c3d9)" d="M 322.56 441 
L 338.792727 441 
" style="fill:none;stroke:#4c72b0;stroke-width:1.5;"/>
    <path clip-path="url(#p462078c3d9)" d="M 387.490909 441 
L 403.723636 441 
" style="fill:none;stroke:#4c72b0;stroke-width:1.5;"/>
    <path clip-path="url(#p462078c3d9)" d="M 452.421818 441 
L 468.654545 441 
" style="fill:none;stroke:#4c72b0;stroke-width:1.5;"/>
    <path clip-path="url(#p462078c3d9)" d="M 517.352727 441 
L 533.585455 441 
" style="fill:none;stroke:#4c72b0;stroke-width:1.5;"/>
    <path clip-path="url(#p462078c3d9)" d="M 582.283636 441 
L 598.516364 441 
" style="fill:none;stroke:#4c72b0;stroke-width:1.5;"/>
    <path clip-path="url(#p462078c3d9)" d="M 647.214545 441 
L 663.447273 441 
" style="fill:none;stroke:#4c72b0;stroke-width:1.5;"/>
    <path clip-path="url(#p462078c3d9)" d="M 712.145455 441 
L 728.378182 441 
" style="fill:none;stroke:#4c72b0;stroke-width:1.5;"/>
    <path clip-path="url(#p462078c3d9)" d="M 777.076364 441 
L 793.309091 441 
" style="fill:none;stroke:#4c72b0;stroke-width:1.5;"/>
    <path clip-path="url(#p462078c3d9)" d="M 842.007273 441 
L 858.24 441 
" style="fill:none;stroke:#4c72b0;stroke-width:1.5;"/>
    <path clip-path="url(#p462078c3d9)" d="M 906.938182 441 
L 923.170909 441 
" style="fill:none;stroke:#4c72b0;stroke-width:1.5;"/>
    <path clip-path="url(#p462078c3d9)" d="M 971.869091 441 
L 988.101818 441 
" style="fill:none;stroke:#4c72b0;stroke-width:1.5;"/>
   </g>
   <g id="LineCollection_3">
    <path clip-path="url(#p462078c3d9)" d="M 200.814545 441 
L 200.814545 90.15559 
" style="fill:none;stroke:#4c72b0;stroke-width:1.5;"/>
    <path clip-path="url(#p462078c3d9)" d="M 265.745455 441 
L 265.745455 119.392624 
" style="fill:none;stroke:#4c72b0;stroke-width:1.5;"/>
    <path clip-path="url(#p462078c3d9)" d="M 330.676364 441 
L 330.676364 148.629658 
" style="fill:none;stroke:#4c72b0;stroke-width:1.5;"/>
    <path clip-path="url(#p462078c3d9)" d="M 395.607273 441 
L 395.607273 177.866692 
" style="fill:none;stroke:#4c72b0;stroke-width:1.5;"/>
    <path clip-path="url(#p462078c3d9)" d="M 460.538182 441 
L 460.538182 207.103726 
" style="fill:none;stroke:#4c72b0;stroke-width:1.5;"/>
    <path clip-path="url(#p462078c3d9)" d="M 525.469091 441 
L 525.469091 236.340761 
" style="fill:none;stroke:#4c72b0;stroke-width:1.5;"/>
    <path clip-path="url(#p462078c3d9)" d="M 590.4 441 
L 590.4 265.577795 
" style="fill:none;stroke:#4c72b0;stroke-width:1.5;"/>
    <path clip-path="url(#p462078c3d9)" d="M 655.330909 441 
L 655.330909 236.340761 
" style="fill:none;stroke:#4c72b0;stroke-width:1.5;"/>
    <path clip-path="url(#p462078c3d9)" d="M 720.261818 441 
L 720.261818 207.103726 
" style="fill:none;stroke:#4c72b0;stroke-width:1.5;"/>
    <path clip-path="url(#p462078c3d9)" d="M 785.192727 441 
L 785.192727 177.866692 
" style="fill:none;stroke:#4c72b0;stroke-width:1.5;"/>
    <path clip-path="url(#p462078c3d9)" d="M 850.123636 441 
L 850.123636 148.629658 
" style="fill:none;stroke:#4c72b0;stroke-width:1.5;"/>
    <path clip-path="url(#p462078c3d9)" d="M 915.054545 441 
L 915.054545 148.629658 
" style="fill:none;stroke:#4c72b0;stroke-width:1.5;"/>
    <path clip-path="url(#p462078c3d9)" d="M 979.985455 441 
L 979.985455 90.15559 
" style="fill:none;stroke:#4c72b0;stroke-width:1.5;"/>
   </g>
   <g id="patch_3">
    <path d="M 144 441 
L 144 60.48 
" style="fill:none;stroke:#cccccc;stroke-linecap:square;stroke-linejoin:miter;stroke-width:1.25;"/>
   </g>
   <g id="patch_4">
    <path d="M 1036.8 441 
L 1036.8 60.48 
" style="fill:none;stroke:#cccccc;stroke-linecap:square;stroke-linejoin:miter;stroke-width:1.25;"/>
   </g>
   <g id="patch_5">
    <path d="M 144 441 
L 1036.8 441 
" style="fill:none;stroke:#cccccc;stroke-linecap:square;stroke-linejoin:miter;stroke-width:1.25;"/>
   </g>
   <g id="patch_6">
    <path d="M 144 60.48 
L 1036.8 60.48 
" style="fill:none;stroke:#cccccc;stroke-linecap:square;stroke-linejoin:miter;stroke-width:1.25;"/>
   </g>
  </g>
 </g>
 <defs>
  <clipPath id="p462078c3d9">
   <rect height="380.52" width="892.8" x="144" y="60.48"/>
  </clipPath>
 </defs>
</svg>
