<?xml version="1.0" encoding="utf-8" standalone="no"?>
<!DOCTYPE svg PUBLIC "-//W3C//DTD SVG 1.1//EN"
  "http://www.w3.org/Graphics/SVG/1.1/DTD/svg11.dtd">
<!-- Created with matplotlib (https://matplotlib.org/) -->
<svg height="504pt" version="1.1" viewBox="0 0 1152 504" width="1152pt" xmlns="http://www.w3.org/2000/svg" xmlns:xlink="http://www.w3.org/1999/xlink">
 <metadata>
  <rdf:RDF xmlns:cc="http://creativecommons.org/ns#" xmlns:dc="http://purl.org/dc/elements/1.1/" xmlns:rdf="http://www.w3.org/1999/02/22-rdf-syntax-ns#">
   <cc:Work>
    <dc:type rdf:resource="http://purl.org/dc/dcmitype/StillImage"/>
    <dc:date>2020-09-12T12:40:10.465921</dc:date>
    <dc:format>image/svg+xml</dc:format>
    <dc:creator>
     <cc:Agent>
      <dc:title>Matplotlib v3.3.1, https://matplotlib.org/</dc:title>
     </cc:Agent>
    </dc:creator>
   </cc:Work>
  </rdf:RDF>
 </metadata>
 <defs>
  <style type="text/css">*{stroke-linecap:butt;stroke-linejoin:round;}</style>
 </defs>
 <g id="figure_1">
  <g id="patch_1">
   <path d="M 0 504 
L 1152 504 
L 1152 0 
L 0 0 
z
" style="fill:#ffffff;"/>
  </g>
  <g id="axes_1">
   <g id="patch_2">
    <path d="M 144 441 
L 1036.8 441 
L 1036.8 60.48 
L 144 60.48 
z
" style="fill:#ffffff;"/>
   </g>
   <g id="matplotlib.axis_1">
    <g id="xtick_1">
     <g id="line2d_1">
      <path clip-path="url(#p08f0ba9eef)" d="M 265.745455 441 
L 265.745455 60.48 
" style="fill:none;stroke:#cccccc;stroke-linecap:round;"/>
     </g>
     <g id="text_1">
      <!-- 1400 -->
      <g style="fill:#262626;" transform="translate(253.511392 458.373594)scale(0.11 -0.11)">
       <defs>
        <path d="M 37.25 0 
L 28.46875 0 
L 28.46875 56 
Q 25.296875 52.984375 20.140625 49.953125 
Q 14.984375 46.921875 10.890625 45.40625 
L 10.890625 53.90625 
Q 18.265625 57.375 23.78125 62.296875 
Q 29.296875 67.234375 31.59375 71.875 
L 37.25 71.875 
z
" id="ArialMT-49"/>
        <path d="M 32.328125 0 
L 32.328125 17.140625 
L 1.265625 17.140625 
L 1.265625 25.203125 
L 33.9375 71.578125 
L 41.109375 71.578125 
L 41.109375 25.203125 
L 50.78125 25.203125 
L 50.78125 17.140625 
L 41.109375 17.140625 
L 41.109375 0 
z
M 32.328125 25.203125 
L 32.328125 57.46875 
L 9.90625 25.203125 
z
" id="ArialMT-52"/>
        <path d="M 4.15625 35.296875 
Q 4.15625 48 6.765625 55.734375 
Q 9.375 63.484375 14.515625 67.671875 
Q 19.671875 71.875 27.484375 71.875 
Q 33.25 71.875 37.59375 69.546875 
Q 41.9375 67.234375 44.765625 62.859375 
Q 47.609375 58.5 49.21875 52.21875 
Q 50.828125 45.953125 50.828125 35.296875 
Q 50.828125 22.703125 48.234375 14.96875 
Q 45.65625 7.234375 40.5 3 
Q 35.359375 -1.21875 27.484375 -1.21875 
Q 17.140625 -1.21875 11.234375 6.203125 
Q 4.15625 15.140625 4.15625 35.296875 
z
M 13.1875 35.296875 
Q 13.1875 17.671875 17.3125 11.828125 
Q 21.4375 6 27.484375 6 
Q 33.546875 6 37.671875 11.859375 
Q 41.796875 17.71875 41.796875 35.296875 
Q 41.796875 52.984375 37.671875 58.78125 
Q 33.546875 64.59375 27.390625 64.59375 
Q 21.34375 64.59375 17.71875 59.46875 
Q 13.1875 52.9375 13.1875 35.296875 
z
" id="ArialMT-48"/>
       </defs>
       <use xlink:href="#ArialMT-49"/>
       <use x="55.615234" xlink:href="#ArialMT-52"/>
       <use x="111.230469" xlink:href="#ArialMT-48"/>
       <use x="166.845703" xlink:href="#ArialMT-48"/>
      </g>
     </g>
    </g>
    <g id="xtick_2">
     <g id="line2d_2">
      <path clip-path="url(#p08f0ba9eef)" d="M 395.607273 441 
L 395.607273 60.48 
" style="fill:none;stroke:#cccccc;stroke-linecap:round;"/>
     </g>
     <g id="text_2">
      <!-- 1500 -->
      <g style="fill:#262626;" transform="translate(383.37321 458.373594)scale(0.11 -0.11)">
       <defs>
        <path d="M 4.15625 18.75 
L 13.375 19.53125 
Q 14.40625 12.796875 18.140625 9.390625 
Q 21.875 6 27.15625 6 
Q 33.5 6 37.890625 10.78125 
Q 42.28125 15.578125 42.28125 23.484375 
Q 42.28125 31 38.0625 35.34375 
Q 33.84375 39.703125 27 39.703125 
Q 22.75 39.703125 19.328125 37.765625 
Q 15.921875 35.84375 13.96875 32.765625 
L 5.71875 33.84375 
L 12.640625 70.609375 
L 48.25 70.609375 
L 48.25 62.203125 
L 19.671875 62.203125 
L 15.828125 42.96875 
Q 22.265625 47.46875 29.34375 47.46875 
Q 38.71875 47.46875 45.15625 40.96875 
Q 51.609375 34.46875 51.609375 24.265625 
Q 51.609375 14.546875 45.953125 7.46875 
Q 39.0625 -1.21875 27.15625 -1.21875 
Q 17.390625 -1.21875 11.203125 4.25 
Q 5.03125 9.71875 4.15625 18.75 
z
" id="ArialMT-53"/>
       </defs>
       <use xlink:href="#ArialMT-49"/>
       <use x="55.615234" xlink:href="#ArialMT-53"/>
       <use x="111.230469" xlink:href="#ArialMT-48"/>
       <use x="166.845703" xlink:href="#ArialMT-48"/>
      </g>
     </g>
    </g>
    <g id="xtick_3">
     <g id="line2d_3">
      <path clip-path="url(#p08f0ba9eef)" d="M 525.469091 441 
L 525.469091 60.48 
" style="fill:none;stroke:#cccccc;stroke-linecap:round;"/>
     </g>
     <g id="text_3">
      <!-- 1600 -->
      <g style="fill:#262626;" transform="translate(513.235028 458.373594)scale(0.11 -0.11)">
       <defs>
        <path d="M 49.75 54.046875 
L 41.015625 53.375 
Q 39.84375 58.546875 37.703125 60.890625 
Q 34.125 64.65625 28.90625 64.65625 
Q 24.703125 64.65625 21.53125 62.3125 
Q 17.390625 59.28125 14.984375 53.46875 
Q 12.59375 47.65625 12.5 36.921875 
Q 15.671875 41.75 20.265625 44.09375 
Q 24.859375 46.4375 29.890625 46.4375 
Q 38.671875 46.4375 44.84375 39.96875 
Q 51.03125 33.5 51.03125 23.25 
Q 51.03125 16.5 48.125 10.71875 
Q 45.21875 4.9375 40.140625 1.859375 
Q 35.0625 -1.21875 28.609375 -1.21875 
Q 17.625 -1.21875 10.6875 6.859375 
Q 3.765625 14.9375 3.765625 33.5 
Q 3.765625 54.25 11.421875 63.671875 
Q 18.109375 71.875 29.4375 71.875 
Q 37.890625 71.875 43.28125 67.140625 
Q 48.6875 62.40625 49.75 54.046875 
z
M 13.875 23.1875 
Q 13.875 18.65625 15.796875 14.5 
Q 17.71875 10.359375 21.1875 8.171875 
Q 24.65625 6 28.46875 6 
Q 34.03125 6 38.03125 10.484375 
Q 42.046875 14.984375 42.046875 22.703125 
Q 42.046875 30.125 38.078125 34.390625 
Q 34.125 38.671875 28.125 38.671875 
Q 22.171875 38.671875 18.015625 34.390625 
Q 13.875 30.125 13.875 23.1875 
z
" id="ArialMT-54"/>
       </defs>
       <use xlink:href="#ArialMT-49"/>
       <use x="55.615234" xlink:href="#ArialMT-54"/>
       <use x="111.230469" xlink:href="#ArialMT-48"/>
       <use x="166.845703" xlink:href="#ArialMT-48"/>
      </g>
     </g>
    </g>
    <g id="xtick_4">
     <g id="line2d_4">
      <path clip-path="url(#p08f0ba9eef)" d="M 655.330909 441 
L 655.330909 60.48 
" style="fill:none;stroke:#cccccc;stroke-linecap:round;"/>
     </g>
     <g id="text_4">
      <!-- 1700 -->
      <g style="fill:#262626;" transform="translate(643.096847 458.373594)scale(0.11 -0.11)">
       <defs>
        <path d="M 4.734375 62.203125 
L 4.734375 70.65625 
L 51.078125 70.65625 
L 51.078125 63.8125 
Q 44.234375 56.546875 37.515625 44.484375 
Q 30.8125 32.421875 27.15625 19.671875 
Q 24.515625 10.6875 23.78125 0 
L 14.75 0 
Q 14.890625 8.453125 18.0625 20.40625 
Q 21.234375 32.375 27.171875 43.484375 
Q 33.109375 54.59375 39.796875 62.203125 
z
" id="ArialMT-55"/>
       </defs>
       <use xlink:href="#ArialMT-49"/>
       <use x="55.615234" xlink:href="#ArialMT-55"/>
       <use x="111.230469" xlink:href="#ArialMT-48"/>
       <use x="166.845703" xlink:href="#ArialMT-48"/>
      </g>
     </g>
    </g>
    <g id="xtick_5">
     <g id="line2d_5">
      <path clip-path="url(#p08f0ba9eef)" d="M 785.192727 441 
L 785.192727 60.48 
" style="fill:none;stroke:#cccccc;stroke-linecap:round;"/>
     </g>
     <g id="text_5">
      <!-- 1800 -->
      <g style="fill:#262626;" transform="translate(772.958665 458.373594)scale(0.11 -0.11)">
       <defs>
        <path d="M 17.671875 38.8125 
Q 12.203125 40.828125 9.5625 44.53125 
Q 6.9375 48.25 6.9375 53.421875 
Q 6.9375 61.234375 12.546875 66.546875 
Q 18.171875 71.875 27.484375 71.875 
Q 36.859375 71.875 42.578125 66.421875 
Q 48.296875 60.984375 48.296875 53.171875 
Q 48.296875 48.1875 45.671875 44.5 
Q 43.0625 40.828125 37.75 38.8125 
Q 44.34375 36.671875 47.78125 31.875 
Q 51.21875 27.09375 51.21875 20.453125 
Q 51.21875 11.28125 44.71875 5.03125 
Q 38.234375 -1.21875 27.640625 -1.21875 
Q 17.046875 -1.21875 10.546875 5.046875 
Q 4.046875 11.328125 4.046875 20.703125 
Q 4.046875 27.6875 7.59375 32.390625 
Q 11.140625 37.109375 17.671875 38.8125 
z
M 15.921875 53.71875 
Q 15.921875 48.640625 19.1875 45.40625 
Q 22.46875 42.1875 27.6875 42.1875 
Q 32.765625 42.1875 36.015625 45.375 
Q 39.265625 48.578125 39.265625 53.21875 
Q 39.265625 58.0625 35.90625 61.359375 
Q 32.5625 64.65625 27.59375 64.65625 
Q 22.5625 64.65625 19.234375 61.421875 
Q 15.921875 58.203125 15.921875 53.71875 
z
M 13.09375 20.65625 
Q 13.09375 16.890625 14.875 13.375 
Q 16.65625 9.859375 20.171875 7.921875 
Q 23.6875 6 27.734375 6 
Q 34.03125 6 38.125 10.046875 
Q 42.234375 14.109375 42.234375 20.359375 
Q 42.234375 26.703125 38.015625 30.859375 
Q 33.796875 35.015625 27.4375 35.015625 
Q 21.234375 35.015625 17.15625 30.90625 
Q 13.09375 26.8125 13.09375 20.65625 
z
" id="ArialMT-56"/>
       </defs>
       <use xlink:href="#ArialMT-49"/>
       <use x="55.615234" xlink:href="#ArialMT-56"/>
       <use x="111.230469" xlink:href="#ArialMT-48"/>
       <use x="166.845703" xlink:href="#ArialMT-48"/>
      </g>
     </g>
    </g>
    <g id="xtick_6">
     <g id="line2d_6">
      <path clip-path="url(#p08f0ba9eef)" d="M 915.054545 441 
L 915.054545 60.48 
" style="fill:none;stroke:#cccccc;stroke-linecap:round;"/>
     </g>
     <g id="text_6">
      <!-- 1900 -->
      <g style="fill:#262626;" transform="translate(902.820483 458.373594)scale(0.11 -0.11)">
       <defs>
        <path d="M 5.46875 16.546875 
L 13.921875 17.328125 
Q 14.984375 11.375 18.015625 8.6875 
Q 21.046875 6 25.78125 6 
Q 29.828125 6 32.875 7.859375 
Q 35.9375 9.71875 37.890625 12.8125 
Q 39.84375 15.921875 41.15625 21.1875 
Q 42.484375 26.46875 42.484375 31.9375 
Q 42.484375 32.515625 42.4375 33.6875 
Q 39.796875 29.5 35.234375 26.875 
Q 30.671875 24.265625 25.34375 24.265625 
Q 16.453125 24.265625 10.296875 30.703125 
Q 4.15625 37.15625 4.15625 47.703125 
Q 4.15625 58.59375 10.578125 65.234375 
Q 17 71.875 26.65625 71.875 
Q 33.640625 71.875 39.421875 68.109375 
Q 45.21875 64.359375 48.21875 57.390625 
Q 51.21875 50.4375 51.21875 37.25 
Q 51.21875 23.53125 48.234375 15.40625 
Q 45.265625 7.28125 39.375 3.03125 
Q 33.5 -1.21875 25.59375 -1.21875 
Q 17.1875 -1.21875 11.859375 3.4375 
Q 6.546875 8.109375 5.46875 16.546875 
z
M 41.453125 48.140625 
Q 41.453125 55.71875 37.421875 60.15625 
Q 33.40625 64.59375 27.734375 64.59375 
Q 21.875 64.59375 17.53125 59.8125 
Q 13.1875 55.03125 13.1875 47.40625 
Q 13.1875 40.578125 17.3125 36.296875 
Q 21.4375 32.03125 27.484375 32.03125 
Q 33.59375 32.03125 37.515625 36.296875 
Q 41.453125 40.578125 41.453125 48.140625 
z
" id="ArialMT-57"/>
       </defs>
       <use xlink:href="#ArialMT-49"/>
       <use x="55.615234" xlink:href="#ArialMT-57"/>
       <use x="111.230469" xlink:href="#ArialMT-48"/>
       <use x="166.845703" xlink:href="#ArialMT-48"/>
      </g>
     </g>
    </g>
   </g>
   <g id="matplotlib.axis_2">
    <g id="ytick_1">
     <g id="line2d_7">
      <path clip-path="url(#p08f0ba9eef)" d="M 144 441 
L 1036.8 441 
" style="fill:none;stroke:#cccccc;stroke-linecap:round;"/>
     </g>
     <g id="text_7">
      <!-- 0 -->
      <g style="fill:#262626;" transform="translate(128.382969 444.936797)scale(0.11 -0.11)">
       <use xlink:href="#ArialMT-48"/>
      </g>
     </g>
    </g>
    <g id="ytick_2">
     <g id="line2d_8">
      <path clip-path="url(#p08f0ba9eef)" d="M 144 382.525932 
L 1036.8 382.525932 
" style="fill:none;stroke:#cccccc;stroke-linecap:round;"/>
     </g>
     <g id="text_8">
      <!-- 100 -->
      <g style="fill:#262626;" transform="translate(116.148906 386.462728)scale(0.11 -0.11)">
       <use xlink:href="#ArialMT-49"/>
       <use x="55.615234" xlink:href="#ArialMT-48"/>
       <use x="111.230469" xlink:href="#ArialMT-48"/>
      </g>
     </g>
    </g>
    <g id="ytick_3">
     <g id="line2d_9">
      <path clip-path="url(#p08f0ba9eef)" d="M 144 324.051863 
L 1036.8 324.051863 
" style="fill:none;stroke:#cccccc;stroke-linecap:round;"/>
     </g>
     <g id="text_9">
      <!-- 200 -->
      <g style="fill:#262626;" transform="translate(116.148906 327.98866)scale(0.11 -0.11)">
       <defs>
        <path d="M 50.34375 8.453125 
L 50.34375 0 
L 3.03125 0 
Q 2.9375 3.171875 4.046875 6.109375 
Q 5.859375 10.9375 9.828125 15.625 
Q 13.8125 20.3125 21.34375 26.46875 
Q 33.015625 36.03125 37.109375 41.625 
Q 41.21875 47.21875 41.21875 52.203125 
Q 41.21875 57.421875 37.46875 61 
Q 33.734375 64.59375 27.734375 64.59375 
Q 21.390625 64.59375 17.578125 60.78125 
Q 13.765625 56.984375 13.71875 50.25 
L 4.6875 51.171875 
Q 5.609375 61.28125 11.65625 66.578125 
Q 17.71875 71.875 27.9375 71.875 
Q 38.234375 71.875 44.234375 66.15625 
Q 50.25 60.453125 50.25 52 
Q 50.25 47.703125 48.484375 43.546875 
Q 46.734375 39.40625 42.65625 34.8125 
Q 38.578125 30.21875 29.109375 22.21875 
Q 21.1875 15.578125 18.9375 13.203125 
Q 16.703125 10.84375 15.234375 8.453125 
z
" id="ArialMT-50"/>
       </defs>
       <use xlink:href="#ArialMT-50"/>
       <use x="55.615234" xlink:href="#ArialMT-48"/>
       <use x="111.230469" xlink:href="#ArialMT-48"/>
      </g>
     </g>
    </g>
    <g id="ytick_4">
     <g id="line2d_10">
      <path clip-path="url(#p08f0ba9eef)" d="M 144 265.577795 
L 1036.8 265.577795 
" style="fill:none;stroke:#cccccc;stroke-linecap:round;"/>
     </g>
     <g id="text_10">
      <!-- 300 -->
      <g style="fill:#262626;" transform="translate(116.148906 269.514592)scale(0.11 -0.11)">
       <defs>
        <path d="M 4.203125 18.890625 
L 12.984375 20.0625 
Q 14.5 12.59375 18.140625 9.296875 
Q 21.78125 6 27 6 
Q 33.203125 6 37.46875 10.296875 
Q 41.75 14.59375 41.75 20.953125 
Q 41.75 27 37.796875 30.921875 
Q 33.84375 34.859375 27.734375 34.859375 
Q 25.25 34.859375 21.53125 33.890625 
L 22.515625 41.609375 
Q 23.390625 41.5 23.921875 41.5 
Q 29.546875 41.5 34.03125 44.421875 
Q 38.53125 47.359375 38.53125 53.46875 
Q 38.53125 58.296875 35.25 61.46875 
Q 31.984375 64.65625 26.8125 64.65625 
Q 21.6875 64.65625 18.265625 61.421875 
Q 14.84375 58.203125 13.875 51.765625 
L 5.078125 53.328125 
Q 6.6875 62.15625 12.390625 67.015625 
Q 18.109375 71.875 26.609375 71.875 
Q 32.46875 71.875 37.390625 69.359375 
Q 42.328125 66.84375 44.9375 62.5 
Q 47.5625 58.15625 47.5625 53.265625 
Q 47.5625 48.640625 45.0625 44.828125 
Q 42.578125 41.015625 37.703125 38.765625 
Q 44.046875 37.3125 47.5625 32.6875 
Q 51.078125 28.078125 51.078125 21.140625 
Q 51.078125 11.765625 44.234375 5.25 
Q 37.40625 -1.265625 26.953125 -1.265625 
Q 17.53125 -1.265625 11.296875 4.34375 
Q 5.078125 9.96875 4.203125 18.890625 
z
" id="ArialMT-51"/>
       </defs>
       <use xlink:href="#ArialMT-51"/>
       <use x="55.615234" xlink:href="#ArialMT-48"/>
       <use x="111.230469" xlink:href="#ArialMT-48"/>
      </g>
     </g>
    </g>
    <g id="ytick_5">
     <g id="line2d_11">
      <path clip-path="url(#p08f0ba9eef)" d="M 144 207.103726 
L 1036.8 207.103726 
" style="fill:none;stroke:#cccccc;stroke-linecap:round;"/>
     </g>
     <g id="text_11">
      <!-- 400 -->
      <g style="fill:#262626;" transform="translate(116.148906 211.040523)scale(0.11 -0.11)">
       <use xlink:href="#ArialMT-52"/>
       <use x="55.615234" xlink:href="#ArialMT-48"/>
       <use x="111.230469" xlink:href="#ArialMT-48"/>
      </g>
     </g>
    </g>
    <g id="ytick_6">
     <g id="line2d_12">
      <path clip-path="url(#p08f0ba9eef)" d="M 144 148.629658 
L 1036.8 148.629658 
" style="fill:none;stroke:#cccccc;stroke-linecap:round;"/>
     </g>
     <g id="text_12">
      <!-- 500 -->
      <g style="fill:#262626;" transform="translate(116.148906 152.566455)scale(0.11 -0.11)">
       <use xlink:href="#ArialMT-53"/>
       <use x="55.615234" xlink:href="#ArialMT-48"/>
       <use x="111.230469" xlink:href="#ArialMT-48"/>
      </g>
     </g>
    </g>
    <g id="ytick_7">
     <g id="line2d_13">
      <path clip-path="url(#p08f0ba9eef)" d="M 144 90.15559 
L 1036.8 90.15559 
" style="fill:none;stroke:#cccccc;stroke-linecap:round;"/>
     </g>
     <g id="text_13">
      <!-- 600 -->
      <g style="fill:#262626;" transform="translate(116.148906 94.092387)scale(0.11 -0.11)">
       <use xlink:href="#ArialMT-54"/>
       <use x="55.615234" xlink:href="#ArialMT-48"/>
       <use x="111.230469" xlink:href="#ArialMT-48"/>
      </g>
     </g>
    </g>
   </g>
   <g id="PolyCollection_1">
    <defs>
     <path d="M 216.378662 -63 
L 185.250429 -63 
L 184.967281 -66.543883 
L 184.761326 -70.087766 
L 184.63316 -73.631649 
L 184.581818 -77.175532 
L 184.604823 -80.719415 
L 184.698261 -84.263298 
L 184.856916 -87.807181 
L 185.074436 -91.351063 
L 185.343531 -94.894946 
L 185.656199 -98.438829 
L 186.003963 -101.982712 
L 186.378118 -105.526595 
L 186.769976 -109.070478 
L 187.171097 -112.614361 
L 187.573505 -116.158244 
L 187.969878 -119.702127 
L 188.353705 -123.24601 
L 188.719416 -126.789893 
L 189.062463 -130.333776 
L 189.379376 -133.877659 
L 189.667773 -137.421542 
L 189.926334 -140.965425 
L 190.154749 -144.509307 
L 190.353626 -148.05319 
L 190.524391 -151.597073 
L 190.669151 -155.140956 
L 190.790558 -158.684839 
L 190.891663 -162.228722 
L 190.975763 -165.772605 
L 191.046264 -169.316488 
L 191.106542 -172.860371 
L 191.159827 -176.404254 
L 191.209101 -179.948137 
L 191.257016 -183.49202 
L 191.305833 -187.035903 
L 191.357391 -190.579786 
L 191.413085 -194.123668 
L 191.473879 -197.667551 
L 191.540325 -201.211434 
L 191.612609 -204.755317 
L 191.690602 -208.2992 
L 191.773925 -211.843083 
L 191.862016 -215.386966 
L 191.954201 -218.930849 
L 192.049763 -222.474732 
L 192.148005 -226.018615 
L 192.248305 -229.562498 
L 192.350166 -233.106381 
L 192.453246 -236.650264 
L 192.557382 -240.194147 
L 192.662601 -243.73803 
L 192.769118 -247.281912 
L 192.877321 -250.825795 
L 192.987747 -254.369678 
L 193.101053 -257.913561 
L 193.217974 -261.457444 
L 193.33928 -265.001327 
L 193.465734 -268.54521 
L 193.598045 -272.089093 
L 193.736824 -275.632976 
L 193.882546 -279.176859 
L 194.035513 -282.720742 
L 194.195831 -286.264625 
L 194.363385 -289.808508 
L 194.53783 -293.352391 
L 194.71859 -296.896274 
L 194.904859 -300.440156 
L 195.095617 -303.984039 
L 195.289654 -307.527922 
L 195.485596 -311.071805 
L 195.681941 -314.615688 
L 195.8771 -318.159571 
L 196.069437 -321.703454 
L 196.25732 -325.247337 
L 196.439161 -328.79122 
L 196.613467 -332.335103 
L 196.778881 -335.878986 
L 196.934221 -339.422869 
L 197.078518 -342.966752 
L 197.211045 -346.510635 
L 197.331339 -350.054518 
L 197.439219 -353.5984 
L 197.53479 -357.142283 
L 197.618442 -360.686166 
L 197.690847 -364.230049 
L 197.75293 -367.773932 
L 197.805854 -371.317815 
L 197.85098 -374.861698 
L 197.889831 -378.405581 
L 197.924047 -381.949464 
L 197.955333 -385.493347 
L 197.985416 -389.03723 
L 198.015989 -392.581113 
L 198.048661 -396.124996 
L 198.084916 -399.668879 
L 198.126064 -403.212761 
L 198.173211 -406.756644 
L 198.227229 -410.300527 
L 198.288732 -413.84441 
L 203.340358 -413.84441 
L 203.340358 -413.84441 
L 203.401862 -410.300527 
L 203.455879 -406.756644 
L 203.503027 -403.212761 
L 203.544175 -399.668879 
L 203.58043 -396.124996 
L 203.613102 -392.581113 
L 203.643675 -389.03723 
L 203.673758 -385.493347 
L 203.705044 -381.949464 
L 203.739259 -378.405581 
L 203.778111 -374.861698 
L 203.823237 -371.317815 
L 203.876161 -367.773932 
L 203.938244 -364.230049 
L 204.010648 -360.686166 
L 204.094301 -357.142283 
L 204.189872 -353.5984 
L 204.297752 -350.054518 
L 204.418046 -346.510635 
L 204.550573 -342.966752 
L 204.69487 -339.422869 
L 204.85021 -335.878986 
L 205.015623 -332.335103 
L 205.189929 -328.79122 
L 205.371771 -325.247337 
L 205.559654 -321.703454 
L 205.751991 -318.159571 
L 205.94715 -314.615688 
L 206.143495 -311.071805 
L 206.339437 -307.527922 
L 206.533474 -303.984039 
L 206.724232 -300.440156 
L 206.910501 -296.896274 
L 207.091261 -293.352391 
L 207.265706 -289.808508 
L 207.43326 -286.264625 
L 207.593578 -282.720742 
L 207.746545 -279.176859 
L 207.892267 -275.632976 
L 208.031046 -272.089093 
L 208.163357 -268.54521 
L 208.289811 -265.001327 
L 208.411117 -261.457444 
L 208.528037 -257.913561 
L 208.641343 -254.369678 
L 208.75177 -250.825795 
L 208.859973 -247.281912 
L 208.96649 -243.73803 
L 209.071709 -240.194147 
L 209.175845 -236.650264 
L 209.278924 -233.106381 
L 209.380786 -229.562498 
L 209.481086 -226.018615 
L 209.579328 -222.474732 
L 209.67489 -218.930849 
L 209.767075 -215.386966 
L 209.855166 -211.843083 
L 209.938489 -208.2992 
L 210.016482 -204.755317 
L 210.088766 -201.211434 
L 210.155212 -197.667551 
L 210.216006 -194.123668 
L 210.2717 -190.579786 
L 210.323258 -187.035903 
L 210.372075 -183.49202 
L 210.41999 -179.948137 
L 210.469263 -176.404254 
L 210.522549 -172.860371 
L 210.582827 -169.316488 
L 210.653328 -165.772605 
L 210.737428 -162.228722 
L 210.838533 -158.684839 
L 210.95994 -155.140956 
L 211.1047 -151.597073 
L 211.275465 -148.05319 
L 211.474342 -144.509307 
L 211.702756 -140.965425 
L 211.961318 -137.421542 
L 212.249714 -133.877659 
L 212.566628 -130.333776 
L 212.909675 -126.789893 
L 213.275386 -123.24601 
L 213.659213 -119.702127 
L 214.055586 -116.158244 
L 214.457994 -112.614361 
L 214.859115 -109.070478 
L 215.250973 -105.526595 
L 215.625128 -101.982712 
L 215.972892 -98.438829 
L 216.28556 -94.894946 
L 216.554655 -91.351063 
L 216.772175 -87.807181 
L 216.93083 -84.263298 
L 217.024268 -80.719415 
L 217.047273 -77.175532 
L 216.995931 -73.631649 
L 216.867765 -70.087766 
L 216.66181 -66.543883 
L 216.378662 -63 
z
" id="m45bbc5d555" style="stroke:#ffffff;stroke-opacity:0.3;"/>
    </defs>
    <g clip-path="url(#p08f0ba9eef)">
     <use style="fill:#4c72b0;fill-opacity:0.3;stroke:#ffffff;stroke-opacity:0.3;" x="0" xlink:href="#m45bbc5d555" y="504"/>
    </g>
   </g>
   <g id="PolyCollection_2">
    <defs>
     <path d="M 281.647173 -63 
L 249.843736 -63 
L 249.614201 -66.248559 
L 249.512727 -69.497119 
L 249.533792 -72.745678 
L 249.66779 -75.994237 
L 249.901612 -79.242797 
L 250.219386 -82.491356 
L 250.603359 -85.739915 
L 251.034825 -88.988475 
L 251.495057 -92.237034 
L 251.966182 -95.485594 
L 252.431939 -98.734153 
L 252.878292 -101.982712 
L 253.293871 -105.231272 
L 253.670228 -108.479831 
L 254.001908 -111.72839 
L 254.28637 -114.97695 
L 254.52375 -118.225509 
L 254.71653 -121.474068 
L 254.86912 -124.722628 
L 254.987401 -127.971187 
L 255.078258 -131.219746 
L 255.149121 -134.468306 
L 255.207548 -137.716865 
L 255.260857 -140.965425 
L 255.315823 -144.213984 
L 255.378442 -147.462543 
L 255.453761 -150.711103 
L 255.545781 -153.959662 
L 255.657418 -157.208221 
L 255.790512 -160.456781 
L 255.945889 -163.70534 
L 256.123451 -166.953899 
L 256.322292 -170.202459 
L 256.540836 -173.451018 
L 256.776969 -176.699577 
L 257.028185 -179.948137 
L 257.291718 -183.196696 
L 257.564658 -186.445255 
L 257.84406 -189.693815 
L 258.127033 -192.942374 
L 258.410809 -196.190934 
L 258.692794 -199.439493 
L 258.970603 -202.688052 
L 259.242082 -205.936612 
L 259.505313 -209.185171 
L 259.758614 -212.43373 
L 260.000528 -215.68229 
L 260.229811 -218.930849 
L 260.445417 -222.179408 
L 260.646482 -225.427968 
L 260.832317 -228.676527 
L 261.002397 -231.925086 
L 261.156358 -235.173646 
L 261.294005 -238.422205 
L 261.415313 -241.670765 
L 261.520443 -244.919324 
L 261.60975 -248.167883 
L 261.683801 -251.416443 
L 261.743381 -254.665002 
L 261.7895 -257.913561 
L 261.823391 -261.162121 
L 261.846496 -264.41068 
L 261.860448 -267.659239 
L 261.867033 -270.907799 
L 261.868143 -274.156358 
L 261.865729 -277.404917 
L 261.861732 -280.653477 
L 261.858017 -283.902036 
L 261.856312 -287.150595 
L 261.858141 -290.399155 
L 261.864774 -293.647714 
L 261.877183 -296.896274 
L 261.89602 -300.144833 
L 261.921609 -303.393392 
L 261.953954 -306.641952 
L 261.992771 -309.890511 
L 262.037527 -313.13907 
L 262.087505 -316.38763 
L 262.14186 -319.636189 
L 262.199698 -322.884748 
L 262.260139 -326.133308 
L 262.322386 -329.381867 
L 262.385779 -332.630426 
L 262.449841 -335.878986 
L 262.514305 -339.127545 
L 262.579132 -342.376104 
L 262.644504 -345.624664 
L 262.710812 -348.873223 
L 262.778622 -352.121783 
L 262.848634 -355.370342 
L 262.921627 -358.618901 
L 262.99841 -361.867461 
L 263.079752 -365.11602 
L 263.166332 -368.364579 
L 263.258682 -371.613139 
L 263.35714 -374.861698 
L 263.461815 -378.110257 
L 263.572565 -381.358817 
L 263.688982 -384.607376 
L 267.801927 -384.607376 
L 267.801927 -384.607376 
L 267.918344 -381.358817 
L 268.029094 -378.110257 
L 268.13377 -374.861698 
L 268.232228 -371.613139 
L 268.324577 -368.364579 
L 268.411157 -365.11602 
L 268.492499 -361.867461 
L 268.569282 -358.618901 
L 268.642275 -355.370342 
L 268.712287 -352.121783 
L 268.780097 -348.873223 
L 268.846405 -345.624664 
L 268.911778 -342.376104 
L 268.976604 -339.127545 
L 269.041068 -335.878986 
L 269.10513 -332.630426 
L 269.168524 -329.381867 
L 269.23077 -326.133308 
L 269.291211 -322.884748 
L 269.349049 -319.636189 
L 269.403404 -316.38763 
L 269.453382 -313.13907 
L 269.498138 -309.890511 
L 269.536955 -306.641952 
L 269.5693 -303.393392 
L 269.594889 -300.144833 
L 269.613726 -296.896274 
L 269.626135 -293.647714 
L 269.632768 -290.399155 
L 269.634597 -287.150595 
L 269.632892 -283.902036 
L 269.629177 -280.653477 
L 269.62518 -277.404917 
L 269.622766 -274.156358 
L 269.623877 -270.907799 
L 269.630461 -267.659239 
L 269.644413 -264.41068 
L 269.667518 -261.162121 
L 269.701409 -257.913561 
L 269.747528 -254.665002 
L 269.807108 -251.416443 
L 269.881159 -248.167883 
L 269.970467 -244.919324 
L 270.075596 -241.670765 
L 270.196904 -238.422205 
L 270.334551 -235.173646 
L 270.488513 -231.925086 
L 270.658592 -228.676527 
L 270.844427 -225.427968 
L 271.045493 -222.179408 
L 271.261098 -218.930849 
L 271.490381 -215.68229 
L 271.732295 -212.43373 
L 271.985596 -209.185171 
L 272.248827 -205.936612 
L 272.520306 -202.688052 
L 272.798115 -199.439493 
L 273.0801 -196.190934 
L 273.363876 -192.942374 
L 273.646849 -189.693815 
L 273.926252 -186.445255 
L 274.199191 -183.196696 
L 274.462724 -179.948137 
L 274.71394 -176.699577 
L 274.950074 -173.451018 
L 275.168617 -170.202459 
L 275.367458 -166.953899 
L 275.54502 -163.70534 
L 275.700397 -160.456781 
L 275.833491 -157.208221 
L 275.945128 -153.959662 
L 276.037149 -150.711103 
L 276.112467 -147.462543 
L 276.175086 -144.213984 
L 276.230052 -140.965425 
L 276.283362 -137.716865 
L 276.341788 -134.468306 
L 276.412651 -131.219746 
L 276.503508 -127.971187 
L 276.621789 -124.722628 
L 276.774379 -121.474068 
L 276.967159 -118.225509 
L 277.204539 -114.97695 
L 277.489001 -111.72839 
L 277.820682 -108.479831 
L 278.197038 -105.231272 
L 278.612617 -101.982712 
L 279.05897 -98.734153 
L 279.524727 -95.485594 
L 279.995852 -92.237034 
L 280.456084 -88.988475 
L 280.88755 -85.739915 
L 281.271523 -82.491356 
L 281.589297 -79.242797 
L 281.823119 -75.994237 
L 281.957117 -72.745678 
L 281.978182 -69.497119 
L 281.876708 -66.248559 
L 281.647173 -63 
z
" id="mfa59967252" style="stroke:#ffffff;stroke-opacity:0.3;"/>
    </defs>
    <g clip-path="url(#p08f0ba9eef)">
     <use style="fill:#4c72b0;fill-opacity:0.3;stroke:#ffffff;stroke-opacity:0.3;" x="0" xlink:href="#mfa59967252" y="504"/>
    </g>
   </g>
   <g id="PolyCollection_3">
    <defs>
     <path d="M 341.837581 -63 
L 319.515146 -63 
L 318.865738 -65.953236 
L 318.244235 -68.906472 
L 317.655987 -71.859707 
L 317.105859 -74.812943 
L 316.598222 -77.766179 
L 316.136964 -80.719415 
L 315.725517 -83.67265 
L 315.366889 -86.625886 
L 315.063687 -89.579122 
L 314.818142 -92.532358 
L 314.632111 -95.485594 
L 314.507063 -98.438829 
L 314.444045 -101.392065 
L 314.443636 -104.345301 
L 314.505883 -107.298537 
L 314.630224 -110.251772 
L 314.815424 -113.205008 
L 315.059502 -116.158244 
L 315.359692 -119.11148 
L 315.71241 -122.064716 
L 316.113261 -125.017951 
L 316.557076 -127.971187 
L 317.037979 -130.924423 
L 317.549497 -133.877659 
L 318.084687 -136.830894 
L 318.636296 -139.78413 
L 319.196936 -142.737366 
L 319.75926 -145.690602 
L 320.316151 -148.643838 
L 320.860886 -151.597073 
L 321.387296 -154.550309 
L 321.889897 -157.503545 
L 322.363996 -160.456781 
L 322.80577 -163.410016 
L 323.212305 -166.363252 
L 323.581618 -169.316488 
L 323.912643 -172.269724 
L 324.20519 -175.22296 
L 324.459891 -178.176195 
L 324.678121 -181.129431 
L 324.861908 -184.082667 
L 325.013833 -187.035903 
L 325.136924 -189.989138 
L 325.23455 -192.942374 
L 325.310309 -195.89561 
L 325.367929 -198.848846 
L 325.411161 -201.802082 
L 325.443695 -204.755317 
L 325.469069 -207.708553 
L 325.4906 -210.661789 
L 325.511321 -213.615025 
L 325.533925 -216.56826 
L 325.560734 -219.521496 
L 325.593662 -222.474732 
L 325.634208 -225.427968 
L 325.683447 -228.381204 
L 325.742039 -231.334439 
L 325.810249 -234.287675 
L 325.887977 -237.240911 
L 325.974788 -240.194147 
L 326.069968 -243.147382 
L 326.172567 -246.100618 
L 326.281458 -249.053854 
L 326.395396 -252.00709 
L 326.513073 -254.960325 
L 326.633177 -257.913561 
L 326.754438 -260.866797 
L 326.875679 -263.820033 
L 326.995843 -266.773269 
L 327.114028 -269.726504 
L 327.229495 -272.67974 
L 327.341676 -275.632976 
L 327.450167 -278.586212 
L 327.554717 -281.539447 
L 327.655207 -284.492683 
L 327.751624 -287.445919 
L 327.844037 -290.399155 
L 327.93257 -293.352391 
L 328.017379 -296.305626 
L 328.098636 -299.258862 
L 328.176514 -302.212098 
L 328.251186 -305.165334 
L 328.322821 -308.118569 
L 328.391593 -311.071805 
L 328.457693 -314.025041 
L 328.521339 -316.978277 
L 328.58279 -319.931513 
L 328.64236 -322.884748 
L 328.700417 -325.837984 
L 328.757393 -328.79122 
L 328.813772 -331.744456 
L 328.870082 -334.697691 
L 328.926872 -337.650927 
L 328.98469 -340.604163 
L 329.044053 -343.557399 
L 329.105417 -346.510635 
L 329.169147 -349.46387 
L 329.235494 -352.417106 
L 329.304567 -355.370342 
L 332.04816 -355.370342 
L 332.04816 -355.370342 
L 332.117234 -352.417106 
L 332.18358 -349.46387 
L 332.247311 -346.510635 
L 332.308674 -343.557399 
L 332.368037 -340.604163 
L 332.425855 -337.650927 
L 332.482645 -334.697691 
L 332.538955 -331.744456 
L 332.595335 -328.79122 
L 332.652311 -325.837984 
L 332.710368 -322.884748 
L 332.769937 -319.931513 
L 332.831388 -316.978277 
L 332.895034 -314.025041 
L 332.961134 -311.071805 
L 333.029906 -308.118569 
L 333.101541 -305.165334 
L 333.176213 -302.212098 
L 333.254091 -299.258862 
L 333.335348 -296.305626 
L 333.420157 -293.352391 
L 333.50869 -290.399155 
L 333.601103 -287.445919 
L 333.69752 -284.492683 
L 333.79801 -281.539447 
L 333.902561 -278.586212 
L 334.011052 -275.632976 
L 334.123232 -272.67974 
L 334.238699 -269.726504 
L 334.356884 -266.773269 
L 334.477049 -263.820033 
L 334.598289 -260.866797 
L 334.71955 -257.913561 
L 334.839654 -254.960325 
L 334.957331 -252.00709 
L 335.071269 -249.053854 
L 335.18016 -246.100618 
L 335.282759 -243.147382 
L 335.377939 -240.194147 
L 335.464751 -237.240911 
L 335.542478 -234.287675 
L 335.610689 -231.334439 
L 335.669281 -228.381204 
L 335.718519 -225.427968 
L 335.759065 -222.474732 
L 335.791993 -219.521496 
L 335.818802 -216.56826 
L 335.841407 -213.615025 
L 335.862127 -210.661789 
L 335.883658 -207.708553 
L 335.909032 -204.755317 
L 335.941566 -201.802082 
L 335.984798 -198.848846 
L 336.042418 -195.89561 
L 336.118177 -192.942374 
L 336.215803 -189.989138 
L 336.338894 -187.035903 
L 336.490819 -184.082667 
L 336.674606 -181.129431 
L 336.892836 -178.176195 
L 337.147538 -175.22296 
L 337.440085 -172.269724 
L 337.771109 -169.316488 
L 338.140422 -166.363252 
L 338.546957 -163.410016 
L 338.988731 -160.456781 
L 339.462831 -157.503545 
L 339.965432 -154.550309 
L 340.491841 -151.597073 
L 341.036576 -148.643838 
L 341.593467 -145.690602 
L 342.155792 -142.737366 
L 342.716431 -139.78413 
L 343.26804 -136.830894 
L 343.80323 -133.877659 
L 344.314748 -130.924423 
L 344.795652 -127.971187 
L 345.239466 -125.017951 
L 345.640317 -122.064716 
L 345.993035 -119.11148 
L 346.293225 -116.158244 
L 346.537304 -113.205008 
L 346.722503 -110.251772 
L 346.846844 -107.298537 
L 346.909091 -104.345301 
L 346.908683 -101.392065 
L 346.845665 -98.438829 
L 346.720616 -95.485594 
L 346.534585 -92.532358 
L 346.28904 -89.579122 
L 345.985839 -86.625886 
L 345.62721 -83.67265 
L 345.215764 -80.719415 
L 344.754506 -77.766179 
L 344.246868 -74.812943 
L 343.69674 -71.859707 
L 343.108492 -68.906472 
L 342.486989 -65.953236 
L 341.837581 -63 
z
" id="m3deb08a2fc" style="stroke:#ffffff;stroke-opacity:0.3;"/>
    </defs>
    <g clip-path="url(#p08f0ba9eef)">
     <use style="fill:#4c72b0;fill-opacity:0.3;stroke:#ffffff;stroke-opacity:0.3;" x="0" xlink:href="#m3deb08a2fc" y="504"/>
    </g>
   </g>
   <g id="PolyCollection_4">
    <defs>
     <path d="M 407.149437 -63 
L 384.065109 -63 
L 383.372789 -65.657912 
L 382.726183 -68.315824 
L 382.130013 -70.973737 
L 381.587819 -73.631649 
L 381.102149 -76.289561 
L 380.674771 -78.947473 
L 380.306868 -81.605385 
L 379.999203 -84.263298 
L 379.752245 -86.92121 
L 379.566257 -89.579122 
L 379.44134 -92.237034 
L 379.377478 -94.894946 
L 379.374545 -97.552859 
L 379.432321 -100.210771 
L 379.55048 -102.868683 
L 379.728564 -105.526595 
L 379.965917 -108.184507 
L 380.261584 -110.84242 
L 380.614165 -113.500332 
L 381.021638 -116.158244 
L 381.48117 -118.816156 
L 381.988944 -121.474068 
L 382.540024 -124.131981 
L 383.12831 -126.789893 
L 383.746574 -129.447805 
L 384.386618 -132.105717 
L 385.039525 -134.763629 
L 385.695997 -137.421542 
L 386.346752 -140.079454 
L 386.982929 -142.737366 
L 387.596473 -145.395278 
L 388.180462 -148.05319 
L 388.729349 -150.711103 
L 389.239098 -153.369015 
L 389.707225 -156.026927 
L 390.132728 -158.684839 
L 390.515951 -161.342751 
L 390.858374 -164.000664 
L 391.162375 -166.658576 
L 391.430977 -169.316488 
L 391.667602 -171.9744 
L 391.875844 -174.632312 
L 392.059279 -177.290225 
L 392.221318 -179.948137 
L 392.365094 -182.606049 
L 392.493397 -185.263961 
L 392.608643 -187.921873 
L 392.712868 -190.579786 
L 392.807749 -193.237698 
L 392.894641 -195.89561 
L 392.974615 -198.553522 
L 393.048505 -201.211434 
L 393.116948 -203.869347 
L 393.180423 -206.527259 
L 393.239279 -209.185171 
L 393.293767 -211.843083 
L 393.344057 -214.500995 
L 393.39026 -217.158908 
L 393.432447 -219.81682 
L 393.470667 -222.474732 
L 393.504962 -225.132644 
L 393.535387 -227.790556 
L 393.562021 -230.448469 
L 393.584984 -233.106381 
L 393.604447 -235.764293 
L 393.620637 -238.422205 
L 393.633843 -241.080117 
L 393.64441 -243.73803 
L 393.652737 -246.395942 
L 393.659257 -249.053854 
L 393.664424 -251.711766 
L 393.668686 -254.369678 
L 393.672455 -257.027591 
L 393.676079 -259.685503 
L 393.679807 -262.343415 
L 393.683766 -265.001327 
L 393.687937 -267.659239 
L 393.692147 -270.317152 
L 393.696077 -272.975064 
L 393.699274 -275.632976 
L 393.701196 -278.290888 
L 393.701254 -280.9488 
L 393.698879 -283.606713 
L 393.693588 -286.264625 
L 393.685059 -288.922537 
L 393.673201 -291.580449 
L 393.658213 -294.238361 
L 393.640634 -296.896274 
L 393.621365 -299.554186 
L 393.601679 -302.212098 
L 393.583185 -304.87001 
L 393.567778 -307.527922 
L 393.557552 -310.185835 
L 393.554685 -312.843747 
L 393.561307 -315.501659 
L 393.579359 -318.159571 
L 393.610447 -320.817483 
L 393.655712 -323.475396 
L 393.715723 -326.133308 
L 397.498822 -326.133308 
L 397.498822 -326.133308 
L 397.558834 -323.475396 
L 397.604098 -320.817483 
L 397.635186 -318.159571 
L 397.653238 -315.501659 
L 397.659861 -312.843747 
L 397.656993 -310.185835 
L 397.646767 -307.527922 
L 397.631361 -304.87001 
L 397.612867 -302.212098 
L 397.59318 -299.554186 
L 397.573912 -296.896274 
L 397.556332 -294.238361 
L 397.541344 -291.580449 
L 397.529486 -288.922537 
L 397.520957 -286.264625 
L 397.515667 -283.606713 
L 397.513291 -280.9488 
L 397.51335 -278.290888 
L 397.515271 -275.632976 
L 397.518469 -272.975064 
L 397.522398 -270.317152 
L 397.526608 -267.659239 
L 397.530779 -265.001327 
L 397.534738 -262.343415 
L 397.538467 -259.685503 
L 397.542091 -257.027591 
L 397.54586 -254.369678 
L 397.550122 -251.711766 
L 397.555289 -249.053854 
L 397.561809 -246.395942 
L 397.570135 -243.73803 
L 397.580703 -241.080117 
L 397.593909 -238.422205 
L 397.610099 -235.764293 
L 397.629562 -233.106381 
L 397.652525 -230.448469 
L 397.679159 -227.790556 
L 397.709583 -225.132644 
L 397.743878 -222.474732 
L 397.782098 -219.81682 
L 397.824286 -217.158908 
L 397.870489 -214.500995 
L 397.920778 -211.843083 
L 397.975266 -209.185171 
L 398.034123 -206.527259 
L 398.097598 -203.869347 
L 398.166041 -201.211434 
L 398.239931 -198.553522 
L 398.319905 -195.89561 
L 398.406796 -193.237698 
L 398.501678 -190.579786 
L 398.605902 -187.921873 
L 398.721148 -185.263961 
L 398.849452 -182.606049 
L 398.993228 -179.948137 
L 399.155267 -177.290225 
L 399.338702 -174.632312 
L 399.546943 -171.9744 
L 399.783568 -169.316488 
L 400.052171 -166.658576 
L 400.356172 -164.000664 
L 400.698594 -161.342751 
L 401.081817 -158.684839 
L 401.507321 -156.026927 
L 401.975447 -153.369015 
L 402.485197 -150.711103 
L 403.034083 -148.05319 
L 403.618072 -145.395278 
L 404.231616 -142.737366 
L 404.867793 -140.079454 
L 405.518548 -137.421542 
L 406.175021 -134.763629 
L 406.827927 -132.105717 
L 407.467971 -129.447805 
L 408.086236 -126.789893 
L 408.674521 -124.131981 
L 409.225602 -121.474068 
L 409.733375 -118.816156 
L 410.192907 -116.158244 
L 410.60038 -113.500332 
L 410.952961 -110.84242 
L 411.248628 -108.184507 
L 411.485981 -105.526595 
L 411.664065 -102.868683 
L 411.782224 -100.210771 
L 411.84 -97.552859 
L 411.837067 -94.894946 
L 411.773205 -92.237034 
L 411.648289 -89.579122 
L 411.4623 -86.92121 
L 411.215343 -84.263298 
L 410.907678 -81.605385 
L 410.539774 -78.947473 
L 410.112396 -76.289561 
L 409.626727 -73.631649 
L 409.084533 -70.973737 
L 408.488363 -68.315824 
L 407.841757 -65.657912 
L 407.149437 -63 
z
" id="m67207038b9" style="stroke:#ffffff;stroke-opacity:0.3;"/>
    </defs>
    <g clip-path="url(#p08f0ba9eef)">
     <use style="fill:#4c72b0;fill-opacity:0.3;stroke:#ffffff;stroke-opacity:0.3;" x="0" xlink:href="#m67207038b9" y="504"/>
    </g>
   </g>
   <g id="PolyCollection_5">
    <defs>
     <path d="M 475.673416 -63 
L 445.402948 -63 
L 444.927129 -65.362589 
L 444.59009 -67.725177 
L 444.386162 -70.087766 
L 444.305455 -72.450354 
L 444.335506 -74.812943 
L 444.462963 -77.175532 
L 444.675046 -79.53812 
L 444.960601 -81.900709 
L 445.310627 -84.263298 
L 445.718253 -86.625886 
L 446.178253 -88.988475 
L 446.686233 -91.351063 
L 447.237689 -93.713652 
L 447.827136 -96.076241 
L 448.447472 -98.438829 
L 449.089681 -100.801418 
L 449.742923 -103.164007 
L 450.394965 -105.526595 
L 451.032871 -107.889184 
L 451.643831 -110.251772 
L 452.215999 -112.614361 
L 452.739226 -114.97695 
L 453.205625 -117.339538 
L 453.609912 -119.702127 
L 453.949548 -122.064716 
L 454.224689 -124.427304 
L 454.438003 -126.789893 
L 454.594378 -129.152481 
L 454.700576 -131.51507 
L 454.764829 -133.877659 
L 454.796407 -136.240247 
L 454.805139 -138.602836 
L 454.800919 -140.965425 
L 454.793186 -143.328013 
L 454.790429 -145.690602 
L 454.79974 -148.05319 
L 454.826469 -150.415779 
L 454.874023 -152.778368 
L 454.943829 -155.140956 
L 455.035472 -157.503545 
L 455.146996 -159.866133 
L 455.275311 -162.228722 
L 455.416666 -164.591311 
L 455.567113 -166.953899 
L 455.722903 -169.316488 
L 455.880779 -171.679077 
L 456.038136 -174.041665 
L 456.193056 -176.404254 
L 456.344239 -178.766842 
L 456.490877 -181.129431 
L 456.6325 -183.49202 
L 456.768845 -185.854608 
L 456.899766 -188.217197 
L 457.025199 -190.579786 
L 457.145165 -192.942374 
L 457.25981 -195.304963 
L 457.369431 -197.667551 
L 457.474498 -200.03014 
L 457.575624 -202.392729 
L 457.673501 -204.755317 
L 457.768805 -207.117906 
L 457.862084 -209.480495 
L 457.953652 -211.843083 
L 458.043512 -214.205672 
L 458.131322 -216.56826 
L 458.216412 -218.930849 
L 458.297839 -221.293438 
L 458.374487 -223.656026 
L 458.445171 -226.018615 
L 458.508745 -228.381204 
L 458.564195 -230.743792 
L 458.610702 -233.106381 
L 458.647682 -235.468969 
L 458.674805 -237.831558 
L 458.691993 -240.194147 
L 458.699417 -242.556735 
L 458.697485 -244.919324 
L 458.686835 -247.281912 
L 458.668323 -249.644501 
L 458.642998 -252.00709 
L 458.61207 -254.369678 
L 458.576857 -256.732267 
L 458.538724 -259.094856 
L 458.499007 -261.457444 
L 458.458953 -263.820033 
L 458.419667 -266.182621 
L 458.382105 -268.54521 
L 458.347095 -270.907799 
L 458.315399 -273.270387 
L 458.287813 -275.632976 
L 458.265259 -277.995565 
L 458.248886 -280.358153 
L 458.240114 -282.720742 
L 458.240639 -285.08333 
L 458.25235 -287.445919 
L 458.2772 -289.808508 
L 458.317009 -292.171096 
L 458.373241 -294.533685 
L 458.44679 -296.896274 
L 462.629574 -296.896274 
L 462.629574 -296.896274 
L 462.703122 -294.533685 
L 462.759355 -292.171096 
L 462.799163 -289.808508 
L 462.824014 -287.445919 
L 462.835725 -285.08333 
L 462.836249 -282.720742 
L 462.827478 -280.358153 
L 462.811105 -277.995565 
L 462.788551 -275.632976 
L 462.760964 -273.270387 
L 462.729269 -270.907799 
L 462.694258 -268.54521 
L 462.656697 -266.182621 
L 462.617411 -263.820033 
L 462.577357 -261.457444 
L 462.53764 -259.094856 
L 462.499507 -256.732267 
L 462.464294 -254.369678 
L 462.433365 -252.00709 
L 462.40804 -249.644501 
L 462.389528 -247.281912 
L 462.378879 -244.919324 
L 462.376947 -242.556735 
L 462.384371 -240.194147 
L 462.401559 -237.831558 
L 462.428681 -235.468969 
L 462.465662 -233.106381 
L 462.512168 -230.743792 
L 462.567619 -228.381204 
L 462.631193 -226.018615 
L 462.701877 -223.656026 
L 462.778525 -221.293438 
L 462.859952 -218.930849 
L 462.945041 -216.56826 
L 463.032851 -214.205672 
L 463.122711 -211.843083 
L 463.214279 -209.480495 
L 463.307559 -207.117906 
L 463.402863 -204.755317 
L 463.50074 -202.392729 
L 463.601865 -200.03014 
L 463.706932 -197.667551 
L 463.816554 -195.304963 
L 463.931198 -192.942374 
L 464.051165 -190.579786 
L 464.176598 -188.217197 
L 464.307519 -185.854608 
L 464.443863 -183.49202 
L 464.585486 -181.129431 
L 464.732124 -178.766842 
L 464.883308 -176.404254 
L 465.038228 -174.041665 
L 465.195585 -171.679077 
L 465.353461 -169.316488 
L 465.509251 -166.953899 
L 465.659697 -164.591311 
L 465.801052 -162.228722 
L 465.929367 -159.866133 
L 466.040891 -157.503545 
L 466.132535 -155.140956 
L 466.202341 -152.778368 
L 466.249895 -150.415779 
L 466.276624 -148.05319 
L 466.285934 -145.690602 
L 466.283178 -143.328013 
L 466.275445 -140.965425 
L 466.271225 -138.602836 
L 466.279957 -136.240247 
L 466.311534 -133.877659 
L 466.375788 -131.51507 
L 466.481985 -129.152481 
L 466.638361 -126.789893 
L 466.851674 -124.427304 
L 467.126816 -122.064716 
L 467.466452 -119.702127 
L 467.870739 -117.339538 
L 468.337137 -114.97695 
L 468.860365 -112.614361 
L 469.432533 -110.251772 
L 470.043493 -107.889184 
L 470.681399 -105.526595 
L 471.33344 -103.164007 
L 471.986683 -100.801418 
L 472.628892 -98.438829 
L 473.249228 -96.076241 
L 473.838675 -93.713652 
L 474.390131 -91.351063 
L 474.898111 -88.988475 
L 475.358111 -86.625886 
L 475.765737 -84.263298 
L 476.115762 -81.900709 
L 476.401318 -79.53812 
L 476.613401 -77.175532 
L 476.740858 -74.812943 
L 476.770909 -72.450354 
L 476.690202 -70.087766 
L 476.486274 -67.725177 
L 476.149235 -65.362589 
L 475.673416 -63 
z
" id="m233a7a4c97" style="stroke:#ffffff;stroke-opacity:0.3;"/>
    </defs>
    <g clip-path="url(#p08f0ba9eef)">
     <use style="fill:#4c72b0;fill-opacity:0.3;stroke:#ffffff;stroke-opacity:0.3;" x="0" xlink:href="#m233a7a4c97" y="504"/>
    </g>
   </g>
   <g id="PolyCollection_6">
    <defs>
     <path d="M 541.266939 -63 
L 509.671242 -63 
L 509.364934 -65.067265 
L 509.236364 -67.13453 
L 509.262804 -69.201795 
L 509.413989 -71.26906 
L 509.655912 -73.336325 
L 509.954853 -75.40359 
L 510.281069 -77.470855 
L 510.611622 -79.53812 
L 510.931986 -81.605385 
L 511.236256 -83.67265 
L 511.526034 -85.739915 
L 511.808287 -87.807181 
L 512.092599 -89.874446 
L 512.388351 -91.941711 
L 512.702316 -94.008976 
L 513.037067 -96.076241 
L 513.390413 -98.143506 
L 513.755887 -100.210771 
L 514.124114 -102.278036 
L 514.484722 -104.345301 
L 514.828411 -106.412566 
L 515.148748 -108.479831 
L 515.443369 -110.547096 
L 515.714375 -112.614361 
L 515.967884 -114.681626 
L 516.212856 -116.748891 
L 516.459436 -118.816156 
L 516.71714 -120.883421 
L 516.993214 -122.950686 
L 517.291453 -125.017951 
L 517.611662 -127.085216 
L 517.949805 -129.152481 
L 518.29879 -131.219746 
L 518.649682 -133.287011 
L 518.993128 -135.354277 
L 519.320713 -137.421542 
L 519.626024 -139.488807 
L 519.905273 -141.556072 
L 520.157402 -143.623337 
L 520.383731 -145.690602 
L 520.587242 -147.757867 
L 520.771688 -149.825132 
L 520.940725 -151.892397 
L 521.097209 -153.959662 
L 521.242797 -156.026927 
L 521.3779 -158.094192 
L 521.50194 -160.161457 
L 521.613851 -162.228722 
L 521.712676 -164.295987 
L 521.798129 -166.363252 
L 521.870992 -168.430517 
L 521.933269 -170.497782 
L 521.988062 -172.565047 
L 522.039202 -174.632312 
L 522.090709 -176.699577 
L 522.146194 -178.766842 
L 522.208312 -180.834107 
L 522.278386 -182.901373 
L 522.356254 -184.968638 
L 522.44037 -187.035903 
L 522.528141 -189.103168 
L 522.616412 -191.170433 
L 522.702026 -193.237698 
L 522.782347 -195.304963 
L 522.855642 -197.372228 
L 522.921285 -199.439493 
L 522.979731 -201.506758 
L 523.032302 -203.574023 
L 523.080818 -205.641288 
L 523.127173 -207.708553 
L 523.172918 -209.775818 
L 523.218954 -211.843083 
L 523.265373 -213.910348 
L 523.31147 -215.977613 
L 523.35592 -218.044878 
L 523.39707 -220.112143 
L 523.433281 -222.179408 
L 523.463245 -224.246673 
L 523.486219 -226.313938 
L 523.502127 -228.381204 
L 523.511512 -230.448469 
L 523.515365 -232.515734 
L 523.51486 -234.582999 
L 523.51107 -236.650264 
L 523.504722 -238.717529 
L 523.496054 -240.784794 
L 523.484804 -242.852059 
L 523.470358 -244.919324 
L 523.452013 -246.986589 
L 523.429319 -249.053854 
L 523.402434 -251.121119 
L 523.372419 -253.188384 
L 523.341394 -255.255649 
L 523.31254 -257.322914 
L 523.289907 -259.390179 
L 523.278059 -261.457444 
L 523.281595 -263.524709 
L 523.304629 -265.591974 
L 523.35028 -267.659239 
L 527.587902 -267.659239 
L 527.587902 -267.659239 
L 527.633553 -265.591974 
L 527.656586 -263.524709 
L 527.660123 -261.457444 
L 527.648275 -259.390179 
L 527.625642 -257.322914 
L 527.596788 -255.255649 
L 527.565763 -253.188384 
L 527.535747 -251.121119 
L 527.508863 -249.053854 
L 527.486169 -246.986589 
L 527.467824 -244.919324 
L 527.453378 -242.852059 
L 527.442128 -240.784794 
L 527.433459 -238.717529 
L 527.427112 -236.650264 
L 527.423322 -234.582999 
L 527.422817 -232.515734 
L 527.426669 -230.448469 
L 527.436055 -228.381204 
L 527.451962 -226.313938 
L 527.474937 -224.246673 
L 527.504901 -222.179408 
L 527.541112 -220.112143 
L 527.582262 -218.044878 
L 527.626712 -215.977613 
L 527.672809 -213.910348 
L 527.719228 -211.843083 
L 527.765264 -209.775818 
L 527.811009 -207.708553 
L 527.857364 -205.641288 
L 527.90588 -203.574023 
L 527.95845 -201.506758 
L 528.016897 -199.439493 
L 528.082539 -197.372228 
L 528.155835 -195.304963 
L 528.236156 -193.237698 
L 528.32177 -191.170433 
L 528.410041 -189.103168 
L 528.497811 -187.035903 
L 528.581928 -184.968638 
L 528.659796 -182.901373 
L 528.72987 -180.834107 
L 528.791988 -178.766842 
L 528.847473 -176.699577 
L 528.89898 -174.632312 
L 528.95012 -172.565047 
L 529.004913 -170.497782 
L 529.06719 -168.430517 
L 529.140053 -166.363252 
L 529.225506 -164.295987 
L 529.324331 -162.228722 
L 529.436242 -160.161457 
L 529.560282 -158.094192 
L 529.695384 -156.026927 
L 529.840973 -153.959662 
L 529.997456 -151.892397 
L 530.166494 -149.825132 
L 530.35094 -147.757867 
L 530.55445 -145.690602 
L 530.78078 -143.623337 
L 531.032909 -141.556072 
L 531.312158 -139.488807 
L 531.617469 -137.421542 
L 531.945053 -135.354277 
L 532.2885 -133.287011 
L 532.639392 -131.219746 
L 532.988376 -129.152481 
L 533.32652 -127.085216 
L 533.646729 -125.017951 
L 533.944968 -122.950686 
L 534.221042 -120.883421 
L 534.478746 -118.816156 
L 534.725326 -116.748891 
L 534.970298 -114.681626 
L 535.223807 -112.614361 
L 535.494813 -110.547096 
L 535.789434 -108.479831 
L 536.109771 -106.412566 
L 536.45346 -104.345301 
L 536.814068 -102.278036 
L 537.182295 -100.210771 
L 537.547769 -98.143506 
L 537.901115 -96.076241 
L 538.235865 -94.008976 
L 538.549831 -91.941711 
L 538.845583 -89.874446 
L 539.129895 -87.807181 
L 539.412148 -85.739915 
L 539.701926 -83.67265 
L 540.006196 -81.605385 
L 540.32656 -79.53812 
L 540.657113 -77.470855 
L 540.983328 -75.40359 
L 541.28227 -73.336325 
L 541.524193 -71.26906 
L 541.675378 -69.201795 
L 541.701818 -67.13453 
L 541.573248 -65.067265 
L 541.266939 -63 
z
" id="m41d7b20bea" style="stroke:#ffffff;stroke-opacity:0.3;"/>
    </defs>
    <g clip-path="url(#p08f0ba9eef)">
     <use style="fill:#4c72b0;fill-opacity:0.3;stroke:#ffffff;stroke-opacity:0.3;" x="0" xlink:href="#m41d7b20bea" y="504"/>
    </g>
   </g>
   <g id="PolyCollection_7">
    <defs>
     <path d="M 601.764412 -63 
L 579.035588 -63 
L 578.687394 -64.771941 
L 578.409383 -66.543883 
L 578.179109 -68.315824 
L 577.970353 -70.087766 
L 577.756332 -71.859707 
L 577.513178 -73.631649 
L 577.223227 -75.40359 
L 576.877713 -77.175532 
L 576.478447 -78.947473 
L 576.038246 -80.719415 
L 575.579984 -82.491356 
L 575.134357 -84.263298 
L 574.736587 -86.035239 
L 574.422486 -87.807181 
L 574.224362 -89.579122 
L 574.167273 -91.351063 
L 574.266132 -93.123005 
L 574.523994 -94.894946 
L 574.931752 -96.666888 
L 575.469235 -98.438829 
L 576.107556 -100.210771 
L 576.812358 -101.982712 
L 577.547533 -103.754654 
L 578.278936 -105.526595 
L 578.977614 -107.298537 
L 579.622207 -109.070478 
L 580.200264 -110.84242 
L 580.708393 -112.614361 
L 581.151333 -114.386303 
L 581.540139 -116.158244 
L 581.889807 -117.930185 
L 582.216683 -119.702127 
L 582.536027 -121.474068 
L 582.860008 -123.24601 
L 583.196376 -125.017951 
L 583.54789 -126.789893 
L 583.912512 -128.561834 
L 584.284249 -130.333776 
L 584.654462 -132.105717 
L 585.013403 -133.877659 
L 585.351755 -135.6496 
L 585.661945 -137.421542 
L 585.939082 -139.193483 
L 586.181418 -140.965425 
L 586.390323 -142.737366 
L 586.56982 -144.509307 
L 586.725797 -146.281249 
L 586.865031 -148.05319 
L 586.994188 -149.825132 
L 587.118938 -151.597073 
L 587.243307 -153.369015 
L 587.369324 -155.140956 
L 587.496999 -156.912898 
L 587.624598 -158.684839 
L 587.749148 -160.456781 
L 587.867075 -162.228722 
L 587.97488 -164.000664 
L 588.069737 -165.772605 
L 588.149935 -167.544547 
L 588.215118 -169.316488 
L 588.266279 -171.088429 
L 588.305558 -172.860371 
L 588.335849 -174.632312 
L 588.360324 -176.404254 
L 588.381929 -178.176195 
L 588.402932 -179.948137 
L 588.424611 -181.720078 
L 588.447102 -183.49202 
L 588.469443 -185.263961 
L 588.489801 -187.035903 
L 588.505835 -188.807844 
L 588.515154 -190.579786 
L 588.515785 -192.351727 
L 588.506589 -194.123668 
L 588.487553 -195.89561 
L 588.45992 -197.667551 
L 588.426137 -199.439493 
L 588.389614 -201.211434 
L 588.35434 -202.983376 
L 588.324404 -204.755317 
L 588.303486 -206.527259 
L 588.294395 -208.2992 
L 588.298712 -210.071142 
L 588.316599 -211.843083 
L 588.346791 -213.615025 
L 588.38678 -215.386966 
L 588.433158 -217.158908 
L 588.482081 -218.930849 
L 588.529787 -220.70279 
L 588.573091 -222.474732 
L 588.609806 -224.246673 
L 588.639022 -226.018615 
L 588.661217 -227.790556 
L 588.678189 -229.562498 
L 588.692822 -231.334439 
L 588.708713 -233.106381 
L 588.729737 -234.878322 
L 588.759572 -236.650264 
L 588.801275 -238.422205 
L 591.998725 -238.422205 
L 591.998725 -238.422205 
L 592.040428 -236.650264 
L 592.070263 -234.878322 
L 592.091287 -233.106381 
L 592.107178 -231.334439 
L 592.121811 -229.562498 
L 592.138783 -227.790556 
L 592.160978 -226.018615 
L 592.190194 -224.246673 
L 592.226909 -222.474732 
L 592.270213 -220.70279 
L 592.317919 -218.930849 
L 592.366842 -217.158908 
L 592.41322 -215.386966 
L 592.453209 -213.615025 
L 592.483401 -211.843083 
L 592.501288 -210.071142 
L 592.505605 -208.2992 
L 592.496514 -206.527259 
L 592.475596 -204.755317 
L 592.44566 -202.983376 
L 592.410386 -201.211434 
L 592.373863 -199.439493 
L 592.34008 -197.667551 
L 592.312447 -195.89561 
L 592.293411 -194.123668 
L 592.284215 -192.351727 
L 592.284846 -190.579786 
L 592.294165 -188.807844 
L 592.310199 -187.035903 
L 592.330557 -185.263961 
L 592.352898 -183.49202 
L 592.375389 -181.720078 
L 592.397068 -179.948137 
L 592.418071 -178.176195 
L 592.439676 -176.404254 
L 592.464151 -174.632312 
L 592.494442 -172.860371 
L 592.533721 -171.088429 
L 592.584882 -169.316488 
L 592.650065 -167.544547 
L 592.730263 -165.772605 
L 592.82512 -164.000664 
L 592.932925 -162.228722 
L 593.050852 -160.456781 
L 593.175402 -158.684839 
L 593.303001 -156.912898 
L 593.430676 -155.140956 
L 593.556693 -153.369015 
L 593.681062 -151.597073 
L 593.805812 -149.825132 
L 593.934969 -148.05319 
L 594.074203 -146.281249 
L 594.23018 -144.509307 
L 594.409677 -142.737366 
L 594.618582 -140.965425 
L 594.860918 -139.193483 
L 595.138055 -137.421542 
L 595.448245 -135.6496 
L 595.786597 -133.877659 
L 596.145538 -132.105717 
L 596.515751 -130.333776 
L 596.887488 -128.561834 
L 597.25211 -126.789893 
L 597.603624 -125.017951 
L 597.939992 -123.24601 
L 598.263973 -121.474068 
L 598.583317 -119.702127 
L 598.910193 -117.930185 
L 599.259861 -116.158244 
L 599.648667 -114.386303 
L 600.091607 -112.614361 
L 600.599736 -110.84242 
L 601.177793 -109.070478 
L 601.822386 -107.298537 
L 602.521064 -105.526595 
L 603.252467 -103.754654 
L 603.987642 -101.982712 
L 604.692444 -100.210771 
L 605.330765 -98.438829 
L 605.868248 -96.666888 
L 606.276006 -94.894946 
L 606.533868 -93.123005 
L 606.632727 -91.351063 
L 606.575638 -89.579122 
L 606.377514 -87.807181 
L 606.063413 -86.035239 
L 605.665643 -84.263298 
L 605.220016 -82.491356 
L 604.761754 -80.719415 
L 604.321553 -78.947473 
L 603.922287 -77.175532 
L 603.576773 -75.40359 
L 603.286822 -73.631649 
L 603.043668 -71.859707 
L 602.829647 -70.087766 
L 602.620891 -68.315824 
L 602.390617 -66.543883 
L 602.112606 -64.771941 
L 601.764412 -63 
z
" id="m64908ff25e" style="stroke:#ffffff;stroke-opacity:0.3;"/>
    </defs>
    <g clip-path="url(#p08f0ba9eef)">
     <use style="fill:#4c72b0;fill-opacity:0.3;stroke:#ffffff;stroke-opacity:0.3;" x="0" xlink:href="#m64908ff25e" y="504"/>
    </g>
   </g>
   <g id="PolyCollection_8">
    <defs>
     <path d="M 671.532745 -63 
L 639.129073 -63 
L 639.098182 -65.067265 
L 639.410547 -67.13453 
L 639.992416 -69.201795 
L 640.745404 -71.26906 
L 641.56141 -73.336325 
L 642.338941 -75.40359 
L 642.997924 -77.470855 
L 643.490378 -79.53812 
L 643.805161 -81.605385 
L 643.966184 -83.67265 
L 644.024681 -85.739915 
L 644.047249 -87.807181 
L 644.102031 -89.874446 
L 644.245682 -91.941711 
L 644.51342 -94.008976 
L 644.913815 -96.076241 
L 645.428941 -98.143506 
L 646.019486 -100.210771 
L 646.633518 -102.278036 
L 647.216986 -104.345301 
L 647.72386 -106.412566 
L 648.124027 -108.479831 
L 648.407629 -110.547096 
L 648.58529 -112.614361 
L 648.684496 -114.681626 
L 648.743083 -116.748891 
L 648.801279 -118.816156 
L 648.893884 -120.883421 
L 649.044071 -122.950686 
L 649.259849 -125.017951 
L 649.533688 -127.085216 
L 649.845143 -129.152481 
L 650.165788 -131.219746 
L 650.465347 -133.287011 
L 650.717788 -135.354277 
L 650.906204 -137.421542 
L 651.025643 -139.488807 
L 651.083459 -141.556072 
L 651.097283 -143.623337 
L 651.091132 -145.690602 
L 651.090494 -147.757867 
L 651.117411 -149.825132 
L 651.186463 -151.892397 
L 651.302402 -153.959662 
L 651.459792 -156.026927 
L 651.644615 -158.094192 
L 651.837441 -160.161457 
L 652.017482 -162.228722 
L 652.166684 -164.295987 
L 652.2731 -166.363252 
L 652.33291 -168.430517 
L 652.350781 -170.497782 
L 652.338566 -172.565047 
L 652.312664 -174.632312 
L 652.290614 -176.699577 
L 652.287594 -178.766842 
L 652.313524 -180.834107 
L 652.371296 -182.901373 
L 652.456458 -184.968638 
L 652.558352 -187.035903 
L 652.662457 -189.103168 
L 652.753448 -191.170433 
L 652.818368 -193.237698 
L 652.849294 -195.304963 
L 652.845008 -197.372228 
L 652.811376 -199.439493 
L 652.760393 -201.506758 
L 652.708105 -203.574023 
L 652.671836 -205.641288 
L 652.66724 -207.708553 
L 652.705739 -209.775818 
L 652.792789 -211.843083 
L 652.927253 -213.910348 
L 653.101908 -215.977613 
L 653.304935 -218.044878 
L 653.522023 -220.112143 
L 653.738661 -222.179408 
L 653.942204 -224.246673 
L 654.123372 -226.313938 
L 654.277 -228.381204 
L 654.402018 -230.448469 
L 654.50078 -232.515734 
L 654.577966 -234.582999 
L 654.639317 -236.650264 
L 654.690446 -238.717529 
L 654.735927 -240.784794 
L 654.778767 -242.852059 
L 654.820277 -244.919324 
L 654.86031 -246.986589 
L 654.897731 -249.053854 
L 654.93101 -251.121119 
L 654.958788 -253.188384 
L 654.98032 -255.255649 
L 654.995715 -257.322914 
L 655.005973 -259.390179 
L 655.012811 -261.457444 
L 655.01836 -263.524709 
L 655.0248 -265.591974 
L 655.034002 -267.659239 
L 655.627816 -267.659239 
L 655.627816 -267.659239 
L 655.637018 -265.591974 
L 655.643458 -263.524709 
L 655.649008 -261.457444 
L 655.655845 -259.390179 
L 655.666103 -257.322914 
L 655.681499 -255.255649 
L 655.70303 -253.188384 
L 655.730808 -251.121119 
L 655.764087 -249.053854 
L 655.801508 -246.986589 
L 655.841541 -244.919324 
L 655.883051 -242.852059 
L 655.925891 -240.784794 
L 655.971373 -238.717529 
L 656.022502 -236.650264 
L 656.083852 -234.582999 
L 656.161039 -232.515734 
L 656.2598 -230.448469 
L 656.384818 -228.381204 
L 656.538446 -226.313938 
L 656.719614 -224.246673 
L 656.923157 -222.179408 
L 657.139795 -220.112143 
L 657.356883 -218.044878 
L 657.559911 -215.977613 
L 657.734566 -213.910348 
L 657.869029 -211.843083 
L 657.956079 -209.775818 
L 657.994578 -207.708553 
L 657.989982 -205.641288 
L 657.953713 -203.574023 
L 657.901425 -201.506758 
L 657.850442 -199.439493 
L 657.81681 -197.372228 
L 657.812525 -195.304963 
L 657.843451 -193.237698 
L 657.908371 -191.170433 
L 657.999361 -189.103168 
L 658.103466 -187.035903 
L 658.20536 -184.968638 
L 658.290522 -182.901373 
L 658.348294 -180.834107 
L 658.374224 -178.766842 
L 658.371204 -176.699577 
L 658.349154 -174.632312 
L 658.323253 -172.565047 
L 658.311037 -170.497782 
L 658.328908 -168.430517 
L 658.388718 -166.363252 
L 658.495134 -164.295987 
L 658.644336 -162.228722 
L 658.824377 -160.161457 
L 659.017204 -158.094192 
L 659.202026 -156.026927 
L 659.359416 -153.959662 
L 659.475355 -151.892397 
L 659.544407 -149.825132 
L 659.571324 -147.757867 
L 659.570687 -145.690602 
L 659.564535 -143.623337 
L 659.57836 -141.556072 
L 659.636175 -139.488807 
L 659.755614 -137.421542 
L 659.94403 -135.354277 
L 660.196471 -133.287011 
L 660.49603 -131.219746 
L 660.816675 -129.152481 
L 661.12813 -127.085216 
L 661.401969 -125.017951 
L 661.617748 -122.950686 
L 661.767934 -120.883421 
L 661.86054 -118.816156 
L 661.918735 -116.748891 
L 661.977322 -114.681626 
L 662.076528 -112.614361 
L 662.254189 -110.547096 
L 662.537791 -108.479831 
L 662.937958 -106.412566 
L 663.444832 -104.345301 
L 664.028301 -102.278036 
L 664.642333 -100.210771 
L 665.232877 -98.143506 
L 665.748003 -96.076241 
L 666.148398 -94.008976 
L 666.416136 -91.941711 
L 666.559787 -89.874446 
L 666.61457 -87.807181 
L 666.637137 -85.739915 
L 666.695634 -83.67265 
L 666.856657 -81.605385 
L 667.17144 -79.53812 
L 667.663894 -77.470855 
L 668.322877 -75.40359 
L 669.100408 -73.336325 
L 669.916414 -71.26906 
L 670.669402 -69.201795 
L 671.251271 -67.13453 
L 671.563636 -65.067265 
L 671.532745 -63 
z
" id="m215a9645cc" style="stroke:#ffffff;stroke-opacity:0.3;"/>
    </defs>
    <g clip-path="url(#p08f0ba9eef)">
     <use style="fill:#4c72b0;fill-opacity:0.3;stroke:#ffffff;stroke-opacity:0.3;" x="0" xlink:href="#m215a9645cc" y="504"/>
    </g>
   </g>
   <g id="PolyCollection_9">
    <defs>
     <path d="M 733.322493 -63 
L 707.201144 -63 
L 706.793816 -65.362589 
L 706.554136 -67.725177 
L 706.414674 -70.087766 
L 706.298815 -72.450354 
L 706.137274 -74.812943 
L 705.883828 -77.175532 
L 705.526622 -79.53812 
L 705.092279 -81.900709 
L 704.641622 -84.263298 
L 704.257759 -86.625886 
L 704.029091 -88.988475 
L 704.031023 -91.351063 
L 704.310432 -93.713652 
L 704.876266 -96.076241 
L 705.698128 -98.438829 
L 706.712776 -100.801418 
L 707.836688 -103.164007 
L 708.981542 -105.526595 
L 710.069054 -107.889184 
L 711.042063 -110.251772 
L 711.869932 -112.614361 
L 712.547819 -114.97695 
L 713.090835 -117.339538 
L 713.525166 -119.702127 
L 713.878684 -122.064716 
L 714.173343 -124.427304 
L 714.420966 -126.789893 
L 714.622978 -129.152481 
L 714.773593 -131.51507 
L 714.865151 -133.877659 
L 714.893864 -136.240247 
L 714.864263 -138.602836 
L 714.791115 -140.965425 
L 714.698287 -143.328013 
L 714.614884 -145.690602 
L 714.569682 -148.05319 
L 714.585304 -150.415779 
L 714.673608 -152.778368 
L 714.833439 -155.140956 
L 715.051279 -157.503545 
L 715.304586 -159.866133 
L 715.56698 -162.228722 
L 715.814012 -164.591311 
L 716.028167 -166.953899 
L 716.201993 -169.316488 
L 716.338775 -171.679077 
L 716.450758 -174.041665 
L 716.555514 -176.404254 
L 716.671425 -178.766842 
L 716.813393 -181.129431 
L 716.989714 -183.49202 
L 717.200724 -185.854608 
L 717.439327 -188.217197 
L 717.693096 -190.579786 
L 717.947273 -192.942374 
L 718.187911 -195.304963 
L 718.404426 -197.667551 
L 718.591081 -200.03014 
L 718.747223 -202.392729 
L 718.876418 -204.755317 
L 718.984843 -207.117906 
L 719.079426 -209.480495 
L 719.166189 -211.843083 
L 719.249144 -214.205672 
L 719.329885 -216.56826 
L 719.407855 -218.930849 
L 719.481097 -221.293438 
L 719.547206 -223.656026 
L 719.604228 -226.018615 
L 719.65127 -228.381204 
L 719.688713 -230.743792 
L 719.718043 -233.106381 
L 719.741387 -235.468969 
L 719.760926 -237.831558 
L 719.778355 -240.194147 
L 719.794534 -242.556735 
L 719.809406 -244.919324 
L 719.822192 -247.281912 
L 719.831766 -249.644501 
L 719.837125 -252.00709 
L 719.837796 -254.369678 
L 719.834071 -256.732267 
L 719.827024 -259.094856 
L 719.818281 -261.457444 
L 719.809629 -263.820033 
L 719.802557 -266.182621 
L 719.797861 -268.54521 
L 719.795428 -270.907799 
L 719.79425 -273.270387 
L 719.792698 -275.632976 
L 719.788976 -277.995565 
L 719.781663 -280.358153 
L 719.770203 -282.720742 
L 719.755215 -285.08333 
L 719.738547 -287.445919 
L 719.723049 -289.808508 
L 719.712104 -292.171096 
L 719.709025 -294.533685 
L 719.716446 -296.896274 
L 720.80719 -296.896274 
L 720.80719 -296.896274 
L 720.814611 -294.533685 
L 720.811532 -292.171096 
L 720.800588 -289.808508 
L 720.785089 -287.445919 
L 720.768421 -285.08333 
L 720.753433 -282.720742 
L 720.741973 -280.358153 
L 720.734661 -277.995565 
L 720.730939 -275.632976 
L 720.729387 -273.270387 
L 720.728209 -270.907799 
L 720.725775 -268.54521 
L 720.72108 -266.182621 
L 720.714007 -263.820033 
L 720.705355 -261.457444 
L 720.696612 -259.094856 
L 720.689565 -256.732267 
L 720.685841 -254.369678 
L 720.686511 -252.00709 
L 720.69187 -249.644501 
L 720.701444 -247.281912 
L 720.71423 -244.919324 
L 720.729103 -242.556735 
L 720.745281 -240.194147 
L 720.76271 -237.831558 
L 720.782249 -235.468969 
L 720.805594 -233.106381 
L 720.834924 -230.743792 
L 720.872366 -228.381204 
L 720.919408 -226.018615 
L 720.97643 -223.656026 
L 721.042539 -221.293438 
L 721.115781 -218.930849 
L 721.193752 -216.56826 
L 721.274492 -214.205672 
L 721.357447 -211.843083 
L 721.444211 -209.480495 
L 721.538793 -207.117906 
L 721.647218 -204.755317 
L 721.776413 -202.392729 
L 721.932556 -200.03014 
L 722.119211 -197.667551 
L 722.335726 -195.304963 
L 722.576364 -192.942374 
L 722.83054 -190.579786 
L 723.084309 -188.217197 
L 723.322913 -185.854608 
L 723.533922 -183.49202 
L 723.710243 -181.129431 
L 723.852211 -178.766842 
L 723.968123 -176.404254 
L 724.072878 -174.041665 
L 724.184861 -171.679077 
L 724.321643 -169.316488 
L 724.495469 -166.953899 
L 724.709624 -164.591311 
L 724.956657 -162.228722 
L 725.219051 -159.866133 
L 725.472358 -157.503545 
L 725.690198 -155.140956 
L 725.850028 -152.778368 
L 725.938332 -150.415779 
L 725.953954 -148.05319 
L 725.908753 -145.690602 
L 725.825349 -143.328013 
L 725.732521 -140.965425 
L 725.659374 -138.602836 
L 725.629773 -136.240247 
L 725.658485 -133.877659 
L 725.750044 -131.51507 
L 725.900658 -129.152481 
L 726.10267 -126.789893 
L 726.350293 -124.427304 
L 726.644952 -122.064716 
L 726.99847 -119.702127 
L 727.432801 -117.339538 
L 727.975817 -114.97695 
L 728.653704 -112.614361 
L 729.481574 -110.251772 
L 730.454583 -107.889184 
L 731.542094 -105.526595 
L 732.686949 -103.164007 
L 733.810861 -100.801418 
L 734.825508 -98.438829 
L 735.64737 -96.076241 
L 736.213205 -93.713652 
L 736.492614 -91.351063 
L 736.494545 -88.988475 
L 736.265878 -86.625886 
L 735.882014 -84.263298 
L 735.431357 -81.900709 
L 734.997014 -79.53812 
L 734.639808 -77.175532 
L 734.386362 -74.812943 
L 734.224821 -72.450354 
L 734.108962 -70.087766 
L 733.9695 -67.725177 
L 733.72982 -65.362589 
L 733.322493 -63 
z
" id="m339e3f602a" style="stroke:#ffffff;stroke-opacity:0.3;"/>
    </defs>
    <g clip-path="url(#p08f0ba9eef)">
     <use style="fill:#4c72b0;fill-opacity:0.3;stroke:#ffffff;stroke-opacity:0.3;" x="0" xlink:href="#m339e3f602a" y="504"/>
    </g>
   </g>
   <g id="PolyCollection_10">
    <defs>
     <path d="M 800.165286 -63 
L 770.220169 -63 
L 769.661644 -65.657912 
L 769.297399 -68.315824 
L 769.089723 -70.973737 
L 768.992672 -73.631649 
L 768.961361 -76.289561 
L 768.96 -78.947473 
L 768.966841 -81.605385 
L 768.975019 -84.263298 
L 768.989436 -86.92121 
L 769.020913 -89.579122 
L 769.079552 -92.237034 
L 769.169396 -94.894946 
L 769.286 -97.552859 
L 769.417559 -100.210771 
L 769.549119 -102.868683 
L 769.668425 -105.526595 
L 769.771454 -108.184507 
L 769.865781 -110.84242 
L 769.970605 -113.500332 
L 770.113263 -116.158244 
L 770.323134 -118.816156 
L 770.624611 -121.474068 
L 771.031052 -124.131981 
L 771.541353 -126.789893 
L 772.139989 -129.447805 
L 772.800395 -132.105717 
L 773.49065 -134.763629 
L 774.179897 -137.421542 
L 774.84382 -140.079454 
L 775.467908 -142.737366 
L 776.047955 -145.395278 
L 776.588031 -148.05319 
L 777.096824 -150.711103 
L 777.58356 -153.369015 
L 778.054697 -156.026927 
L 778.512163 -158.684839 
L 778.95339 -161.342751 
L 779.372833 -164.000664 
L 779.76426 -166.658576 
L 780.123003 -169.316488 
L 780.447466 -171.9744 
L 780.739508 -174.632312 
L 781.003744 -177.290225 
L 781.24609 -179.948137 
L 781.47211 -182.606049 
L 781.685679 -185.263961 
L 781.888347 -187.921873 
L 782.079483 -190.579786 
L 782.257075 -193.237698 
L 782.418831 -195.89561 
L 782.563206 -198.553522 
L 782.690029 -201.211434 
L 782.8006 -203.869347 
L 782.897274 -206.527259 
L 782.982757 -209.185171 
L 783.059383 -211.843083 
L 783.12863 -214.500995 
L 783.191029 -217.158908 
L 783.24647 -219.81682 
L 783.294783 -222.474732 
L 783.336361 -225.132644 
L 783.3726 -227.790556 
L 783.406005 -230.448469 
L 783.439889 -233.106381 
L 783.477771 -235.764293 
L 783.522629 -238.422205 
L 783.576236 -241.080117 
L 783.638765 -243.73803 
L 783.70876 -246.395942 
L 783.783479 -249.053854 
L 783.859496 -251.711766 
L 783.933391 -254.369678 
L 784.002342 -257.027591 
L 784.064491 -259.685503 
L 784.119018 -262.343415 
L 784.165961 -265.001327 
L 784.20588 -267.659239 
L 784.239497 -270.317152 
L 784.267452 -272.975064 
L 784.290212 -275.632976 
L 784.308176 -278.290888 
L 784.321883 -280.9488 
L 784.332242 -283.606713 
L 784.340676 -286.264625 
L 784.349103 -288.922537 
L 784.359743 -291.580449 
L 784.37478 -294.238361 
L 784.395981 -296.896274 
L 784.42436 -299.554186 
L 784.459982 -302.212098 
L 784.501968 -304.87001 
L 784.548682 -307.527922 
L 784.598063 -310.185835 
L 784.648009 -312.843747 
L 784.696732 -315.501659 
L 784.74299 -318.159571 
L 784.786184 -320.817483 
L 784.826294 -323.475396 
L 784.863708 -326.133308 
L 785.521746 -326.133308 
L 785.521746 -326.133308 
L 785.55916 -323.475396 
L 785.599271 -320.817483 
L 785.642465 -318.159571 
L 785.688723 -315.501659 
L 785.737445 -312.843747 
L 785.787392 -310.185835 
L 785.836772 -307.527922 
L 785.883486 -304.87001 
L 785.925472 -302.212098 
L 785.961095 -299.554186 
L 785.989473 -296.896274 
L 786.010674 -294.238361 
L 786.025712 -291.580449 
L 786.036351 -288.922537 
L 786.044779 -286.264625 
L 786.053213 -283.606713 
L 786.063572 -280.9488 
L 786.077278 -278.290888 
L 786.095242 -275.632976 
L 786.118003 -272.975064 
L 786.145957 -270.317152 
L 786.179575 -267.659239 
L 786.219493 -265.001327 
L 786.266436 -262.343415 
L 786.320964 -259.685503 
L 786.383113 -257.027591 
L 786.452063 -254.369678 
L 786.525958 -251.711766 
L 786.601976 -249.053854 
L 786.676694 -246.395942 
L 786.746689 -243.73803 
L 786.809218 -241.080117 
L 786.862826 -238.422205 
L 786.907684 -235.764293 
L 786.945565 -233.106381 
L 786.979449 -230.448469 
L 787.012854 -227.790556 
L 787.049094 -225.132644 
L 787.090672 -222.474732 
L 787.138985 -219.81682 
L 787.194426 -217.158908 
L 787.256824 -214.500995 
L 787.326071 -211.843083 
L 787.402698 -209.185171 
L 787.488181 -206.527259 
L 787.584854 -203.869347 
L 787.695425 -201.211434 
L 787.822249 -198.553522 
L 787.966623 -195.89561 
L 788.12838 -193.237698 
L 788.305972 -190.579786 
L 788.497108 -187.921873 
L 788.699775 -185.263961 
L 788.913345 -182.606049 
L 789.139364 -179.948137 
L 789.381711 -177.290225 
L 789.645946 -174.632312 
L 789.937989 -171.9744 
L 790.262451 -169.316488 
L 790.621195 -166.658576 
L 791.012621 -164.000664 
L 791.432064 -161.342751 
L 791.873292 -158.684839 
L 792.330758 -156.026927 
L 792.801895 -153.369015 
L 793.288631 -150.711103 
L 793.797423 -148.05319 
L 794.3375 -145.395278 
L 794.917547 -142.737366 
L 795.541634 -140.079454 
L 796.205558 -137.421542 
L 796.894805 -134.763629 
L 797.58506 -132.105717 
L 798.245465 -129.447805 
L 798.844102 -126.789893 
L 799.354403 -124.131981 
L 799.760843 -121.474068 
L 800.06232 -118.816156 
L 800.272192 -116.158244 
L 800.414849 -113.500332 
L 800.519673 -110.84242 
L 800.614001 -108.184507 
L 800.717029 -105.526595 
L 800.836336 -102.868683 
L 800.967896 -100.210771 
L 801.099455 -97.552859 
L 801.216059 -94.894946 
L 801.305903 -92.237034 
L 801.364541 -89.579122 
L 801.396018 -86.92121 
L 801.410435 -84.263298 
L 801.418613 -81.605385 
L 801.425455 -78.947473 
L 801.424094 -76.289561 
L 801.392782 -73.631649 
L 801.295732 -70.973737 
L 801.088056 -68.315824 
L 800.72381 -65.657912 
L 800.165286 -63 
z
" id="m275a4dfae7" style="stroke:#ffffff;stroke-opacity:0.3;"/>
    </defs>
    <g clip-path="url(#p08f0ba9eef)">
     <use style="fill:#4c72b0;fill-opacity:0.3;stroke:#ffffff;stroke-opacity:0.3;" x="0" xlink:href="#m275a4dfae7" y="504"/>
    </g>
   </g>
   <g id="PolyCollection_11">
    <defs>
     <path d="M 863.398292 -63 
L 836.84898 -63 
L 836.100361 -65.953236 
L 835.482736 -68.906472 
L 834.986289 -71.859707 
L 834.59721 -74.812943 
L 834.301711 -77.766179 
L 834.089059 -80.719415 
L 833.95293 -83.67265 
L 833.890909 -86.625886 
L 833.90254 -89.579122 
L 833.986706 -92.532358 
L 834.139305 -95.485594 
L 834.351971 -98.438829 
L 834.612249 -101.392065 
L 834.90506 -104.345301 
L 835.214945 -107.298537 
L 835.528312 -110.251772 
L 835.835043 -113.205008 
L 836.129086 -116.158244 
L 836.408061 -119.11148 
L 836.672284 -122.064716 
L 836.923742 -125.017951 
L 837.165518 -127.971187 
L 837.401877 -130.924423 
L 837.638887 -133.877659 
L 837.885144 -136.830894 
L 838.152073 -139.78413 
L 838.453345 -142.737366 
L 838.803274 -145.690602 
L 839.214378 -148.643838 
L 839.694637 -151.597073 
L 840.245132 -154.550309 
L 840.858668 -157.503545 
L 841.519787 -160.456781 
L 842.206201 -163.410016 
L 842.891344 -166.363252 
L 843.547523 -169.316488 
L 844.149061 -172.269724 
L 844.674929 -175.22296 
L 845.110547 -178.176195 
L 845.448666 -181.129431 
L 845.689426 -184.082667 
L 845.839766 -187.035903 
L 845.912397 -189.989138 
L 845.924482 -192.942374 
L 845.896089 -195.89561 
L 845.848502 -198.848846 
L 845.802424 -201.802082 
L 845.776224 -204.755317 
L 845.784386 -207.708553 
L 845.836402 -210.661789 
L 845.936266 -213.615025 
L 846.082704 -216.56826 
L 846.270061 -219.521496 
L 846.489707 -222.474732 
L 846.731657 -225.427968 
L 846.986098 -228.381204 
L 847.244559 -231.334439 
L 847.50056 -234.287675 
L 847.749709 -237.240911 
L 847.989362 -240.194147 
L 848.218027 -243.147382 
L 848.434719 -246.100618 
L 848.638451 -249.053854 
L 848.827954 -252.00709 
L 849.001656 -254.960325 
L 849.157852 -257.913561 
L 849.294989 -260.866797 
L 849.411953 -263.820033 
L 849.508283 -266.773269 
L 849.584274 -269.726504 
L 849.640953 -272.67974 
L 849.679966 -275.632976 
L 849.703389 -278.586212 
L 849.713528 -281.539447 
L 849.712714 -284.492683 
L 849.703136 -287.445919 
L 849.686722 -290.399155 
L 849.665083 -293.352391 
L 849.639521 -296.305626 
L 849.611103 -299.258862 
L 849.580781 -302.212098 
L 849.549546 -305.165334 
L 849.518557 -308.118569 
L 849.489232 -311.071805 
L 849.463249 -314.025041 
L 849.442457 -316.978277 
L 849.428694 -319.931513 
L 849.423556 -322.884748 
L 849.428152 -325.837984 
L 849.44292 -328.79122 
L 849.467529 -331.744456 
L 849.500907 -334.697691 
L 849.54138 -337.650927 
L 849.586902 -340.604163 
L 849.635317 -343.557399 
L 849.684609 -346.510635 
L 849.733094 -349.46387 
L 849.779519 -352.417106 
L 849.823082 -355.370342 
L 850.424191 -355.370342 
L 850.424191 -355.370342 
L 850.467754 -352.417106 
L 850.514179 -349.46387 
L 850.562664 -346.510635 
L 850.611956 -343.557399 
L 850.660371 -340.604163 
L 850.705892 -337.650927 
L 850.746366 -334.697691 
L 850.779744 -331.744456 
L 850.804353 -328.79122 
L 850.819121 -325.837984 
L 850.823717 -322.884748 
L 850.818579 -319.931513 
L 850.804816 -316.978277 
L 850.784024 -314.025041 
L 850.758041 -311.071805 
L 850.728715 -308.118569 
L 850.697726 -305.165334 
L 850.666491 -302.212098 
L 850.63617 -299.258862 
L 850.607752 -296.305626 
L 850.58219 -293.352391 
L 850.560551 -290.399155 
L 850.544137 -287.445919 
L 850.534559 -284.492683 
L 850.533744 -281.539447 
L 850.543883 -278.586212 
L 850.567307 -275.632976 
L 850.606319 -272.67974 
L 850.662999 -269.726504 
L 850.738989 -266.773269 
L 850.83532 -263.820033 
L 850.952284 -260.866797 
L 851.089421 -257.913561 
L 851.245617 -254.960325 
L 851.419318 -252.00709 
L 851.608822 -249.053854 
L 851.812554 -246.100618 
L 852.029246 -243.147382 
L 852.257911 -240.194147 
L 852.497564 -237.240911 
L 852.746713 -234.287675 
L 853.002713 -231.334439 
L 853.261175 -228.381204 
L 853.515615 -225.427968 
L 853.757565 -222.474732 
L 853.977212 -219.521496 
L 854.164569 -216.56826 
L 854.311006 -213.615025 
L 854.410871 -210.661789 
L 854.462887 -207.708553 
L 854.471049 -204.755317 
L 854.444849 -201.802082 
L 854.398771 -198.848846 
L 854.351183 -195.89561 
L 854.322791 -192.942374 
L 854.334875 -189.989138 
L 854.407507 -187.035903 
L 854.557847 -184.082667 
L 854.798606 -181.129431 
L 855.136726 -178.176195 
L 855.572344 -175.22296 
L 856.098212 -172.269724 
L 856.699749 -169.316488 
L 857.355928 -166.363252 
L 858.041072 -163.410016 
L 858.727486 -160.456781 
L 859.388605 -157.503545 
L 860.002141 -154.550309 
L 860.552635 -151.597073 
L 861.032895 -148.643838 
L 861.443998 -145.690602 
L 861.793927 -142.737366 
L 862.0952 -139.78413 
L 862.362128 -136.830894 
L 862.608386 -133.877659 
L 862.845396 -130.924423 
L 863.081755 -127.971187 
L 863.323531 -125.017951 
L 863.574988 -122.064716 
L 863.839211 -119.11148 
L 864.118187 -116.158244 
L 864.41223 -113.205008 
L 864.718961 -110.251772 
L 865.032327 -107.298537 
L 865.342212 -104.345301 
L 865.635024 -101.392065 
L 865.895302 -98.438829 
L 866.107968 -95.485594 
L 866.260566 -92.532358 
L 866.344733 -89.579122 
L 866.356364 -86.625886 
L 866.294343 -83.67265 
L 866.158213 -80.719415 
L 865.945562 -77.766179 
L 865.650063 -74.812943 
L 865.260984 -71.859707 
L 864.764537 -68.906472 
L 864.146912 -65.953236 
L 863.398292 -63 
z
" id="m8a5f63c838" style="stroke:#ffffff;stroke-opacity:0.3;"/>
    </defs>
    <g clip-path="url(#p08f0ba9eef)">
     <use style="fill:#4c72b0;fill-opacity:0.3;stroke:#ffffff;stroke-opacity:0.3;" x="0" xlink:href="#m8a5f63c838" y="504"/>
    </g>
   </g>
   <g id="PolyCollection_12">
    <defs>
     <path d="M 926.996559 -63 
L 903.112532 -63 
L 902.152358 -66.248559 
L 901.272079 -69.497119 
L 900.494861 -72.745678 
L 899.842894 -75.994237 
L 899.336363 -79.242797 
L 898.992067 -82.491356 
L 898.821818 -85.739915 
L 898.830796 -88.988475 
L 899.016131 -92.237034 
L 899.366014 -95.485594 
L 899.859554 -98.734153 
L 900.467562 -101.982712 
L 901.154231 -105.231272 
L 901.879598 -108.479831 
L 902.602498 -111.72839 
L 903.283681 -114.97695 
L 903.888704 -118.225509 
L 904.390289 -121.474068 
L 904.769899 -124.722628 
L 905.018411 -127.971187 
L 905.135916 -131.219746 
L 905.130749 -134.468306 
L 905.017965 -137.716865 
L 904.817518 -140.965425 
L 904.552388 -144.213984 
L 904.24687 -147.462543 
L 903.925167 -150.711103 
L 903.610363 -153.959662 
L 903.323723 -157.208221 
L 903.084266 -160.456781 
L 902.908464 -163.70534 
L 902.809947 -166.953899 
L 902.79914 -170.202459 
L 902.882809 -173.451018 
L 903.063555 -176.699577 
L 903.339373 -179.948137 
L 903.703408 -183.196696 
L 904.144052 -186.445255 
L 904.645449 -189.693815 
L 905.188443 -192.942374 
L 905.751903 -196.190934 
L 906.314286 -199.439493 
L 906.85527 -202.688052 
L 907.357255 -205.936612 
L 907.806565 -209.185171 
L 908.194227 -212.43373 
L 908.516267 -215.68229 
L 908.773524 -218.930849 
L 908.971054 -222.179408 
L 909.117224 -225.427968 
L 909.222649 -228.676527 
L 909.299074 -231.925086 
L 909.358361 -235.173646 
L 909.411649 -238.422205 
L 909.468745 -241.670765 
L 909.537766 -244.919324 
L 909.625005 -248.167883 
L 909.734965 -251.416443 
L 909.870492 -254.665002 
L 910.032956 -257.913561 
L 910.222415 -261.162121 
L 910.437738 -264.41068 
L 910.676702 -267.659239 
L 910.936063 -270.907799 
L 911.211654 -274.156358 
L 911.498521 -277.404917 
L 911.791137 -280.653477 
L 912.083675 -283.902036 
L 912.370326 -287.150595 
L 912.645633 -290.399155 
L 912.904794 -293.647714 
L 913.143896 -296.896274 
L 913.360063 -300.144833 
L 913.551498 -303.393392 
L 913.717441 -306.641952 
L 913.858051 -309.890511 
L 913.974243 -313.13907 
L 914.06752 -316.38763 
L 914.139803 -319.636189 
L 914.193293 -322.884748 
L 914.230361 -326.133308 
L 914.253472 -329.381867 
L 914.265124 -332.630426 
L 914.267801 -335.878986 
L 914.263939 -339.127545 
L 914.255872 -342.376104 
L 914.245792 -345.624664 
L 914.235691 -348.873223 
L 914.22732 -352.121783 
L 914.222146 -355.370342 
L 914.221339 -358.618901 
L 914.225758 -361.867461 
L 914.235975 -365.11602 
L 914.252296 -368.364579 
L 914.274791 -371.613139 
L 914.303329 -374.861698 
L 914.3376 -378.110257 
L 914.377125 -381.358817 
L 914.42127 -384.607376 
L 915.687821 -384.607376 
L 915.687821 -384.607376 
L 915.731966 -381.358817 
L 915.771491 -378.110257 
L 915.805762 -374.861698 
L 915.8343 -371.613139 
L 915.856795 -368.364579 
L 915.873116 -365.11602 
L 915.883333 -361.867461 
L 915.887752 -358.618901 
L 915.886944 -355.370342 
L 915.881771 -352.121783 
L 915.8734 -348.873223 
L 915.863299 -345.624664 
L 915.853219 -342.376104 
L 915.845152 -339.127545 
L 915.84129 -335.878986 
L 915.843967 -332.630426 
L 915.855618 -329.381867 
L 915.87873 -326.133308 
L 915.915798 -322.884748 
L 915.969288 -319.636189 
L 916.041571 -316.38763 
L 916.134848 -313.13907 
L 916.25104 -309.890511 
L 916.39165 -306.641952 
L 916.557593 -303.393392 
L 916.749028 -300.144833 
L 916.965195 -296.896274 
L 917.204297 -293.647714 
L 917.463458 -290.399155 
L 917.738765 -287.150595 
L 918.025416 -283.902036 
L 918.317954 -280.653477 
L 918.61057 -277.404917 
L 918.897437 -274.156358 
L 919.173028 -270.907799 
L 919.432389 -267.659239 
L 919.671353 -264.41068 
L 919.886676 -261.162121 
L 920.076135 -257.913561 
L 920.238599 -254.665002 
L 920.374126 -251.416443 
L 920.484086 -248.167883 
L 920.571325 -244.919324 
L 920.640346 -241.670765 
L 920.697442 -238.422205 
L 920.75073 -235.173646 
L 920.810017 -231.925086 
L 920.886442 -228.676527 
L 920.991867 -225.427968 
L 921.138037 -222.179408 
L 921.335566 -218.930849 
L 921.592824 -215.68229 
L 921.914864 -212.43373 
L 922.302526 -209.185171 
L 922.751836 -205.936612 
L 923.25382 -202.688052 
L 923.794805 -199.439493 
L 924.357188 -196.190934 
L 924.920648 -192.942374 
L 925.463642 -189.693815 
L 925.965039 -186.445255 
L 926.405683 -183.196696 
L 926.769718 -179.948137 
L 927.045536 -176.699577 
L 927.226282 -173.451018 
L 927.309951 -170.202459 
L 927.299144 -166.953899 
L 927.200627 -163.70534 
L 927.024824 -160.456781 
L 926.785368 -157.208221 
L 926.498728 -153.959662 
L 926.183923 -150.711103 
L 925.862221 -147.462543 
L 925.556702 -144.213984 
L 925.291573 -140.965425 
L 925.091126 -137.716865 
L 924.978342 -134.468306 
L 924.973175 -131.219746 
L 925.09068 -127.971187 
L 925.339192 -124.722628 
L 925.718802 -121.474068 
L 926.220387 -118.225509 
L 926.82541 -114.97695 
L 927.506593 -111.72839 
L 928.229493 -108.479831 
L 928.95486 -105.231272 
L 929.641529 -101.982712 
L 930.249537 -98.734153 
L 930.743077 -95.485594 
L 931.09296 -92.237034 
L 931.278295 -88.988475 
L 931.287273 -85.739915 
L 931.117024 -82.491356 
L 930.772728 -79.242797 
L 930.266196 -75.994237 
L 929.61423 -72.745678 
L 928.837011 -69.497119 
L 927.956733 -66.248559 
L 926.996559 -63 
z
" id="m4fab65543b" style="stroke:#ffffff;stroke-opacity:0.3;"/>
    </defs>
    <g clip-path="url(#p08f0ba9eef)">
     <use style="fill:#4c72b0;fill-opacity:0.3;stroke:#ffffff;stroke-opacity:0.3;" x="0" xlink:href="#m4fab65543b" y="504"/>
    </g>
   </g>
   <g id="PolyCollection_13">
    <defs>
     <path d="M 996.179181 -63 
L 963.791728 -63 
L 963.752727 -66.543883 
L 963.990547 -70.087766 
L 964.485293 -73.631649 
L 965.203752 -77.175532 
L 966.102596 -80.719415 
L 967.132305 -84.263298 
L 968.241311 -87.807181 
L 969.379913 -91.351063 
L 970.503542 -94.894946 
L 971.575136 -98.438829 
L 972.566476 -101.982712 
L 973.458536 -105.526595 
L 974.240973 -109.070478 
L 974.910979 -112.614361 
L 975.471745 -116.158244 
L 975.930785 -119.702127 
L 976.298305 -123.24601 
L 976.585783 -126.789893 
L 976.804827 -130.333776 
L 976.966357 -133.877659 
L 977.08008 -137.421542 
L 977.154227 -140.965425 
L 977.195498 -144.509307 
L 977.209153 -148.05319 
L 977.199196 -151.597073 
L 977.168621 -155.140956 
L 977.119678 -158.684839 
L 977.054142 -162.228722 
L 976.973571 -165.772605 
L 976.879541 -169.316488 
L 976.773838 -172.860371 
L 976.658612 -176.404254 
L 976.536461 -179.948137 
L 976.410457 -183.49202 
L 976.284088 -187.035903 
L 976.161128 -190.579786 
L 976.045437 -194.123668 
L 975.940713 -197.667551 
L 975.850218 -201.211434 
L 975.776517 -204.755317 
L 975.721262 -208.2992 
L 975.685048 -211.843083 
L 975.66738 -215.386966 
L 975.666741 -218.930849 
L 975.680774 -222.474732 
L 975.706547 -226.018615 
L 975.74088 -229.562498 
L 975.780682 -233.106381 
L 975.823269 -236.650264 
L 975.866619 -240.194147 
L 975.909552 -243.73803 
L 975.951796 -247.281912 
L 975.993961 -250.825795 
L 976.037422 -254.369678 
L 976.084128 -257.913561 
L 976.136378 -261.457444 
L 976.19657 -265.001327 
L 976.266974 -268.54521 
L 976.349531 -272.089093 
L 976.445699 -275.632976 
L 976.556351 -279.176859 
L 976.681716 -282.720742 
L 976.821368 -286.264625 
L 976.974246 -289.808508 
L 977.138694 -293.352391 
L 977.312536 -296.896274 
L 977.493154 -300.440156 
L 977.677598 -303.984039 
L 977.862709 -307.527922 
L 978.045256 -311.071805 
L 978.222092 -314.615688 
L 978.390302 -318.159571 
L 978.547353 -321.703454 
L 978.691211 -325.247337 
L 978.82043 -328.79122 
L 978.934194 -332.335103 
L 979.032321 -335.878986 
L 979.115219 -339.422869 
L 979.183809 -342.966752 
L 979.239421 -346.510635 
L 979.283685 -350.054518 
L 979.318412 -353.5984 
L 979.345486 -357.142283 
L 979.366775 -360.686166 
L 979.384053 -364.230049 
L 979.39894 -367.773932 
L 979.412858 -371.317815 
L 979.427005 -374.861698 
L 979.442335 -378.405581 
L 979.459546 -381.949464 
L 979.47909 -385.493347 
L 979.501178 -389.03723 
L 979.525803 -392.581113 
L 979.552768 -396.124996 
L 979.581721 -399.668879 
L 979.612199 -403.212761 
L 979.643664 -406.756644 
L 979.675548 -410.300527 
L 979.707287 -413.84441 
L 980.263622 -413.84441 
L 980.263622 -413.84441 
L 980.295361 -410.300527 
L 980.327245 -406.756644 
L 980.35871 -403.212761 
L 980.389188 -399.668879 
L 980.418141 -396.124996 
L 980.445106 -392.581113 
L 980.469731 -389.03723 
L 980.491819 -385.493347 
L 980.511363 -381.949464 
L 980.528575 -378.405581 
L 980.543904 -374.861698 
L 980.558051 -371.317815 
L 980.57197 -367.773932 
L 980.586856 -364.230049 
L 980.604134 -360.686166 
L 980.625423 -357.142283 
L 980.652498 -353.5984 
L 980.687224 -350.054518 
L 980.731488 -346.510635 
L 980.7871 -342.966752 
L 980.85569 -339.422869 
L 980.938588 -335.878986 
L 981.036716 -332.335103 
L 981.150479 -328.79122 
L 981.279698 -325.247337 
L 981.423556 -321.703454 
L 981.580607 -318.159571 
L 981.748817 -314.615688 
L 981.925653 -311.071805 
L 982.1082 -307.527922 
L 982.293311 -303.984039 
L 982.477755 -300.440156 
L 982.658374 -296.896274 
L 982.832215 -293.352391 
L 982.996663 -289.808508 
L 983.149541 -286.264625 
L 983.289193 -282.720742 
L 983.414558 -279.176859 
L 983.52521 -275.632976 
L 983.621378 -272.089093 
L 983.703935 -268.54521 
L 983.774339 -265.001327 
L 983.834531 -261.457444 
L 983.886781 -257.913561 
L 983.933487 -254.369678 
L 983.976948 -250.825795 
L 984.019113 -247.281912 
L 984.061357 -243.73803 
L 984.10429 -240.194147 
L 984.147641 -236.650264 
L 984.190227 -233.106381 
L 984.230029 -229.562498 
L 984.264362 -226.018615 
L 984.290136 -222.474732 
L 984.304168 -218.930849 
L 984.303529 -215.386966 
L 984.285861 -211.843083 
L 984.249647 -208.2992 
L 984.194392 -204.755317 
L 984.120692 -201.211434 
L 984.030196 -197.667551 
L 983.925472 -194.123668 
L 983.809781 -190.579786 
L 983.686821 -187.035903 
L 983.560452 -183.49202 
L 983.434448 -179.948137 
L 983.312297 -176.404254 
L 983.197071 -172.860371 
L 983.091368 -169.316488 
L 982.997338 -165.772605 
L 982.916767 -162.228722 
L 982.851231 -158.684839 
L 982.802288 -155.140956 
L 982.771713 -151.597073 
L 982.761756 -148.05319 
L 982.775411 -144.509307 
L 982.816682 -140.965425 
L 982.890829 -137.421542 
L 983.004552 -133.877659 
L 983.166082 -130.333776 
L 983.385126 -126.789893 
L 983.672604 -123.24601 
L 984.040124 -119.702127 
L 984.499164 -116.158244 
L 985.05993 -112.614361 
L 985.729936 -109.070478 
L 986.512373 -105.526595 
L 987.404433 -101.982712 
L 988.395773 -98.438829 
L 989.467367 -94.894946 
L 990.590996 -91.351063 
L 991.729598 -87.807181 
L 992.838604 -84.263298 
L 993.868313 -80.719415 
L 994.767158 -77.175532 
L 995.485616 -73.631649 
L 995.980362 -70.087766 
L 996.218182 -66.543883 
L 996.179181 -63 
z
" id="m0ca7a3c6da" style="stroke:#ffffff;stroke-opacity:0.3;"/>
    </defs>
    <g clip-path="url(#p08f0ba9eef)">
     <use style="fill:#4c72b0;fill-opacity:0.3;stroke:#ffffff;stroke-opacity:0.3;" x="0" xlink:href="#m0ca7a3c6da" y="504"/>
    </g>
   </g>
   <g id="LineCollection_1">
    <path clip-path="url(#p08f0ba9eef)" d="M 192.698182 90.15559 
L 208.930909 90.15559 
" style="fill:none;stroke:#4c72b0;stroke-width:1.5;"/>
    <path clip-path="url(#p08f0ba9eef)" d="M 257.629091 119.392624 
L 273.861818 119.392624 
" style="fill:none;stroke:#4c72b0;stroke-width:1.5;"/>
    <path clip-path="url(#p08f0ba9eef)" d="M 322.56 148.629658 
L 338.792727 148.629658 
" style="fill:none;stroke:#4c72b0;stroke-width:1.5;"/>
    <path clip-path="url(#p08f0ba9eef)" d="M 387.490909 177.866692 
L 403.723636 177.866692 
" style="fill:none;stroke:#4c72b0;stroke-width:1.5;"/>
    <path clip-path="url(#p08f0ba9eef)" d="M 452.421818 207.103726 
L 468.654545 207.103726 
" style="fill:none;stroke:#4c72b0;stroke-width:1.5;"/>
    <path clip-path="url(#p08f0ba9eef)" d="M 517.352727 236.340761 
L 533.585455 236.340761 
" style="fill:none;stroke:#4c72b0;stroke-width:1.5;"/>
    <path clip-path="url(#p08f0ba9eef)" d="M 582.283636 265.577795 
L 598.516364 265.577795 
" style="fill:none;stroke:#4c72b0;stroke-width:1.5;"/>
    <path clip-path="url(#p08f0ba9eef)" d="M 647.214545 236.340761 
L 663.447273 236.340761 
" style="fill:none;stroke:#4c72b0;stroke-width:1.5;"/>
    <path clip-path="url(#p08f0ba9eef)" d="M 712.145455 207.103726 
L 728.378182 207.103726 
" style="fill:none;stroke:#4c72b0;stroke-width:1.5;"/>
    <path clip-path="url(#p08f0ba9eef)" d="M 777.076364 177.866692 
L 793.309091 177.866692 
" style="fill:none;stroke:#4c72b0;stroke-width:1.5;"/>
    <path clip-path="url(#p08f0ba9eef)" d="M 842.007273 148.629658 
L 858.24 148.629658 
" style="fill:none;stroke:#4c72b0;stroke-width:1.5;"/>
    <path clip-path="url(#p08f0ba9eef)" d="M 906.938182 119.392624 
L 923.170909 119.392624 
" style="fill:none;stroke:#4c72b0;stroke-width:1.5;"/>
    <path clip-path="url(#p08f0ba9eef)" d="M 971.869091 90.15559 
L 988.101818 90.15559 
" style="fill:none;stroke:#4c72b0;stroke-width:1.5;"/>
   </g>
   <g id="LineCollection_2">
    <path clip-path="url(#p08f0ba9eef)" d="M 192.698182 441 
L 208.930909 441 
" style="fill:none;stroke:#4c72b0;stroke-width:1.5;"/>
    <path clip-path="url(#p08f0ba9eef)" d="M 257.629091 441 
L 273.861818 441 
" style="fill:none;stroke:#4c72b0;stroke-width:1.5;"/>
    <path clip-path="url(#p08f0ba9eef)" d="M 322.56 441 
L 338.792727 441 
" style="fill:none;stroke:#4c72b0;stroke-width:1.5;"/>
    <path clip-path="url(#p08f0ba9eef)" d="M 387.490909 441 
L 403.723636 441 
" style="fill:none;stroke:#4c72b0;stroke-width:1.5;"/>
    <path clip-path="url(#p08f0ba9eef)" d="M 452.421818 441 
L 468.654545 441 
" style="fill:none;stroke:#4c72b0;stroke-width:1.5;"/>
    <path clip-path="url(#p08f0ba9eef)" d="M 517.352727 441 
L 533.585455 441 
" style="fill:none;stroke:#4c72b0;stroke-width:1.5;"/>
    <path clip-path="url(#p08f0ba9eef)" d="M 582.283636 441 
L 598.516364 441 
" style="fill:none;stroke:#4c72b0;stroke-width:1.5;"/>
    <path clip-path="url(#p08f0ba9eef)" d="M 647.214545 441 
L 663.447273 441 
" style="fill:none;stroke:#4c72b0;stroke-width:1.5;"/>
    <path clip-path="url(#p08f0ba9eef)" d="M 712.145455 441 
L 728.378182 441 
" style="fill:none;stroke:#4c72b0;stroke-width:1.5;"/>
    <path clip-path="url(#p08f0ba9eef)" d="M 777.076364 441 
L 793.309091 441 
" style="fill:none;stroke:#4c72b0;stroke-width:1.5;"/>
    <path clip-path="url(#p08f0ba9eef)" d="M 842.007273 441 
L 858.24 441 
" style="fill:none;stroke:#4c72b0;stroke-width:1.5;"/>
    <path clip-path="url(#p08f0ba9eef)" d="M 906.938182 441 
L 923.170909 441 
" style="fill:none;stroke:#4c72b0;stroke-width:1.5;"/>
    <path clip-path="url(#p08f0ba9eef)" d="M 971.869091 441 
L 988.101818 441 
" style="fill:none;stroke:#4c72b0;stroke-width:1.5;"/>
   </g>
   <g id="LineCollection_3">
    <path clip-path="url(#p08f0ba9eef)" d="M 200.814545 441 
L 200.814545 90.15559 
" style="fill:none;stroke:#4c72b0;stroke-width:1.5;"/>
    <path clip-path="url(#p08f0ba9eef)" d="M 265.745455 441 
L 265.745455 119.392624 
" style="fill:none;stroke:#4c72b0;stroke-width:1.5;"/>
    <path clip-path="url(#p08f0ba9eef)" d="M 330.676364 441 
L 330.676364 148.629658 
" style="fill:none;stroke:#4c72b0;stroke-width:1.5;"/>
    <path clip-path="url(#p08f0ba9eef)" d="M 395.607273 441 
L 395.607273 177.866692 
" style="fill:none;stroke:#4c72b0;stroke-width:1.5;"/>
    <path clip-path="url(#p08f0ba9eef)" d="M 460.538182 441 
L 460.538182 207.103726 
" style="fill:none;stroke:#4c72b0;stroke-width:1.5;"/>
    <path clip-path="url(#p08f0ba9eef)" d="M 525.469091 441 
L 525.469091 236.340761 
" style="fill:none;stroke:#4c72b0;stroke-width:1.5;"/>
    <path clip-path="url(#p08f0ba9eef)" d="M 590.4 441 
L 590.4 265.577795 
" style="fill:none;stroke:#4c72b0;stroke-width:1.5;"/>
    <path clip-path="url(#p08f0ba9eef)" d="M 655.330909 441 
L 655.330909 236.340761 
" style="fill:none;stroke:#4c72b0;stroke-width:1.5;"/>
    <path clip-path="url(#p08f0ba9eef)" d="M 720.261818 441 
L 720.261818 207.103726 
" style="fill:none;stroke:#4c72b0;stroke-width:1.5;"/>
    <path clip-path="url(#p08f0ba9eef)" d="M 785.192727 441 
L 785.192727 177.866692 
" style="fill:none;stroke:#4c72b0;stroke-width:1.5;"/>
    <path clip-path="url(#p08f0ba9eef)" d="M 850.123636 441 
L 850.123636 148.629658 
" style="fill:none;stroke:#4c72b0;stroke-width:1.5;"/>
    <path clip-path="url(#p08f0ba9eef)" d="M 915.054545 441 
L 915.054545 119.392624 
" style="fill:none;stroke:#4c72b0;stroke-width:1.5;"/>
    <path clip-path="url(#p08f0ba9eef)" d="M 979.985455 441 
L 979.985455 90.15559 
" style="fill:none;stroke:#4c72b0;stroke-width:1.5;"/>
   </g>
   <g id="patch_3">
    <path d="M 144 441 
L 144 60.48 
" style="fill:none;stroke:#cccccc;stroke-linecap:square;stroke-linejoin:miter;stroke-width:1.25;"/>
   </g>
   <g id="patch_4">
    <path d="M 1036.8 441 
L 1036.8 60.48 
" style="fill:none;stroke:#cccccc;stroke-linecap:square;stroke-linejoin:miter;stroke-width:1.25;"/>
   </g>
   <g id="patch_5">
    <path d="M 144 441 
L 1036.8 441 
" style="fill:none;stroke:#cccccc;stroke-linecap:square;stroke-linejoin:miter;stroke-width:1.25;"/>
   </g>
   <g id="patch_6">
    <path d="M 144 60.48 
L 1036.8 60.48 
" style="fill:none;stroke:#cccccc;stroke-linecap:square;stroke-linejoin:miter;stroke-width:1.25;"/>
   </g>
  </g>
 </g>
 <defs>
  <clipPath id="p08f0ba9eef">
   <rect height="380.52" width="892.8" x="144" y="60.48"/>
  </clipPath>
 </defs>
</svg>
