<?xml version="1.0" encoding="utf-8" standalone="no"?>
<!DOCTYPE svg PUBLIC "-//W3C//DTD SVG 1.1//EN"
  "http://www.w3.org/Graphics/SVG/1.1/DTD/svg11.dtd">
<!-- Created with matplotlib (https://matplotlib.org/) -->
<svg height="504pt" version="1.1" viewBox="0 0 1152 504" width="1152pt" xmlns="http://www.w3.org/2000/svg" xmlns:xlink="http://www.w3.org/1999/xlink">
 <metadata>
  <rdf:RDF xmlns:cc="http://creativecommons.org/ns#" xmlns:dc="http://purl.org/dc/elements/1.1/" xmlns:rdf="http://www.w3.org/1999/02/22-rdf-syntax-ns#">
   <cc:Work>
    <dc:type rdf:resource="http://purl.org/dc/dcmitype/StillImage"/>
    <dc:date>2020-09-11T17:43:23.597631</dc:date>
    <dc:format>image/svg+xml</dc:format>
    <dc:creator>
     <cc:Agent>
      <dc:title>Matplotlib v3.3.1, https://matplotlib.org/</dc:title>
     </cc:Agent>
    </dc:creator>
   </cc:Work>
  </rdf:RDF>
 </metadata>
 <defs>
  <style type="text/css">*{stroke-linecap:butt;stroke-linejoin:round;}</style>
 </defs>
 <g id="figure_1">
  <g id="patch_1">
   <path d="M 0 504 
L 1152 504 
L 1152 0 
L 0 0 
z
" style="fill:#ffffff;"/>
  </g>
  <g id="axes_1">
   <g id="patch_2">
    <path d="M 144 441 
L 1036.8 441 
L 1036.8 60.48 
L 144 60.48 
z
" style="fill:#ffffff;"/>
   </g>
   <g id="matplotlib.axis_1">
    <g id="xtick_1">
     <g id="line2d_1">
      <path clip-path="url(#p94fbfbbecc)" d="M 265.745455 441 
L 265.745455 60.48 
" style="fill:none;stroke:#cccccc;stroke-linecap:round;"/>
     </g>
     <g id="text_1">
      <!-- 1400 -->
      <g style="fill:#262626;" transform="translate(253.511392 458.373594)scale(0.11 -0.11)">
       <defs>
        <path d="M 37.25 0 
L 28.46875 0 
L 28.46875 56 
Q 25.296875 52.984375 20.140625 49.953125 
Q 14.984375 46.921875 10.890625 45.40625 
L 10.890625 53.90625 
Q 18.265625 57.375 23.78125 62.296875 
Q 29.296875 67.234375 31.59375 71.875 
L 37.25 71.875 
z
" id="ArialMT-49"/>
        <path d="M 32.328125 0 
L 32.328125 17.140625 
L 1.265625 17.140625 
L 1.265625 25.203125 
L 33.9375 71.578125 
L 41.109375 71.578125 
L 41.109375 25.203125 
L 50.78125 25.203125 
L 50.78125 17.140625 
L 41.109375 17.140625 
L 41.109375 0 
z
M 32.328125 25.203125 
L 32.328125 57.46875 
L 9.90625 25.203125 
z
" id="ArialMT-52"/>
        <path d="M 4.15625 35.296875 
Q 4.15625 48 6.765625 55.734375 
Q 9.375 63.484375 14.515625 67.671875 
Q 19.671875 71.875 27.484375 71.875 
Q 33.25 71.875 37.59375 69.546875 
Q 41.9375 67.234375 44.765625 62.859375 
Q 47.609375 58.5 49.21875 52.21875 
Q 50.828125 45.953125 50.828125 35.296875 
Q 50.828125 22.703125 48.234375 14.96875 
Q 45.65625 7.234375 40.5 3 
Q 35.359375 -1.21875 27.484375 -1.21875 
Q 17.140625 -1.21875 11.234375 6.203125 
Q 4.15625 15.140625 4.15625 35.296875 
z
M 13.1875 35.296875 
Q 13.1875 17.671875 17.3125 11.828125 
Q 21.4375 6 27.484375 6 
Q 33.546875 6 37.671875 11.859375 
Q 41.796875 17.71875 41.796875 35.296875 
Q 41.796875 52.984375 37.671875 58.78125 
Q 33.546875 64.59375 27.390625 64.59375 
Q 21.34375 64.59375 17.71875 59.46875 
Q 13.1875 52.9375 13.1875 35.296875 
z
" id="ArialMT-48"/>
       </defs>
       <use xlink:href="#ArialMT-49"/>
       <use x="55.615234" xlink:href="#ArialMT-52"/>
       <use x="111.230469" xlink:href="#ArialMT-48"/>
       <use x="166.845703" xlink:href="#ArialMT-48"/>
      </g>
     </g>
    </g>
    <g id="xtick_2">
     <g id="line2d_2">
      <path clip-path="url(#p94fbfbbecc)" d="M 395.607273 441 
L 395.607273 60.48 
" style="fill:none;stroke:#cccccc;stroke-linecap:round;"/>
     </g>
     <g id="text_2">
      <!-- 1500 -->
      <g style="fill:#262626;" transform="translate(383.37321 458.373594)scale(0.11 -0.11)">
       <defs>
        <path d="M 4.15625 18.75 
L 13.375 19.53125 
Q 14.40625 12.796875 18.140625 9.390625 
Q 21.875 6 27.15625 6 
Q 33.5 6 37.890625 10.78125 
Q 42.28125 15.578125 42.28125 23.484375 
Q 42.28125 31 38.0625 35.34375 
Q 33.84375 39.703125 27 39.703125 
Q 22.75 39.703125 19.328125 37.765625 
Q 15.921875 35.84375 13.96875 32.765625 
L 5.71875 33.84375 
L 12.640625 70.609375 
L 48.25 70.609375 
L 48.25 62.203125 
L 19.671875 62.203125 
L 15.828125 42.96875 
Q 22.265625 47.46875 29.34375 47.46875 
Q 38.71875 47.46875 45.15625 40.96875 
Q 51.609375 34.46875 51.609375 24.265625 
Q 51.609375 14.546875 45.953125 7.46875 
Q 39.0625 -1.21875 27.15625 -1.21875 
Q 17.390625 -1.21875 11.203125 4.25 
Q 5.03125 9.71875 4.15625 18.75 
z
" id="ArialMT-53"/>
       </defs>
       <use xlink:href="#ArialMT-49"/>
       <use x="55.615234" xlink:href="#ArialMT-53"/>
       <use x="111.230469" xlink:href="#ArialMT-48"/>
       <use x="166.845703" xlink:href="#ArialMT-48"/>
      </g>
     </g>
    </g>
    <g id="xtick_3">
     <g id="line2d_3">
      <path clip-path="url(#p94fbfbbecc)" d="M 525.469091 441 
L 525.469091 60.48 
" style="fill:none;stroke:#cccccc;stroke-linecap:round;"/>
     </g>
     <g id="text_3">
      <!-- 1600 -->
      <g style="fill:#262626;" transform="translate(513.235028 458.373594)scale(0.11 -0.11)">
       <defs>
        <path d="M 49.75 54.046875 
L 41.015625 53.375 
Q 39.84375 58.546875 37.703125 60.890625 
Q 34.125 64.65625 28.90625 64.65625 
Q 24.703125 64.65625 21.53125 62.3125 
Q 17.390625 59.28125 14.984375 53.46875 
Q 12.59375 47.65625 12.5 36.921875 
Q 15.671875 41.75 20.265625 44.09375 
Q 24.859375 46.4375 29.890625 46.4375 
Q 38.671875 46.4375 44.84375 39.96875 
Q 51.03125 33.5 51.03125 23.25 
Q 51.03125 16.5 48.125 10.71875 
Q 45.21875 4.9375 40.140625 1.859375 
Q 35.0625 -1.21875 28.609375 -1.21875 
Q 17.625 -1.21875 10.6875 6.859375 
Q 3.765625 14.9375 3.765625 33.5 
Q 3.765625 54.25 11.421875 63.671875 
Q 18.109375 71.875 29.4375 71.875 
Q 37.890625 71.875 43.28125 67.140625 
Q 48.6875 62.40625 49.75 54.046875 
z
M 13.875 23.1875 
Q 13.875 18.65625 15.796875 14.5 
Q 17.71875 10.359375 21.1875 8.171875 
Q 24.65625 6 28.46875 6 
Q 34.03125 6 38.03125 10.484375 
Q 42.046875 14.984375 42.046875 22.703125 
Q 42.046875 30.125 38.078125 34.390625 
Q 34.125 38.671875 28.125 38.671875 
Q 22.171875 38.671875 18.015625 34.390625 
Q 13.875 30.125 13.875 23.1875 
z
" id="ArialMT-54"/>
       </defs>
       <use xlink:href="#ArialMT-49"/>
       <use x="55.615234" xlink:href="#ArialMT-54"/>
       <use x="111.230469" xlink:href="#ArialMT-48"/>
       <use x="166.845703" xlink:href="#ArialMT-48"/>
      </g>
     </g>
    </g>
    <g id="xtick_4">
     <g id="line2d_4">
      <path clip-path="url(#p94fbfbbecc)" d="M 655.330909 441 
L 655.330909 60.48 
" style="fill:none;stroke:#cccccc;stroke-linecap:round;"/>
     </g>
     <g id="text_4">
      <!-- 1700 -->
      <g style="fill:#262626;" transform="translate(643.096847 458.373594)scale(0.11 -0.11)">
       <defs>
        <path d="M 4.734375 62.203125 
L 4.734375 70.65625 
L 51.078125 70.65625 
L 51.078125 63.8125 
Q 44.234375 56.546875 37.515625 44.484375 
Q 30.8125 32.421875 27.15625 19.671875 
Q 24.515625 10.6875 23.78125 0 
L 14.75 0 
Q 14.890625 8.453125 18.0625 20.40625 
Q 21.234375 32.375 27.171875 43.484375 
Q 33.109375 54.59375 39.796875 62.203125 
z
" id="ArialMT-55"/>
       </defs>
       <use xlink:href="#ArialMT-49"/>
       <use x="55.615234" xlink:href="#ArialMT-55"/>
       <use x="111.230469" xlink:href="#ArialMT-48"/>
       <use x="166.845703" xlink:href="#ArialMT-48"/>
      </g>
     </g>
    </g>
    <g id="xtick_5">
     <g id="line2d_5">
      <path clip-path="url(#p94fbfbbecc)" d="M 785.192727 441 
L 785.192727 60.48 
" style="fill:none;stroke:#cccccc;stroke-linecap:round;"/>
     </g>
     <g id="text_5">
      <!-- 1800 -->
      <g style="fill:#262626;" transform="translate(772.958665 458.373594)scale(0.11 -0.11)">
       <defs>
        <path d="M 17.671875 38.8125 
Q 12.203125 40.828125 9.5625 44.53125 
Q 6.9375 48.25 6.9375 53.421875 
Q 6.9375 61.234375 12.546875 66.546875 
Q 18.171875 71.875 27.484375 71.875 
Q 36.859375 71.875 42.578125 66.421875 
Q 48.296875 60.984375 48.296875 53.171875 
Q 48.296875 48.1875 45.671875 44.5 
Q 43.0625 40.828125 37.75 38.8125 
Q 44.34375 36.671875 47.78125 31.875 
Q 51.21875 27.09375 51.21875 20.453125 
Q 51.21875 11.28125 44.71875 5.03125 
Q 38.234375 -1.21875 27.640625 -1.21875 
Q 17.046875 -1.21875 10.546875 5.046875 
Q 4.046875 11.328125 4.046875 20.703125 
Q 4.046875 27.6875 7.59375 32.390625 
Q 11.140625 37.109375 17.671875 38.8125 
z
M 15.921875 53.71875 
Q 15.921875 48.640625 19.1875 45.40625 
Q 22.46875 42.1875 27.6875 42.1875 
Q 32.765625 42.1875 36.015625 45.375 
Q 39.265625 48.578125 39.265625 53.21875 
Q 39.265625 58.0625 35.90625 61.359375 
Q 32.5625 64.65625 27.59375 64.65625 
Q 22.5625 64.65625 19.234375 61.421875 
Q 15.921875 58.203125 15.921875 53.71875 
z
M 13.09375 20.65625 
Q 13.09375 16.890625 14.875 13.375 
Q 16.65625 9.859375 20.171875 7.921875 
Q 23.6875 6 27.734375 6 
Q 34.03125 6 38.125 10.046875 
Q 42.234375 14.109375 42.234375 20.359375 
Q 42.234375 26.703125 38.015625 30.859375 
Q 33.796875 35.015625 27.4375 35.015625 
Q 21.234375 35.015625 17.15625 30.90625 
Q 13.09375 26.8125 13.09375 20.65625 
z
" id="ArialMT-56"/>
       </defs>
       <use xlink:href="#ArialMT-49"/>
       <use x="55.615234" xlink:href="#ArialMT-56"/>
       <use x="111.230469" xlink:href="#ArialMT-48"/>
       <use x="166.845703" xlink:href="#ArialMT-48"/>
      </g>
     </g>
    </g>
    <g id="xtick_6">
     <g id="line2d_6">
      <path clip-path="url(#p94fbfbbecc)" d="M 915.054545 441 
L 915.054545 60.48 
" style="fill:none;stroke:#cccccc;stroke-linecap:round;"/>
     </g>
     <g id="text_6">
      <!-- 1900 -->
      <g style="fill:#262626;" transform="translate(902.820483 458.373594)scale(0.11 -0.11)">
       <defs>
        <path d="M 5.46875 16.546875 
L 13.921875 17.328125 
Q 14.984375 11.375 18.015625 8.6875 
Q 21.046875 6 25.78125 6 
Q 29.828125 6 32.875 7.859375 
Q 35.9375 9.71875 37.890625 12.8125 
Q 39.84375 15.921875 41.15625 21.1875 
Q 42.484375 26.46875 42.484375 31.9375 
Q 42.484375 32.515625 42.4375 33.6875 
Q 39.796875 29.5 35.234375 26.875 
Q 30.671875 24.265625 25.34375 24.265625 
Q 16.453125 24.265625 10.296875 30.703125 
Q 4.15625 37.15625 4.15625 47.703125 
Q 4.15625 58.59375 10.578125 65.234375 
Q 17 71.875 26.65625 71.875 
Q 33.640625 71.875 39.421875 68.109375 
Q 45.21875 64.359375 48.21875 57.390625 
Q 51.21875 50.4375 51.21875 37.25 
Q 51.21875 23.53125 48.234375 15.40625 
Q 45.265625 7.28125 39.375 3.03125 
Q 33.5 -1.21875 25.59375 -1.21875 
Q 17.1875 -1.21875 11.859375 3.4375 
Q 6.546875 8.109375 5.46875 16.546875 
z
M 41.453125 48.140625 
Q 41.453125 55.71875 37.421875 60.15625 
Q 33.40625 64.59375 27.734375 64.59375 
Q 21.875 64.59375 17.53125 59.8125 
Q 13.1875 55.03125 13.1875 47.40625 
Q 13.1875 40.578125 17.3125 36.296875 
Q 21.4375 32.03125 27.484375 32.03125 
Q 33.59375 32.03125 37.515625 36.296875 
Q 41.453125 40.578125 41.453125 48.140625 
z
" id="ArialMT-57"/>
       </defs>
       <use xlink:href="#ArialMT-49"/>
       <use x="55.615234" xlink:href="#ArialMT-57"/>
       <use x="111.230469" xlink:href="#ArialMT-48"/>
       <use x="166.845703" xlink:href="#ArialMT-48"/>
      </g>
     </g>
    </g>
   </g>
   <g id="matplotlib.axis_2">
    <g id="ytick_1">
     <g id="line2d_7">
      <path clip-path="url(#p94fbfbbecc)" d="M 144 441 
L 1036.8 441 
" style="fill:none;stroke:#cccccc;stroke-linecap:round;"/>
     </g>
     <g id="text_7">
      <!-- 0 -->
      <g style="fill:#262626;" transform="translate(128.382969 444.936797)scale(0.11 -0.11)">
       <use xlink:href="#ArialMT-48"/>
      </g>
     </g>
    </g>
    <g id="ytick_2">
     <g id="line2d_8">
      <path clip-path="url(#p94fbfbbecc)" d="M 144 382.525932 
L 1036.8 382.525932 
" style="fill:none;stroke:#cccccc;stroke-linecap:round;"/>
     </g>
     <g id="text_8">
      <!-- 100 -->
      <g style="fill:#262626;" transform="translate(116.148906 386.462728)scale(0.11 -0.11)">
       <use xlink:href="#ArialMT-49"/>
       <use x="55.615234" xlink:href="#ArialMT-48"/>
       <use x="111.230469" xlink:href="#ArialMT-48"/>
      </g>
     </g>
    </g>
    <g id="ytick_3">
     <g id="line2d_9">
      <path clip-path="url(#p94fbfbbecc)" d="M 144 324.051863 
L 1036.8 324.051863 
" style="fill:none;stroke:#cccccc;stroke-linecap:round;"/>
     </g>
     <g id="text_9">
      <!-- 200 -->
      <g style="fill:#262626;" transform="translate(116.148906 327.98866)scale(0.11 -0.11)">
       <defs>
        <path d="M 50.34375 8.453125 
L 50.34375 0 
L 3.03125 0 
Q 2.9375 3.171875 4.046875 6.109375 
Q 5.859375 10.9375 9.828125 15.625 
Q 13.8125 20.3125 21.34375 26.46875 
Q 33.015625 36.03125 37.109375 41.625 
Q 41.21875 47.21875 41.21875 52.203125 
Q 41.21875 57.421875 37.46875 61 
Q 33.734375 64.59375 27.734375 64.59375 
Q 21.390625 64.59375 17.578125 60.78125 
Q 13.765625 56.984375 13.71875 50.25 
L 4.6875 51.171875 
Q 5.609375 61.28125 11.65625 66.578125 
Q 17.71875 71.875 27.9375 71.875 
Q 38.234375 71.875 44.234375 66.15625 
Q 50.25 60.453125 50.25 52 
Q 50.25 47.703125 48.484375 43.546875 
Q 46.734375 39.40625 42.65625 34.8125 
Q 38.578125 30.21875 29.109375 22.21875 
Q 21.1875 15.578125 18.9375 13.203125 
Q 16.703125 10.84375 15.234375 8.453125 
z
" id="ArialMT-50"/>
       </defs>
       <use xlink:href="#ArialMT-50"/>
       <use x="55.615234" xlink:href="#ArialMT-48"/>
       <use x="111.230469" xlink:href="#ArialMT-48"/>
      </g>
     </g>
    </g>
    <g id="ytick_4">
     <g id="line2d_10">
      <path clip-path="url(#p94fbfbbecc)" d="M 144 265.577795 
L 1036.8 265.577795 
" style="fill:none;stroke:#cccccc;stroke-linecap:round;"/>
     </g>
     <g id="text_10">
      <!-- 300 -->
      <g style="fill:#262626;" transform="translate(116.148906 269.514592)scale(0.11 -0.11)">
       <defs>
        <path d="M 4.203125 18.890625 
L 12.984375 20.0625 
Q 14.5 12.59375 18.140625 9.296875 
Q 21.78125 6 27 6 
Q 33.203125 6 37.46875 10.296875 
Q 41.75 14.59375 41.75 20.953125 
Q 41.75 27 37.796875 30.921875 
Q 33.84375 34.859375 27.734375 34.859375 
Q 25.25 34.859375 21.53125 33.890625 
L 22.515625 41.609375 
Q 23.390625 41.5 23.921875 41.5 
Q 29.546875 41.5 34.03125 44.421875 
Q 38.53125 47.359375 38.53125 53.46875 
Q 38.53125 58.296875 35.25 61.46875 
Q 31.984375 64.65625 26.8125 64.65625 
Q 21.6875 64.65625 18.265625 61.421875 
Q 14.84375 58.203125 13.875 51.765625 
L 5.078125 53.328125 
Q 6.6875 62.15625 12.390625 67.015625 
Q 18.109375 71.875 26.609375 71.875 
Q 32.46875 71.875 37.390625 69.359375 
Q 42.328125 66.84375 44.9375 62.5 
Q 47.5625 58.15625 47.5625 53.265625 
Q 47.5625 48.640625 45.0625 44.828125 
Q 42.578125 41.015625 37.703125 38.765625 
Q 44.046875 37.3125 47.5625 32.6875 
Q 51.078125 28.078125 51.078125 21.140625 
Q 51.078125 11.765625 44.234375 5.25 
Q 37.40625 -1.265625 26.953125 -1.265625 
Q 17.53125 -1.265625 11.296875 4.34375 
Q 5.078125 9.96875 4.203125 18.890625 
z
" id="ArialMT-51"/>
       </defs>
       <use xlink:href="#ArialMT-51"/>
       <use x="55.615234" xlink:href="#ArialMT-48"/>
       <use x="111.230469" xlink:href="#ArialMT-48"/>
      </g>
     </g>
    </g>
    <g id="ytick_5">
     <g id="line2d_11">
      <path clip-path="url(#p94fbfbbecc)" d="M 144 207.103726 
L 1036.8 207.103726 
" style="fill:none;stroke:#cccccc;stroke-linecap:round;"/>
     </g>
     <g id="text_11">
      <!-- 400 -->
      <g style="fill:#262626;" transform="translate(116.148906 211.040523)scale(0.11 -0.11)">
       <use xlink:href="#ArialMT-52"/>
       <use x="55.615234" xlink:href="#ArialMT-48"/>
       <use x="111.230469" xlink:href="#ArialMT-48"/>
      </g>
     </g>
    </g>
    <g id="ytick_6">
     <g id="line2d_12">
      <path clip-path="url(#p94fbfbbecc)" d="M 144 148.629658 
L 1036.8 148.629658 
" style="fill:none;stroke:#cccccc;stroke-linecap:round;"/>
     </g>
     <g id="text_12">
      <!-- 500 -->
      <g style="fill:#262626;" transform="translate(116.148906 152.566455)scale(0.11 -0.11)">
       <use xlink:href="#ArialMT-53"/>
       <use x="55.615234" xlink:href="#ArialMT-48"/>
       <use x="111.230469" xlink:href="#ArialMT-48"/>
      </g>
     </g>
    </g>
    <g id="ytick_7">
     <g id="line2d_13">
      <path clip-path="url(#p94fbfbbecc)" d="M 144 90.15559 
L 1036.8 90.15559 
" style="fill:none;stroke:#cccccc;stroke-linecap:round;"/>
     </g>
     <g id="text_13">
      <!-- 600 -->
      <g style="fill:#262626;" transform="translate(116.148906 94.092387)scale(0.11 -0.11)">
       <use xlink:href="#ArialMT-54"/>
       <use x="55.615234" xlink:href="#ArialMT-48"/>
       <use x="111.230469" xlink:href="#ArialMT-48"/>
      </g>
     </g>
    </g>
   </g>
   <g id="PolyCollection_1">
    <defs>
     <path d="M 216.780344 -63 
L 184.848746 -63 
L 184.67454 -66.543883 
L 184.58584 -70.087766 
L 184.581818 -73.631649 
L 184.660044 -77.175532 
L 184.816581 -80.719415 
L 185.046139 -84.263298 
L 185.342261 -87.807181 
L 185.697543 -91.351063 
L 186.103882 -94.894946 
L 186.552723 -98.438829 
L 187.03532 -101.982712 
L 187.542977 -105.526595 
L 188.067282 -109.070478 
L 188.600309 -112.614361 
L 189.134785 -116.158244 
L 189.66423 -119.702127 
L 190.183054 -123.24601 
L 190.686612 -126.789893 
L 191.171226 -130.333776 
L 191.634172 -133.877659 
L 192.073632 -137.421542 
L 192.488624 -140.965425 
L 192.878908 -144.509307 
L 193.24488 -148.05319 
L 193.587457 -151.597073 
L 193.907952 -155.140956 
L 194.207964 -158.684839 
L 194.489261 -162.228722 
L 194.753679 -165.772605 
L 195.003034 -169.316488 
L 195.239046 -172.860371 
L 195.46328 -176.404254 
L 195.677105 -179.948137 
L 195.881668 -183.49202 
L 196.077879 -187.035903 
L 196.266412 -190.579786 
L 196.447725 -194.123668 
L 196.622075 -197.667551 
L 196.789554 -201.211434 
L 196.95012 -204.755317 
L 197.10364 -208.2992 
L 197.249926 -211.843083 
L 197.388772 -215.386966 
L 197.51999 -218.930849 
L 197.643442 -222.474732 
L 197.759062 -226.018615 
L 197.866875 -229.562498 
L 197.967009 -233.106381 
L 198.059702 -236.650264 
L 198.145296 -240.194147 
L 198.224234 -243.73803 
L 198.297041 -247.281912 
L 198.364312 -250.825795 
L 198.426686 -254.369678 
L 198.484827 -257.913561 
L 198.539395 -261.457444 
L 198.591026 -265.001327 
L 198.640306 -268.54521 
L 198.687751 -272.089093 
L 198.733792 -275.632976 
L 198.778759 -279.176859 
L 198.822871 -282.720742 
L 198.866236 -286.264625 
L 198.908843 -289.808508 
L 198.950575 -293.352391 
L 198.991209 -296.896274 
L 199.030435 -300.440156 
L 199.067865 -303.984039 
L 199.103055 -307.527922 
L 199.13552 -311.071805 
L 199.164758 -314.615688 
L 199.190264 -318.159571 
L 199.211558 -321.703454 
L 199.228198 -325.247337 
L 199.239803 -328.79122 
L 199.246065 -332.335103 
L 199.246769 -335.878986 
L 199.241803 -339.422869 
L 199.231168 -342.966752 
L 199.214989 -346.510635 
L 199.193519 -350.054518 
L 199.167141 -353.5984 
L 199.136372 -357.142283 
L 199.101854 -360.686166 
L 199.064351 -364.230049 
L 199.024738 -367.773932 
L 198.983987 -371.317815 
L 198.94315 -374.861698 
L 198.903339 -378.405581 
L 198.865699 -381.949464 
L 198.831387 -385.493347 
L 198.801539 -389.03723 
L 198.777242 -392.581113 
L 198.759505 -396.124996 
L 198.749232 -399.668879 
L 198.747191 -403.212761 
L 198.753992 -406.756644 
L 198.770071 -410.300527 
L 198.795669 -413.84441 
L 202.833422 -413.84441 
L 202.833422 -413.84441 
L 202.85902 -410.300527 
L 202.875099 -406.756644 
L 202.8819 -403.212761 
L 202.879859 -399.668879 
L 202.869586 -396.124996 
L 202.851849 -392.581113 
L 202.827552 -389.03723 
L 202.797704 -385.493347 
L 202.763391 -381.949464 
L 202.725752 -378.405581 
L 202.685941 -374.861698 
L 202.645104 -371.317815 
L 202.604353 -367.773932 
L 202.56474 -364.230049 
L 202.527237 -360.686166 
L 202.492719 -357.142283 
L 202.46195 -353.5984 
L 202.435572 -350.054518 
L 202.414102 -346.510635 
L 202.397923 -342.966752 
L 202.387288 -339.422869 
L 202.382322 -335.878986 
L 202.383026 -332.335103 
L 202.389288 -328.79122 
L 202.400893 -325.247337 
L 202.417533 -321.703454 
L 202.438827 -318.159571 
L 202.464333 -314.615688 
L 202.49357 -311.071805 
L 202.526036 -307.527922 
L 202.561226 -303.984039 
L 202.598656 -300.440156 
L 202.637882 -296.896274 
L 202.678516 -293.352391 
L 202.720248 -289.808508 
L 202.762855 -286.264625 
L 202.80622 -282.720742 
L 202.850332 -279.176859 
L 202.895299 -275.632976 
L 202.94134 -272.089093 
L 202.988785 -268.54521 
L 203.038065 -265.001327 
L 203.089696 -261.457444 
L 203.144264 -257.913561 
L 203.202405 -254.369678 
L 203.264779 -250.825795 
L 203.33205 -247.281912 
L 203.404857 -243.73803 
L 203.483795 -240.194147 
L 203.569389 -236.650264 
L 203.662082 -233.106381 
L 203.762216 -229.562498 
L 203.870029 -226.018615 
L 203.985649 -222.474732 
L 204.109101 -218.930849 
L 204.240319 -215.386966 
L 204.379165 -211.843083 
L 204.525451 -208.2992 
L 204.678971 -204.755317 
L 204.839537 -201.211434 
L 205.007016 -197.667551 
L 205.181366 -194.123668 
L 205.362679 -190.579786 
L 205.551212 -187.035903 
L 205.747423 -183.49202 
L 205.951986 -179.948137 
L 206.165811 -176.404254 
L 206.390045 -172.860371 
L 206.626057 -169.316488 
L 206.875411 -165.772605 
L 207.13983 -162.228722 
L 207.421127 -158.684839 
L 207.721139 -155.140956 
L 208.041634 -151.597073 
L 208.38421 -148.05319 
L 208.750183 -144.509307 
L 209.140467 -140.965425 
L 209.555459 -137.421542 
L 209.994919 -133.877659 
L 210.457865 -130.333776 
L 210.942479 -126.789893 
L 211.446037 -123.24601 
L 211.96486 -119.702127 
L 212.494306 -116.158244 
L 213.028782 -112.614361 
L 213.561809 -109.070478 
L 214.086114 -105.526595 
L 214.593771 -101.982712 
L 215.076368 -98.438829 
L 215.525209 -94.894946 
L 215.931548 -91.351063 
L 216.28683 -87.807181 
L 216.582952 -84.263298 
L 216.81251 -80.719415 
L 216.969047 -77.175532 
L 217.047273 -73.631649 
L 217.043251 -70.087766 
L 216.95455 -66.543883 
L 216.780344 -63 
z
" id="m415cb309d9" style="stroke:#ffffff;stroke-opacity:0.3;"/>
    </defs>
    <g clip-path="url(#p94fbfbbecc)">
     <use style="fill:#4c72b0;fill-opacity:0.3;stroke:#ffffff;stroke-opacity:0.3;" x="0" xlink:href="#m415cb309d9" y="504"/>
    </g>
   </g>
   <g id="PolyCollection_2">
    <defs>
     <path d="M 281.835317 -63 
L 249.655593 -63 
L 249.512727 -66.248559 
L 249.595413 -69.497119 
L 249.881153 -72.745678 
L 250.336285 -75.994237 
L 250.919221 -79.242797 
L 251.584368 -82.491356 
L 252.286262 -85.739915 
L 252.983483 -88.988475 
L 253.641903 -92.237034 
L 254.236999 -95.485594 
L 254.755001 -98.734153 
L 255.19288 -101.982712 
L 255.557243 -105.231272 
L 255.862369 -108.479831 
L 256.12766 -111.72839 
L 256.374854 -114.97695 
L 256.625318 -118.225509 
L 256.897694 -121.474068 
L 257.20614 -124.722628 
L 257.559257 -127.971187 
L 257.959763 -131.219746 
L 258.404832 -134.468306 
L 258.886984 -137.716865 
L 259.395343 -140.965425 
L 259.917071 -144.213984 
L 260.438782 -147.462543 
L 260.947799 -150.711103 
L 261.433124 -153.959662 
L 261.886087 -157.208221 
L 262.300645 -160.456781 
L 262.673388 -163.70534 
L 263.003295 -166.953899 
L 263.291344 -170.202459 
L 263.540024 -173.451018 
L 263.752841 -176.699577 
L 263.933861 -179.948137 
L 264.087326 -183.196696 
L 264.217355 -186.445255 
L 264.327748 -189.693815 
L 264.421856 -192.942374 
L 264.502538 -196.190934 
L 264.572154 -199.439493 
L 264.632603 -202.688052 
L 264.685374 -205.936612 
L 264.731612 -209.185171 
L 264.772182 -212.43373 
L 264.807737 -215.68229 
L 264.838775 -218.930849 
L 264.865701 -222.179408 
L 264.888876 -225.427968 
L 264.908663 -228.676527 
L 264.925471 -231.925086 
L 264.93978 -235.173646 
L 264.952163 -238.422205 
L 264.96329 -241.670765 
L 264.973914 -244.919324 
L 264.984842 -248.167883 
L 264.996885 -251.416443 
L 265.010798 -254.665002 
L 265.027206 -257.913561 
L 265.046528 -261.162121 
L 265.068915 -264.41068 
L 265.094196 -267.659239 
L 265.121853 -270.907799 
L 265.151029 -274.156358 
L 265.180572 -277.404917 
L 265.209111 -280.653477 
L 265.235169 -283.902036 
L 265.257278 -287.150595 
L 265.274124 -290.399155 
L 265.284659 -293.647714 
L 265.288207 -296.896274 
L 265.284529 -300.144833 
L 265.27384 -303.393392 
L 265.256791 -306.641952 
L 265.234398 -309.890511 
L 265.207943 -313.13907 
L 265.178849 -316.38763 
L 265.148551 -319.636189 
L 265.118371 -322.884748 
L 265.089415 -326.133308 
L 265.062508 -329.381867 
L 265.038158 -332.630426 
L 265.01657 -335.878986 
L 264.997688 -339.127545 
L 264.981274 -342.376104 
L 264.966996 -345.624664 
L 264.954529 -348.873223 
L 264.943651 -352.121783 
L 264.934312 -355.370342 
L 264.926689 -358.618901 
L 264.921197 -361.867461 
L 264.918474 -365.11602 
L 264.919325 -368.364579 
L 264.924647 -371.613139 
L 264.935326 -374.861698 
L 264.952127 -378.110257 
L 264.975597 -381.358817 
L 265.005973 -384.607376 
L 266.484936 -384.607376 
L 266.484936 -384.607376 
L 266.515312 -381.358817 
L 266.538782 -378.110257 
L 266.555584 -374.861698 
L 266.566262 -371.613139 
L 266.571584 -368.364579 
L 266.572436 -365.11602 
L 266.569712 -361.867461 
L 266.56422 -358.618901 
L 266.556597 -355.370342 
L 266.547258 -352.121783 
L 266.53638 -348.873223 
L 266.523914 -345.624664 
L 266.509635 -342.376104 
L 266.493221 -339.127545 
L 266.474339 -335.878986 
L 266.452751 -332.630426 
L 266.428401 -329.381867 
L 266.401494 -326.133308 
L 266.372538 -322.884748 
L 266.342358 -319.636189 
L 266.31206 -316.38763 
L 266.282967 -313.13907 
L 266.256511 -309.890511 
L 266.234118 -306.641952 
L 266.217069 -303.393392 
L 266.20638 -300.144833 
L 266.202702 -296.896274 
L 266.20625 -293.647714 
L 266.216785 -290.399155 
L 266.233631 -287.150595 
L 266.25574 -283.902036 
L 266.281798 -280.653477 
L 266.310338 -277.404917 
L 266.33988 -274.156358 
L 266.369056 -270.907799 
L 266.396713 -267.659239 
L 266.421994 -264.41068 
L 266.444381 -261.162121 
L 266.463704 -257.913561 
L 266.480111 -254.665002 
L 266.494024 -251.416443 
L 266.506067 -248.167883 
L 266.516995 -244.919324 
L 266.527619 -241.670765 
L 266.538746 -238.422205 
L 266.551129 -235.173646 
L 266.565438 -231.925086 
L 266.582246 -228.676527 
L 266.602033 -225.427968 
L 266.625208 -222.179408 
L 266.652134 -218.930849 
L 266.683172 -215.68229 
L 266.718727 -212.43373 
L 266.759297 -209.185171 
L 266.805535 -205.936612 
L 266.858306 -202.688052 
L 266.918755 -199.439493 
L 266.988371 -196.190934 
L 267.069053 -192.942374 
L 267.163161 -189.693815 
L 267.273554 -186.445255 
L 267.403584 -183.196696 
L 267.557048 -179.948137 
L 267.738068 -176.699577 
L 267.950885 -173.451018 
L 268.199565 -170.202459 
L 268.487614 -166.953899 
L 268.817521 -163.70534 
L 269.190264 -160.456781 
L 269.604822 -157.208221 
L 270.057785 -153.959662 
L 270.543111 -150.711103 
L 271.052127 -147.462543 
L 271.573838 -144.213984 
L 272.095566 -140.965425 
L 272.603926 -137.716865 
L 273.086078 -134.468306 
L 273.531146 -131.219746 
L 273.931652 -127.971187 
L 274.284769 -124.722628 
L 274.593215 -121.474068 
L 274.865592 -118.225509 
L 275.116055 -114.97695 
L 275.363249 -111.72839 
L 275.62854 -108.479831 
L 275.933666 -105.231272 
L 276.298029 -101.982712 
L 276.735908 -98.734153 
L 277.253911 -95.485594 
L 277.849006 -92.237034 
L 278.507426 -88.988475 
L 279.204647 -85.739915 
L 279.906541 -82.491356 
L 280.571688 -79.242797 
L 281.154624 -75.994237 
L 281.609756 -72.745678 
L 281.895496 -69.497119 
L 281.978182 -66.248559 
L 281.835317 -63 
z
" id="mf8e8e3f4a0" style="stroke:#ffffff;stroke-opacity:0.3;"/>
    </defs>
    <g clip-path="url(#p94fbfbbecc)">
     <use style="fill:#4c72b0;fill-opacity:0.3;stroke:#ffffff;stroke-opacity:0.3;" x="0" xlink:href="#mf8e8e3f4a0" y="504"/>
    </g>
   </g>
   <g id="PolyCollection_3">
    <defs>
     <path d="M 342.276119 -63 
L 319.076608 -63 
L 318.160271 -65.953236 
L 317.309453 -68.906472 
L 316.53483 -71.859707 
L 315.850171 -74.812943 
L 315.274 -77.766179 
L 314.829758 -80.719415 
L 314.544123 -83.67265 
L 314.443636 -86.625886 
L 314.550228 -89.579122 
L 314.87661 -92.532358 
L 315.422567 -95.485594 
L 316.173048 -98.438829 
L 317.098523 -101.392065 
L 318.157608 -104.345301 
L 319.301428 -107.298537 
L 320.478874 -110.251772 
L 321.641803 -113.205008 
L 322.749296 -116.158244 
L 323.770452 -119.11148 
L 324.685497 -122.064716 
L 325.485365 -125.017951 
L 326.170168 -127.971187 
L 326.747028 -130.924423 
L 327.227763 -133.877659 
L 327.626755 -136.830894 
L 327.959202 -139.78413 
L 328.239811 -142.737366 
L 328.48187 -145.690602 
L 328.69665 -148.643838 
L 328.893039 -151.597073 
L 329.077395 -154.550309 
L 329.253574 -157.503545 
L 329.423145 -160.456781 
L 329.585771 -163.410016 
L 329.739719 -166.363252 
L 329.882455 -169.316488 
L 330.011224 -172.269724 
L 330.123581 -175.22296 
L 330.217785 -178.176195 
L 330.293042 -181.129431 
L 330.349583 -184.082667 
L 330.388607 -187.035903 
L 330.412109 -189.989138 
L 330.42264 -192.942374 
L 330.423047 -195.89561 
L 330.41621 -198.848846 
L 330.404826 -201.802082 
L 330.391232 -204.755317 
L 330.37731 -207.708553 
L 330.364447 -210.661789 
L 330.353568 -213.615025 
L 330.345215 -216.56826 
L 330.339658 -219.521496 
L 330.337012 -222.474732 
L 330.337334 -225.427968 
L 330.340684 -228.381204 
L 330.347129 -231.334439 
L 330.356709 -234.287675 
L 330.369365 -237.240911 
L 330.384845 -240.194147 
L 330.402632 -243.147382 
L 330.421889 -246.100618 
L 330.441458 -249.053854 
L 330.459912 -252.00709 
L 330.475644 -254.960325 
L 330.487013 -257.913561 
L 330.492499 -260.866797 
L 330.490873 -263.820033 
L 330.481363 -266.773269 
L 330.463783 -269.726504 
L 330.438625 -272.67974 
L 330.407098 -275.632976 
L 330.371088 -278.586212 
L 330.333044 -281.539447 
L 330.295792 -284.492683 
L 330.262277 -287.445919 
L 330.235275 -290.399155 
L 330.217099 -293.352391 
L 330.209341 -296.305626 
L 330.212689 -299.258862 
L 330.226848 -302.212098 
L 330.250573 -305.165334 
L 330.281817 -308.118569 
L 330.317964 -311.071805 
L 330.356114 -314.025041 
L 330.393382 -316.978277 
L 330.427179 -319.931513 
L 330.45543 -322.884748 
L 330.476727 -325.837984 
L 330.490409 -328.79122 
L 330.496556 -331.744456 
L 330.495929 -334.697691 
L 330.489852 -337.650927 
L 330.480057 -340.604163 
L 330.468502 -343.557399 
L 330.457177 -346.510635 
L 330.447918 -349.46387 
L 330.442244 -352.417106 
L 330.441227 -355.370342 
L 330.9115 -355.370342 
L 330.9115 -355.370342 
L 330.910483 -352.417106 
L 330.904809 -349.46387 
L 330.895551 -346.510635 
L 330.884225 -343.557399 
L 330.87267 -340.604163 
L 330.862875 -337.650927 
L 330.856799 -334.697691 
L 330.856171 -331.744456 
L 330.862318 -328.79122 
L 330.876 -325.837984 
L 330.897298 -322.884748 
L 330.925548 -319.931513 
L 330.959345 -316.978277 
L 330.996613 -314.025041 
L 331.034763 -311.071805 
L 331.07091 -308.118569 
L 331.102154 -305.165334 
L 331.12588 -302.212098 
L 331.140038 -299.258862 
L 331.143387 -296.305626 
L 331.135628 -293.352391 
L 331.117452 -290.399155 
L 331.09045 -287.445919 
L 331.056935 -284.492683 
L 331.019683 -281.539447 
L 330.98164 -278.586212 
L 330.94563 -275.632976 
L 330.914103 -272.67974 
L 330.888945 -269.726504 
L 330.871364 -266.773269 
L 330.861854 -263.820033 
L 330.860229 -260.866797 
L 330.865714 -257.913561 
L 330.877083 -254.960325 
L 330.892815 -252.00709 
L 330.911269 -249.053854 
L 330.930839 -246.100618 
L 330.950095 -243.147382 
L 330.967882 -240.194147 
L 330.983363 -237.240911 
L 330.996018 -234.287675 
L 331.005599 -231.334439 
L 331.012043 -228.381204 
L 331.015393 -225.427968 
L 331.015716 -222.474732 
L 331.01307 -219.521496 
L 331.007512 -216.56826 
L 330.999159 -213.615025 
L 330.98828 -210.661789 
L 330.975417 -207.708553 
L 330.961495 -204.755317 
L 330.947902 -201.802082 
L 330.936517 -198.848846 
L 330.929681 -195.89561 
L 330.930087 -192.942374 
L 330.940618 -189.989138 
L 330.96412 -187.035903 
L 331.003144 -184.082667 
L 331.059686 -181.129431 
L 331.134942 -178.176195 
L 331.229146 -175.22296 
L 331.341503 -172.269724 
L 331.470273 -169.316488 
L 331.613008 -166.363252 
L 331.766957 -163.410016 
L 331.929582 -160.456781 
L 332.099153 -157.503545 
L 332.275332 -154.550309 
L 332.459688 -151.597073 
L 332.656078 -148.643838 
L 332.870857 -145.690602 
L 333.112916 -142.737366 
L 333.393525 -139.78413 
L 333.725973 -136.830894 
L 334.124964 -133.877659 
L 334.605699 -130.924423 
L 335.18256 -127.971187 
L 335.867362 -125.017951 
L 336.66723 -122.064716 
L 337.582275 -119.11148 
L 338.603432 -116.158244 
L 339.710925 -113.205008 
L 340.873853 -110.251772 
L 342.0513 -107.298537 
L 343.195119 -104.345301 
L 344.254205 -101.392065 
L 345.17968 -98.438829 
L 345.93016 -95.485594 
L 346.476117 -92.532358 
L 346.802499 -89.579122 
L 346.909091 -86.625886 
L 346.808604 -83.67265 
L 346.522969 -80.719415 
L 346.078727 -77.766179 
L 345.502557 -74.812943 
L 344.817897 -71.859707 
L 344.043274 -68.906472 
L 343.192457 -65.953236 
L 342.276119 -63 
z
" id="mef5d0831b5" style="stroke:#ffffff;stroke-opacity:0.3;"/>
    </defs>
    <g clip-path="url(#p94fbfbbecc)">
     <use style="fill:#4c72b0;fill-opacity:0.3;stroke:#ffffff;stroke-opacity:0.3;" x="0" xlink:href="#mef5d0831b5" y="504"/>
    </g>
   </g>
   <g id="PolyCollection_4">
    <defs>
     <path d="M 411.747478 -63 
L 379.467067 -63 
L 379.374545 -65.657912 
L 379.658282 -68.315824 
L 380.255758 -70.973737 
L 381.081119 -73.631649 
L 382.039752 -76.289561 
L 383.042828 -78.947473 
L 384.01878 -81.605385 
L 384.919655 -84.263298 
L 385.721718 -86.92121 
L 386.421162 -89.579122 
L 387.026884 -92.237034 
L 387.552764 -94.894946 
L 388.011566 -97.552859 
L 388.411812 -100.210771 
L 388.757823 -102.868683 
L 389.052157 -105.526595 
L 389.299026 -108.184507 
L 389.507137 -110.84242 
L 389.690816 -113.500332 
L 389.868933 -116.158244 
L 390.061946 -118.816156 
L 390.287971 -121.474068 
L 390.559063 -124.131981 
L 390.87877 -126.789893 
L 391.241591 -129.447805 
L 391.634412 -132.105717 
L 392.039425 -134.763629 
L 392.43771 -137.421542 
L 392.812572 -140.079454 
L 393.151893 -142.737366 
L 393.449146 -145.395278 
L 393.703076 -148.05319 
L 393.91642 -150.711103 
L 394.094188 -153.369015 
L 394.242028 -156.026927 
L 394.36507 -158.684839 
L 394.467394 -161.342751 
L 394.552073 -164.000664 
L 394.621563 -166.658576 
L 394.678186 -169.316488 
L 394.724457 -171.9744 
L 394.763141 -174.632312 
L 394.797039 -177.290225 
L 394.828618 -179.948137 
L 394.859634 -182.606049 
L 394.890908 -185.263961 
L 394.922344 -187.921873 
L 394.953185 -190.579786 
L 394.982434 -193.237698 
L 395.009305 -195.89561 
L 395.033577 -198.553522 
L 395.055745 -201.211434 
L 395.076933 -203.869347 
L 395.098616 -206.527259 
L 395.122235 -209.185171 
L 395.148823 -211.843083 
L 395.178739 -214.500995 
L 395.211582 -217.158908 
L 395.246282 -219.81682 
L 395.281335 -222.474732 
L 395.315098 -225.132644 
L 395.346073 -227.790556 
L 395.373103 -230.448469 
L 395.395464 -233.106381 
L 395.412845 -235.764293 
L 395.425255 -238.422205 
L 395.432914 -241.080117 
L 395.436154 -243.73803 
L 395.435374 -246.395942 
L 395.431039 -249.053854 
L 395.423707 -251.711766 
L 395.414055 -254.369678 
L 395.402867 -257.027591 
L 395.390971 -259.685503 
L 395.379133 -262.343415 
L 395.367929 -265.001327 
L 395.357638 -267.659239 
L 395.348201 -270.317152 
L 395.339258 -272.975064 
L 395.330283 -275.632976 
L 395.320775 -278.290888 
L 395.310457 -280.9488 
L 395.299434 -283.606713 
L 395.28825 -286.264625 
L 395.277818 -288.922537 
L 395.269249 -291.580449 
L 395.263605 -294.238361 
L 395.261652 -296.896274 
L 395.263673 -299.554186 
L 395.269412 -302.212098 
L 395.278134 -304.87001 
L 395.288825 -307.527922 
L 395.300437 -310.185835 
L 395.312148 -312.843747 
L 395.323537 -315.501659 
L 395.334656 -318.159571 
L 395.345968 -320.817483 
L 395.358187 -323.475396 
L 395.372054 -326.133308 
L 395.842492 -326.133308 
L 395.842492 -326.133308 
L 395.856358 -323.475396 
L 395.868577 -320.817483 
L 395.87989 -318.159571 
L 395.891009 -315.501659 
L 395.902398 -312.843747 
L 395.914108 -310.185835 
L 395.925721 -307.527922 
L 395.936411 -304.87001 
L 395.945134 -302.212098 
L 395.950872 -299.554186 
L 395.952894 -296.896274 
L 395.95094 -294.238361 
L 395.945297 -291.580449 
L 395.936728 -288.922537 
L 395.926296 -286.264625 
L 395.915111 -283.606713 
L 395.904089 -280.9488 
L 395.893771 -278.290888 
L 395.884262 -275.632976 
L 395.875288 -272.975064 
L 395.866345 -270.317152 
L 395.856907 -267.659239 
L 395.846616 -265.001327 
L 395.835412 -262.343415 
L 395.823574 -259.685503 
L 395.811678 -257.027591 
L 395.80049 -254.369678 
L 395.790839 -251.711766 
L 395.783507 -249.053854 
L 395.779171 -246.395942 
L 395.778391 -243.73803 
L 395.781631 -241.080117 
L 395.78929 -238.422205 
L 395.801701 -235.764293 
L 395.819081 -233.106381 
L 395.841442 -230.448469 
L 395.868473 -227.790556 
L 395.899447 -225.132644 
L 395.93321 -222.474732 
L 395.968263 -219.81682 
L 396.002963 -217.158908 
L 396.035806 -214.500995 
L 396.065722 -211.843083 
L 396.09231 -209.185171 
L 396.11593 -206.527259 
L 396.137613 -203.869347 
L 396.1588 -201.211434 
L 396.180968 -198.553522 
L 396.205241 -195.89561 
L 396.232112 -193.237698 
L 396.26136 -190.579786 
L 396.292201 -187.921873 
L 396.323637 -185.263961 
L 396.354911 -182.606049 
L 396.385927 -179.948137 
L 396.417506 -177.290225 
L 396.451405 -174.632312 
L 396.490088 -171.9744 
L 396.536359 -169.316488 
L 396.592983 -166.658576 
L 396.662473 -164.000664 
L 396.747151 -161.342751 
L 396.849476 -158.684839 
L 396.972517 -156.026927 
L 397.120358 -153.369015 
L 397.298125 -150.711103 
L 397.51147 -148.05319 
L 397.7654 -145.395278 
L 398.062652 -142.737366 
L 398.401974 -140.079454 
L 398.776835 -137.421542 
L 399.17512 -134.763629 
L 399.580133 -132.105717 
L 399.972954 -129.447805 
L 400.335775 -126.789893 
L 400.655482 -124.131981 
L 400.926575 -121.474068 
L 401.152599 -118.816156 
L 401.345612 -116.158244 
L 401.523729 -113.500332 
L 401.707408 -110.84242 
L 401.91552 -108.184507 
L 402.162389 -105.526595 
L 402.456723 -102.868683 
L 402.802733 -100.210771 
L 403.202979 -97.552859 
L 403.661782 -94.894946 
L 404.187661 -92.237034 
L 404.793384 -89.579122 
L 405.492827 -86.92121 
L 406.294891 -84.263298 
L 407.195766 -81.605385 
L 408.171717 -78.947473 
L 409.174793 -76.289561 
L 410.133427 -73.631649 
L 410.958788 -70.973737 
L 411.556264 -68.315824 
L 411.84 -65.657912 
L 411.747478 -63 
z
" id="mabd2d3fe5a" style="stroke:#ffffff;stroke-opacity:0.3;"/>
    </defs>
    <g clip-path="url(#p94fbfbbecc)">
     <use style="fill:#4c72b0;fill-opacity:0.3;stroke:#ffffff;stroke-opacity:0.3;" x="0" xlink:href="#mabd2d3fe5a" y="504"/>
    </g>
   </g>
   <g id="PolyCollection_5">
    <defs>
     <path d="M 476.092287 -63 
L 444.984077 -63 
L 444.567184 -65.362589 
L 444.352303 -67.725177 
L 444.305455 -70.087766 
L 444.384169 -72.450354 
L 444.545192 -74.812943 
L 444.751991 -77.175532 
L 444.980605 -79.53812 
L 445.222764 -81.900709 
L 445.485745 -84.263298 
L 445.789104 -86.625886 
L 446.15908 -88.988475 
L 446.621877 -91.351063 
L 447.197237 -93.713652 
L 447.893518 -96.076241 
L 448.705157 -98.438829 
L 449.612794 -100.801418 
L 450.585815 -103.164007 
L 451.586586 -105.526595 
L 452.575427 -107.889184 
L 453.515328 -110.251772 
L 454.375632 -112.614361 
L 455.134219 -114.97695 
L 455.778109 -117.339538 
L 456.302734 -119.702127 
L 456.710361 -122.064716 
L 457.008191 -124.427304 
L 457.206618 -126.789893 
L 457.317962 -129.152481 
L 457.355764 -131.51507 
L 457.33454 -133.877659 
L 457.269783 -136.240247 
L 457.177911 -138.602836 
L 457.075946 -140.965425 
L 456.980802 -143.328013 
L 456.908195 -145.690602 
L 456.871364 -148.05319 
L 456.879822 -150.415779 
L 456.938431 -152.778368 
L 457.047019 -155.140956 
L 457.200638 -157.503545 
L 457.390461 -159.866133 
L 457.605151 -162.228722 
L 457.832462 -164.591311 
L 458.060794 -166.953899 
L 458.280446 -169.316488 
L 458.484385 -171.679077 
L 458.668493 -174.041665 
L 458.831301 -176.404254 
L 458.973389 -178.766842 
L 459.096597 -181.129431 
L 459.203263 -183.49202 
L 459.295627 -185.854608 
L 459.375478 -188.217197 
L 459.444058 -190.579786 
L 459.502176 -192.942374 
L 459.550425 -195.304963 
L 459.589412 -197.667551 
L 459.619912 -200.03014 
L 459.642903 -202.392729 
L 459.65948 -204.755317 
L 459.670693 -207.117906 
L 459.677372 -209.480495 
L 459.679999 -211.843083 
L 459.678697 -214.205672 
L 459.673329 -216.56826 
L 459.663708 -218.930849 
L 459.649857 -221.293438 
L 459.632247 -223.656026 
L 459.61195 -226.018615 
L 459.590652 -228.381204 
L 459.570498 -230.743792 
L 459.553817 -233.106381 
L 459.542755 -235.468969 
L 459.538908 -237.831558 
L 459.543042 -240.194147 
L 459.554948 -242.556735 
L 459.57348 -244.919324 
L 459.59675 -247.281912 
L 459.622454 -249.644501 
L 459.648234 -252.00709 
L 459.672019 -254.369678 
L 459.692252 -256.732267 
L 459.707983 -259.094856 
L 459.718813 -261.457444 
L 459.72473 -263.820033 
L 459.725888 -266.182621 
L 459.722419 -268.54521 
L 459.714323 -270.907799 
L 459.701482 -273.270387 
L 459.683802 -275.632976 
L 459.661448 -277.995565 
L 459.635102 -280.358153 
L 459.606174 -282.720742 
L 459.576896 -285.08333 
L 459.550249 -287.445919 
L 459.529714 -289.808508 
L 459.518885 -292.171096 
L 459.520999 -294.533685 
L 459.538474 -296.896274 
L 461.537889 -296.896274 
L 461.537889 -296.896274 
L 461.555364 -294.533685 
L 461.557478 -292.171096 
L 461.54665 -289.808508 
L 461.526115 -287.445919 
L 461.499468 -285.08333 
L 461.47019 -282.720742 
L 461.441262 -280.358153 
L 461.414916 -277.995565 
L 461.392562 -275.632976 
L 461.374882 -273.270387 
L 461.36204 -270.907799 
L 461.353944 -268.54521 
L 461.350476 -266.182621 
L 461.351634 -263.820033 
L 461.35755 -261.457444 
L 461.368381 -259.094856 
L 461.384112 -256.732267 
L 461.404345 -254.369678 
L 461.42813 -252.00709 
L 461.45391 -249.644501 
L 461.479613 -247.281912 
L 461.502883 -244.919324 
L 461.521415 -242.556735 
L 461.533322 -240.194147 
L 461.537456 -237.831558 
L 461.533609 -235.468969 
L 461.522546 -233.106381 
L 461.505866 -230.743792 
L 461.485712 -228.381204 
L 461.464413 -226.018615 
L 461.444117 -223.656026 
L 461.426507 -221.293438 
L 461.412656 -218.930849 
L 461.403035 -216.56826 
L 461.397666 -214.205672 
L 461.396364 -211.843083 
L 461.398992 -209.480495 
L 461.40567 -207.117906 
L 461.416884 -204.755317 
L 461.433461 -202.392729 
L 461.456452 -200.03014 
L 461.486952 -197.667551 
L 461.525939 -195.304963 
L 461.574188 -192.942374 
L 461.632306 -190.579786 
L 461.700886 -188.217197 
L 461.780736 -185.854608 
L 461.873101 -183.49202 
L 461.979767 -181.129431 
L 462.102974 -178.766842 
L 462.245062 -176.404254 
L 462.407871 -174.041665 
L 462.591978 -171.679077 
L 462.795918 -169.316488 
L 463.015569 -166.953899 
L 463.243902 -164.591311 
L 463.471213 -162.228722 
L 463.685903 -159.866133 
L 463.875725 -157.503545 
L 464.029344 -155.140956 
L 464.137932 -152.778368 
L 464.196542 -150.415779 
L 464.205 -148.05319 
L 464.168168 -145.690602 
L 464.095562 -143.328013 
L 464.000417 -140.965425 
L 463.898453 -138.602836 
L 463.806581 -136.240247 
L 463.741824 -133.877659 
L 463.7206 -131.51507 
L 463.758401 -129.152481 
L 463.869746 -126.789893 
L 464.068173 -124.427304 
L 464.366002 -122.064716 
L 464.77363 -119.702127 
L 465.298255 -117.339538 
L 465.942144 -114.97695 
L 466.700732 -112.614361 
L 467.561036 -110.251772 
L 468.500937 -107.889184 
L 469.489777 -105.526595 
L 470.490549 -103.164007 
L 471.46357 -100.801418 
L 472.371207 -98.438829 
L 473.182846 -96.076241 
L 473.879127 -93.713652 
L 474.454486 -91.351063 
L 474.917284 -88.988475 
L 475.287259 -86.625886 
L 475.590619 -84.263298 
L 475.8536 -81.900709 
L 476.095759 -79.53812 
L 476.324372 -77.175532 
L 476.531171 -74.812943 
L 476.692195 -72.450354 
L 476.770909 -70.087766 
L 476.724061 -67.725177 
L 476.509179 -65.362589 
L 476.092287 -63 
z
" id="m84e3579014" style="stroke:#ffffff;stroke-opacity:0.3;"/>
    </defs>
    <g clip-path="url(#p94fbfbbecc)">
     <use style="fill:#4c72b0;fill-opacity:0.3;stroke:#ffffff;stroke-opacity:0.3;" x="0" xlink:href="#m84e3579014" y="504"/>
    </g>
   </g>
   <g id="PolyCollection_6">
    <defs>
     <path d="M 541.656242 -63 
L 509.28194 -63 
L 509.236364 -65.067265 
L 509.49466 -67.13453 
L 510.008433 -69.201795 
L 510.711272 -71.26906 
L 511.527636 -73.336325 
L 512.382662 -75.40359 
L 513.211288 -77.470855 
L 513.965263 -79.53812 
L 514.61703 -81.605385 
L 515.160064 -83.67265 
L 515.605883 -85.739915 
L 515.978545 -87.807181 
L 516.307809 -89.874446 
L 516.622275 -91.941711 
L 516.943731 -94.008976 
L 517.283599 -96.076241 
L 517.641903 -98.143506 
L 518.008694 -100.210771 
L 518.367411 -102.278036 
L 518.699339 -104.345301 
L 518.988194 -106.412566 
L 519.223933 -108.479831 
L 519.405078 -110.547096 
L 519.539224 -112.614361 
L 519.641725 -114.681626 
L 519.732938 -116.748891 
L 519.834626 -118.816156 
L 519.966236 -120.883421 
L 520.141761 -122.950686 
L 520.367705 -125.017951 
L 520.64245 -127.085216 
L 520.957023 -129.152481 
L 521.297026 -131.219746 
L 521.645263 -133.287011 
L 521.984575 -135.354277 
L 522.300331 -137.421542 
L 522.582219 -139.488807 
L 522.825075 -141.556072 
L 523.028761 -143.623337 
L 523.197209 -145.690602 
L 523.336938 -147.757867 
L 523.45537 -149.825132 
L 523.559286 -151.892397 
L 523.653694 -153.959662 
L 523.741258 -156.026927 
L 523.822315 -158.094192 
L 523.895411 -160.161457 
L 523.958164 -162.228722 
L 524.008238 -164.295987 
L 524.044218 -166.363252 
L 524.066188 -168.430517 
L 524.07592 -170.497782 
L 524.076648 -172.565047 
L 524.0725 -174.632312 
L 524.067718 -176.699577 
L 524.065832 -178.766842 
L 524.068988 -180.834107 
L 524.077547 -182.901373 
L 524.090054 -184.968638 
L 524.10359 -187.035903 
L 524.114433 -189.103168 
L 524.118901 -191.170433 
L 524.114217 -193.237698 
L 524.099226 -195.304963 
L 524.074811 -197.372228 
L 524.043941 -199.439493 
L 524.011318 -201.506758 
L 523.982702 -203.574023 
L 523.964019 -205.641288 
L 523.960429 -207.708553 
L 523.975508 -209.775818 
L 524.010699 -211.843083 
L 524.065117 -213.910348 
L 524.135729 -215.977613 
L 524.21786 -218.044878 
L 524.305929 -220.112143 
L 524.394264 -222.179408 
L 524.47786 -224.246673 
L 524.552943 -226.313938 
L 524.617275 -228.381204 
L 524.670159 -230.448469 
L 524.712188 -232.515734 
L 524.744805 -234.582999 
L 524.76978 -236.650264 
L 524.788724 -238.717529 
L 524.802723 -240.784794 
L 524.812163 -242.852059 
L 524.816767 -244.919324 
L 524.815826 -246.986589 
L 524.808556 -249.053854 
L 524.794516 -251.121119 
L 524.773971 -253.188384 
L 524.748144 -255.255649 
L 524.719277 -257.322914 
L 524.690502 -259.390179 
L 524.665522 -261.457444 
L 524.648159 -263.524709 
L 524.641861 -265.591974 
L 524.649233 -267.659239 
L 526.288948 -267.659239 
L 526.288948 -267.659239 
L 526.296321 -265.591974 
L 526.290023 -263.524709 
L 526.27266 -261.457444 
L 526.247679 -259.390179 
L 526.218905 -257.322914 
L 526.190038 -255.255649 
L 526.164211 -253.188384 
L 526.143666 -251.121119 
L 526.129625 -249.053854 
L 526.122356 -246.986589 
L 526.121414 -244.919324 
L 526.126019 -242.852059 
L 526.135459 -240.784794 
L 526.149458 -238.717529 
L 526.168402 -236.650264 
L 526.193377 -234.582999 
L 526.225994 -232.515734 
L 526.268023 -230.448469 
L 526.320907 -228.381204 
L 526.385239 -226.313938 
L 526.460322 -224.246673 
L 526.543918 -222.179408 
L 526.632253 -220.112143 
L 526.720321 -218.044878 
L 526.802452 -215.977613 
L 526.873064 -213.910348 
L 526.927483 -211.843083 
L 526.962674 -209.775818 
L 526.977753 -207.708553 
L 526.974163 -205.641288 
L 526.95548 -203.574023 
L 526.926864 -201.506758 
L 526.894241 -199.439493 
L 526.863371 -197.372228 
L 526.838956 -195.304963 
L 526.823964 -193.237698 
L 526.819281 -191.170433 
L 526.823749 -189.103168 
L 526.834592 -187.035903 
L 526.848128 -184.968638 
L 526.860635 -182.901373 
L 526.869194 -180.834107 
L 526.87235 -178.766842 
L 526.870464 -176.699577 
L 526.865681 -174.632312 
L 526.861534 -172.565047 
L 526.862262 -170.497782 
L 526.871994 -168.430517 
L 526.893964 -166.363252 
L 526.929944 -164.295987 
L 526.980018 -162.228722 
L 527.042771 -160.161457 
L 527.115867 -158.094192 
L 527.196924 -156.026927 
L 527.284488 -153.959662 
L 527.378896 -151.892397 
L 527.482812 -149.825132 
L 527.601243 -147.757867 
L 527.740973 -145.690602 
L 527.909421 -143.623337 
L 528.113107 -141.556072 
L 528.355963 -139.488807 
L 528.637851 -137.421542 
L 528.953607 -135.354277 
L 529.292919 -133.287011 
L 529.641156 -131.219746 
L 529.981158 -129.152481 
L 530.295732 -127.085216 
L 530.570477 -125.017951 
L 530.796421 -122.950686 
L 530.971946 -120.883421 
L 531.103556 -118.816156 
L 531.205244 -116.748891 
L 531.296457 -114.681626 
L 531.398958 -112.614361 
L 531.533103 -110.547096 
L 531.714249 -108.479831 
L 531.949988 -106.412566 
L 532.238843 -104.345301 
L 532.570771 -102.278036 
L 532.929488 -100.210771 
L 533.296279 -98.143506 
L 533.654583 -96.076241 
L 533.994451 -94.008976 
L 534.315907 -91.941711 
L 534.630372 -89.874446 
L 534.959637 -87.807181 
L 535.332299 -85.739915 
L 535.778117 -83.67265 
L 536.321151 -81.605385 
L 536.972919 -79.53812 
L 537.726894 -77.470855 
L 538.555519 -75.40359 
L 539.410546 -73.336325 
L 540.22691 -71.26906 
L 540.929749 -69.201795 
L 541.443522 -67.13453 
L 541.701818 -65.067265 
L 541.656242 -63 
z
" id="md17fbb92a8" style="stroke:#ffffff;stroke-opacity:0.3;"/>
    </defs>
    <g clip-path="url(#p94fbfbbecc)">
     <use style="fill:#4c72b0;fill-opacity:0.3;stroke:#ffffff;stroke-opacity:0.3;" x="0" xlink:href="#md17fbb92a8" y="504"/>
    </g>
   </g>
   <g id="PolyCollection_7">
    <defs>
     <path d="M 606.454154 -63 
L 574.345846 -63 
L 574.167273 -64.771941 
L 574.193251 -66.543883 
L 574.382531 -68.315824 
L 574.681636 -70.087766 
L 575.030948 -71.859707 
L 575.371676 -73.631649 
L 575.652827 -75.40359 
L 575.837232 -77.175532 
L 575.90585 -78.947473 
L 575.85975 -80.719415 
L 575.719529 -82.491356 
L 575.522247 -84.263298 
L 575.316327 -86.035239 
L 575.155112 -87.807181 
L 575.089973 -89.579122 
L 575.16388 -91.351063 
L 575.406259 -93.123005 
L 575.829764 -94.894946 
L 576.429297 -96.666888 
L 577.183275 -98.438829 
L 578.056838 -100.210771 
L 579.006459 -101.982712 
L 579.985238 -103.754654 
L 580.948143 -105.526595 
L 581.856528 -107.298537 
L 582.681421 -109.070478 
L 583.405273 -110.84242 
L 584.022146 -112.614361 
L 584.536472 -114.386303 
L 584.960739 -116.158244 
L 585.312533 -117.930185 
L 585.611409 -119.702127 
L 585.876019 -121.474068 
L 586.121841 -123.24601 
L 586.359729 -125.017951 
L 586.595345 -126.789893 
L 586.829443 -128.561834 
L 587.058825 -130.333776 
L 587.277747 -132.105717 
L 587.47951 -133.877659 
L 587.657972 -135.6496 
L 587.808782 -137.421542 
L 587.930171 -139.193483 
L 588.023235 -140.965425 
L 588.091727 -142.737366 
L 588.141429 -144.509307 
L 588.179235 -146.281249 
L 588.212119 -148.05319 
L 588.246134 -149.825132 
L 588.285614 -151.597073 
L 588.332666 -153.369015 
L 588.387031 -155.140956 
L 588.446302 -156.912898 
L 588.506463 -158.684839 
L 588.562654 -160.456781 
L 588.61003 -162.228722 
L 588.644609 -164.000664 
L 588.663964 -165.772605 
L 588.667668 -167.544547 
L 588.657451 -169.316488 
L 588.637022 -171.088429 
L 588.611623 -172.860371 
L 588.587355 -174.632312 
L 588.570399 -176.404254 
L 588.566221 -178.176195 
L 588.578898 -179.948137 
L 588.61063 -181.720078 
L 588.661517 -183.49202 
L 588.729608 -185.263961 
L 588.811222 -187.035903 
L 588.901459 -188.807844 
L 588.994852 -190.579786 
L 589.086038 -192.351727 
L 589.170368 -194.123668 
L 589.244377 -195.89561 
L 589.306058 -197.667551 
L 589.354912 -199.439493 
L 589.39179 -201.211434 
L 589.418563 -202.983376 
L 589.437672 -204.755317 
L 589.451648 -206.527259 
L 589.462649 -208.2992 
L 589.47211 -210.071142 
L 589.480533 -211.843083 
L 589.487448 -213.615025 
L 589.491551 -215.386966 
L 589.490997 -217.158908 
L 589.483786 -218.930849 
L 589.468204 -220.70279 
L 589.443237 -222.474732 
L 589.408905 -224.246673 
L 589.366452 -226.018615 
L 589.31838 -227.790556 
L 589.268295 -229.562498 
L 589.220597 -231.334439 
L 589.180047 -233.106381 
L 589.151274 -234.878322 
L 589.138275 -236.650264 
L 589.14399 -238.422205 
L 591.65601 -238.422205 
L 591.65601 -238.422205 
L 591.661725 -236.650264 
L 591.648726 -234.878322 
L 591.619953 -233.106381 
L 591.579403 -231.334439 
L 591.531705 -229.562498 
L 591.48162 -227.790556 
L 591.433548 -226.018615 
L 591.391095 -224.246673 
L 591.356763 -222.474732 
L 591.331796 -220.70279 
L 591.316214 -218.930849 
L 591.309003 -217.158908 
L 591.308449 -215.386966 
L 591.312552 -213.615025 
L 591.319467 -211.843083 
L 591.32789 -210.071142 
L 591.337351 -208.2992 
L 591.348352 -206.527259 
L 591.362328 -204.755317 
L 591.381437 -202.983376 
L 591.40821 -201.211434 
L 591.445088 -199.439493 
L 591.493942 -197.667551 
L 591.555623 -195.89561 
L 591.629632 -194.123668 
L 591.713962 -192.351727 
L 591.805148 -190.579786 
L 591.898541 -188.807844 
L 591.988778 -187.035903 
L 592.070392 -185.263961 
L 592.138483 -183.49202 
L 592.18937 -181.720078 
L 592.221102 -179.948137 
L 592.233779 -178.176195 
L 592.229601 -176.404254 
L 592.212645 -174.632312 
L 592.188377 -172.860371 
L 592.162978 -171.088429 
L 592.142549 -169.316488 
L 592.132332 -167.544547 
L 592.136036 -165.772605 
L 592.155391 -164.000664 
L 592.18997 -162.228722 
L 592.237346 -160.456781 
L 592.293537 -158.684839 
L 592.353698 -156.912898 
L 592.412969 -155.140956 
L 592.467334 -153.369015 
L 592.514386 -151.597073 
L 592.553866 -149.825132 
L 592.587881 -148.05319 
L 592.620765 -146.281249 
L 592.658571 -144.509307 
L 592.708273 -142.737366 
L 592.776765 -140.965425 
L 592.869829 -139.193483 
L 592.991218 -137.421542 
L 593.142028 -135.6496 
L 593.32049 -133.877659 
L 593.522253 -132.105717 
L 593.741175 -130.333776 
L 593.970557 -128.561834 
L 594.204655 -126.789893 
L 594.440271 -125.017951 
L 594.678159 -123.24601 
L 594.923981 -121.474068 
L 595.188591 -119.702127 
L 595.487467 -117.930185 
L 595.839261 -116.158244 
L 596.263528 -114.386303 
L 596.777854 -112.614361 
L 597.394727 -110.84242 
L 598.118579 -109.070478 
L 598.943472 -107.298537 
L 599.851857 -105.526595 
L 600.814762 -103.754654 
L 601.793541 -101.982712 
L 602.743162 -100.210771 
L 603.616725 -98.438829 
L 604.370703 -96.666888 
L 604.970236 -94.894946 
L 605.393741 -93.123005 
L 605.63612 -91.351063 
L 605.710027 -89.579122 
L 605.644888 -87.807181 
L 605.483673 -86.035239 
L 605.277753 -84.263298 
L 605.080471 -82.491356 
L 604.94025 -80.719415 
L 604.89415 -78.947473 
L 604.962768 -77.175532 
L 605.147173 -75.40359 
L 605.428324 -73.631649 
L 605.769052 -71.859707 
L 606.118364 -70.087766 
L 606.417469 -68.315824 
L 606.606749 -66.543883 
L 606.632727 -64.771941 
L 606.454154 -63 
z
" id="m00538781f8" style="stroke:#ffffff;stroke-opacity:0.3;"/>
    </defs>
    <g clip-path="url(#p94fbfbbecc)">
     <use style="fill:#4c72b0;fill-opacity:0.3;stroke:#ffffff;stroke-opacity:0.3;" x="0" xlink:href="#m00538781f8" y="504"/>
    </g>
   </g>
   <g id="PolyCollection_8">
    <defs>
     <path d="M 671.563636 -63 
L 639.098182 -63 
L 639.453029 -65.067265 
L 640.515332 -67.13453 
L 642.101991 -69.201795 
L 643.95846 -71.26906 
L 645.81046 -73.336325 
L 647.415511 -75.40359 
L 648.602565 -77.470855 
L 649.293265 -79.53812 
L 649.503948 -81.605385 
L 649.331402 -83.67265 
L 648.927144 -85.739915 
L 648.46533 -87.807181 
L 648.10949 -89.874446 
L 647.98339 -91.941711 
L 648.151093 -94.008976 
L 648.609953 -96.076241 
L 649.297562 -98.143506 
L 650.11031 -100.210771 
L 650.928399 -102.278036 
L 651.641081 -104.345301 
L 652.166755 -106.412566 
L 652.464772 -108.479831 
L 652.538285 -110.547096 
L 652.42921 -112.614361 
L 652.207264 -114.681626 
L 651.955323 -116.748891 
L 651.753475 -118.816156 
L 651.664401 -120.883421 
L 651.722712 -122.950686 
L 651.930373 -125.017951 
L 652.259056 -127.085216 
L 652.658553 -129.152481 
L 653.068895 -131.219746 
L 653.433072 -133.287011 
L 653.707552 -135.354277 
L 653.868851 -137.421542 
L 653.915611 -139.488807 
L 653.866618 -141.556072 
L 653.755661 -143.623337 
L 653.624349 -145.690602 
L 653.514047 -147.757867 
L 653.458268 -149.825132 
L 653.476878 -151.892397 
L 653.573276 -153.959662 
L 653.73509 -156.026927 
L 653.938091 -158.094192 
L 654.152185 -160.161457 
L 654.347918 -162.228722 
L 654.502009 -164.295987 
L 654.600926 -166.363252 
L 654.642173 -168.430517 
L 654.633475 -170.497782 
L 654.590349 -172.565047 
L 654.532634 -174.632312 
L 654.480571 -176.699577 
L 654.451056 -178.766842 
L 654.454712 -180.834107 
L 654.494317 -182.901373 
L 654.564903 -184.968638 
L 654.655422 -187.035903 
L 654.751507 -189.103168 
L 654.838625 -191.170433 
L 654.904899 -193.237698 
L 654.9431 -195.304963 
L 654.951575 -197.372228 
L 654.934108 -199.439493 
L 654.898896 -201.506758 
L 654.85684 -203.574023 
L 654.819442 -205.641288 
L 654.79666 -207.708553 
L 654.795109 -209.775818 
L 654.816999 -211.843083 
L 654.860038 -213.910348 
L 654.918293 -215.977613 
L 654.983747 -218.044878 
L 655.048104 -220.112143 
L 655.10439 -222.179408 
L 655.148018 -224.246673 
L 655.177198 -226.313938 
L 655.192743 -228.381204 
L 655.197464 -230.448469 
L 655.195337 -232.515734 
L 655.190624 -234.582999 
L 655.187099 -236.650264 
L 655.187449 -238.717529 
L 655.19295 -240.784794 
L 655.203437 -242.852059 
L 655.217548 -244.919324 
L 655.233173 -246.986589 
L 655.24798 -249.053854 
L 655.259925 -251.121119 
L 655.267618 -253.188384 
L 655.270535 -255.255649 
L 655.269039 -257.322914 
L 655.264259 -259.390179 
L 655.25784 -261.457444 
L 655.251623 -263.524709 
L 655.247304 -265.591974 
L 655.246129 -267.659239 
L 655.41569 -267.659239 
L 655.41569 -267.659239 
L 655.414514 -265.591974 
L 655.410195 -263.524709 
L 655.403979 -261.457444 
L 655.397559 -259.390179 
L 655.392779 -257.322914 
L 655.391284 -255.255649 
L 655.3942 -253.188384 
L 655.401893 -251.121119 
L 655.413838 -249.053854 
L 655.428646 -246.986589 
L 655.44427 -244.919324 
L 655.458382 -242.852059 
L 655.468869 -240.784794 
L 655.47437 -238.717529 
L 655.474719 -236.650264 
L 655.471194 -234.582999 
L 655.466482 -232.515734 
L 655.464354 -230.448469 
L 655.469075 -228.381204 
L 655.48462 -226.313938 
L 655.5138 -224.246673 
L 655.557428 -222.179408 
L 655.613714 -220.112143 
L 655.678071 -218.044878 
L 655.743525 -215.977613 
L 655.80178 -213.910348 
L 655.844819 -211.843083 
L 655.866709 -209.775818 
L 655.865158 -207.708553 
L 655.842376 -205.641288 
L 655.804978 -203.574023 
L 655.762922 -201.506758 
L 655.72771 -199.439493 
L 655.710243 -197.372228 
L 655.718718 -195.304963 
L 655.756919 -193.237698 
L 655.823193 -191.170433 
L 655.910311 -189.103168 
L 656.006397 -187.035903 
L 656.096915 -184.968638 
L 656.167502 -182.901373 
L 656.207106 -180.834107 
L 656.210762 -178.766842 
L 656.181247 -176.699577 
L 656.129184 -174.632312 
L 656.071469 -172.565047 
L 656.028343 -170.497782 
L 656.019645 -168.430517 
L 656.060892 -166.363252 
L 656.159809 -164.295987 
L 656.3139 -162.228722 
L 656.509633 -160.161457 
L 656.723727 -158.094192 
L 656.926728 -156.026927 
L 657.088542 -153.959662 
L 657.18494 -151.892397 
L 657.203551 -149.825132 
L 657.147772 -147.757867 
L 657.03747 -145.690602 
L 656.906157 -143.623337 
L 656.795201 -141.556072 
L 656.746207 -139.488807 
L 656.792967 -137.421542 
L 656.954266 -135.354277 
L 657.228746 -133.287011 
L 657.592923 -131.219746 
L 658.003266 -129.152481 
L 658.402762 -127.085216 
L 658.731445 -125.017951 
L 658.939106 -122.950686 
L 658.997417 -120.883421 
L 658.908343 -118.816156 
L 658.706495 -116.748891 
L 658.454554 -114.681626 
L 658.232609 -112.614361 
L 658.123533 -110.547096 
L 658.197046 -108.479831 
L 658.495063 -106.412566 
L 659.020737 -104.345301 
L 659.73342 -102.278036 
L 660.551508 -100.210771 
L 661.364256 -98.143506 
L 662.051865 -96.076241 
L 662.510725 -94.008976 
L 662.678428 -91.941711 
L 662.552328 -89.874446 
L 662.196489 -87.807181 
L 661.734674 -85.739915 
L 661.330416 -83.67265 
L 661.15787 -81.605385 
L 661.368553 -79.53812 
L 662.059253 -77.470855 
L 663.246307 -75.40359 
L 664.851358 -73.336325 
L 666.703358 -71.26906 
L 668.559827 -69.201795 
L 670.146486 -67.13453 
L 671.20879 -65.067265 
L 671.563636 -63 
z
" id="madc2f3819a" style="stroke:#ffffff;stroke-opacity:0.3;"/>
    </defs>
    <g clip-path="url(#p94fbfbbecc)">
     <use style="fill:#4c72b0;fill-opacity:0.3;stroke:#ffffff;stroke-opacity:0.3;" x="0" xlink:href="#madc2f3819a" y="504"/>
    </g>
   </g>
   <g id="PolyCollection_9">
    <defs>
     <path d="M 736.494545 -63 
L 704.029091 -63 
L 704.096208 -65.362589 
L 704.676523 -67.725177 
L 705.584967 -70.087766 
L 706.584889 -72.450354 
L 707.439916 -74.812943 
L 707.966514 -77.175532 
L 708.074165 -79.53812 
L 707.783425 -81.900709 
L 707.217746 -84.263298 
L 706.571482 -86.625886 
L 706.062262 -88.988475 
L 705.879688 -91.351063 
L 706.142972 -93.713652 
L 706.877555 -96.076241 
L 708.015393 -98.438829 
L 709.417119 -100.801418 
L 710.908626 -103.164007 
L 712.321505 -105.526595 
L 713.526971 -107.889184 
L 714.455972 -110.251772 
L 715.102764 -112.614361 
L 715.513747 -114.97695 
L 715.766584 -117.339538 
L 715.946043 -119.702127 
L 716.122632 -122.064716 
L 716.338469 -124.427304 
L 716.602488 -126.789893 
L 716.894667 -129.152481 
L 717.176956 -131.51507 
L 717.407372 -133.877659 
L 717.553437 -136.240247 
L 717.601762 -138.602836 
L 717.561805 -140.965425 
L 717.463357 -143.328013 
L 717.348833 -145.690602 
L 717.262552 -148.05319 
L 717.239871 -150.415779 
L 717.29889 -152.778368 
L 717.436752 -155.140956 
L 717.631303 -157.503545 
L 717.847459 -159.866133 
L 718.04646 -162.228722 
L 718.195561 -164.591311 
L 718.275751 -166.953899 
L 718.285724 -169.316488 
L 718.241379 -171.679077 
L 718.171214 -174.041665 
L 718.108948 -176.404254 
L 718.085311 -178.766842 
L 718.121039 -181.129431 
L 718.222725 -183.49202 
L 718.382347 -185.854608 
L 718.580311 -188.217197 
L 718.790946 -190.579786 
L 718.98884 -192.942374 
L 719.154369 -195.304963 
L 719.277207 -197.667551 
L 719.357228 -200.03014 
L 719.402981 -202.392729 
L 719.428444 -204.755317 
L 719.449064 -207.117906 
L 719.478109 -209.480495 
L 719.524108 -211.843083 
L 719.589819 -214.205672 
L 719.672674 -216.56826 
L 719.766355 -218.930849 
L 719.862882 -221.293438 
L 719.95461 -223.656026 
L 720.035678 -226.018615 
L 720.102686 -228.381204 
L 720.154656 -230.743792 
L 720.192491 -233.106381 
L 720.218212 -235.468969 
L 720.234219 -237.831558 
L 720.242743 -240.194147 
L 720.24553 -242.556735 
L 720.24377 -244.919324 
L 720.238182 -247.281912 
L 720.229222 -249.644501 
L 720.217317 -252.00709 
L 720.203081 -254.369678 
L 720.187454 -256.732267 
L 720.171707 -259.094856 
L 720.157314 -261.457444 
L 720.145698 -263.820033 
L 720.13791 -266.182621 
L 720.134336 -268.54521 
L 720.13452 -270.907799 
L 720.137181 -273.270387 
L 720.140438 -275.632976 
L 720.142217 -277.995565 
L 720.140738 -280.358153 
L 720.134979 -282.720742 
L 720.124985 -285.08333 
L 720.111944 -287.445919 
L 720.097987 -289.808508 
L 720.085764 -292.171096 
L 720.077876 -294.533685 
L 720.076316 -296.896274 
L 720.44732 -296.896274 
L 720.44732 -296.896274 
L 720.44576 -294.533685 
L 720.437872 -292.171096 
L 720.425649 -289.808508 
L 720.411692 -287.445919 
L 720.398651 -285.08333 
L 720.388658 -282.720742 
L 720.382899 -280.358153 
L 720.38142 -277.995565 
L 720.383198 -275.632976 
L 720.386455 -273.270387 
L 720.389116 -270.907799 
L 720.3893 -268.54521 
L 720.385726 -266.182621 
L 720.377938 -263.820033 
L 720.366322 -261.457444 
L 720.351929 -259.094856 
L 720.336182 -256.732267 
L 720.320555 -254.369678 
L 720.30632 -252.00709 
L 720.294414 -249.644501 
L 720.285454 -247.281912 
L 720.279866 -244.919324 
L 720.278106 -242.556735 
L 720.280894 -240.194147 
L 720.289417 -237.831558 
L 720.305425 -235.468969 
L 720.331146 -233.106381 
L 720.368981 -230.743792 
L 720.420951 -228.381204 
L 720.487958 -226.018615 
L 720.569026 -223.656026 
L 720.660755 -221.293438 
L 720.757281 -218.930849 
L 720.850963 -216.56826 
L 720.933818 -214.205672 
L 720.999528 -211.843083 
L 721.045528 -209.480495 
L 721.074572 -207.117906 
L 721.095193 -204.755317 
L 721.120656 -202.392729 
L 721.166408 -200.03014 
L 721.246429 -197.667551 
L 721.369267 -195.304963 
L 721.534797 -192.942374 
L 721.73269 -190.579786 
L 721.943326 -188.217197 
L 722.14129 -185.854608 
L 722.300911 -183.49202 
L 722.402597 -181.129431 
L 722.438326 -178.766842 
L 722.414688 -176.404254 
L 722.352422 -174.041665 
L 722.282257 -171.679077 
L 722.237913 -169.316488 
L 722.247886 -166.953899 
L 722.328075 -164.591311 
L 722.477176 -162.228722 
L 722.676177 -159.866133 
L 722.892333 -157.503545 
L 723.086885 -155.140956 
L 723.224747 -152.778368 
L 723.283765 -150.415779 
L 723.261084 -148.05319 
L 723.174804 -145.690602 
L 723.060279 -143.328013 
L 722.961832 -140.965425 
L 722.921874 -138.602836 
L 722.970199 -136.240247 
L 723.116264 -133.877659 
L 723.34668 -131.51507 
L 723.62897 -129.152481 
L 723.921148 -126.789893 
L 724.185167 -124.427304 
L 724.401005 -122.064716 
L 724.577594 -119.702127 
L 724.757053 -117.339538 
L 725.009889 -114.97695 
L 725.420872 -112.614361 
L 726.067665 -110.251772 
L 726.996666 -107.889184 
L 728.202131 -105.526595 
L 729.615011 -103.164007 
L 731.106518 -100.801418 
L 732.508243 -98.438829 
L 733.646081 -96.076241 
L 734.380664 -93.713652 
L 734.643948 -91.351063 
L 734.461374 -88.988475 
L 733.952155 -86.625886 
L 733.30589 -84.263298 
L 732.740212 -81.900709 
L 732.449471 -79.53812 
L 732.557122 -77.175532 
L 733.08372 -74.812943 
L 733.938747 -72.450354 
L 734.938669 -70.087766 
L 735.847114 -67.725177 
L 736.427429 -65.362589 
L 736.494545 -63 
z
" id="mc8faa328a8" style="stroke:#ffffff;stroke-opacity:0.3;"/>
    </defs>
    <g clip-path="url(#p94fbfbbecc)">
     <use style="fill:#4c72b0;fill-opacity:0.3;stroke:#ffffff;stroke-opacity:0.3;" x="0" xlink:href="#mc8faa328a8" y="504"/>
    </g>
   </g>
   <g id="PolyCollection_10">
    <defs>
     <path d="M 801.425455 -63 
L 768.96 -63 
L 769.077575 -64.771941 
L 769.583808 -66.543883 
L 770.405737 -68.315824 
L 771.440317 -70.087766 
L 772.567594 -71.859707 
L 773.666098 -73.631649 
L 774.628059 -75.40359 
L 775.372254 -77.175532 
L 775.852737 -78.947473 
L 776.06245 -80.719415 
L 776.031487 -82.491356 
L 775.820515 -84.263298 
L 775.510424 -86.035239 
L 775.189769 -87.807181 
L 774.941749 -89.579122 
L 774.832526 -91.351063 
L 774.902448 -93.123005 
L 775.16133 -94.894946 
L 775.588319 -96.666888 
L 776.136213 -98.438829 
L 776.739426 -100.210771 
L 777.324302 -101.982712 
L 777.820209 -103.754654 
L 778.169812 -105.526595 
L 778.337129 -107.298537 
L 778.312375 -109.070478 
L 778.113039 -110.84242 
L 777.781172 -112.614361 
L 777.377346 -114.386303 
L 776.97217 -116.158244 
L 776.636576 -117.930185 
L 776.432275 -119.702127 
L 776.403744 -121.474068 
L 776.572906 -123.24601 
L 776.93721 -125.017951 
L 777.471257 -126.789893 
L 778.131556 -128.561834 
L 778.863479 -130.333776 
L 779.609185 -132.105717 
L 780.315246 -133.877659 
L 780.938872 -135.6496 
L 781.451995 -137.421542 
L 781.842884 -139.193483 
L 782.115392 -140.965425 
L 782.286251 -142.737366 
L 782.381041 -144.509307 
L 782.429537 -146.281249 
L 782.461125 -148.05319 
L 782.500872 -149.825132 
L 782.566683 -151.597073 
L 782.667796 -153.369015 
L 782.80466 -155.140956 
L 782.970059 -156.912898 
L 783.151201 -158.684839 
L 783.332368 -160.456781 
L 783.497705 -162.228722 
L 783.633745 -164.000664 
L 783.73135 -165.772605 
L 783.78686 -167.544547 
L 783.802371 -169.316488 
L 783.785179 -171.088429 
L 783.746539 -172.860371 
L 783.699947 -174.632312 
L 783.659215 -176.404254 
L 783.63661 -178.176195 
L 783.641324 -179.948137 
L 783.678466 -181.720078 
L 783.748693 -183.49202 
L 783.848494 -185.263961 
L 783.971027 -187.035903 
L 784.107341 -188.807844 
L 784.247758 -190.579786 
L 784.38318 -192.351727 
L 784.506154 -194.123668 
L 784.611552 -195.89561 
L 784.696839 -197.667551 
L 784.761951 -199.439493 
L 784.808869 -201.211434 
L 784.840999 -202.983376 
L 784.862475 -204.755317 
L 784.877495 -206.527259 
L 784.889764 -208.2992 
L 784.902104 -210.071142 
L 784.916246 -211.843083 
L 784.932812 -213.615025 
L 784.951442 -215.386966 
L 784.971053 -217.158908 
L 784.990146 -218.930849 
L 785.007143 -220.70279 
L 785.020685 -222.474732 
L 785.029856 -224.246673 
L 785.034333 -226.018615 
L 785.034418 -227.790556 
L 785.030987 -229.562498 
L 785.025355 -231.334439 
L 785.019084 -233.106381 
L 785.013768 -234.878322 
L 785.010824 -236.650264 
L 785.011317 -238.422205 
L 785.374138 -238.422205 
L 785.374138 -238.422205 
L 785.374631 -236.650264 
L 785.371686 -234.878322 
L 785.36637 -233.106381 
L 785.360099 -231.334439 
L 785.354467 -229.562498 
L 785.351037 -227.790556 
L 785.351122 -226.018615 
L 785.355599 -224.246673 
L 785.36477 -222.474732 
L 785.378311 -220.70279 
L 785.395309 -218.930849 
L 785.414402 -217.158908 
L 785.434012 -215.386966 
L 785.452643 -213.615025 
L 785.469208 -211.843083 
L 785.483351 -210.071142 
L 785.495691 -208.2992 
L 785.50796 -206.527259 
L 785.52298 -204.755317 
L 785.544456 -202.983376 
L 785.576585 -201.211434 
L 785.623504 -199.439493 
L 785.688616 -197.667551 
L 785.773902 -195.89561 
L 785.8793 -194.123668 
L 786.002274 -192.351727 
L 786.137697 -190.579786 
L 786.278113 -188.807844 
L 786.414428 -187.035903 
L 786.536961 -185.263961 
L 786.636761 -183.49202 
L 786.706989 -181.720078 
L 786.744131 -179.948137 
L 786.748845 -178.176195 
L 786.726239 -176.404254 
L 786.685507 -174.632312 
L 786.638916 -172.860371 
L 786.600276 -171.088429 
L 786.583084 -169.316488 
L 786.598594 -167.544547 
L 786.654104 -165.772605 
L 786.75171 -164.000664 
L 786.88775 -162.228722 
L 787.053087 -160.456781 
L 787.234253 -158.684839 
L 787.415395 -156.912898 
L 787.580794 -155.140956 
L 787.717658 -153.369015 
L 787.818772 -151.597073 
L 787.884583 -149.825132 
L 787.924329 -148.05319 
L 787.955917 -146.281249 
L 788.004413 -144.509307 
L 788.099204 -142.737366 
L 788.270063 -140.965425 
L 788.54257 -139.193483 
L 788.933459 -137.421542 
L 789.446582 -135.6496 
L 790.070209 -133.877659 
L 790.77627 -132.105717 
L 791.521976 -130.333776 
L 792.253899 -128.561834 
L 792.914198 -126.789893 
L 793.448244 -125.017951 
L 793.812548 -123.24601 
L 793.981711 -121.474068 
L 793.95318 -119.702127 
L 793.748878 -117.930185 
L 793.413285 -116.158244 
L 793.008108 -114.386303 
L 792.604282 -112.614361 
L 792.272415 -110.84242 
L 792.073079 -109.070478 
L 792.048326 -107.298537 
L 792.215643 -105.526595 
L 792.565245 -103.754654 
L 793.061153 -101.982712 
L 793.646029 -100.210771 
L 794.249241 -98.438829 
L 794.797136 -96.666888 
L 795.224125 -94.894946 
L 795.483006 -93.123005 
L 795.552929 -91.351063 
L 795.443706 -89.579122 
L 795.195686 -87.807181 
L 794.87503 -86.035239 
L 794.564939 -84.263298 
L 794.353967 -82.491356 
L 794.323005 -80.719415 
L 794.532717 -78.947473 
L 795.0132 -77.175532 
L 795.757396 -75.40359 
L 796.719357 -73.631649 
L 797.81786 -71.859707 
L 798.945138 -70.087766 
L 799.979718 -68.315824 
L 800.801646 -66.543883 
L 801.307879 -64.771941 
L 801.425455 -63 
z
" id="mbd00bd50e3" style="stroke:#ffffff;stroke-opacity:0.3;"/>
    </defs>
    <g clip-path="url(#p94fbfbbecc)">
     <use style="fill:#4c72b0;fill-opacity:0.3;stroke:#ffffff;stroke-opacity:0.3;" x="0" xlink:href="#mbd00bd50e3" y="504"/>
    </g>
   </g>
   <g id="PolyCollection_11">
    <defs>
     <path d="M 865.233698 -63 
L 835.013575 -63 
L 834.42147 -65.953236 
L 834.070456 -68.906472 
L 833.912748 -71.859707 
L 833.890909 -74.812943 
L 833.951639 -77.766179 
L 834.056612 -80.719415 
L 834.187522 -83.67265 
L 834.344392 -86.625886 
L 834.538378 -89.579122 
L 834.782033 -92.532358 
L 835.080612 -95.485594 
L 835.427364 -98.438829 
L 835.804156 -101.392065 
L 836.186707 -104.345301 
L 836.552141 -107.298537 
L 836.885803 -110.251772 
L 837.184826 -113.205008 
L 837.457284 -116.158244 
L 837.717555 -119.11148 
L 837.97991 -122.064716 
L 838.252955 -125.017951 
L 838.537086 -127.971187 
L 838.825855 -130.924423 
L 839.110594 -133.877659 
L 839.386357 -136.830894 
L 839.656795 -139.78413 
L 839.935952 -142.737366 
L 840.246157 -145.690602 
L 840.612577 -148.643838 
L 841.056174 -151.597073 
L 841.587301 -154.550309 
L 842.201897 -157.503545 
L 842.881316 -160.456781 
L 843.595639 -163.410016 
L 844.309304 -166.363252 
L 844.987369 -169.316488 
L 845.600744 -172.269724 
L 846.129366 -175.22296 
L 846.563021 -178.176195 
L 846.900283 -181.129431 
L 847.146451 -184.082667 
L 847.311378 -187.035903 
L 847.407817 -189.989138 
L 847.450433 -192.942374 
L 847.455263 -195.89561 
L 847.43919 -198.848846 
L 847.419074 -201.802082 
L 847.410403 -204.755317 
L 847.42565 -207.708553 
L 847.472785 -210.661789 
L 847.554388 -213.615025 
L 847.667732 -216.56826 
L 847.805875 -219.521496 
L 847.959512 -222.474732 
L 848.1191 -225.427968 
L 848.276702 -228.381204 
L 848.427121 -231.334439 
L 848.56814 -234.287675 
L 848.699961 -237.240911 
L 848.824148 -240.194147 
L 848.94249 -243.147382 
L 849.056134 -246.100618 
L 849.165198 -249.053854 
L 849.268877 -252.00709 
L 849.365886 -254.960325 
L 849.455029 -257.913561 
L 849.535649 -260.866797 
L 849.607835 -263.820033 
L 849.67235 -266.773269 
L 849.730338 -269.726504 
L 849.782946 -272.67974 
L 849.83098 -275.632976 
L 849.874693 -278.586212 
L 849.913731 -281.539447 
L 849.947225 -284.492683 
L 849.973986 -287.445919 
L 849.992731 -290.399155 
L 850.002314 -293.352391 
L 850.001929 -296.305626 
L 849.991282 -299.258862 
L 849.970728 -302.212098 
L 849.941375 -305.165334 
L 849.905115 -308.118569 
L 849.864574 -311.071805 
L 849.822942 -314.025041 
L 849.783676 -316.978277 
L 849.750117 -319.931513 
L 849.725062 -322.884748 
L 849.710391 -325.837984 
L 849.706826 -328.79122 
L 849.713883 -331.744456 
L 849.730038 -334.697691 
L 849.753068 -337.650927 
L 849.78048 -340.604163 
L 849.80994 -343.557399 
L 849.839598 -346.510635 
L 849.868249 -349.46387 
L 849.895333 -352.417106 
L 849.920786 -355.370342 
L 850.326487 -355.370342 
L 850.326487 -355.370342 
L 850.351939 -352.417106 
L 850.379023 -349.46387 
L 850.407675 -346.510635 
L 850.437332 -343.557399 
L 850.466793 -340.604163 
L 850.494205 -337.650927 
L 850.517234 -334.697691 
L 850.53339 -331.744456 
L 850.540447 -328.79122 
L 850.536882 -325.837984 
L 850.522211 -322.884748 
L 850.497156 -319.931513 
L 850.463597 -316.978277 
L 850.424331 -314.025041 
L 850.382699 -311.071805 
L 850.342158 -308.118569 
L 850.305898 -305.165334 
L 850.276544 -302.212098 
L 850.255991 -299.258862 
L 850.245343 -296.305626 
L 850.244959 -293.352391 
L 850.254542 -290.399155 
L 850.273287 -287.445919 
L 850.300047 -284.492683 
L 850.333542 -281.539447 
L 850.372579 -278.586212 
L 850.416293 -275.632976 
L 850.464327 -272.67974 
L 850.516935 -269.726504 
L 850.574923 -266.773269 
L 850.639437 -263.820033 
L 850.711624 -260.866797 
L 850.792243 -257.913561 
L 850.881386 -254.960325 
L 850.978396 -252.00709 
L 851.082075 -249.053854 
L 851.191139 -246.100618 
L 851.304783 -243.147382 
L 851.423124 -240.194147 
L 851.547311 -237.240911 
L 851.679133 -234.287675 
L 851.820152 -231.334439 
L 851.970571 -228.381204 
L 852.128172 -225.427968 
L 852.287761 -222.474732 
L 852.441398 -219.521496 
L 852.579541 -216.56826 
L 852.692884 -213.615025 
L 852.774488 -210.661789 
L 852.821623 -207.708553 
L 852.83687 -204.755317 
L 852.828198 -201.802082 
L 852.808083 -198.848846 
L 852.79201 -195.89561 
L 852.796839 -192.942374 
L 852.839456 -189.989138 
L 852.935895 -187.035903 
L 853.100822 -184.082667 
L 853.34699 -181.129431 
L 853.684252 -178.176195 
L 854.117906 -175.22296 
L 854.646529 -172.269724 
L 855.259904 -169.316488 
L 855.937968 -166.363252 
L 856.651634 -163.410016 
L 857.365956 -160.456781 
L 858.045376 -157.503545 
L 858.659972 -154.550309 
L 859.191099 -151.597073 
L 859.634696 -148.643838 
L 860.001116 -145.690602 
L 860.311321 -142.737366 
L 860.590478 -139.78413 
L 860.860916 -136.830894 
L 861.136679 -133.877659 
L 861.421417 -130.924423 
L 861.710187 -127.971187 
L 861.994318 -125.017951 
L 862.267362 -122.064716 
L 862.529717 -119.11148 
L 862.789989 -116.158244 
L 863.062447 -113.205008 
L 863.361469 -110.251772 
L 863.695131 -107.298537 
L 864.060565 -104.345301 
L 864.443117 -101.392065 
L 864.819908 -98.438829 
L 865.166661 -95.485594 
L 865.46524 -92.532358 
L 865.708895 -89.579122 
L 865.902881 -86.625886 
L 866.05975 -83.67265 
L 866.190661 -80.719415 
L 866.295634 -77.766179 
L 866.356364 -74.812943 
L 866.334525 -71.859707 
L 866.176817 -68.906472 
L 865.825803 -65.953236 
L 865.233698 -63 
z
" id="m9618dcbcb9" style="stroke:#ffffff;stroke-opacity:0.3;"/>
    </defs>
    <g clip-path="url(#p94fbfbbecc)">
     <use style="fill:#4c72b0;fill-opacity:0.3;stroke:#ffffff;stroke-opacity:0.3;" x="0" xlink:href="#m9618dcbcb9" y="504"/>
    </g>
   </g>
   <g id="PolyCollection_12">
    <defs>
     <path d="M 929.968354 -63 
L 900.140736 -63 
L 899.513455 -66.248559 
L 899.088603 -69.497119 
L 898.862344 -72.745678 
L 898.821818 -75.994237 
L 898.947815 -79.242797 
L 899.217449 -82.491356 
L 899.606349 -85.739915 
L 900.09008 -88.988475 
L 900.644791 -92.237034 
L 901.247256 -95.485594 
L 901.874637 -98.734153 
L 902.504305 -101.982712 
L 903.113952 -105.231272 
L 903.682115 -108.479831 
L 904.189089 -111.72839 
L 904.618041 -114.97695 
L 904.95616 -118.225509 
L 905.195601 -121.474068 
L 905.334067 -124.722628 
L 905.374938 -127.971187 
L 905.326901 -131.219746 
L 905.203142 -134.468306 
L 905.020192 -137.716865 
L 904.796575 -140.965425 
L 904.551454 -144.213984 
L 904.303455 -147.462543 
L 904.069822 -150.711103 
L 903.865984 -153.959662 
L 903.705517 -157.208221 
L 903.600374 -160.456781 
L 903.561171 -163.70534 
L 903.597319 -166.953899 
L 903.716801 -170.202459 
L 903.92555 -173.451018 
L 904.226484 -176.699577 
L 904.618428 -179.948137 
L 905.095204 -183.196696 
L 905.645187 -186.445255 
L 906.251539 -189.693815 
L 906.893202 -192.942374 
L 907.546544 -196.190934 
L 908.187439 -199.439493 
L 908.79347 -202.688052 
L 909.345909 -205.936612 
L 909.831232 -209.185171 
L 910.241975 -212.43373 
L 910.576876 -215.68229 
L 910.840368 -218.930849 
L 911.04153 -222.179408 
L 911.192683 -225.427968 
L 911.307827 -228.676527 
L 911.401089 -231.925086 
L 911.485367 -235.173646 
L 911.571277 -238.422205 
L 911.6665 -241.670765 
L 911.775547 -244.919324 
L 911.899918 -248.167883 
L 912.038586 -251.416443 
L 912.188684 -254.665002 
L 912.346273 -257.913561 
L 912.507071 -261.162121 
L 912.667052 -264.41068 
L 912.822868 -267.659239 
L 912.972073 -270.907799 
L 913.113185 -274.156358 
L 913.245609 -277.404917 
L 913.369491 -280.653477 
L 913.485512 -283.902036 
L 913.594675 -287.150595 
L 913.698095 -290.399155 
L 913.796795 -293.647714 
L 913.891539 -296.896274 
L 913.982702 -300.144833 
L 914.070196 -303.393392 
L 914.153467 -306.641952 
L 914.231555 -309.890511 
L 914.303233 -313.13907 
L 914.36718 -316.38763 
L 914.422191 -319.636189 
L 914.467369 -322.884748 
L 914.502293 -326.133308 
L 914.527127 -329.381867 
L 914.542657 -332.630426 
L 914.550257 -335.878986 
L 914.551782 -339.127545 
L 914.54941 -342.376104 
L 914.545445 -345.624664 
L 914.542107 -348.873223 
L 914.541342 -352.121783 
L 914.544665 -355.370342 
L 914.55306 -358.618901 
L 914.566956 -361.867461 
L 914.586251 -365.11602 
L 914.610407 -368.364579 
L 914.638576 -371.613139 
L 914.66973 -374.861698 
L 914.702797 -378.110257 
L 914.736761 -381.358817 
L 914.770727 -384.607376 
L 915.338363 -384.607376 
L 915.338363 -384.607376 
L 915.37233 -381.358817 
L 915.406294 -378.110257 
L 915.439361 -374.861698 
L 915.470515 -371.613139 
L 915.498683 -368.364579 
L 915.52284 -365.11602 
L 915.542135 -361.867461 
L 915.55603 -358.618901 
L 915.564426 -355.370342 
L 915.567749 -352.121783 
L 915.566984 -348.873223 
L 915.563646 -345.624664 
L 915.559681 -342.376104 
L 915.557309 -339.127545 
L 915.558834 -335.878986 
L 915.566433 -332.630426 
L 915.581964 -329.381867 
L 915.606798 -326.133308 
L 915.641722 -322.884748 
L 915.6869 -319.636189 
L 915.741911 -316.38763 
L 915.805858 -313.13907 
L 915.877536 -309.890511 
L 915.955624 -306.641952 
L 916.038895 -303.393392 
L 916.126389 -300.144833 
L 916.217552 -296.896274 
L 916.312296 -293.647714 
L 916.410996 -290.399155 
L 916.514416 -287.150595 
L 916.623579 -283.902036 
L 916.7396 -280.653477 
L 916.863482 -277.404917 
L 916.995906 -274.156358 
L 917.137018 -270.907799 
L 917.286223 -267.659239 
L 917.442039 -264.41068 
L 917.60202 -261.162121 
L 917.762818 -257.913561 
L 917.920407 -254.665002 
L 918.070505 -251.416443 
L 918.209173 -248.167883 
L 918.333544 -244.919324 
L 918.44259 -241.670765 
L 918.537814 -238.422205 
L 918.623724 -235.173646 
L 918.708002 -231.925086 
L 918.801264 -228.676527 
L 918.916408 -225.427968 
L 919.067561 -222.179408 
L 919.268722 -218.930849 
L 919.532215 -215.68229 
L 919.867116 -212.43373 
L 920.277859 -209.185171 
L 920.763182 -205.936612 
L 921.315621 -202.688052 
L 921.921651 -199.439493 
L 922.562547 -196.190934 
L 923.215889 -192.942374 
L 923.857552 -189.693815 
L 924.463904 -186.445255 
L 925.013887 -183.196696 
L 925.490663 -179.948137 
L 925.882607 -176.699577 
L 926.183541 -173.451018 
L 926.39229 -170.202459 
L 926.511772 -166.953899 
L 926.54792 -163.70534 
L 926.508717 -160.456781 
L 926.403573 -157.208221 
L 926.243107 -153.959662 
L 926.039269 -150.711103 
L 925.805636 -147.462543 
L 925.557637 -144.213984 
L 925.312516 -140.965425 
L 925.088899 -137.716865 
L 924.905949 -134.468306 
L 924.78219 -131.219746 
L 924.734153 -127.971187 
L 924.775023 -124.722628 
L 924.91349 -121.474068 
L 925.152931 -118.225509 
L 925.49105 -114.97695 
L 925.920002 -111.72839 
L 926.426975 -108.479831 
L 926.995139 -105.231272 
L 927.604785 -101.982712 
L 928.234454 -98.734153 
L 928.861835 -95.485594 
L 929.4643 -92.237034 
L 930.019011 -88.988475 
L 930.502742 -85.739915 
L 930.891642 -82.491356 
L 931.161276 -79.242797 
L 931.287273 -75.994237 
L 931.246747 -72.745678 
L 931.020488 -69.497119 
L 930.595636 -66.248559 
L 929.968354 -63 
z
" id="me55c2368e0" style="stroke:#ffffff;stroke-opacity:0.3;"/>
    </defs>
    <g clip-path="url(#p94fbfbbecc)">
     <use style="fill:#4c72b0;fill-opacity:0.3;stroke:#ffffff;stroke-opacity:0.3;" x="0" xlink:href="#me55c2368e0" y="504"/>
    </g>
   </g>
   <g id="PolyCollection_13">
    <defs>
     <path d="M 996.218182 -63 
L 963.752727 -63 
L 963.877025 -66.543883 
L 964.42587 -70.087766 
L 965.348531 -73.631649 
L 966.567149 -77.175532 
L 967.987269 -80.719415 
L 969.509629 -84.263298 
L 971.041183 -87.807181 
L 972.503723 -91.351063 
L 973.839141 -94.894946 
L 975.011107 -98.438829 
L 976.003681 -101.982712 
L 976.817735 -105.526595 
L 977.466273 -109.070478 
L 977.969626 -112.614361 
L 978.351228 -116.158244 
L 978.634385 -119.702127 
L 978.840145 -123.24601 
L 978.986175 -126.789893 
L 979.086418 -130.333776 
L 979.151291 -133.877659 
L 979.188186 -137.421542 
L 979.202104 -140.965425 
L 979.196296 -144.509307 
L 979.17284 -148.05319 
L 979.133126 -151.597073 
L 979.078222 -155.140956 
L 979.009139 -158.684839 
L 978.926992 -162.228722 
L 978.83309 -165.772605 
L 978.728979 -169.316488 
L 978.616466 -172.860371 
L 978.497676 -176.404254 
L 978.375133 -179.948137 
L 978.251874 -183.49202 
L 978.131551 -187.035903 
L 978.018453 -190.579786 
L 977.917388 -194.123668 
L 977.833384 -197.667551 
L 977.771206 -201.211434 
L 977.734756 -204.755317 
L 977.726462 -208.2992 
L 977.746793 -211.843083 
L 977.794024 -215.386966 
L 977.864313 -218.930849 
L 977.952105 -222.474732 
L 978.05078 -226.018615 
L 978.153432 -229.562498 
L 978.25364 -233.106381 
L 978.346116 -236.650264 
L 978.427133 -240.194147 
L 978.494714 -243.73803 
L 978.548596 -247.281912 
L 978.589994 -250.825795 
L 978.621238 -254.369678 
L 978.645351 -257.913561 
L 978.665601 -261.457444 
L 978.685124 -265.001327 
L 978.706616 -268.54521 
L 978.732165 -272.089093 
L 978.763193 -275.632976 
L 978.800511 -279.176859 
L 978.844439 -282.720742 
L 978.89494 -286.264625 
L 978.951731 -289.808508 
L 979.014327 -293.352391 
L 979.082045 -296.896274 
L 979.153956 -300.440156 
L 979.228856 -303.984039 
L 979.30526 -307.527922 
L 979.381467 -311.071805 
L 979.45568 -314.615688 
L 979.526159 -318.159571 
L 979.591392 -321.703454 
L 979.650226 -325.247337 
L 979.701946 -328.79122 
L 979.746298 -332.335103 
L 979.783438 -335.878986 
L 979.813848 -339.422869 
L 979.838229 -342.966752 
L 979.857388 -346.510635 
L 979.872151 -350.054518 
L 979.883288 -353.5984 
L 979.891473 -357.142283 
L 979.897266 -360.686166 
L 979.90111 -364.230049 
L 979.903347 -367.773932 
L 979.904236 -371.317815 
L 979.903983 -374.861698 
L 979.902761 -378.405581 
L 979.900743 -381.949464 
L 979.898116 -385.493347 
L 979.895108 -389.03723 
L 979.891993 -392.581113 
L 979.889089 -396.124996 
L 979.886753 -399.668879 
L 979.885347 -403.212761 
L 979.885206 -406.756644 
L 979.886598 -410.300527 
L 979.889683 -413.84441 
L 980.081227 -413.84441 
L 980.081227 -413.84441 
L 980.084311 -410.300527 
L 980.085703 -406.756644 
L 980.085562 -403.212761 
L 980.084156 -399.668879 
L 980.08182 -396.124996 
L 980.078917 -392.581113 
L 980.075801 -389.03723 
L 980.072793 -385.493347 
L 980.070166 -381.949464 
L 980.068148 -378.405581 
L 980.066926 -374.861698 
L 980.066673 -371.317815 
L 980.067563 -367.773932 
L 980.069799 -364.230049 
L 980.073643 -360.686166 
L 980.079436 -357.142283 
L 980.087621 -353.5984 
L 980.098758 -350.054518 
L 980.113521 -346.510635 
L 980.13268 -342.966752 
L 980.157061 -339.422869 
L 980.187471 -335.878986 
L 980.224611 -332.335103 
L 980.268963 -328.79122 
L 980.320683 -325.247337 
L 980.379517 -321.703454 
L 980.44475 -318.159571 
L 980.515229 -314.615688 
L 980.589442 -311.071805 
L 980.665649 -307.527922 
L 980.742053 -303.984039 
L 980.816953 -300.440156 
L 980.888864 -296.896274 
L 980.956582 -293.352391 
L 981.019178 -289.808508 
L 981.075969 -286.264625 
L 981.126471 -282.720742 
L 981.170398 -279.176859 
L 981.207716 -275.632976 
L 981.238744 -272.089093 
L 981.264293 -268.54521 
L 981.285785 -265.001327 
L 981.305308 -261.457444 
L 981.325559 -257.913561 
L 981.349671 -254.369678 
L 981.380916 -250.825795 
L 981.422313 -247.281912 
L 981.476195 -243.73803 
L 981.543776 -240.194147 
L 981.624793 -236.650264 
L 981.717269 -233.106381 
L 981.817478 -229.562498 
L 981.920129 -226.018615 
L 982.018804 -222.474732 
L 982.106596 -218.930849 
L 982.176885 -215.386966 
L 982.224116 -211.843083 
L 982.244447 -208.2992 
L 982.236153 -204.755317 
L 982.199703 -201.211434 
L 982.137525 -197.667551 
L 982.053521 -194.123668 
L 981.952456 -190.579786 
L 981.839358 -187.035903 
L 981.719035 -183.49202 
L 981.595777 -179.948137 
L 981.473233 -176.404254 
L 981.354443 -172.860371 
L 981.24193 -169.316488 
L 981.137819 -165.772605 
L 981.043917 -162.228722 
L 980.961771 -158.684839 
L 980.892687 -155.140956 
L 980.837783 -151.597073 
L 980.798069 -148.05319 
L 980.774613 -144.509307 
L 980.768805 -140.965425 
L 980.782723 -137.421542 
L 980.819618 -133.877659 
L 980.884491 -130.333776 
L 980.984734 -126.789893 
L 981.130764 -123.24601 
L 981.336524 -119.702127 
L 981.619681 -116.158244 
L 982.001283 -112.614361 
L 982.504636 -109.070478 
L 983.153174 -105.526595 
L 983.967228 -101.982712 
L 984.959802 -98.438829 
L 986.131769 -94.894946 
L 987.467186 -91.351063 
L 988.929727 -87.807181 
L 990.46128 -84.263298 
L 991.98364 -80.719415 
L 993.40376 -77.175532 
L 994.622378 -73.631649 
L 995.545039 -70.087766 
L 996.093884 -66.543883 
L 996.218182 -63 
z
" id="mbe82d75393" style="stroke:#ffffff;stroke-opacity:0.3;"/>
    </defs>
    <g clip-path="url(#p94fbfbbecc)">
     <use style="fill:#4c72b0;fill-opacity:0.3;stroke:#ffffff;stroke-opacity:0.3;" x="0" xlink:href="#mbe82d75393" y="504"/>
    </g>
   </g>
   <g id="LineCollection_1">
    <path clip-path="url(#p94fbfbbecc)" d="M 192.698182 90.15559 
L 208.930909 90.15559 
" style="fill:none;stroke:#4c72b0;stroke-width:1.5;"/>
    <path clip-path="url(#p94fbfbbecc)" d="M 257.629091 119.392624 
L 273.861818 119.392624 
" style="fill:none;stroke:#4c72b0;stroke-width:1.5;"/>
    <path clip-path="url(#p94fbfbbecc)" d="M 322.56 148.629658 
L 338.792727 148.629658 
" style="fill:none;stroke:#4c72b0;stroke-width:1.5;"/>
    <path clip-path="url(#p94fbfbbecc)" d="M 387.490909 177.866692 
L 403.723636 177.866692 
" style="fill:none;stroke:#4c72b0;stroke-width:1.5;"/>
    <path clip-path="url(#p94fbfbbecc)" d="M 452.421818 207.103726 
L 468.654545 207.103726 
" style="fill:none;stroke:#4c72b0;stroke-width:1.5;"/>
    <path clip-path="url(#p94fbfbbecc)" d="M 517.352727 236.340761 
L 533.585455 236.340761 
" style="fill:none;stroke:#4c72b0;stroke-width:1.5;"/>
    <path clip-path="url(#p94fbfbbecc)" d="M 582.283636 265.577795 
L 598.516364 265.577795 
" style="fill:none;stroke:#4c72b0;stroke-width:1.5;"/>
    <path clip-path="url(#p94fbfbbecc)" d="M 647.214545 236.340761 
L 663.447273 236.340761 
" style="fill:none;stroke:#4c72b0;stroke-width:1.5;"/>
    <path clip-path="url(#p94fbfbbecc)" d="M 712.145455 207.103726 
L 728.378182 207.103726 
" style="fill:none;stroke:#4c72b0;stroke-width:1.5;"/>
    <path clip-path="url(#p94fbfbbecc)" d="M 777.076364 265.577795 
L 793.309091 265.577795 
" style="fill:none;stroke:#4c72b0;stroke-width:1.5;"/>
    <path clip-path="url(#p94fbfbbecc)" d="M 842.007273 148.629658 
L 858.24 148.629658 
" style="fill:none;stroke:#4c72b0;stroke-width:1.5;"/>
    <path clip-path="url(#p94fbfbbecc)" d="M 906.938182 119.392624 
L 923.170909 119.392624 
" style="fill:none;stroke:#4c72b0;stroke-width:1.5;"/>
    <path clip-path="url(#p94fbfbbecc)" d="M 971.869091 90.15559 
L 988.101818 90.15559 
" style="fill:none;stroke:#4c72b0;stroke-width:1.5;"/>
   </g>
   <g id="LineCollection_2">
    <path clip-path="url(#p94fbfbbecc)" d="M 192.698182 441 
L 208.930909 441 
" style="fill:none;stroke:#4c72b0;stroke-width:1.5;"/>
    <path clip-path="url(#p94fbfbbecc)" d="M 257.629091 441 
L 273.861818 441 
" style="fill:none;stroke:#4c72b0;stroke-width:1.5;"/>
    <path clip-path="url(#p94fbfbbecc)" d="M 322.56 441 
L 338.792727 441 
" style="fill:none;stroke:#4c72b0;stroke-width:1.5;"/>
    <path clip-path="url(#p94fbfbbecc)" d="M 387.490909 441 
L 403.723636 441 
" style="fill:none;stroke:#4c72b0;stroke-width:1.5;"/>
    <path clip-path="url(#p94fbfbbecc)" d="M 452.421818 441 
L 468.654545 441 
" style="fill:none;stroke:#4c72b0;stroke-width:1.5;"/>
    <path clip-path="url(#p94fbfbbecc)" d="M 517.352727 441 
L 533.585455 441 
" style="fill:none;stroke:#4c72b0;stroke-width:1.5;"/>
    <path clip-path="url(#p94fbfbbecc)" d="M 582.283636 441 
L 598.516364 441 
" style="fill:none;stroke:#4c72b0;stroke-width:1.5;"/>
    <path clip-path="url(#p94fbfbbecc)" d="M 647.214545 441 
L 663.447273 441 
" style="fill:none;stroke:#4c72b0;stroke-width:1.5;"/>
    <path clip-path="url(#p94fbfbbecc)" d="M 712.145455 441 
L 728.378182 441 
" style="fill:none;stroke:#4c72b0;stroke-width:1.5;"/>
    <path clip-path="url(#p94fbfbbecc)" d="M 777.076364 441 
L 793.309091 441 
" style="fill:none;stroke:#4c72b0;stroke-width:1.5;"/>
    <path clip-path="url(#p94fbfbbecc)" d="M 842.007273 441 
L 858.24 441 
" style="fill:none;stroke:#4c72b0;stroke-width:1.5;"/>
    <path clip-path="url(#p94fbfbbecc)" d="M 906.938182 441 
L 923.170909 441 
" style="fill:none;stroke:#4c72b0;stroke-width:1.5;"/>
    <path clip-path="url(#p94fbfbbecc)" d="M 971.869091 441 
L 988.101818 441 
" style="fill:none;stroke:#4c72b0;stroke-width:1.5;"/>
   </g>
   <g id="LineCollection_3">
    <path clip-path="url(#p94fbfbbecc)" d="M 200.814545 441 
L 200.814545 90.15559 
" style="fill:none;stroke:#4c72b0;stroke-width:1.5;"/>
    <path clip-path="url(#p94fbfbbecc)" d="M 265.745455 441 
L 265.745455 119.392624 
" style="fill:none;stroke:#4c72b0;stroke-width:1.5;"/>
    <path clip-path="url(#p94fbfbbecc)" d="M 330.676364 441 
L 330.676364 148.629658 
" style="fill:none;stroke:#4c72b0;stroke-width:1.5;"/>
    <path clip-path="url(#p94fbfbbecc)" d="M 395.607273 441 
L 395.607273 177.866692 
" style="fill:none;stroke:#4c72b0;stroke-width:1.5;"/>
    <path clip-path="url(#p94fbfbbecc)" d="M 460.538182 441 
L 460.538182 207.103726 
" style="fill:none;stroke:#4c72b0;stroke-width:1.5;"/>
    <path clip-path="url(#p94fbfbbecc)" d="M 525.469091 441 
L 525.469091 236.340761 
" style="fill:none;stroke:#4c72b0;stroke-width:1.5;"/>
    <path clip-path="url(#p94fbfbbecc)" d="M 590.4 441 
L 590.4 265.577795 
" style="fill:none;stroke:#4c72b0;stroke-width:1.5;"/>
    <path clip-path="url(#p94fbfbbecc)" d="M 655.330909 441 
L 655.330909 236.340761 
" style="fill:none;stroke:#4c72b0;stroke-width:1.5;"/>
    <path clip-path="url(#p94fbfbbecc)" d="M 720.261818 441 
L 720.261818 207.103726 
" style="fill:none;stroke:#4c72b0;stroke-width:1.5;"/>
    <path clip-path="url(#p94fbfbbecc)" d="M 785.192727 441 
L 785.192727 265.577795 
" style="fill:none;stroke:#4c72b0;stroke-width:1.5;"/>
    <path clip-path="url(#p94fbfbbecc)" d="M 850.123636 441 
L 850.123636 148.629658 
" style="fill:none;stroke:#4c72b0;stroke-width:1.5;"/>
    <path clip-path="url(#p94fbfbbecc)" d="M 915.054545 441 
L 915.054545 119.392624 
" style="fill:none;stroke:#4c72b0;stroke-width:1.5;"/>
    <path clip-path="url(#p94fbfbbecc)" d="M 979.985455 441 
L 979.985455 90.15559 
" style="fill:none;stroke:#4c72b0;stroke-width:1.5;"/>
   </g>
   <g id="patch_3">
    <path d="M 144 441 
L 144 60.48 
" style="fill:none;stroke:#cccccc;stroke-linecap:square;stroke-linejoin:miter;stroke-width:1.25;"/>
   </g>
   <g id="patch_4">
    <path d="M 1036.8 441 
L 1036.8 60.48 
" style="fill:none;stroke:#cccccc;stroke-linecap:square;stroke-linejoin:miter;stroke-width:1.25;"/>
   </g>
   <g id="patch_5">
    <path d="M 144 441 
L 1036.8 441 
" style="fill:none;stroke:#cccccc;stroke-linecap:square;stroke-linejoin:miter;stroke-width:1.25;"/>
   </g>
   <g id="patch_6">
    <path d="M 144 60.48 
L 1036.8 60.48 
" style="fill:none;stroke:#cccccc;stroke-linecap:square;stroke-linejoin:miter;stroke-width:1.25;"/>
   </g>
  </g>
 </g>
 <defs>
  <clipPath id="p94fbfbbecc">
   <rect height="380.52" width="892.8" x="144" y="60.48"/>
  </clipPath>
 </defs>
</svg>
