<?xml version="1.0" encoding="utf-8" standalone="no"?>
<!DOCTYPE svg PUBLIC "-//W3C//DTD SVG 1.1//EN"
  "http://www.w3.org/Graphics/SVG/1.1/DTD/svg11.dtd">
<!-- Created with matplotlib (https://matplotlib.org/) -->
<svg height="504pt" version="1.1" viewBox="0 0 504 504" width="504pt" xmlns="http://www.w3.org/2000/svg" xmlns:xlink="http://www.w3.org/1999/xlink">
 <metadata>
  <rdf:RDF xmlns:cc="http://creativecommons.org/ns#" xmlns:dc="http://purl.org/dc/elements/1.1/" xmlns:rdf="http://www.w3.org/1999/02/22-rdf-syntax-ns#">
   <cc:Work>
    <dc:type rdf:resource="http://purl.org/dc/dcmitype/StillImage"/>
    <dc:date>2020-09-10T01:06:28.340782</dc:date>
    <dc:format>image/svg+xml</dc:format>
    <dc:creator>
     <cc:Agent>
      <dc:title>Matplotlib v3.3.1, https://matplotlib.org/</dc:title>
     </cc:Agent>
    </dc:creator>
   </cc:Work>
  </rdf:RDF>
 </metadata>
 <defs>
  <style type="text/css">*{stroke-linecap:butt;stroke-linejoin:round;}</style>
 </defs>
 <g id="figure_1">
  <g id="patch_1">
   <path d="M 0 504 
L 504 504 
L 504 0 
L 0 0 
z
" style="fill:#ffffff;"/>
  </g>
  <g id="axes_1">
   <g id="patch_2">
    <path d="M 63 441 
L 453.6 441 
L 453.6 60.48 
L 63 60.48 
z
" style="fill:#eaeaf2;"/>
   </g>
   <g id="matplotlib.axis_1">
    <g id="xtick_1">
     <g id="text_1">
      <!-- 1300 -->
      <g style="fill:#262626;" transform="translate(65.789014 458.373594)scale(0.11 -0.11)">
       <defs>
        <path d="M 37.25 0 
L 28.46875 0 
L 28.46875 56 
Q 25.296875 52.984375 20.140625 49.953125 
Q 14.984375 46.921875 10.890625 45.40625 
L 10.890625 53.90625 
Q 18.265625 57.375 23.78125 62.296875 
Q 29.296875 67.234375 31.59375 71.875 
L 37.25 71.875 
z
" id="ArialMT-49"/>
        <path d="M 4.203125 18.890625 
L 12.984375 20.0625 
Q 14.5 12.59375 18.140625 9.296875 
Q 21.78125 6 27 6 
Q 33.203125 6 37.46875 10.296875 
Q 41.75 14.59375 41.75 20.953125 
Q 41.75 27 37.796875 30.921875 
Q 33.84375 34.859375 27.734375 34.859375 
Q 25.25 34.859375 21.53125 33.890625 
L 22.515625 41.609375 
Q 23.390625 41.5 23.921875 41.5 
Q 29.546875 41.5 34.03125 44.421875 
Q 38.53125 47.359375 38.53125 53.46875 
Q 38.53125 58.296875 35.25 61.46875 
Q 31.984375 64.65625 26.8125 64.65625 
Q 21.6875 64.65625 18.265625 61.421875 
Q 14.84375 58.203125 13.875 51.765625 
L 5.078125 53.328125 
Q 6.6875 62.15625 12.390625 67.015625 
Q 18.109375 71.875 26.609375 71.875 
Q 32.46875 71.875 37.390625 69.359375 
Q 42.328125 66.84375 44.9375 62.5 
Q 47.5625 58.15625 47.5625 53.265625 
Q 47.5625 48.640625 45.0625 44.828125 
Q 42.578125 41.015625 37.703125 38.765625 
Q 44.046875 37.3125 47.5625 32.6875 
Q 51.078125 28.078125 51.078125 21.140625 
Q 51.078125 11.765625 44.234375 5.25 
Q 37.40625 -1.265625 26.953125 -1.265625 
Q 17.53125 -1.265625 11.296875 4.34375 
Q 5.078125 9.96875 4.203125 18.890625 
z
" id="ArialMT-51"/>
        <path d="M 4.15625 35.296875 
Q 4.15625 48 6.765625 55.734375 
Q 9.375 63.484375 14.515625 67.671875 
Q 19.671875 71.875 27.484375 71.875 
Q 33.25 71.875 37.59375 69.546875 
Q 41.9375 67.234375 44.765625 62.859375 
Q 47.609375 58.5 49.21875 52.21875 
Q 50.828125 45.953125 50.828125 35.296875 
Q 50.828125 22.703125 48.234375 14.96875 
Q 45.65625 7.234375 40.5 3 
Q 35.359375 -1.21875 27.484375 -1.21875 
Q 17.140625 -1.21875 11.234375 6.203125 
Q 4.15625 15.140625 4.15625 35.296875 
z
M 13.1875 35.296875 
Q 13.1875 17.671875 17.3125 11.828125 
Q 21.4375 6 27.484375 6 
Q 33.546875 6 37.671875 11.859375 
Q 41.796875 17.71875 41.796875 35.296875 
Q 41.796875 52.984375 37.671875 58.78125 
Q 33.546875 64.59375 27.390625 64.59375 
Q 21.34375 64.59375 17.71875 59.46875 
Q 13.1875 52.9375 13.1875 35.296875 
z
" id="ArialMT-48"/>
       </defs>
       <use xlink:href="#ArialMT-49"/>
       <use x="55.615234" xlink:href="#ArialMT-51"/>
       <use x="111.230469" xlink:href="#ArialMT-48"/>
       <use x="166.845703" xlink:href="#ArialMT-48"/>
      </g>
     </g>
    </g>
    <g id="xtick_2">
     <g id="text_2">
      <!-- 1350 -->
      <g style="fill:#262626;" transform="translate(95.835168 458.373594)scale(0.11 -0.11)">
       <defs>
        <path d="M 4.15625 18.75 
L 13.375 19.53125 
Q 14.40625 12.796875 18.140625 9.390625 
Q 21.875 6 27.15625 6 
Q 33.5 6 37.890625 10.78125 
Q 42.28125 15.578125 42.28125 23.484375 
Q 42.28125 31 38.0625 35.34375 
Q 33.84375 39.703125 27 39.703125 
Q 22.75 39.703125 19.328125 37.765625 
Q 15.921875 35.84375 13.96875 32.765625 
L 5.71875 33.84375 
L 12.640625 70.609375 
L 48.25 70.609375 
L 48.25 62.203125 
L 19.671875 62.203125 
L 15.828125 42.96875 
Q 22.265625 47.46875 29.34375 47.46875 
Q 38.71875 47.46875 45.15625 40.96875 
Q 51.609375 34.46875 51.609375 24.265625 
Q 51.609375 14.546875 45.953125 7.46875 
Q 39.0625 -1.21875 27.15625 -1.21875 
Q 17.390625 -1.21875 11.203125 4.25 
Q 5.03125 9.71875 4.15625 18.75 
z
" id="ArialMT-53"/>
       </defs>
       <use xlink:href="#ArialMT-49"/>
       <use x="55.615234" xlink:href="#ArialMT-51"/>
       <use x="111.230469" xlink:href="#ArialMT-53"/>
       <use x="166.845703" xlink:href="#ArialMT-48"/>
      </g>
     </g>
    </g>
    <g id="xtick_3">
     <g id="text_3">
      <!-- 1400 -->
      <g style="fill:#262626;" transform="translate(125.881322 458.373594)scale(0.11 -0.11)">
       <defs>
        <path d="M 32.328125 0 
L 32.328125 17.140625 
L 1.265625 17.140625 
L 1.265625 25.203125 
L 33.9375 71.578125 
L 41.109375 71.578125 
L 41.109375 25.203125 
L 50.78125 25.203125 
L 50.78125 17.140625 
L 41.109375 17.140625 
L 41.109375 0 
z
M 32.328125 25.203125 
L 32.328125 57.46875 
L 9.90625 25.203125 
z
" id="ArialMT-52"/>
       </defs>
       <use xlink:href="#ArialMT-49"/>
       <use x="55.615234" xlink:href="#ArialMT-52"/>
       <use x="111.230469" xlink:href="#ArialMT-48"/>
       <use x="166.845703" xlink:href="#ArialMT-48"/>
      </g>
     </g>
    </g>
    <g id="xtick_4">
     <g id="text_4">
      <!-- 1450 -->
      <g style="fill:#262626;" transform="translate(155.927476 458.373594)scale(0.11 -0.11)">
       <use xlink:href="#ArialMT-49"/>
       <use x="55.615234" xlink:href="#ArialMT-52"/>
       <use x="111.230469" xlink:href="#ArialMT-53"/>
       <use x="166.845703" xlink:href="#ArialMT-48"/>
      </g>
     </g>
    </g>
    <g id="xtick_5">
     <g id="text_5">
      <!-- 1500 -->
      <g style="fill:#262626;" transform="translate(185.97363 458.373594)scale(0.11 -0.11)">
       <use xlink:href="#ArialMT-49"/>
       <use x="55.615234" xlink:href="#ArialMT-53"/>
       <use x="111.230469" xlink:href="#ArialMT-48"/>
       <use x="166.845703" xlink:href="#ArialMT-48"/>
      </g>
     </g>
    </g>
    <g id="xtick_6">
     <g id="text_6">
      <!-- 1550 -->
      <g style="fill:#262626;" transform="translate(216.019784 458.373594)scale(0.11 -0.11)">
       <use xlink:href="#ArialMT-49"/>
       <use x="55.615234" xlink:href="#ArialMT-53"/>
       <use x="111.230469" xlink:href="#ArialMT-53"/>
       <use x="166.845703" xlink:href="#ArialMT-48"/>
      </g>
     </g>
    </g>
    <g id="xtick_7">
     <g id="text_7">
      <!-- 1600 -->
      <g style="fill:#262626;" transform="translate(246.065938 458.373594)scale(0.11 -0.11)">
       <defs>
        <path d="M 49.75 54.046875 
L 41.015625 53.375 
Q 39.84375 58.546875 37.703125 60.890625 
Q 34.125 64.65625 28.90625 64.65625 
Q 24.703125 64.65625 21.53125 62.3125 
Q 17.390625 59.28125 14.984375 53.46875 
Q 12.59375 47.65625 12.5 36.921875 
Q 15.671875 41.75 20.265625 44.09375 
Q 24.859375 46.4375 29.890625 46.4375 
Q 38.671875 46.4375 44.84375 39.96875 
Q 51.03125 33.5 51.03125 23.25 
Q 51.03125 16.5 48.125 10.71875 
Q 45.21875 4.9375 40.140625 1.859375 
Q 35.0625 -1.21875 28.609375 -1.21875 
Q 17.625 -1.21875 10.6875 6.859375 
Q 3.765625 14.9375 3.765625 33.5 
Q 3.765625 54.25 11.421875 63.671875 
Q 18.109375 71.875 29.4375 71.875 
Q 37.890625 71.875 43.28125 67.140625 
Q 48.6875 62.40625 49.75 54.046875 
z
M 13.875 23.1875 
Q 13.875 18.65625 15.796875 14.5 
Q 17.71875 10.359375 21.1875 8.171875 
Q 24.65625 6 28.46875 6 
Q 34.03125 6 38.03125 10.484375 
Q 42.046875 14.984375 42.046875 22.703125 
Q 42.046875 30.125 38.078125 34.390625 
Q 34.125 38.671875 28.125 38.671875 
Q 22.171875 38.671875 18.015625 34.390625 
Q 13.875 30.125 13.875 23.1875 
z
" id="ArialMT-54"/>
       </defs>
       <use xlink:href="#ArialMT-49"/>
       <use x="55.615234" xlink:href="#ArialMT-54"/>
       <use x="111.230469" xlink:href="#ArialMT-48"/>
       <use x="166.845703" xlink:href="#ArialMT-48"/>
      </g>
     </g>
    </g>
    <g id="xtick_8">
     <g id="text_8">
      <!-- 1650 -->
      <g style="fill:#262626;" transform="translate(276.112091 458.373594)scale(0.11 -0.11)">
       <use xlink:href="#ArialMT-49"/>
       <use x="55.615234" xlink:href="#ArialMT-54"/>
       <use x="111.230469" xlink:href="#ArialMT-53"/>
       <use x="166.845703" xlink:href="#ArialMT-48"/>
      </g>
     </g>
    </g>
    <g id="xtick_9">
     <g id="text_9">
      <!-- 1700 -->
      <g style="fill:#262626;" transform="translate(306.158245 458.373594)scale(0.11 -0.11)">
       <defs>
        <path d="M 4.734375 62.203125 
L 4.734375 70.65625 
L 51.078125 70.65625 
L 51.078125 63.8125 
Q 44.234375 56.546875 37.515625 44.484375 
Q 30.8125 32.421875 27.15625 19.671875 
Q 24.515625 10.6875 23.78125 0 
L 14.75 0 
Q 14.890625 8.453125 18.0625 20.40625 
Q 21.234375 32.375 27.171875 43.484375 
Q 33.109375 54.59375 39.796875 62.203125 
z
" id="ArialMT-55"/>
       </defs>
       <use xlink:href="#ArialMT-49"/>
       <use x="55.615234" xlink:href="#ArialMT-55"/>
       <use x="111.230469" xlink:href="#ArialMT-48"/>
       <use x="166.845703" xlink:href="#ArialMT-48"/>
      </g>
     </g>
    </g>
    <g id="xtick_10">
     <g id="text_10">
      <!-- 1750 -->
      <g style="fill:#262626;" transform="translate(336.204399 458.373594)scale(0.11 -0.11)">
       <use xlink:href="#ArialMT-49"/>
       <use x="55.615234" xlink:href="#ArialMT-55"/>
       <use x="111.230469" xlink:href="#ArialMT-53"/>
       <use x="166.845703" xlink:href="#ArialMT-48"/>
      </g>
     </g>
    </g>
    <g id="xtick_11">
     <g id="text_11">
      <!-- 1800 -->
      <g style="fill:#262626;" transform="translate(366.250553 458.373594)scale(0.11 -0.11)">
       <defs>
        <path d="M 17.671875 38.8125 
Q 12.203125 40.828125 9.5625 44.53125 
Q 6.9375 48.25 6.9375 53.421875 
Q 6.9375 61.234375 12.546875 66.546875 
Q 18.171875 71.875 27.484375 71.875 
Q 36.859375 71.875 42.578125 66.421875 
Q 48.296875 60.984375 48.296875 53.171875 
Q 48.296875 48.1875 45.671875 44.5 
Q 43.0625 40.828125 37.75 38.8125 
Q 44.34375 36.671875 47.78125 31.875 
Q 51.21875 27.09375 51.21875 20.453125 
Q 51.21875 11.28125 44.71875 5.03125 
Q 38.234375 -1.21875 27.640625 -1.21875 
Q 17.046875 -1.21875 10.546875 5.046875 
Q 4.046875 11.328125 4.046875 20.703125 
Q 4.046875 27.6875 7.59375 32.390625 
Q 11.140625 37.109375 17.671875 38.8125 
z
M 15.921875 53.71875 
Q 15.921875 48.640625 19.1875 45.40625 
Q 22.46875 42.1875 27.6875 42.1875 
Q 32.765625 42.1875 36.015625 45.375 
Q 39.265625 48.578125 39.265625 53.21875 
Q 39.265625 58.0625 35.90625 61.359375 
Q 32.5625 64.65625 27.59375 64.65625 
Q 22.5625 64.65625 19.234375 61.421875 
Q 15.921875 58.203125 15.921875 53.71875 
z
M 13.09375 20.65625 
Q 13.09375 16.890625 14.875 13.375 
Q 16.65625 9.859375 20.171875 7.921875 
Q 23.6875 6 27.734375 6 
Q 34.03125 6 38.125 10.046875 
Q 42.234375 14.109375 42.234375 20.359375 
Q 42.234375 26.703125 38.015625 30.859375 
Q 33.796875 35.015625 27.4375 35.015625 
Q 21.234375 35.015625 17.15625 30.90625 
Q 13.09375 26.8125 13.09375 20.65625 
z
" id="ArialMT-56"/>
       </defs>
       <use xlink:href="#ArialMT-49"/>
       <use x="55.615234" xlink:href="#ArialMT-56"/>
       <use x="111.230469" xlink:href="#ArialMT-48"/>
       <use x="166.845703" xlink:href="#ArialMT-48"/>
      </g>
     </g>
    </g>
    <g id="xtick_12">
     <g id="text_12">
      <!-- 1850 -->
      <g style="fill:#262626;" transform="translate(396.296707 458.373594)scale(0.11 -0.11)">
       <use xlink:href="#ArialMT-49"/>
       <use x="55.615234" xlink:href="#ArialMT-56"/>
       <use x="111.230469" xlink:href="#ArialMT-53"/>
       <use x="166.845703" xlink:href="#ArialMT-48"/>
      </g>
     </g>
    </g>
    <g id="xtick_13">
     <g id="text_13">
      <!-- 1900 -->
      <g style="fill:#262626;" transform="translate(426.342861 458.373594)scale(0.11 -0.11)">
       <defs>
        <path d="M 5.46875 16.546875 
L 13.921875 17.328125 
Q 14.984375 11.375 18.015625 8.6875 
Q 21.046875 6 25.78125 6 
Q 29.828125 6 32.875 7.859375 
Q 35.9375 9.71875 37.890625 12.8125 
Q 39.84375 15.921875 41.15625 21.1875 
Q 42.484375 26.46875 42.484375 31.9375 
Q 42.484375 32.515625 42.4375 33.6875 
Q 39.796875 29.5 35.234375 26.875 
Q 30.671875 24.265625 25.34375 24.265625 
Q 16.453125 24.265625 10.296875 30.703125 
Q 4.15625 37.15625 4.15625 47.703125 
Q 4.15625 58.59375 10.578125 65.234375 
Q 17 71.875 26.65625 71.875 
Q 33.640625 71.875 39.421875 68.109375 
Q 45.21875 64.359375 48.21875 57.390625 
Q 51.21875 50.4375 51.21875 37.25 
Q 51.21875 23.53125 48.234375 15.40625 
Q 45.265625 7.28125 39.375 3.03125 
Q 33.5 -1.21875 25.59375 -1.21875 
Q 17.1875 -1.21875 11.859375 3.4375 
Q 6.546875 8.109375 5.46875 16.546875 
z
M 41.453125 48.140625 
Q 41.453125 55.71875 37.421875 60.15625 
Q 33.40625 64.59375 27.734375 64.59375 
Q 21.875 64.59375 17.53125 59.8125 
Q 13.1875 55.03125 13.1875 47.40625 
Q 13.1875 40.578125 17.3125 36.296875 
Q 21.4375 32.03125 27.484375 32.03125 
Q 33.59375 32.03125 37.515625 36.296875 
Q 41.453125 40.578125 41.453125 48.140625 
z
" id="ArialMT-57"/>
       </defs>
       <use xlink:href="#ArialMT-49"/>
       <use x="55.615234" xlink:href="#ArialMT-57"/>
       <use x="111.230469" xlink:href="#ArialMT-48"/>
       <use x="166.845703" xlink:href="#ArialMT-48"/>
      </g>
     </g>
    </g>
    <g id="text_14">
     <!-- predicted -->
     <g style="fill:#262626;" transform="translate(233.619375 473.149219)scale(0.12 -0.12)">
      <defs>
       <path d="M 6.59375 -19.875 
L 6.59375 51.859375 
L 14.59375 51.859375 
L 14.59375 45.125 
Q 17.4375 49.078125 21 51.046875 
Q 24.5625 53.03125 29.640625 53.03125 
Q 36.28125 53.03125 41.359375 49.609375 
Q 46.4375 46.1875 49.015625 39.953125 
Q 51.609375 33.734375 51.609375 26.3125 
Q 51.609375 18.359375 48.75 11.984375 
Q 45.90625 5.609375 40.453125 2.21875 
Q 35.015625 -1.171875 29 -1.171875 
Q 24.609375 -1.171875 21.109375 0.6875 
Q 17.625 2.546875 15.375 5.375 
L 15.375 -19.875 
z
M 14.546875 25.640625 
Q 14.546875 15.625 18.59375 10.84375 
Q 22.65625 6.0625 28.421875 6.0625 
Q 34.28125 6.0625 38.453125 11.015625 
Q 42.625 15.96875 42.625 26.375 
Q 42.625 36.28125 38.546875 41.203125 
Q 34.46875 46.140625 28.8125 46.140625 
Q 23.1875 46.140625 18.859375 40.890625 
Q 14.546875 35.640625 14.546875 25.640625 
z
" id="ArialMT-112"/>
       <path d="M 6.5 0 
L 6.5 51.859375 
L 14.40625 51.859375 
L 14.40625 44 
Q 17.4375 49.515625 20 51.265625 
Q 22.5625 53.03125 25.640625 53.03125 
Q 30.078125 53.03125 34.671875 50.203125 
L 31.640625 42.046875 
Q 28.421875 43.953125 25.203125 43.953125 
Q 22.3125 43.953125 20.015625 42.21875 
Q 17.71875 40.484375 16.75 37.40625 
Q 15.28125 32.71875 15.28125 27.15625 
L 15.28125 0 
z
" id="ArialMT-114"/>
       <path d="M 42.09375 16.703125 
L 51.171875 15.578125 
Q 49.03125 7.625 43.21875 3.21875 
Q 37.40625 -1.171875 28.375 -1.171875 
Q 17 -1.171875 10.328125 5.828125 
Q 3.65625 12.84375 3.65625 25.484375 
Q 3.65625 38.578125 10.390625 45.796875 
Q 17.140625 53.03125 27.875 53.03125 
Q 38.28125 53.03125 44.875 45.953125 
Q 51.46875 38.875 51.46875 26.03125 
Q 51.46875 25.25 51.421875 23.6875 
L 12.75 23.6875 
Q 13.234375 15.140625 17.578125 10.59375 
Q 21.921875 6.0625 28.421875 6.0625 
Q 33.25 6.0625 36.671875 8.59375 
Q 40.09375 11.140625 42.09375 16.703125 
z
M 13.234375 30.90625 
L 42.1875 30.90625 
Q 41.609375 37.453125 38.875 40.71875 
Q 34.671875 45.796875 27.984375 45.796875 
Q 21.921875 45.796875 17.796875 41.75 
Q 13.671875 37.703125 13.234375 30.90625 
z
" id="ArialMT-101"/>
       <path d="M 40.234375 0 
L 40.234375 6.546875 
Q 35.296875 -1.171875 25.734375 -1.171875 
Q 19.53125 -1.171875 14.328125 2.25 
Q 9.125 5.671875 6.265625 11.796875 
Q 3.421875 17.921875 3.421875 25.875 
Q 3.421875 33.640625 6 39.96875 
Q 8.59375 46.296875 13.765625 49.65625 
Q 18.953125 53.03125 25.34375 53.03125 
Q 30.03125 53.03125 33.6875 51.046875 
Q 37.359375 49.078125 39.65625 45.90625 
L 39.65625 71.578125 
L 48.390625 71.578125 
L 48.390625 0 
z
M 12.453125 25.875 
Q 12.453125 15.921875 16.640625 10.984375 
Q 20.84375 6.0625 26.5625 6.0625 
Q 32.328125 6.0625 36.34375 10.765625 
Q 40.375 15.484375 40.375 25.140625 
Q 40.375 35.796875 36.265625 40.765625 
Q 32.171875 45.75 26.171875 45.75 
Q 20.3125 45.75 16.375 40.96875 
Q 12.453125 36.1875 12.453125 25.875 
z
" id="ArialMT-100"/>
       <path d="M 6.640625 61.46875 
L 6.640625 71.578125 
L 15.4375 71.578125 
L 15.4375 61.46875 
z
M 6.640625 0 
L 6.640625 51.859375 
L 15.4375 51.859375 
L 15.4375 0 
z
" id="ArialMT-105"/>
       <path d="M 40.4375 19 
L 49.078125 17.875 
Q 47.65625 8.9375 41.8125 3.875 
Q 35.984375 -1.171875 27.484375 -1.171875 
Q 16.84375 -1.171875 10.375 5.78125 
Q 3.90625 12.75 3.90625 25.734375 
Q 3.90625 34.125 6.6875 40.421875 
Q 9.46875 46.734375 15.15625 49.875 
Q 20.84375 53.03125 27.546875 53.03125 
Q 35.984375 53.03125 41.359375 48.75 
Q 46.734375 44.484375 48.25 36.625 
L 39.703125 35.296875 
Q 38.484375 40.53125 35.375 43.15625 
Q 32.28125 45.796875 27.875 45.796875 
Q 21.234375 45.796875 17.078125 41.03125 
Q 12.9375 36.28125 12.9375 25.984375 
Q 12.9375 15.53125 16.9375 10.796875 
Q 20.953125 6.0625 27.390625 6.0625 
Q 32.5625 6.0625 36.03125 9.234375 
Q 39.5 12.40625 40.4375 19 
z
" id="ArialMT-99"/>
       <path d="M 25.78125 7.859375 
L 27.046875 0.09375 
Q 23.34375 -0.6875 20.40625 -0.6875 
Q 15.625 -0.6875 12.984375 0.828125 
Q 10.359375 2.34375 9.28125 4.8125 
Q 8.203125 7.28125 8.203125 15.1875 
L 8.203125 45.015625 
L 1.765625 45.015625 
L 1.765625 51.859375 
L 8.203125 51.859375 
L 8.203125 64.703125 
L 16.9375 69.96875 
L 16.9375 51.859375 
L 25.78125 51.859375 
L 25.78125 45.015625 
L 16.9375 45.015625 
L 16.9375 14.703125 
Q 16.9375 10.9375 17.40625 9.859375 
Q 17.875 8.796875 18.921875 8.15625 
Q 19.96875 7.515625 21.921875 7.515625 
Q 23.390625 7.515625 25.78125 7.859375 
z
" id="ArialMT-116"/>
      </defs>
      <use xlink:href="#ArialMT-112"/>
      <use x="55.615234" xlink:href="#ArialMT-114"/>
      <use x="88.916016" xlink:href="#ArialMT-101"/>
      <use x="144.53125" xlink:href="#ArialMT-100"/>
      <use x="200.146484" xlink:href="#ArialMT-105"/>
      <use x="222.363281" xlink:href="#ArialMT-99"/>
      <use x="272.363281" xlink:href="#ArialMT-116"/>
      <use x="300.146484" xlink:href="#ArialMT-101"/>
      <use x="355.761719" xlink:href="#ArialMT-100"/>
     </g>
    </g>
   </g>
   <g id="matplotlib.axis_2">
    <g id="ytick_1">
     <g id="text_15">
      <!-- 1300 -->
      <g style="fill:#262626;" transform="translate(51.31375 95.646713)rotate(-90)scale(0.11 -0.11)">
       <use xlink:href="#ArialMT-49"/>
       <use x="55.615234" xlink:href="#ArialMT-51"/>
       <use x="111.230469" xlink:href="#ArialMT-48"/>
       <use x="166.845703" xlink:href="#ArialMT-48"/>
      </g>
     </g>
    </g>
    <g id="ytick_2">
     <g id="text_16">
      <!-- 1350 -->
      <g style="fill:#262626;" transform="translate(51.31375 124.917482)rotate(-90)scale(0.11 -0.11)">
       <use xlink:href="#ArialMT-49"/>
       <use x="55.615234" xlink:href="#ArialMT-51"/>
       <use x="111.230469" xlink:href="#ArialMT-53"/>
       <use x="166.845703" xlink:href="#ArialMT-48"/>
      </g>
     </g>
    </g>
    <g id="ytick_3">
     <g id="text_17">
      <!-- 1400 -->
      <g style="fill:#262626;" transform="translate(51.31375 154.188251)rotate(-90)scale(0.11 -0.11)">
       <use xlink:href="#ArialMT-49"/>
       <use x="55.615234" xlink:href="#ArialMT-52"/>
       <use x="111.230469" xlink:href="#ArialMT-48"/>
       <use x="166.845703" xlink:href="#ArialMT-48"/>
      </g>
     </g>
    </g>
    <g id="ytick_4">
     <g id="text_18">
      <!-- 1450 -->
      <g style="fill:#262626;" transform="translate(51.31375 183.45902)rotate(-90)scale(0.11 -0.11)">
       <use xlink:href="#ArialMT-49"/>
       <use x="55.615234" xlink:href="#ArialMT-52"/>
       <use x="111.230469" xlink:href="#ArialMT-53"/>
       <use x="166.845703" xlink:href="#ArialMT-48"/>
      </g>
     </g>
    </g>
    <g id="ytick_5">
     <g id="text_19">
      <!-- 1500 -->
      <g style="fill:#262626;" transform="translate(51.31375 212.72979)rotate(-90)scale(0.11 -0.11)">
       <use xlink:href="#ArialMT-49"/>
       <use x="55.615234" xlink:href="#ArialMT-53"/>
       <use x="111.230469" xlink:href="#ArialMT-48"/>
       <use x="166.845703" xlink:href="#ArialMT-48"/>
      </g>
     </g>
    </g>
    <g id="ytick_6">
     <g id="text_20">
      <!-- 1550 -->
      <g style="fill:#262626;" transform="translate(51.31375 242.000559)rotate(-90)scale(0.11 -0.11)">
       <use xlink:href="#ArialMT-49"/>
       <use x="55.615234" xlink:href="#ArialMT-53"/>
       <use x="111.230469" xlink:href="#ArialMT-53"/>
       <use x="166.845703" xlink:href="#ArialMT-48"/>
      </g>
     </g>
    </g>
    <g id="ytick_7">
     <g id="text_21">
      <!-- 1600 -->
      <g style="fill:#262626;" transform="translate(51.31375 271.271328)rotate(-90)scale(0.11 -0.11)">
       <use xlink:href="#ArialMT-49"/>
       <use x="55.615234" xlink:href="#ArialMT-54"/>
       <use x="111.230469" xlink:href="#ArialMT-48"/>
       <use x="166.845703" xlink:href="#ArialMT-48"/>
      </g>
     </g>
    </g>
    <g id="ytick_8">
     <g id="text_22">
      <!-- 1650 -->
      <g style="fill:#262626;" transform="translate(51.31375 300.542097)rotate(-90)scale(0.11 -0.11)">
       <use xlink:href="#ArialMT-49"/>
       <use x="55.615234" xlink:href="#ArialMT-54"/>
       <use x="111.230469" xlink:href="#ArialMT-53"/>
       <use x="166.845703" xlink:href="#ArialMT-48"/>
      </g>
     </g>
    </g>
    <g id="ytick_9">
     <g id="text_23">
      <!-- 1700 -->
      <g style="fill:#262626;" transform="translate(51.31375 329.812867)rotate(-90)scale(0.11 -0.11)">
       <use xlink:href="#ArialMT-49"/>
       <use x="55.615234" xlink:href="#ArialMT-55"/>
       <use x="111.230469" xlink:href="#ArialMT-48"/>
       <use x="166.845703" xlink:href="#ArialMT-48"/>
      </g>
     </g>
    </g>
    <g id="ytick_10">
     <g id="text_24">
      <!-- 1750 -->
      <g style="fill:#262626;" transform="translate(51.31375 359.083636)rotate(-90)scale(0.11 -0.11)">
       <use xlink:href="#ArialMT-49"/>
       <use x="55.615234" xlink:href="#ArialMT-55"/>
       <use x="111.230469" xlink:href="#ArialMT-53"/>
       <use x="166.845703" xlink:href="#ArialMT-48"/>
      </g>
     </g>
    </g>
    <g id="ytick_11">
     <g id="text_25">
      <!-- 1800 -->
      <g style="fill:#262626;" transform="translate(51.31375 388.354405)rotate(-90)scale(0.11 -0.11)">
       <use xlink:href="#ArialMT-49"/>
       <use x="55.615234" xlink:href="#ArialMT-56"/>
       <use x="111.230469" xlink:href="#ArialMT-48"/>
       <use x="166.845703" xlink:href="#ArialMT-48"/>
      </g>
     </g>
    </g>
    <g id="ytick_12">
     <g id="text_26">
      <!-- 1850 -->
      <g style="fill:#262626;" transform="translate(51.31375 417.625174)rotate(-90)scale(0.11 -0.11)">
       <use xlink:href="#ArialMT-49"/>
       <use x="55.615234" xlink:href="#ArialMT-56"/>
       <use x="111.230469" xlink:href="#ArialMT-53"/>
       <use x="166.845703" xlink:href="#ArialMT-48"/>
      </g>
     </g>
    </g>
    <g id="ytick_13">
     <g id="text_27">
      <!-- 1900 -->
      <g style="fill:#262626;" transform="translate(51.31375 446.895944)rotate(-90)scale(0.11 -0.11)">
       <use xlink:href="#ArialMT-49"/>
       <use x="55.615234" xlink:href="#ArialMT-57"/>
       <use x="111.230469" xlink:href="#ArialMT-48"/>
       <use x="166.845703" xlink:href="#ArialMT-48"/>
      </g>
     </g>
    </g>
    <g id="text_28">
     <!-- true -->
     <g style="fill:#262626;" transform="translate(37.055156 261.077813)rotate(-90)scale(0.12 -0.12)">
      <defs>
       <path d="M 40.578125 0 
L 40.578125 7.625 
Q 34.515625 -1.171875 24.125 -1.171875 
Q 19.53125 -1.171875 15.546875 0.578125 
Q 11.578125 2.34375 9.640625 5 
Q 7.71875 7.671875 6.9375 11.53125 
Q 6.390625 14.109375 6.390625 19.734375 
L 6.390625 51.859375 
L 15.1875 51.859375 
L 15.1875 23.09375 
Q 15.1875 16.21875 15.71875 13.8125 
Q 16.546875 10.359375 19.234375 8.375 
Q 21.921875 6.390625 25.875 6.390625 
Q 29.828125 6.390625 33.296875 8.421875 
Q 36.765625 10.453125 38.203125 13.9375 
Q 39.65625 17.4375 39.65625 24.078125 
L 39.65625 51.859375 
L 48.4375 51.859375 
L 48.4375 0 
z
" id="ArialMT-117"/>
      </defs>
      <use xlink:href="#ArialMT-116"/>
      <use x="27.783203" xlink:href="#ArialMT-114"/>
      <use x="61.083984" xlink:href="#ArialMT-117"/>
      <use x="116.699219" xlink:href="#ArialMT-101"/>
     </g>
    </g>
   </g>
   <g id="QuadMesh_1">
    <path clip-path="url(#pc62311121c)" d="M 63 60.48 
L 93.046154 60.48 
L 93.046154 89.750769 
L 63 89.750769 
L 63 60.48 
" style="fill:#ad1759;"/>
    <path clip-path="url(#pc62311121c)" d="M 93.046154 60.48 
L 123.092308 60.48 
L 123.092308 89.750769 
L 93.046154 89.750769 
L 93.046154 60.48 
" style="fill:#1e122d;"/>
    <path clip-path="url(#pc62311121c)" d="M 123.092308 60.48 
L 153.138462 60.48 
L 153.138462 89.750769 
L 123.092308 89.750769 
L 123.092308 60.48 
" style="fill:#140e26;"/>
    <path clip-path="url(#pc62311121c)" d="M 153.138462 60.48 
L 183.184615 60.48 
L 183.184615 89.750769 
L 153.138462 89.750769 
L 153.138462 60.48 
" style="fill:#0d0a21;"/>
    <path clip-path="url(#pc62311121c)" d="M 183.184615 60.48 
L 213.230769 60.48 
L 213.230769 89.750769 
L 183.184615 89.750769 
L 183.184615 60.48 
" style="fill:#100b23;"/>
    <path clip-path="url(#pc62311121c)" d="M 213.230769 60.48 
L 243.276923 60.48 
L 243.276923 89.750769 
L 213.230769 89.750769 
L 213.230769 60.48 
" style="fill:#0a091f;"/>
    <path clip-path="url(#pc62311121c)" d="M 243.276923 60.48 
L 273.323077 60.48 
L 273.323077 89.750769 
L 243.276923 89.750769 
L 243.276923 60.48 
" style="fill:#05061b;"/>
    <path clip-path="url(#pc62311121c)" d="M 273.323077 60.48 
L 303.369231 60.48 
L 303.369231 89.750769 
L 273.323077 89.750769 
L 273.323077 60.48 
" style="fill:#04051a;"/>
    <path clip-path="url(#pc62311121c)" d="M 303.369231 60.48 
L 333.415385 60.48 
L 333.415385 89.750769 
L 303.369231 89.750769 
L 303.369231 60.48 
" style="fill:#03051a;"/>
    <path clip-path="url(#pc62311121c)" d="M 333.415385 60.48 
L 363.461538 60.48 
L 363.461538 89.750769 
L 333.415385 89.750769 
L 333.415385 60.48 
" style="fill:#06071c;"/>
    <path clip-path="url(#pc62311121c)" d="M 363.461538 60.48 
L 393.507692 60.48 
L 393.507692 89.750769 
L 363.461538 89.750769 
L 363.461538 60.48 
" style="fill:#0a091f;"/>
    <path clip-path="url(#pc62311121c)" d="M 393.507692 60.48 
L 423.553846 60.48 
L 423.553846 89.750769 
L 393.507692 89.750769 
L 393.507692 60.48 
" style="fill:#03051a;"/>
    <path clip-path="url(#pc62311121c)" d="M 423.553846 60.48 
L 453.6 60.48 
L 453.6 89.750769 
L 423.553846 89.750769 
L 423.553846 60.48 
" style="fill:#05061b;"/>
    <path clip-path="url(#pc62311121c)" d="M 63 89.750769 
L 93.046154 89.750769 
L 93.046154 119.021538 
L 63 119.021538 
L 63 89.750769 
" style="fill:#7a1f59;"/>
    <path clip-path="url(#pc62311121c)" d="M 93.046154 89.750769 
L 123.092308 89.750769 
L 123.092308 119.021538 
L 93.046154 119.021538 
L 93.046154 89.750769 
" style="fill:#ea443e;"/>
    <path clip-path="url(#pc62311121c)" d="M 123.092308 89.750769 
L 153.138462 89.750769 
L 153.138462 119.021538 
L 123.092308 119.021538 
L 123.092308 89.750769 
" style="fill:#811e5a;"/>
    <path clip-path="url(#pc62311121c)" d="M 153.138462 89.750769 
L 183.184615 89.750769 
L 183.184615 119.021538 
L 153.138462 119.021538 
L 153.138462 89.750769 
" style="fill:#401b44;"/>
    <path clip-path="url(#pc62311121c)" d="M 183.184615 89.750769 
L 213.230769 89.750769 
L 213.230769 119.021538 
L 183.184615 119.021538 
L 183.184615 89.750769 
" style="fill:#31183b;"/>
    <path clip-path="url(#pc62311121c)" d="M 213.230769 89.750769 
L 243.276923 89.750769 
L 243.276923 119.021538 
L 213.230769 119.021538 
L 213.230769 89.750769 
" style="fill:#1a102a;"/>
    <path clip-path="url(#pc62311121c)" d="M 243.276923 89.750769 
L 273.323077 89.750769 
L 273.323077 119.021538 
L 243.276923 119.021538 
L 243.276923 89.750769 
" style="fill:#100b23;"/>
    <path clip-path="url(#pc62311121c)" d="M 273.323077 89.750769 
L 303.369231 89.750769 
L 303.369231 119.021538 
L 273.323077 119.021538 
L 273.323077 89.750769 
" style="fill:#05061b;"/>
    <path clip-path="url(#pc62311121c)" d="M 303.369231 89.750769 
L 333.415385 89.750769 
L 333.415385 119.021538 
L 303.369231 119.021538 
L 303.369231 89.750769 
" style="fill:#0a091f;"/>
    <path clip-path="url(#pc62311121c)" d="M 333.415385 89.750769 
L 363.461538 89.750769 
L 363.461538 119.021538 
L 333.415385 119.021538 
L 333.415385 89.750769 
" style="fill:#0a091f;"/>
    <path clip-path="url(#pc62311121c)" d="M 363.461538 89.750769 
L 393.507692 89.750769 
L 393.507692 119.021538 
L 363.461538 119.021538 
L 363.461538 89.750769 
" style="fill:#0e0b22;"/>
    <path clip-path="url(#pc62311121c)" d="M 393.507692 89.750769 
L 423.553846 89.750769 
L 423.553846 119.021538 
L 393.507692 119.021538 
L 393.507692 89.750769 
" style="fill:#0e0b22;"/>
    <path clip-path="url(#pc62311121c)" d="M 423.553846 89.750769 
L 453.6 89.750769 
L 453.6 119.021538 
L 423.553846 119.021538 
L 423.553846 89.750769 
" style="fill:#100b23;"/>
    <path clip-path="url(#pc62311121c)" d="M 63 119.021538 
L 93.046154 119.021538 
L 93.046154 148.292308 
L 63 148.292308 
L 63 119.021538 
" style="fill:#0a091f;"/>
    <path clip-path="url(#pc62311121c)" d="M 93.046154 119.021538 
L 123.092308 119.021538 
L 123.092308 148.292308 
L 93.046154 148.292308 
L 93.046154 119.021538 
" style="fill:#35193e;"/>
    <path clip-path="url(#pc62311121c)" d="M 123.092308 119.021538 
L 153.138462 119.021538 
L 153.138462 148.292308 
L 123.092308 148.292308 
L 123.092308 119.021538 
" style="fill:#871e5b;"/>
    <path clip-path="url(#pc62311121c)" d="M 153.138462 119.021538 
L 183.184615 119.021538 
L 183.184615 148.292308 
L 153.138462 148.292308 
L 153.138462 119.021538 
" style="fill:#1e122d;"/>
    <path clip-path="url(#pc62311121c)" d="M 183.184615 119.021538 
L 213.230769 119.021538 
L 213.230769 148.292308 
L 183.184615 148.292308 
L 183.184615 119.021538 
" style="fill:#140e26;"/>
    <path clip-path="url(#pc62311121c)" d="M 213.230769 119.021538 
L 243.276923 119.021538 
L 243.276923 148.292308 
L 213.230769 148.292308 
L 213.230769 119.021538 
" style="fill:#130d25;"/>
    <path clip-path="url(#pc62311121c)" d="M 243.276923 119.021538 
L 273.323077 119.021538 
L 273.323077 148.292308 
L 243.276923 148.292308 
L 243.276923 119.021538 
" style="fill:#04051a;"/>
    <path clip-path="url(#pc62311121c)" d="M 273.323077 119.021538 
L 303.369231 119.021538 
L 303.369231 148.292308 
L 273.323077 148.292308 
L 273.323077 119.021538 
" style="fill:#03051a;"/>
    <path clip-path="url(#pc62311121c)" d="M 303.369231 119.021538 
L 333.415385 119.021538 
L 333.415385 148.292308 
L 303.369231 148.292308 
L 303.369231 119.021538 
" style="fill:#03051a;"/>
    <path clip-path="url(#pc62311121c)" d="M 333.415385 119.021538 
L 363.461538 119.021538 
L 363.461538 148.292308 
L 333.415385 148.292308 
L 333.415385 119.021538 
" style="fill:#07071d;"/>
    <path clip-path="url(#pc62311121c)" d="M 363.461538 119.021538 
L 393.507692 119.021538 
L 393.507692 148.292308 
L 363.461538 148.292308 
L 363.461538 119.021538 
" style="fill:#04051a;"/>
    <path clip-path="url(#pc62311121c)" d="M 393.507692 119.021538 
L 423.553846 119.021538 
L 423.553846 148.292308 
L 393.507692 148.292308 
L 393.507692 119.021538 
" style="fill:#07071d;"/>
    <path clip-path="url(#pc62311121c)" d="M 423.553846 119.021538 
L 453.6 119.021538 
L 453.6 148.292308 
L 423.553846 148.292308 
L 423.553846 119.021538 
" style="fill:#05061b;"/>
    <path clip-path="url(#pc62311121c)" d="M 63 148.292308 
L 93.046154 148.292308 
L 93.046154 177.563077 
L 63 177.563077 
L 63 148.292308 
" style="fill:#2d1738;"/>
    <path clip-path="url(#pc62311121c)" d="M 93.046154 148.292308 
L 123.092308 148.292308 
L 123.092308 177.563077 
L 93.046154 177.563077 
L 93.046154 148.292308 
" style="fill:#591e50;"/>
    <path clip-path="url(#pc62311121c)" d="M 123.092308 148.292308 
L 153.138462 148.292308 
L 153.138462 177.563077 
L 123.092308 177.563077 
L 123.092308 148.292308 
" style="fill:#781f59;"/>
    <path clip-path="url(#pc62311121c)" d="M 153.138462 148.292308 
L 183.184615 148.292308 
L 183.184615 177.563077 
L 153.138462 177.563077 
L 153.138462 148.292308 
" style="fill:#931c5b;"/>
    <path clip-path="url(#pc62311121c)" d="M 183.184615 148.292308 
L 213.230769 148.292308 
L 213.230769 177.563077 
L 183.184615 177.563077 
L 183.184615 148.292308 
" style="fill:#5c1e51;"/>
    <path clip-path="url(#pc62311121c)" d="M 213.230769 148.292308 
L 243.276923 148.292308 
L 243.276923 177.563077 
L 213.230769 177.563077 
L 213.230769 148.292308 
" style="fill:#2e1739;"/>
    <path clip-path="url(#pc62311121c)" d="M 243.276923 148.292308 
L 273.323077 148.292308 
L 273.323077 177.563077 
L 243.276923 177.563077 
L 243.276923 148.292308 
" style="fill:#1d112c;"/>
    <path clip-path="url(#pc62311121c)" d="M 273.323077 148.292308 
L 303.369231 148.292308 
L 303.369231 177.563077 
L 273.323077 177.563077 
L 273.323077 148.292308 
" style="fill:#06071c;"/>
    <path clip-path="url(#pc62311121c)" d="M 303.369231 148.292308 
L 333.415385 148.292308 
L 333.415385 177.563077 
L 303.369231 177.563077 
L 303.369231 148.292308 
" style="fill:#0a091f;"/>
    <path clip-path="url(#pc62311121c)" d="M 333.415385 148.292308 
L 363.461538 148.292308 
L 363.461538 177.563077 
L 333.415385 177.563077 
L 333.415385 148.292308 
" style="fill:#0e0b22;"/>
    <path clip-path="url(#pc62311121c)" d="M 363.461538 148.292308 
L 393.507692 148.292308 
L 393.507692 177.563077 
L 363.461538 177.563077 
L 363.461538 148.292308 
" style="fill:#100b23;"/>
    <path clip-path="url(#pc62311121c)" d="M 393.507692 148.292308 
L 423.553846 148.292308 
L 423.553846 177.563077 
L 393.507692 177.563077 
L 393.507692 148.292308 
" style="fill:#0e0b22;"/>
    <path clip-path="url(#pc62311121c)" d="M 423.553846 148.292308 
L 453.6 148.292308 
L 453.6 177.563077 
L 423.553846 177.563077 
L 423.553846 148.292308 
" style="fill:#110c24;"/>
    <path clip-path="url(#pc62311121c)" d="M 63 177.563077 
L 93.046154 177.563077 
L 93.046154 206.833846 
L 63 206.833846 
L 63 177.563077 
" style="fill:#511e4d;"/>
    <path clip-path="url(#pc62311121c)" d="M 93.046154 177.563077 
L 123.092308 177.563077 
L 123.092308 206.833846 
L 93.046154 206.833846 
L 93.046154 177.563077 
" style="fill:#781f59;"/>
    <path clip-path="url(#pc62311121c)" d="M 123.092308 177.563077 
L 153.138462 177.563077 
L 153.138462 206.833846 
L 123.092308 206.833846 
L 123.092308 177.563077 
" style="fill:#811e5a;"/>
    <path clip-path="url(#pc62311121c)" d="M 153.138462 177.563077 
L 183.184615 177.563077 
L 183.184615 206.833846 
L 153.138462 206.833846 
L 153.138462 177.563077 
" style="fill:#981b5b;"/>
    <path clip-path="url(#pc62311121c)" d="M 183.184615 177.563077 
L 213.230769 177.563077 
L 213.230769 206.833846 
L 183.184615 206.833846 
L 183.184615 177.563077 
" style="fill:#f05c42;"/>
    <path clip-path="url(#pc62311121c)" d="M 213.230769 177.563077 
L 243.276923 177.563077 
L 243.276923 206.833846 
L 213.230769 206.833846 
L 213.230769 177.563077 
" style="fill:#6b1f56;"/>
    <path clip-path="url(#pc62311121c)" d="M 243.276923 177.563077 
L 273.323077 177.563077 
L 273.323077 206.833846 
L 243.276923 206.833846 
L 243.276923 177.563077 
" style="fill:#511e4d;"/>
    <path clip-path="url(#pc62311121c)" d="M 273.323077 177.563077 
L 303.369231 177.563077 
L 303.369231 206.833846 
L 273.323077 206.833846 
L 273.323077 177.563077 
" style="fill:#221331;"/>
    <path clip-path="url(#pc62311121c)" d="M 303.369231 177.563077 
L 333.415385 177.563077 
L 333.415385 206.833846 
L 303.369231 206.833846 
L 303.369231 177.563077 
" style="fill:#211330;"/>
    <path clip-path="url(#pc62311121c)" d="M 333.415385 177.563077 
L 363.461538 177.563077 
L 363.461538 206.833846 
L 333.415385 206.833846 
L 333.415385 177.563077 
" style="fill:#221331;"/>
    <path clip-path="url(#pc62311121c)" d="M 363.461538 177.563077 
L 393.507692 177.563077 
L 393.507692 206.833846 
L 363.461538 206.833846 
L 363.461538 177.563077 
" style="fill:#1b112b;"/>
    <path clip-path="url(#pc62311121c)" d="M 393.507692 177.563077 
L 423.553846 177.563077 
L 423.553846 206.833846 
L 393.507692 206.833846 
L 393.507692 177.563077 
" style="fill:#241432;"/>
    <path clip-path="url(#pc62311121c)" d="M 423.553846 177.563077 
L 453.6 177.563077 
L 453.6 206.833846 
L 423.553846 206.833846 
L 423.553846 177.563077 
" style="fill:#2b1637;"/>
    <path clip-path="url(#pc62311121c)" d="M 63 206.833846 
L 93.046154 206.833846 
L 93.046154 236.104615 
L 63 236.104615 
L 63 206.833846 
" style="fill:#b71657;"/>
    <path clip-path="url(#pc62311121c)" d="M 93.046154 206.833846 
L 123.092308 206.833846 
L 123.092308 236.104615 
L 93.046154 236.104615 
L 93.046154 206.833846 
" style="fill:#401b44;"/>
    <path clip-path="url(#pc62311121c)" d="M 123.092308 206.833846 
L 153.138462 206.833846 
L 153.138462 236.104615 
L 123.092308 236.104615 
L 123.092308 206.833846 
" style="fill:#3a1a41;"/>
    <path clip-path="url(#pc62311121c)" d="M 153.138462 206.833846 
L 183.184615 206.833846 
L 183.184615 236.104615 
L 153.138462 236.104615 
L 153.138462 206.833846 
" style="fill:#5e1f52;"/>
    <path clip-path="url(#pc62311121c)" d="M 183.184615 206.833846 
L 213.230769 206.833846 
L 213.230769 236.104615 
L 183.184615 236.104615 
L 183.184615 206.833846 
" style="fill:#9a1b5b;"/>
    <path clip-path="url(#pc62311121c)" d="M 213.230769 206.833846 
L 243.276923 206.833846 
L 243.276923 236.104615 
L 213.230769 236.104615 
L 213.230769 206.833846 
" style="fill:#e23442;"/>
    <path clip-path="url(#pc62311121c)" d="M 243.276923 206.833846 
L 273.323077 206.833846 
L 273.323077 236.104615 
L 243.276923 236.104615 
L 243.276923 206.833846 
" style="fill:#8b1d5b;"/>
    <path clip-path="url(#pc62311121c)" d="M 273.323077 206.833846 
L 303.369231 206.833846 
L 303.369231 236.104615 
L 273.323077 236.104615 
L 273.323077 206.833846 
" style="fill:#381a40;"/>
    <path clip-path="url(#pc62311121c)" d="M 303.369231 206.833846 
L 333.415385 206.833846 
L 333.415385 236.104615 
L 303.369231 236.104615 
L 303.369231 206.833846 
" style="fill:#30173a;"/>
    <path clip-path="url(#pc62311121c)" d="M 333.415385 206.833846 
L 363.461538 206.833846 
L 363.461538 236.104615 
L 333.415385 236.104615 
L 333.415385 206.833846 
" style="fill:#381a40;"/>
    <path clip-path="url(#pc62311121c)" d="M 363.461538 206.833846 
L 393.507692 206.833846 
L 393.507692 236.104615 
L 363.461538 236.104615 
L 363.461538 206.833846 
" style="fill:#33183c;"/>
    <path clip-path="url(#pc62311121c)" d="M 393.507692 206.833846 
L 423.553846 206.833846 
L 423.553846 236.104615 
L 393.507692 236.104615 
L 393.507692 206.833846 
" style="fill:#281535;"/>
    <path clip-path="url(#pc62311121c)" d="M 423.553846 206.833846 
L 453.6 206.833846 
L 453.6 236.104615 
L 423.553846 236.104615 
L 423.553846 206.833846 
" style="fill:#281535;"/>
    <path clip-path="url(#pc62311121c)" d="M 63 236.104615 
L 93.046154 236.104615 
L 93.046154 265.375385 
L 63 265.375385 
L 63 236.104615 
" style="fill:#701f57;"/>
    <path clip-path="url(#pc62311121c)" d="M 93.046154 236.104615 
L 123.092308 236.104615 
L 123.092308 265.375385 
L 93.046154 265.375385 
L 93.046154 236.104615 
" style="fill:#241432;"/>
    <path clip-path="url(#pc62311121c)" d="M 123.092308 236.104615 
L 153.138462 236.104615 
L 153.138462 265.375385 
L 123.092308 265.375385 
L 123.092308 236.104615 
" style="fill:#33183c;"/>
    <path clip-path="url(#pc62311121c)" d="M 153.138462 236.104615 
L 183.184615 236.104615 
L 183.184615 265.375385 
L 153.138462 265.375385 
L 153.138462 236.104615 
" style="fill:#271534;"/>
    <path clip-path="url(#pc62311121c)" d="M 183.184615 236.104615 
L 213.230769 236.104615 
L 213.230769 265.375385 
L 183.184615 265.375385 
L 183.184615 236.104615 
" style="fill:#2a1636;"/>
    <path clip-path="url(#pc62311121c)" d="M 213.230769 236.104615 
L 243.276923 236.104615 
L 243.276923 265.375385 
L 213.230769 265.375385 
L 213.230769 236.104615 
" style="fill:#3d1a42;"/>
    <path clip-path="url(#pc62311121c)" d="M 243.276923 236.104615 
L 273.323077 236.104615 
L 273.323077 265.375385 
L 243.276923 265.375385 
L 243.276923 236.104615 
" style="fill:#c21753;"/>
    <path clip-path="url(#pc62311121c)" d="M 273.323077 236.104615 
L 303.369231 236.104615 
L 303.369231 265.375385 
L 273.323077 265.375385 
L 273.323077 236.104615 
" style="fill:#431c46;"/>
    <path clip-path="url(#pc62311121c)" d="M 303.369231 236.104615 
L 333.415385 236.104615 
L 333.415385 265.375385 
L 303.369231 265.375385 
L 303.369231 236.104615 
" style="fill:#31183b;"/>
    <path clip-path="url(#pc62311121c)" d="M 333.415385 236.104615 
L 363.461538 236.104615 
L 363.461538 265.375385 
L 333.415385 265.375385 
L 333.415385 236.104615 
" style="fill:#33183c;"/>
    <path clip-path="url(#pc62311121c)" d="M 363.461538 236.104615 
L 393.507692 236.104615 
L 393.507692 265.375385 
L 363.461538 265.375385 
L 363.461538 236.104615 
" style="fill:#241432;"/>
    <path clip-path="url(#pc62311121c)" d="M 393.507692 236.104615 
L 423.553846 236.104615 
L 423.553846 265.375385 
L 393.507692 265.375385 
L 393.507692 236.104615 
" style="fill:#211330;"/>
    <path clip-path="url(#pc62311121c)" d="M 423.553846 236.104615 
L 453.6 236.104615 
L 453.6 265.375385 
L 423.553846 265.375385 
L 423.553846 236.104615 
" style="fill:#1a102a;"/>
    <path clip-path="url(#pc62311121c)" d="M 63 265.375385 
L 93.046154 265.375385 
L 93.046154 294.646154 
L 63 294.646154 
L 63 265.375385 
" style="fill:#35193e;"/>
    <path clip-path="url(#pc62311121c)" d="M 93.046154 265.375385 
L 123.092308 265.375385 
L 123.092308 294.646154 
L 93.046154 294.646154 
L 93.046154 265.375385 
" style="fill:#1a102a;"/>
    <path clip-path="url(#pc62311121c)" d="M 123.092308 265.375385 
L 153.138462 265.375385 
L 153.138462 294.646154 
L 123.092308 294.646154 
L 123.092308 265.375385 
" style="fill:#481c48;"/>
    <path clip-path="url(#pc62311121c)" d="M 153.138462 265.375385 
L 183.184615 265.375385 
L 183.184615 294.646154 
L 153.138462 294.646154 
L 153.138462 265.375385 
" style="fill:#251433;"/>
    <path clip-path="url(#pc62311121c)" d="M 183.184615 265.375385 
L 213.230769 265.375385 
L 213.230769 294.646154 
L 183.184615 294.646154 
L 183.184615 265.375385 
" style="fill:#281535;"/>
    <path clip-path="url(#pc62311121c)" d="M 213.230769 265.375385 
L 243.276923 265.375385 
L 243.276923 294.646154 
L 213.230769 294.646154 
L 213.230769 265.375385 
" style="fill:#3f1b43;"/>
    <path clip-path="url(#pc62311121c)" d="M 243.276923 265.375385 
L 273.323077 265.375385 
L 273.323077 294.646154 
L 243.276923 294.646154 
L 243.276923 265.375385 
" style="fill:#a4195b;"/>
    <path clip-path="url(#pc62311121c)" d="M 273.323077 265.375385 
L 303.369231 265.375385 
L 303.369231 294.646154 
L 273.323077 294.646154 
L 273.323077 265.375385 
" style="fill:#f59067;"/>
    <path clip-path="url(#pc62311121c)" d="M 303.369231 265.375385 
L 333.415385 265.375385 
L 333.415385 294.646154 
L 303.369231 294.646154 
L 303.369231 265.375385 
" style="fill:#c51852;"/>
    <path clip-path="url(#pc62311121c)" d="M 333.415385 265.375385 
L 363.461538 265.375385 
L 363.461538 294.646154 
L 333.415385 294.646154 
L 333.415385 265.375385 
" style="fill:#661f54;"/>
    <path clip-path="url(#pc62311121c)" d="M 363.461538 265.375385 
L 393.507692 265.375385 
L 393.507692 294.646154 
L 363.461538 294.646154 
L 363.461538 265.375385 
" style="fill:#921c5b;"/>
    <path clip-path="url(#pc62311121c)" d="M 393.507692 265.375385 
L 423.553846 265.375385 
L 423.553846 294.646154 
L 393.507692 294.646154 
L 393.507692 265.375385 
" style="fill:#631f53;"/>
    <path clip-path="url(#pc62311121c)" d="M 423.553846 265.375385 
L 453.6 265.375385 
L 453.6 294.646154 
L 423.553846 294.646154 
L 423.553846 265.375385 
" style="fill:#33183c;"/>
    <path clip-path="url(#pc62311121c)" d="M 63 294.646154 
L 93.046154 294.646154 
L 93.046154 323.916923 
L 63 323.916923 
L 63 294.646154 
" style="fill:#511e4d;"/>
    <path clip-path="url(#pc62311121c)" d="M 93.046154 294.646154 
L 123.092308 294.646154 
L 123.092308 323.916923 
L 93.046154 323.916923 
L 93.046154 294.646154 
" style="fill:#0d0a21;"/>
    <path clip-path="url(#pc62311121c)" d="M 123.092308 294.646154 
L 153.138462 294.646154 
L 153.138462 323.916923 
L 123.092308 323.916923 
L 123.092308 294.646154 
" style="fill:#20122e;"/>
    <path clip-path="url(#pc62311121c)" d="M 153.138462 294.646154 
L 183.184615 294.646154 
L 183.184615 323.916923 
L 153.138462 323.916923 
L 153.138462 294.646154 
" style="fill:#140e26;"/>
    <path clip-path="url(#pc62311121c)" d="M 183.184615 294.646154 
L 213.230769 294.646154 
L 213.230769 323.916923 
L 183.184615 323.916923 
L 183.184615 294.646154 
" style="fill:#170f28;"/>
    <path clip-path="url(#pc62311121c)" d="M 213.230769 294.646154 
L 243.276923 294.646154 
L 243.276923 323.916923 
L 213.230769 323.916923 
L 213.230769 294.646154 
" style="fill:#160e27;"/>
    <path clip-path="url(#pc62311121c)" d="M 243.276923 294.646154 
L 273.323077 294.646154 
L 273.323077 323.916923 
L 243.276923 323.916923 
L 243.276923 294.646154 
" style="fill:#421b45;"/>
    <path clip-path="url(#pc62311121c)" d="M 273.323077 294.646154 
L 303.369231 294.646154 
L 303.369231 323.916923 
L 273.323077 323.916923 
L 273.323077 294.646154 
" style="fill:#8e1d5b;"/>
    <path clip-path="url(#pc62311121c)" d="M 303.369231 294.646154 
L 333.415385 294.646154 
L 333.415385 323.916923 
L 303.369231 323.916923 
L 303.369231 294.646154 
" style="fill:#cf1e4d;"/>
    <path clip-path="url(#pc62311121c)" d="M 333.415385 294.646154 
L 363.461538 294.646154 
L 363.461538 323.916923 
L 333.415385 323.916923 
L 333.415385 294.646154 
" style="fill:#5b1e51;"/>
    <path clip-path="url(#pc62311121c)" d="M 363.461538 294.646154 
L 393.507692 294.646154 
L 393.507692 323.916923 
L 363.461538 323.916923 
L 363.461538 294.646154 
" style="fill:#5e1f52;"/>
    <path clip-path="url(#pc62311121c)" d="M 393.507692 294.646154 
L 423.553846 294.646154 
L 423.553846 323.916923 
L 393.507692 323.916923 
L 393.507692 294.646154 
" style="fill:#481c48;"/>
    <path clip-path="url(#pc62311121c)" d="M 423.553846 294.646154 
L 453.6 294.646154 
L 453.6 323.916923 
L 423.553846 323.916923 
L 423.553846 294.646154 
" style="fill:#211330;"/>
    <path clip-path="url(#pc62311121c)" d="M 63 323.916923 
L 93.046154 323.916923 
L 93.046154 353.187692 
L 63 353.187692 
L 63 323.916923 
" style="fill:#661f54;"/>
    <path clip-path="url(#pc62311121c)" d="M 93.046154 323.916923 
L 123.092308 323.916923 
L 123.092308 353.187692 
L 93.046154 353.187692 
L 93.046154 323.916923 
" style="fill:#08081e;"/>
    <path clip-path="url(#pc62311121c)" d="M 123.092308 323.916923 
L 153.138462 323.916923 
L 153.138462 353.187692 
L 123.092308 353.187692 
L 123.092308 323.916923 
" style="fill:#1a102a;"/>
    <path clip-path="url(#pc62311121c)" d="M 153.138462 323.916923 
L 183.184615 323.916923 
L 183.184615 353.187692 
L 153.138462 353.187692 
L 153.138462 323.916923 
" style="fill:#160e27;"/>
    <path clip-path="url(#pc62311121c)" d="M 183.184615 323.916923 
L 213.230769 323.916923 
L 213.230769 353.187692 
L 183.184615 353.187692 
L 183.184615 323.916923 
" style="fill:#0b0920;"/>
    <path clip-path="url(#pc62311121c)" d="M 213.230769 323.916923 
L 243.276923 323.916923 
L 243.276923 353.187692 
L 213.230769 353.187692 
L 213.230769 323.916923 
" style="fill:#1d112c;"/>
    <path clip-path="url(#pc62311121c)" d="M 243.276923 323.916923 
L 273.323077 323.916923 
L 273.323077 353.187692 
L 243.276923 353.187692 
L 243.276923 323.916923 
" style="fill:#2a1636;"/>
    <path clip-path="url(#pc62311121c)" d="M 273.323077 323.916923 
L 303.369231 323.916923 
L 303.369231 353.187692 
L 273.323077 353.187692 
L 273.323077 323.916923 
" style="fill:#431c46;"/>
    <path clip-path="url(#pc62311121c)" d="M 303.369231 323.916923 
L 333.415385 323.916923 
L 333.415385 353.187692 
L 303.369231 353.187692 
L 303.369231 323.916923 
" style="fill:#461c48;"/>
    <path clip-path="url(#pc62311121c)" d="M 333.415385 323.916923 
L 363.461538 323.916923 
L 363.461538 353.187692 
L 333.415385 353.187692 
L 333.415385 323.916923 
" style="fill:#bc1656;"/>
    <path clip-path="url(#pc62311121c)" d="M 363.461538 323.916923 
L 393.507692 323.916923 
L 393.507692 353.187692 
L 363.461538 353.187692 
L 363.461538 323.916923 
" style="fill:#711f57;"/>
    <path clip-path="url(#pc62311121c)" d="M 393.507692 323.916923 
L 423.553846 323.916923 
L 423.553846 353.187692 
L 393.507692 353.187692 
L 393.507692 323.916923 
" style="fill:#381a40;"/>
    <path clip-path="url(#pc62311121c)" d="M 423.553846 323.916923 
L 453.6 323.916923 
L 453.6 353.187692 
L 423.553846 353.187692 
L 423.553846 323.916923 
" style="fill:#130d25;"/>
    <path clip-path="url(#pc62311121c)" d="M 63 353.187692 
L 93.046154 353.187692 
L 93.046154 382.458462 
L 63 382.458462 
L 63 353.187692 
" style="fill:#130d25;"/>
    <path clip-path="url(#pc62311121c)" d="M 93.046154 353.187692 
L 123.092308 353.187692 
L 123.092308 382.458462 
L 93.046154 382.458462 
L 93.046154 353.187692 
" style="fill:#08081e;"/>
    <path clip-path="url(#pc62311121c)" d="M 123.092308 353.187692 
L 153.138462 353.187692 
L 153.138462 382.458462 
L 123.092308 382.458462 
L 123.092308 353.187692 
" style="fill:#140e26;"/>
    <path clip-path="url(#pc62311121c)" d="M 153.138462 353.187692 
L 183.184615 353.187692 
L 183.184615 382.458462 
L 153.138462 382.458462 
L 153.138462 353.187692 
" style="fill:#05061b;"/>
    <path clip-path="url(#pc62311121c)" d="M 183.184615 353.187692 
L 213.230769 353.187692 
L 213.230769 382.458462 
L 183.184615 382.458462 
L 183.184615 353.187692 
" style="fill:#100b23;"/>
    <path clip-path="url(#pc62311121c)" d="M 213.230769 353.187692 
L 243.276923 353.187692 
L 243.276923 382.458462 
L 213.230769 382.458462 
L 213.230769 353.187692 
" style="fill:#0e0b22;"/>
    <path clip-path="url(#pc62311121c)" d="M 243.276923 353.187692 
L 273.323077 353.187692 
L 273.323077 382.458462 
L 243.276923 382.458462 
L 243.276923 353.187692 
" style="fill:#140e26;"/>
    <path clip-path="url(#pc62311121c)" d="M 273.323077 353.187692 
L 303.369231 353.187692 
L 303.369231 382.458462 
L 273.323077 382.458462 
L 273.323077 353.187692 
" style="fill:#30173a;"/>
    <path clip-path="url(#pc62311121c)" d="M 303.369231 353.187692 
L 333.415385 353.187692 
L 333.415385 382.458462 
L 303.369231 382.458462 
L 303.369231 353.187692 
" style="fill:#431c46;"/>
    <path clip-path="url(#pc62311121c)" d="M 333.415385 353.187692 
L 363.461538 353.187692 
L 363.461538 382.458462 
L 333.415385 382.458462 
L 333.415385 353.187692 
" style="fill:#421b45;"/>
    <path clip-path="url(#pc62311121c)" d="M 363.461538 353.187692 
L 393.507692 353.187692 
L 393.507692 382.458462 
L 363.461538 382.458462 
L 363.461538 353.187692 
" style="fill:#701f57;"/>
    <path clip-path="url(#pc62311121c)" d="M 393.507692 353.187692 
L 423.553846 353.187692 
L 423.553846 382.458462 
L 393.507692 382.458462 
L 393.507692 353.187692 
" style="fill:#3a1a41;"/>
    <path clip-path="url(#pc62311121c)" d="M 423.553846 353.187692 
L 453.6 353.187692 
L 453.6 382.458462 
L 423.553846 382.458462 
L 423.553846 353.187692 
" style="fill:#160e27;"/>
    <path clip-path="url(#pc62311121c)" d="M 63 382.458462 
L 93.046154 382.458462 
L 93.046154 411.729231 
L 63 411.729231 
L 63 382.458462 
" style="fill:#241432;"/>
    <path clip-path="url(#pc62311121c)" d="M 93.046154 382.458462 
L 123.092308 382.458462 
L 123.092308 411.729231 
L 93.046154 411.729231 
L 93.046154 382.458462 
" style="fill:#03051a;"/>
    <path clip-path="url(#pc62311121c)" d="M 123.092308 382.458462 
L 153.138462 382.458462 
L 153.138462 411.729231 
L 123.092308 411.729231 
L 123.092308 382.458462 
" style="fill:#07071d;"/>
    <path clip-path="url(#pc62311121c)" d="M 153.138462 382.458462 
L 183.184615 382.458462 
L 183.184615 411.729231 
L 153.138462 411.729231 
L 153.138462 382.458462 
" style="fill:#140e26;"/>
    <path clip-path="url(#pc62311121c)" d="M 183.184615 382.458462 
L 213.230769 382.458462 
L 213.230769 411.729231 
L 183.184615 411.729231 
L 183.184615 382.458462 
" style="fill:#0e0b22;"/>
    <path clip-path="url(#pc62311121c)" d="M 213.230769 382.458462 
L 243.276923 382.458462 
L 243.276923 411.729231 
L 213.230769 411.729231 
L 213.230769 382.458462 
" style="fill:#0e0b22;"/>
    <path clip-path="url(#pc62311121c)" d="M 243.276923 382.458462 
L 273.323077 382.458462 
L 273.323077 411.729231 
L 243.276923 411.729231 
L 243.276923 382.458462 
" style="fill:#251433;"/>
    <path clip-path="url(#pc62311121c)" d="M 273.323077 382.458462 
L 303.369231 382.458462 
L 303.369231 411.729231 
L 273.323077 411.729231 
L 273.323077 382.458462 
" style="fill:#2d1738;"/>
    <path clip-path="url(#pc62311121c)" d="M 303.369231 382.458462 
L 333.415385 382.458462 
L 333.415385 411.729231 
L 303.369231 411.729231 
L 303.369231 382.458462 
" style="fill:#3d1a42;"/>
    <path clip-path="url(#pc62311121c)" d="M 333.415385 382.458462 
L 363.461538 382.458462 
L 363.461538 411.729231 
L 333.415385 411.729231 
L 333.415385 382.458462 
" style="fill:#241432;"/>
    <path clip-path="url(#pc62311121c)" d="M 363.461538 382.458462 
L 393.507692 382.458462 
L 393.507692 411.729231 
L 363.461538 411.729231 
L 363.461538 382.458462 
" style="fill:#5b1e51;"/>
    <path clip-path="url(#pc62311121c)" d="M 393.507692 382.458462 
L 423.553846 382.458462 
L 423.553846 411.729231 
L 393.507692 411.729231 
L 393.507692 382.458462 
" style="fill:#7a1f59;"/>
    <path clip-path="url(#pc62311121c)" d="M 423.553846 382.458462 
L 453.6 382.458462 
L 453.6 411.729231 
L 423.553846 411.729231 
L 423.553846 382.458462 
" style="fill:#31183b;"/>
    <path clip-path="url(#pc62311121c)" d="M 63 411.729231 
L 93.046154 411.729231 
L 93.046154 441 
L 63 441 
L 63 411.729231 
" style="fill:#2d1738;"/>
    <path clip-path="url(#pc62311121c)" d="M 93.046154 411.729231 
L 123.092308 411.729231 
L 123.092308 441 
L 93.046154 441 
L 93.046154 411.729231 
" style="fill:#0d0a21;"/>
    <path clip-path="url(#pc62311121c)" d="M 123.092308 411.729231 
L 153.138462 411.729231 
L 153.138462 441 
L 123.092308 441 
L 123.092308 411.729231 
" style="fill:#0d0a21;"/>
    <path clip-path="url(#pc62311121c)" d="M 153.138462 411.729231 
L 183.184615 411.729231 
L 183.184615 441 
L 153.138462 441 
L 153.138462 411.729231 
" style="fill:#211330;"/>
    <path clip-path="url(#pc62311121c)" d="M 183.184615 411.729231 
L 213.230769 411.729231 
L 213.230769 441 
L 183.184615 441 
L 183.184615 411.729231 
" style="fill:#211330;"/>
    <path clip-path="url(#pc62311121c)" d="M 213.230769 411.729231 
L 243.276923 411.729231 
L 243.276923 441 
L 213.230769 441 
L 213.230769 411.729231 
" style="fill:#180f29;"/>
    <path clip-path="url(#pc62311121c)" d="M 243.276923 411.729231 
L 273.323077 411.729231 
L 273.323077 441 
L 243.276923 441 
L 243.276923 411.729231 
" style="fill:#241432;"/>
    <path clip-path="url(#pc62311121c)" d="M 273.323077 411.729231 
L 303.369231 411.729231 
L 303.369231 441 
L 273.323077 441 
L 273.323077 411.729231 
" style="fill:#33183c;"/>
    <path clip-path="url(#pc62311121c)" d="M 303.369231 411.729231 
L 333.415385 411.729231 
L 333.415385 441 
L 303.369231 441 
L 303.369231 411.729231 
" style="fill:#271534;"/>
    <path clip-path="url(#pc62311121c)" d="M 333.415385 411.729231 
L 363.461538 411.729231 
L 363.461538 441 
L 333.415385 441 
L 333.415385 411.729231 
" style="fill:#0e0b22;"/>
    <path clip-path="url(#pc62311121c)" d="M 363.461538 411.729231 
L 393.507692 411.729231 
L 393.507692 441 
L 363.461538 441 
L 363.461538 411.729231 
" style="fill:#2a1636;"/>
    <path clip-path="url(#pc62311121c)" d="M 393.507692 411.729231 
L 423.553846 411.729231 
L 423.553846 441 
L 393.507692 441 
L 393.507692 411.729231 
" style="fill:#37193f;"/>
    <path clip-path="url(#pc62311121c)" d="M 423.553846 411.729231 
L 453.6 411.729231 
L 453.6 441 
L 423.553846 441 
L 423.553846 411.729231 
" style="fill:#faebdd;"/>
   </g>
  </g>
 </g>
 <defs>
  <clipPath id="pc62311121c">
   <rect height="380.52" width="390.6" x="63" y="60.48"/>
  </clipPath>
 </defs>
</svg>
